<svg width="149" height="135" viewBox="0 0 149 135" fill="none" xmlns="http://www.w3.org/2000/svg">
<path d="M137 54.0001C137.002 43.7132 133.629 33.7096 127.398 25.5248C121.167 17.34 112.422 11.4263 102.505 8.69122C92.5885 5.95619 82.0483 6.55102 72.5024 10.3844C62.9565 14.2178 54.9323 21.078 49.6615 29.9119L53.38 31.4923C59.0836 22.2271 68.0884 15.4694 78.5782 12.5821C89.0681 9.69469 100.263 10.8925 109.904 15.9338C119.546 20.9752 126.917 29.4851 130.531 39.7472C134.145 50.0094 133.734 61.2603 129.379 71.2309C125.025 81.2015 117.051 89.1499 107.067 93.4733C97.083 97.7966 85.8309 98.1731 75.5801 94.5269C65.3293 90.8807 56.8425 83.483 51.8312 73.8259C46.8199 64.1687 45.6571 52.9705 48.5772 42.4897L44.8678 40.9132C41.7348 51.685 42.5631 63.2227 47.2026 73.4366C51.8421 83.6505 59.986 91.8651 70.1594 96.5928L55.1567 132.224C55.0548 132.466 55.0016 132.726 55.0001 132.989C54.9986 133.251 55.0488 133.512 55.1479 133.755C55.2471 133.998 55.3931 134.219 55.5778 134.406C55.7624 134.593 55.982 134.741 56.2241 134.843C56.4661 134.945 56.7259 134.998 56.9885 135C57.2511 135.001 57.5115 134.951 57.7547 134.852C57.9979 134.753 58.2192 134.607 58.406 134.422C58.5927 134.238 58.7413 134.018 58.8432 133.776L73.8477 98.1401C83.6816 101.738 94.4357 101.947 104.402 98.7339L119.156 133.776C119.362 134.265 119.754 134.652 120.245 134.852C120.736 135.052 121.287 135.049 121.775 134.843C122.264 134.638 122.651 134.246 122.852 133.755C123.052 133.264 123.049 132.713 122.843 132.224L108.158 97.3476C116.697 93.7609 123.988 87.7351 129.118 80.0246C134.248 72.314 136.99 63.2614 137 54.0001Z" fill="black"/>
<path d="M57.8831 46.4446C55.9896 54.4643 57.1615 62.902 61.1689 70.1021C65.1762 77.3022 71.7296 82.7447 79.5432 85.3617C87.3567 87.9787 95.8662 87.5812 103.402 84.2472C110.937 80.9132 116.955 74.8834 120.273 67.3411C123.592 59.7988 123.972 51.2885 121.339 43.4803C118.706 35.6721 113.25 29.1298 106.042 25.1371C98.834 21.1445 90.3939 19.9898 82.3781 21.8997C74.3624 23.8095 67.3498 28.6461 62.7164 35.4601L66.4834 37.0611C70.6652 31.2857 76.8373 27.2631 83.8096 25.7692C90.7818 24.2752 98.0602 25.4158 104.241 28.9708C110.422 32.5258 115.068 38.2436 117.283 45.0214C119.498 51.7992 119.124 59.157 116.235 65.6759C113.346 72.1947 108.145 77.4129 101.636 80.3241C95.1267 83.2353 87.7702 83.6334 80.985 81.4414C74.1998 79.2495 68.4664 74.6229 64.8906 68.4538C61.3149 62.2848 60.1499 55.0102 61.6204 48.033L57.8831 46.4446Z" fill="black"/>
<path d="M71.0983 52.061C70.7063 55.8816 71.4813 59.7313 73.3212 63.1026C75.161 66.4739 77.9794 69.2085 81.4047 70.9458C84.83 72.6831 88.7013 73.3416 92.5084 72.8344C96.3154 72.3273 99.8794 70.6783 102.73 68.1049C105.581 65.5315 107.586 62.1545 108.479 58.4192C109.372 54.6838 109.112 50.7654 107.734 47.1807C106.355 43.5959 103.923 40.5131 100.757 38.3386C97.5911 36.1641 93.8406 35.0001 90 35C87.3788 35.0015 84.7864 35.5472 82.3872 36.6028C79.9879 37.6583 77.8339 39.2005 76.0617 41.1319L80.0344 42.8203C82.598 40.5444 85.8647 39.2167 89.2892 39.0589C92.7137 38.9012 96.0886 39.9228 98.8507 41.9534C101.613 43.9839 103.595 46.9005 104.466 50.2161C105.336 53.5318 105.044 57.0458 103.636 60.1716C102.229 63.2974 99.7914 65.8458 96.7314 67.3913C93.6715 68.9369 90.174 69.386 86.8228 68.6638C83.4717 67.9415 80.4697 66.0916 78.318 63.4229C76.1663 60.7541 74.9952 57.4281 75.0001 54C75.0001 53.9072 75.0123 53.8175 75.014 53.7252L71.0983 52.061Z" fill="black"/>
<path d="M82.5745 55.0459C82.3179 55.1017 82.0748 55.2075 81.8591 55.3573C81.6434 55.5071 81.4593 55.6979 81.3173 55.9189C81.1753 56.1398 81.0783 56.3866 81.0317 56.6451C80.9851 56.9035 80.9899 57.1686 81.0457 57.4252C81.1739 57.9347 81.4911 58.3763 81.9331 58.6602C82.375 58.9442 82.9085 59.0493 83.4251 58.9541L93.4251 56.7773C93.7401 56.7087 94.0338 56.5651 94.2813 56.3585C94.5287 56.1519 94.7226 55.8886 94.8464 55.5909C94.9702 55.2933 95.0202 54.9701 94.9921 54.649C94.9641 54.3279 94.8588 54.0183 94.6853 53.7466L89.6868 45.9233C89.5454 45.702 89.3618 45.5107 89.1465 45.3603C88.9312 45.2099 88.6883 45.1034 88.4318 45.0468C88.1753 44.9903 87.9102 44.9848 87.6516 45.0307C87.393 45.0767 87.146 45.1731 86.9246 45.3145C86.7033 45.4558 86.5119 45.6394 86.3615 45.8548C86.2111 46.0701 86.1046 46.313 86.0481 46.5695C85.9916 46.8259 85.9861 47.0911 86.032 47.3497C86.0779 47.6083 86.1743 47.8553 86.3157 48.0767L87.8587 50.4918L28.6472 25.3268L27.3526 19.521C27.2861 19.2228 27.1522 18.9437 26.9611 18.7053C26.7699 18.4669 26.5267 18.2754 26.2501 18.1455L15.6906 13.1894C15.3522 13.0306 14.9759 12.9698 14.6047 13.014C14.2334 13.0582 13.8819 13.2056 13.5902 13.4394C13.2984 13.6732 13.0781 13.9842 12.9541 14.3369C12.8302 14.6897 12.8076 15.0701 12.8889 15.435L13.6759 18.9639L11.7824 18.1592C11.5407 18.0564 11.2811 18.0023 11.0184 17.9999C10.7558 17.9976 10.4952 18.0469 10.2516 18.1452C10.0081 18.2435 9.78624 18.3888 9.59883 18.5729C9.41142 18.7569 9.26209 18.976 9.15936 19.2178C8.95191 19.706 8.94689 20.2566 9.14541 20.7485C9.34394 21.2404 9.72975 21.6333 10.218 21.8408L12.2466 22.7029L9.84105 24.4141C9.55625 24.6165 9.32947 24.8901 9.18331 25.2075C9.03716 25.5249 8.97673 25.8751 9.00805 26.2232C9.03936 26.5712 9.16133 26.905 9.3618 27.1912C9.56227 27.4774 9.83425 27.7061 10.1506 27.8545L20.7101 32.8105C21.032 32.9567 21.3863 33.0169 21.7384 32.9852C22.0904 32.9536 22.4283 32.8311 22.7189 32.6299L27.5379 29.2019L86.3919 54.2149L82.5745 55.0459ZM21.3522 28.6934L14.9504 25.6885L16.5664 24.5389L23.2182 27.3659L21.3522 28.6934ZM18.2031 20.8879L17.6799 18.5415L23.6623 21.3496L24.1201 23.4027L18.2031 20.8879Z" fill="black"/>
</svg>
