<svg width="120" height="184" viewBox="0 0 120 184" fill="none" xmlns="http://www.w3.org/2000/svg">
<path d="M63.029 35.1765C64.0521 33.5446 65.4118 31.8665 66.8423 30.2579C68.2878 28.629 69.7912 27.1049 71.3719 25.4985C73.0389 23.824 74.6274 22.0204 76.0632 19.9658C77.4477 17.9002 78.8808 15.5605 79.1424 12.1954C79.2404 10.5219 78.7942 8.59395 77.8285 7.10725C76.879 5.61131 75.6229 4.56355 74.4261 3.82028C72.0045 2.37007 69.661 1.71461 67.4111 1.20905C65.1588 0.731505 62.9735 0.463357 60.8321 0.283784C56.5549 -0.0488648 52.4448 -0.0506819 48.4708 0.0830137C32.5964 0.719694 18.7804 2.91182 7.40612 4.82292C-1.46078 6.40713 -1.39583 8.25933 2.54554 9.2491C6.47918 10.2714 14.2355 10.6878 21.0591 9.72317C27.7869 8.76277 34.5327 7.96575 41.2645 7.45822C47.9803 6.97507 54.7487 6.70949 61.2133 7.30938C64.3984 7.6172 67.6349 8.18438 69.998 9.30285C71.1524 9.86201 71.8953 10.5505 72.0632 11.0062C72.2805 11.4096 72.2905 12.1724 71.8496 13.3196C70.9694 15.5979 68.8668 18.1505 66.6509 20.4197C64.2785 22.8262 61.7526 25.415 59.4778 28.2766C58.3342 29.7345 57.214 31.244 56.2472 33.2154C56.0028 33.6907 55.7846 34.2607 55.581 34.8322C55.3519 35.5741 55.1748 36.4026 55.1501 37.2575C55.0747 38.9493 55.7114 40.6265 56.9042 41.814C58.0192 43.0267 59.9577 43.7689 60.8752 43.9783C61.9764 44.2687 62.9769 44.4099 63.9485 44.5193C65.8743 44.7146 67.6731 44.7488 69.4352 44.7585C76.3842 44.7803 83.1981 44.3895 89.0123 45.8968C91.882 46.6599 94.1348 47.9878 95.2127 49.8887C95.7602 50.8559 96.1036 52.0135 96.2237 53.3353C96.3233 54.5925 96.2486 56.2984 96.0975 57.8146C95.4896 64.0633 93.3549 70.3249 90.4399 76.1409C89.1728 78.6522 87.7273 81.0937 86.1641 83.4413C83.9403 81.089 81.4517 78.8607 78.3389 77.0662C76.212 75.9135 73.7201 74.7727 70.4824 75.036C68.8935 75.2397 67.151 75.9176 65.969 77.0907C65.671 77.3746 65.3508 77.6601 65.0915 77.9627L64.4343 78.9122C63.9548 79.5564 63.7125 80.2023 63.4278 80.8563C62.4247 83.4563 62.0863 86.0004 62.0439 88.4256C61.9749 90.8768 62.0406 93.3099 62.7006 95.9838C62.8399 96.6402 63.0334 97.3116 63.3497 98.0091L63.7817 99.0363L64.4405 100.078C65.2808 101.454 66.9115 102.789 68.733 103.297C70.6141 103.904 72.294 103.568 73.8092 103.245C75.2476 102.807 76.5359 102.215 77.7036 101.537C80.0377 100.175 81.9721 98.5206 83.7804 96.7745C84.7863 95.8052 85.7305 94.7916 86.6412 93.7531C89.7908 98.1336 92.4373 102.935 94.3819 107.971C96.76 114.04 98.0978 120.348 98.0423 126.778V167.32C98.0108 167.263 97.9758 167.198 97.9463 167.144L96.6466 164.757C94.9108 161.594 93.2113 158.497 91.5993 155.559C88.3432 149.702 85.4422 144.484 83.3188 140.664C81.3736 137.187 77.0966 143.836 78.6154 146.552L99.1518 183.272L119.738 143.951C120.777 141.965 118.504 141.248 116.799 141.228C115.838 141.217 113.034 145.233 109.298 151.397C107.43 154.48 105.33 158.099 103.11 162.02C103.001 162.215 102.883 162.426 102.773 162.622C103.118 154.912 103.41 143.15 103.658 128.462C103.768 125.339 103.691 121.643 103.138 118.108C102.609 114.52 101.704 110.87 100.439 107.229C98.2015 100.941 95 94.6272 90.6051 88.7252C92.887 85.5383 94.9056 82.1666 96.6581 78.6357C98.8823 74.1844 100.668 69.464 101.814 64.4998C102.407 62.0261 102.778 59.472 102.956 56.8816C103.128 54.4118 103.143 51.3403 102.002 48.4246C100.943 45.4597 98.5614 42.9152 96.0014 41.458C93.4279 39.9441 90.7549 39.2098 88.1903 38.7275C83.0422 37.8095 78.1301 37.8713 73.407 37.8816C71.0538 37.892 68.7324 37.9226 66.559 37.8184C65.4778 37.7656 64.4253 37.6766 63.5164 37.5146C63.0519 37.4405 62.6622 37.33 62.3272 37.2264C62.1054 37.1469 62.1401 37.1528 62.1271 37.1435C62.1047 37.1198 62.0972 37.0995 62.1112 37.0556C62.0962 37.0947 62.227 36.6982 62.4002 36.3389C62.5589 35.9785 62.7981 35.5753 63.029 35.1765ZM79.3013 91.9497C77.0988 94.1201 74.5218 96.1498 72.2804 96.8741C71.1499 97.2219 70.5337 97.1162 70.2704 96.9309C69.9326 96.7784 69.3765 95.8901 69.0343 94.6752C68.3744 92.1925 68.3096 88.7588 68.6729 85.9365C68.8297 84.493 69.2618 83.2396 69.7408 82.4199C70.2754 81.5856 70.583 81.4233 71.2665 81.3202C71.9645 81.213 73.1791 81.4883 74.3881 82.0928C75.607 82.6387 76.8567 83.4769 78.0549 84.4091C79.5897 85.618 81.0446 87.0184 82.4283 88.516C81.4299 89.7145 80.3901 90.8663 79.3013 91.9497Z" fill="#FFBA08"/>
</svg>
