<svg width="60" height="20" viewBox="0 0 60 20" fill="none" xmlns="http://www.w3.org/2000/svg">
<path d="M58.5596 8.87237L4.89353 8.87237L13.9774 1.91513C14.5421 1.48257 14.5449 0.779659 13.9851 0.344137C13.7038 0.124895 13.3331 0.0160141 12.9634 0.0160141C12.5966 0.0160141 12.2298 0.124155 11.9484 0.338953L0.425518 9.16346C-0.139107 9.59602 -0.141983 10.2989 0.417839 10.7345L11.8563 19.6241C12.4161 20.0604 13.3283 20.0619 13.8929 19.6301C14.4576 19.1982 14.4614 18.4946 13.9006 18.0591L4.93962 11.0952L58.5596 11.0952C59.3557 11.0952 60 10.5974 60 9.98414C60 9.37085 59.3557 8.87237 58.5596 8.87237Z" fill="black" fill-opacity="0.6"/>
</svg>
