<svg width="60" height="20" viewBox="0 0 60 20" fill="none" xmlns="http://www.w3.org/2000/svg">
<path d="M1.44037 10.9895H55.1065L46.0226 17.8898C45.4579 18.3188 45.4551 19.016 46.0149 19.4479C46.2962 19.6654 46.6669 19.7734 47.0366 19.7734C47.4034 19.7734 47.7702 19.6661 48.0516 19.4531L59.5745 10.7008C60.1391 10.2718 60.142 9.57466 59.5822 9.1427L48.1437 0.325809C47.5839 -0.106881 46.6717 -0.10835 46.1071 0.319933C45.5424 0.748215 45.5386 1.4461 46.0994 1.87806L55.0604 8.78495H1.44037C0.644324 8.78495 0 9.27861 0 9.88687C0 10.4951 0.644324 10.9895 1.44037 10.9895Z" fill="black" fill-opacity="0.6"/>
</svg>
