<svg width="73" height="87" viewBox="0 0 73 87" fill="none" xmlns="http://www.w3.org/2000/svg">
<path d="M23.5169 33.878C17.8209 43.553 22.4959 51.296 24.0569 53.437C22.1479 56.949 20.6769 60.81 20.1629 64.867C20.0459 65.791 20.7009 66.635 21.6249 66.752C21.6969 66.762 21.7679 66.766 21.8389 66.766C22.6759 66.766 23.4029 66.143 23.5109 65.291C25.3339 50.891 41.2329 38.449 41.3929 38.325C42.1299 37.755 42.2659 36.695 41.6969 35.958C41.1269 35.221 40.0679 35.083 39.3309 35.653C38.8679 36.01 31.4809 41.787 25.9679 50.24C24.4969 47.717 22.4659 42.315 26.4249 35.59C28.8899 31.4 32.7289 30.734 37.1749 29.962C40.4379 29.397 44.0539 28.769 47.3039 26.574C48.3469 31.565 49.9449 42.74 45.1609 49.318C42.7749 52.599 38.9859 54.345 33.8989 54.506C32.9679 54.535 32.2359 55.313 32.2659 56.244C32.2949 57.158 33.0439 57.879 33.9519 57.879C33.9699 57.879 33.9879 57.879 34.0059 57.879C40.1929 57.684 44.8649 55.469 47.8959 51.297C55.1279 41.339 50.1549 23.836 49.9399 23.095C49.7729 22.525 49.3189 22.082 48.7439 21.933C48.1659 21.785 47.5559 21.948 47.1329 22.368C44.1389 25.33 40.4769 25.966 36.5979 26.638C31.7689 27.475 26.7749 28.341 23.5169 33.878Z" fill="black"/>
<path d="M21.888 76.617C22.103 76.709 22.328 76.752 22.548 76.752C23.204 76.752 23.828 76.367 24.102 75.725C24.467 74.868 24.068 73.877 23.21 73.512C9.91198 67.846 2.01898 54.375 3.56798 39.988C5.33998 23.533 19.119 11.235 35.245 10.865L31.078 14.221C30.352 14.806 30.238 15.868 30.822 16.594C31.155 17.008 31.644 17.223 32.137 17.223C32.509 17.223 32.883 17.101 33.195 16.85L40.866 10.672C41.215 10.391 41.437 9.98402 41.485 9.53802C41.533 9.09202 41.402 8.64702 41.122 8.29902L34.943 0.629017C34.359 -0.0969828 33.297 -0.210983 32.57 0.373017C31.844 0.958017 31.73 2.02002 32.315 2.74602L36.122 7.47202C17.92 7.40202 2.20298 21.145 0.212977 39.626C-1.49702 55.5 7.21398 70.365 21.888 76.617Z" fill="black"/>
<path d="M48.5059 13.323C61.7989 18.82 70.0059 32.66 68.4649 46.981C66.6909 63.434 52.9059 75.723 36.7869 76.1L40.9529 72.746C41.6789 72.16 41.7929 71.1 41.2089 70.373C40.6239 69.646 39.5629 69.533 38.8359 70.117L31.1639 76.295C30.8149 76.576 30.5919 76.983 30.5439 77.428C30.4959 77.873 30.6269 78.319 30.9079 78.668L37.0879 86.338C37.4219 86.752 37.9099 86.967 38.4019 86.967C38.7739 86.967 39.1479 86.844 39.4609 86.594C40.1869 86.008 40.3009 84.946 39.7159 84.221L35.9059 79.492C35.9509 79.492 35.9959 79.496 36.0409 79.496C54.1809 79.494 69.8329 65.777 71.8199 47.342C73.5199 31.542 64.4639 16.27 49.7959 10.204C48.9359 9.84999 47.9469 10.258 47.5919 11.119C47.2359 11.98 47.6449 12.966 48.5059 13.323Z" fill="black"/>
</svg>
