<svg width="300" height="306" viewBox="0 0 300 306" fill="none" xmlns="http://www.w3.org/2000/svg">
<path fill-rule="evenodd" clip-rule="evenodd" d="M139.229 21.554C162.659 21.5807 183.463 -3.99546 206.032 2.29978C227.719 8.34923 236.248 34.7597 250.128 52.488C263.289 69.2982 278.001 84.8695 286.133 104.61C294.546 125.034 297.211 146.974 298.139 169.044C299.155 193.183 304.15 219.662 291.848 240.457C279.54 261.263 255.227 272.836 232.265 280.396C211.278 287.305 188.413 277.482 166.715 281.654C145.52 285.728 128.37 302.432 106.887 304.5C82.9064 306.809 56.076 307.757 36.1457 294.223C16.2577 280.718 4.74876 256.041 0.642416 232.355C-3.27919 209.734 11.9586 188.403 13.8338 165.521C15.3494 147.027 5.052 128.255 10.6241 110.556C16.2021 92.8375 35.5691 83.4241 44.761 67.2826C56.5585 46.5656 50.8993 12.5348 72.358 2.14745C93.4799 -8.0769 115.762 21.5273 139.229 21.554Z" fill="#0D0630"/>
</svg>
