<svg width="300" height="281" viewBox="0 0 300 281" fill="none" xmlns="http://www.w3.org/2000/svg">
<path fill-rule="evenodd" clip-rule="evenodd" d="M147.578 1.26141C179.805 -2.76448 214.944 2.42538 240.121 22.9413C264.781 43.0357 268.536 77.567 278.354 107.824C288.167 138.067 307.103 168.718 297.228 198.94C287.358 229.152 256.181 246.204 228.21 261.296C203.34 274.716 175.749 281.924 147.578 279.691C120.993 277.583 98.5423 263.02 75.7294 249.207C50.5834 233.982 20.7707 222.221 8.52487 195.497C-4.27468 167.565 -1.71412 134.026 9.91815 105.588C21.0751 78.3114 46.9488 61.9384 70.4358 44.1387C94.4706 25.9238 117.654 4.99965 147.578 1.26141Z" fill="#FFBA08"/>
</svg>
