<svg width="106" height="102" viewBox="0 0 106 102" fill="none" xmlns="http://www.w3.org/2000/svg">
<path d="M98.613 49.307C98.613 23.773 77.84 3 52.306 3C26.772 3 6 23.773 6 49.307C6 74.841 26.773 95.614 52.307 95.614C77.841 95.614 98.613 74.841 98.613 49.307ZM11.788 49.307C11.788 26.965 29.965 8.788 52.307 8.788C74.649 8.788 92.826 26.965 92.826 49.307C92.826 71.649 74.648 89.826 52.306 89.826C29.964 89.826 11.788 71.649 11.788 49.307Z" fill="white"/>
<path d="M78.685 49.4081C78.685 51.0061 79.981 52.3021 81.579 52.3021C83.177 52.3021 84.473 51.0061 84.473 49.4081C84.473 31.4891 69.895 16.9111 51.976 16.9111C50.378 16.9111 49.082 18.2071 49.082 19.8051C49.082 21.4031 50.378 22.6991 51.976 22.6991C66.704 22.6981 78.685 34.6801 78.685 49.4081Z" fill="white"/>
</svg>
