<svg width="73" height="94" viewBox="0 0 73 94" fill="none" xmlns="http://www.w3.org/2000/svg">
<path d="M66.2503 55.62C66.1703 55.14 65.8703 54.73 65.4403 54.52L59.9103 51.75V14.5C59.9103 13.67 59.2403 13 58.4103 13H13.8603C13.0303 13 12.3603 13.67 12.3603 14.5V51.75L6.83029 54.52C6.40029 54.74 6.10029 55.15 6.02029 55.62C5.94029 56.09 6.10029 56.58 6.44029 56.92L35.0803 85.56C35.3703 85.85 35.7603 86 36.1403 86C36.5203 86 36.9103 85.85 37.2003 85.56L65.8403 56.92C66.1803 56.58 66.3403 56.1 66.2603 55.62H66.2503ZM36.1303 82.38L10.0303 56.28L14.5303 54.03C15.0403 53.78 15.3603 53.26 15.3603 52.69V16H56.9103V52.68C56.9103 53.25 57.2303 53.77 57.7403 54.02L62.2403 56.27L36.1403 82.37L36.1303 82.38Z" fill="black"/>
<path d="M44.7219 27.1484C40.9719 27.1484 37.9219 30.1984 37.9219 33.9484C37.9219 37.6984 40.9719 40.7484 44.7219 40.7484C48.4719 40.7484 51.5219 37.6984 51.5219 33.9484C51.5219 30.1984 48.4719 27.1484 44.7219 27.1484ZM44.7219 37.7484C42.6219 37.7484 40.9219 36.0484 40.9219 33.9484C40.9219 31.8484 42.6219 30.1484 44.7219 30.1484C46.8219 30.1484 48.5219 31.8484 48.5219 33.9484C48.5219 36.0484 46.8219 37.7484 44.7219 37.7484Z" fill="black"/>
<path d="M27.5422 44.3281C23.7922 44.3281 20.7422 47.3781 20.7422 51.1281C20.7422 54.8781 23.7922 57.9281 27.5422 57.9281C31.2922 57.9281 34.3422 54.8781 34.3422 51.1281C34.3422 47.3781 31.2922 44.3281 27.5422 44.3281ZM27.5422 54.9281C25.4422 54.9281 23.7422 53.2281 23.7422 51.1281C23.7422 49.0281 25.4422 47.3281 27.5422 47.3281C29.6422 47.3281 31.3422 49.0281 31.3422 51.1281C31.3422 53.2281 29.6422 54.9281 27.5422 54.9281Z" fill="black"/>
<path d="M26.5313 30.8175C25.9413 30.2275 24.9912 30.2275 24.4112 30.8175C23.8213 31.4075 23.8213 32.3575 24.4112 32.9375L45.7213 54.2475C46.0113 54.5375 46.4013 54.6875 46.7813 54.6875C47.1613 54.6875 47.5512 54.5375 47.8412 54.2475C48.4312 53.6575 48.4312 52.7075 47.8412 52.1275L26.5313 30.8175Z" fill="black"/>
</svg>
