<svg width="94" height="141" viewBox="0 0 94 141" fill="none" xmlns="http://www.w3.org/2000/svg">
<path d="M66.8111 125.349C67.2619 117.788 67.8262 110.247 68.1248 102.695C68.3535 96.9092 68.0545 91.1008 68.3305 85.3187C68.8573 74.2836 69.8868 63.2677 70.2131 52.2293C70.4769 43.306 70.1389 34.3567 69.8174 25.4279C69.6983 21.5218 69.2093 17.6357 68.3568 13.8218C66.906 7.52734 63.6894 4.87226 57.2975 4.7157C47.537 4.47664 37.7623 4.32438 28.0056 4.58478C19.8791 4.80167 11.7723 5.70537 3.64971 6.18489C2.66793 6.01859 1.72829 5.66143 0.883931 5.1336C1.3895 4.34259 2.07429 3.68181 2.88283 3.20478C5.69713 2.50256 8.56901 2.05549 11.4636 1.86902C23.5026 1.42066 35.5466 1.02819 47.592 0.885779C52.3632 0.881732 57.1288 1.21225 61.8537 1.87491C63.8132 2.05112 65.6867 2.76196 67.2698 3.92991C68.853 5.09787 70.0851 6.6781 70.8317 8.49828C73.941 15.465 73.5823 22.9266 73.9821 30.1955C74.7944 42.9352 74.2613 55.7251 72.3916 68.3531C71.5192 73.9345 72.2875 79.7574 72.0927 85.4632C71.7812 94.5827 71.0971 103.693 70.9428 112.813C70.9009 118.364 71.4264 123.905 72.5112 129.349C75.885 122.986 79.0706 116.513 82.6863 110.29C86.2049 104.234 88.6795 97.5804 92.0258 91.4267L93.882 92.0957C93.7625 93.8562 94.1489 95.8597 93.4394 97.3368C89.5378 105.458 85.3279 113.431 81.3062 121.495C79.0276 126.065 76.9067 130.713 74.7159 135.326C74.2569 136.466 73.7188 137.573 73.1054 138.638C72.4574 139.454 71.7332 140.207 70.9426 140.886C70.0017 140.174 69.1808 139.316 68.5109 138.345C64.5712 129.868 60.8063 121.31 56.8614 112.836C55.7983 110.874 54.6163 108.978 53.3218 107.16C52.7171 106.508 52.2792 105.72 52.0458 104.862C52.1898 103.556 52.4833 102.27 52.9205 101.03C53.8559 101.616 55.2132 101.978 55.6597 102.822C59.2462 109.604 62.6687 116.472 66.1151 123.327C66.3963 123.983 66.6289 124.659 66.8111 125.349Z" fill="black"/>
</svg>
