<svg width="86" height="64" viewBox="0 0 86 64" fill="none" xmlns="http://www.w3.org/2000/svg">
<path d="M84.3218 56.0443C75.0502 56.894 63.6026 51.5129 59.0613 49.1528C80.9159 42.2613 84.984 14.8839 85.2679 12.2406C85.3625 11.863 85.2679 11.5798 85.0787 11.391C84.8894 11.1077 84.4164 11.0133 84.1326 11.1077C83.8487 11.2021 83.6595 11.391 83.5649 11.6742C82.5242 12.807 74.8609 17.9993 65.9678 23.2859C72.2119 14.0343 72.3065 1.95049 72.3065 1.38406C72.3065 1.00644 72.0227 0.628821 71.6443 0.534416C71.2658 0.440011 70.8874 0.534416 70.6036 0.912034C59.8182 15.5448 36.923 34.1425 26.9891 28.7614C26.2322 28.0062 25.57 27.3453 24.9077 26.6845C22.4479 24.1356 20.2719 21.8699 16.7714 21.0202C12.4194 19.8874 9.39194 22.1531 7.68899 24.23C7.02673 24.9852 6.64829 25.8349 6.36447 26.6845L0.498747 30.8383C0.214922 31.0271 0.0257052 31.4991 0.120314 31.7824C0.214922 32.16 0.498747 32.4432 0.877181 32.4432L8.35124 33.2928C8.63507 33.576 9.0135 33.8593 9.39194 34.0481L9.48654 34.1425C12.8924 36.0306 15.9199 41.8837 15.9199 41.9781C24.1508 59.9149 37.396 63.5023 52.1549 63.5023C55.4662 63.5023 58.7775 63.3135 62.1834 63.1247C79.8752 61.803 84.8894 57.838 85.0787 57.7436C85.3625 57.4604 85.4571 57.0828 85.3625 56.7052C85.0787 56.2332 84.7002 56.0443 84.3218 56.0443ZM31.0573 31.5935C42.4103 31.5935 59.7236 17.5273 70.2251 4.3106C69.7521 9.31405 67.9545 19.3209 61.4266 25.8349C51.0196 31.5935 40.0451 36.5026 35.7877 34.7089C33.5171 33.7649 31.7195 32.632 30.2058 31.4991C30.4896 31.5935 30.7734 31.5935 31.0573 31.5935ZM6.17525 29.139C6.17525 29.3278 6.17525 29.5166 6.26986 29.611C6.36447 30.1775 6.55368 30.8383 6.83751 31.3103L3.52622 31.0271L6.17525 29.139ZM61.9942 61.2366C43.3564 62.5583 27.1783 61.9918 17.5283 41.1284C17.4336 40.8452 14.217 34.7089 10.338 32.5376L10.2434 32.4432C9.10811 31.7824 8.25664 30.5551 8.06742 29.2334C7.78359 27.8174 8.16203 26.4013 9.10811 25.3628C10.7165 23.4747 12.514 22.5307 14.5008 22.5307C15.0684 22.5307 15.6361 22.6251 16.2983 22.7195C19.3258 23.4747 21.218 25.4572 23.5832 27.9118C26.3268 30.7439 29.3543 33.8593 35.1254 36.3138C35.8823 36.6914 36.923 36.7858 37.9637 36.7858C49.4113 36.7858 75.6178 19.793 83.0919 14.2231C81.6728 21.5867 75.9016 43.2053 56.4123 47.8311C56.0339 47.9256 55.75 48.2088 55.75 48.5864C55.6554 48.964 55.8447 49.3416 56.2231 49.5304C56.7907 49.908 69.0898 57.0828 80.4428 57.838C77.1316 59.0653 71.455 60.5758 61.9942 61.2366Z" fill="black"/>
<path d="M15.0684 24.3243C13.5546 24.3243 12.3247 25.5516 12.3247 27.0621C12.3247 28.5725 13.5546 29.7998 15.0684 29.7998C16.5821 29.7998 17.812 28.5725 17.812 27.0621C17.812 25.5516 16.5821 24.3243 15.0684 24.3243ZM15.0684 27.9117C14.5953 27.9117 14.1223 27.5341 14.1223 26.9677C14.1223 26.4956 14.5007 26.0236 15.0684 26.0236C15.636 26.0236 16.0144 26.4012 16.0144 26.9677C16.0144 27.5341 15.5414 27.9117 15.0684 27.9117Z" fill="black"/>
</svg>
