<svg width="15" height="24" viewBox="0 0 15 24" fill="none" xmlns="http://www.w3.org/2000/svg">
<g clip-path="url(#clip0_416_480)">
<path d="M0.999535 9.67168C1.27922 3.86151 3.12169 1.05291 6.50772 1.00138C12.1662 0.91527 15.0802 4.84459 13.6377 9.49964C13.4399 10.1379 12.7842 11.2715 11.4429 13.3826C11.3888 13.4678 11.3888 13.4678 11.3346 13.553C9.84673 15.8912 9.59094 16.303 9.2226 17.0049C8.98259 17.4623 8.76972 17.9176 8.44602 18.6473C8.35212 18.8593 8.35212 18.8593 8.25897 19.0698C6.92762 22.075 6.11761 23.0596 4.51818 23.0018C2.71154 22.9364 1.55142 21.7763 0.986713 19.3865C0.923212 19.1177 0.653875 18.9513 0.385133 19.0148C0.116392 19.0783 -0.0499886 19.3477 0.013513 19.6164C0.673932 22.4113 2.18048 23.9179 4.48205 24.0011C6.6657 24.0801 7.67845 22.8491 9.17327 19.4748C9.26674 19.2636 9.26674 19.2636 9.3601 19.0528C9.67553 18.3418 9.88086 17.9027 10.1081 17.4696C10.4567 16.8053 10.7156 16.3885 12.1782 14.0898C12.2326 14.0044 12.2326 14.0044 12.2869 13.9189C13.6949 11.7028 14.3561 10.5598 14.5929 9.79563C16.236 4.49329 12.8333 -0.0949973 6.49251 0.00149495C2.46013 0.0628582 0.302603 3.35172 0.000691376 9.62359C-0.012586 9.89942 0.200249 10.1338 0.476072 10.1471C0.751895 10.1603 0.986257 9.9475 0.999535 9.67168Z" fill="black"/>
<path d="M9.22701 5.19676C11.3495 6.75085 9.87309 11.7887 7.66357 13.9322C7.46537 14.1245 7.46057 14.441 7.65286 14.6392C7.84514 14.8374 8.16168 14.8422 8.35988 14.6499C10.9503 12.1369 12.6195 6.44131 9.81777 4.38991C6.82371 2.19772 2.88281 4.68157 3.61888 8.01837C3.67139 8.25642 3.88791 8.4219 4.13139 8.41008C5.79377 8.32936 6.35707 9.29802 5.96025 11.0601C5.58353 12.7329 4.37411 14.53 3.28469 15.0502C3.03549 15.1691 2.92993 15.4676 3.0489 15.7168C3.16788 15.966 3.46634 16.0716 3.71554 15.9526C5.1125 15.2856 6.497 13.2283 6.93582 11.2798C7.42799 9.0943 6.62256 7.51157 4.53781 7.41048C4.37648 5.18633 7.09229 3.63376 9.22701 5.19676Z" fill="black"/>
</g>
<defs>
<clipPath id="clip0_416_480">
<rect width="15" height="24" fill="white"/>
</clipPath>
</defs>
</svg>
