<svg width="52" height="45" viewBox="0 0 52 45" fill="none" xmlns="http://www.w3.org/2000/svg">
<g clip-path="url(#clip0_428_350)">
<path d="M44.9987 12.7551C44.8552 12.6755 44.6984 12.6182 44.5225 12.6182H43.6777H41.685C42.9162 11.3854 43.6787 9.68445 43.6787 7.80859C43.6787 4.05469 40.624 1 36.8691 1C33.1152 1 30.0605 4.05469 30.0605 7.80859C30.0605 9.68445 30.8231 11.3854 32.0541 12.6182H30.0615H18.0787C19.3098 11.3854 20.0723 9.68445 20.0723 7.80859C20.0723 4.05469 17.0176 1 13.2637 1C9.50879 1 6.4541 4.05469 6.4541 7.80859C6.4541 9.68445 7.21661 11.3854 8.44781 12.6182H6.45508C2.89551 12.6182 0 15.5146 0 19.0742V28.0488C0 30.1514 1.70996 31.8613 3.81152 31.8613C4.47101 31.8613 5.08246 31.6779 5.62402 31.3821V44.416C5.62402 44.9688 6.07129 45.416 6.62402 45.416C7.17676 45.416 7.62402 44.9688 7.62402 44.416V28.0488V23.8838V21.2715C7.62402 20.7188 7.17676 20.2715 6.62402 20.2715C6.07129 20.2715 5.62402 20.7188 5.62402 21.2715V23.8838V28.0488C5.62402 29.0479 4.81055 29.8613 3.81152 29.8613C2.8125 29.8613 2 29.0479 2 28.0488V19.0742C2 16.6172 3.99902 14.6182 6.45508 14.6182H25.4016C24.2919 15.7781 23.6055 17.3463 23.6055 19.0742V19.8564H22.7383C20.623 19.8564 18.9023 21.5771 18.9023 23.6924V44.416C18.9023 44.9688 19.3496 45.416 19.9023 45.416C20.4551 45.416 20.9023 44.9688 20.9023 44.416V23.6924C20.9023 22.6797 21.7256 21.8564 22.7383 21.8564H23.6055V28.0488C23.6055 30.1514 25.3154 31.8613 27.418 31.8613C28.0775 31.8613 28.6889 31.6779 29.2305 31.3821V44.416C29.2305 44.9688 29.6777 45.416 30.2305 45.416C30.7832 45.416 31.2305 44.9688 31.2305 44.416V28.0488V24.1914V21.2715C31.2305 20.7188 30.7832 20.2715 30.2305 20.2715C29.6777 20.2715 29.2305 20.7188 29.2305 21.2715V24.1914V28.0488C29.2305 29.0479 28.417 29.8613 27.418 29.8613C26.4189 29.8613 25.6055 29.0479 25.6055 28.0488V19.0742C25.6055 16.6172 27.6045 14.6182 30.0615 14.6182H43.6777C46.1338 14.6182 48.1328 16.6172 48.1328 19.0742V28.0488C48.1328 29.0479 47.3203 29.8613 46.3213 29.8613C45.3223 29.8613 44.5088 29.0479 44.5088 28.0488V23.3926V21.2715C44.5088 20.7188 44.0615 20.2715 43.5088 20.2715C42.9561 20.2715 42.5088 20.7188 42.5088 21.2715V23.3926V28.0488V44.416C42.5088 44.9688 42.9561 45.416 43.5088 45.416C44.0615 45.416 44.5088 44.9688 44.5088 44.416V31.3821C45.0504 31.6779 45.6618 31.8613 46.3213 31.8613C48.4229 31.8613 50.1328 30.1514 50.1328 28.0488V19.0742C50.1328 15.9673 47.9266 13.3666 44.9987 12.7551ZM13.2637 12.6182C10.6113 12.6182 8.4541 10.4609 8.4541 7.80859C8.4541 5.15723 10.6113 3 13.2637 3C15.915 3 18.0723 5.15723 18.0723 7.80859C18.0723 10.4609 15.915 12.6182 13.2637 12.6182ZM36.8691 12.6182C34.2178 12.6182 32.0605 10.4609 32.0605 7.80859C32.0605 5.15723 34.2178 3 36.8691 3C39.5215 3 41.6787 5.15723 41.6787 7.80859C41.6787 10.4609 39.5215 12.6182 36.8691 12.6182Z" fill="black"/>
<path d="M13.2637 30.458C12.7109 30.458 12.2637 30.9053 12.2637 31.458V44.416C12.2637 44.9688 12.7109 45.416 13.2637 45.416C13.8164 45.416 14.2637 44.9688 14.2637 44.416V31.458C14.2637 30.9053 13.8164 30.458 13.2637 30.458Z" fill="black"/>
<path d="M36.8691 30.458C36.3164 30.458 35.8691 30.9053 35.8691 31.458V44.416C35.8691 44.9688 36.3164 45.416 36.8691 45.416C37.4219 45.416 37.8691 44.9688 37.8691 44.416V31.458C37.8691 30.9053 37.4219 30.458 36.8691 30.458Z" fill="black"/>
</g>
<defs>
<clipPath id="clip0_428_350">
<rect width="52" height="45" fill="white"/>
</clipPath>
</defs>
</svg>
