<svg width="150" height="103" viewBox="0 0 150 103" fill="none" xmlns="http://www.w3.org/2000/svg">
<g clip-path="url(#clip0_525_420)">
<path d="M6.48015 98.0744C5.22351 94.6515 4.21538 91.1019 3.4839 87.4586C2.53673 82.7649 2.03501 77.9306 2.03501 73.026V72.965V72.9603V72.904V72.8993C2.05377 52.7743 10.2173 34.553 23.4026 21.3676C36.5927 8.17756 54.814 0.0140669 74.939 0H75H75.061C95.186 0.0187559 113.407 8.17756 126.597 21.3676C139.726 34.492 147.871 52.6055 147.965 72.618C147.984 72.7399 147.993 72.8618 147.993 72.9884C147.993 73.1104 147.984 73.2323 147.965 73.3542C147.942 78.1463 147.445 82.8681 146.516 87.4586C145.785 91.1019 144.772 94.6515 143.52 98.0791H147.656C148.95 98.0791 150 99.1294 150 100.424C150 101.718 148.95 102.768 147.656 102.768H140.233L140.088 102.773H91.477C89.653 102.773 88.6777 100.789 89.3529 99.4389C89.9766 97.7227 90.272 96.0206 90.272 94.1919C90.272 89.9719 88.5652 86.1504 85.8081 83.3979C83.0463 80.6315 79.2248 78.9247 75.0047 78.9247C70.7893 78.9247 66.9725 80.6361 64.2107 83.3979C61.4489 86.1597 59.7374 89.9766 59.7374 94.1919C59.7374 95.9972 60.0328 97.7321 60.6471 99.4295C61.4301 100.874 60.2391 102.773 58.5277 102.773H9.91716L9.7718 102.768H2.34448C1.05033 102.768 0 101.718 0 100.424C0 99.1294 1.05033 98.0791 2.34448 98.0791H6.48484L6.48015 98.0744ZM63.287 78.0291L72.7071 33.1885C72.9697 31.9272 74.2076 31.1113 75.4736 31.3739C76.4114 31.5708 77.1007 32.3023 77.2882 33.1885L86.713 78.0338C87.5617 78.6527 88.3589 79.3326 89.0997 80.0735L89.1138 80.0875C92.7196 83.7027 94.9515 88.6871 94.9515 94.1826C94.9515 95.5002 94.8109 96.7802 94.5624 98.0744H138.521C139.98 94.3795 141.133 90.5158 141.935 86.5395C142.666 82.9244 143.107 79.1779 143.239 75.3282H137.03C135.736 75.3282 134.686 74.2779 134.686 72.9837C134.686 71.6896 135.736 70.6393 137.03 70.6393H143.239C142.882 59.9062 140.045 49.8015 135.286 40.8831L129.894 43.9966C128.778 44.6436 127.343 44.2638 126.701 43.1479C126.053 42.0319 126.433 40.5971 127.549 39.9547L132.946 36.8365C130.189 32.4242 126.944 28.3495 123.282 24.6874C119.63 21.0347 115.564 17.7946 111.161 15.0422L108.038 20.4486C107.391 21.5646 105.961 21.9444 104.845 21.2973C103.729 20.6502 103.349 19.2201 103.997 18.1041L107.115 12.7024C98.1869 7.93842 88.0822 5.0969 77.3492 4.73116V10.9675C77.3492 12.2616 76.2988 13.312 75.0047 13.312C73.7105 13.312 72.6602 12.2616 72.6602 10.9675V4.73116C61.9272 5.09222 51.8224 7.93373 42.904 12.693L46.0316 18.1135C46.674 19.2294 46.2895 20.6596 45.1735 21.302C44.0575 21.9444 42.6274 21.5599 41.985 20.4439L38.8621 15.0375C34.4545 17.7946 30.3845 21.0394 26.7271 24.6921C23.0697 28.3495 19.8249 32.4195 17.0725 36.8318L22.4789 39.95C23.5949 40.5924 23.9794 42.0178 23.337 43.1385C22.6946 44.2545 21.2691 44.639 20.1485 43.9966L14.7327 40.869C9.97343 49.7921 7.13192 59.8969 6.77087 70.6299H13.0072C14.3013 70.6299 15.3517 71.6802 15.3517 72.9744C15.3517 74.2685 14.3013 75.3189 13.0072 75.3189H6.77087C6.89747 79.1732 7.34292 82.929 8.0744 86.5489C8.87152 90.5299 10.0297 94.3889 11.488 98.0791H55.447C55.1938 96.7849 55.0578 95.5095 55.0578 94.1873C55.0578 88.6824 57.2945 83.6887 60.9003 80.0782C61.6458 79.3326 62.4476 78.648 63.2963 78.0291H63.287ZM81.3489 75.2673L74.9953 45.0375L68.6418 75.2673C70.6393 74.5968 72.7727 74.2357 74.9953 74.2357C77.2179 74.2357 79.3514 74.6014 81.3489 75.272V75.2673Z" fill="black"/>
</g>
<defs>
<clipPath id="clip0_525_420">
<rect width="150" height="103" fill="white"/>
</clipPath>
</defs>
</svg>
