<svg width="56" height="48" viewBox="0 0 56 48" fill="none" xmlns="http://www.w3.org/2000/svg">
<g clip-path="url(#clip0_525_419)">
<path fill-rule="evenodd" clip-rule="evenodd" d="M0.5 47.8208H14.495C14.771 47.8208 14.995 47.5968 14.995 47.3208C14.995 45.4738 14.995 43.4738 14.995 41.7208C14.995 38.5778 13.512 35.7688 11.297 34.6008C11.285 34.5948 11.231 34.5658 11.215 34.5578C11.149 34.5258 11.075 34.5078 10.996 34.5078H4.071C3.944 34.5078 3.817 34.5388 3.698 34.6008C1.483 35.7688 0 38.5778 0 41.7208V47.3208C0 47.5968 0.224 47.8208 0.5 47.8208ZM12.274 46.8208H13.995V41.7208C13.995 39.0008 12.778 36.5378 10.871 35.5078H4.124C2.217 36.5378 1 39.0008 1 41.7208V46.8208H2.721V41.2898C2.721 41.0138 2.945 40.7898 3.221 40.7898C3.497 40.7898 3.721 41.0138 3.721 41.2898V46.8208H11.274V41.2898C11.274 41.0138 11.498 40.7898 11.774 40.7898C12.05 40.7898 12.274 41.0138 12.274 41.2898V46.8208Z" fill="black"/>
<path fill-rule="evenodd" clip-rule="evenodd" d="M21.0029 22.9341H34.9969C35.2739 22.9341 35.4969 22.7111 35.4969 22.4341C35.4969 20.5881 35.4969 18.5871 35.4969 16.8341C35.4969 13.6921 34.0139 10.8821 31.7999 9.71507C31.7869 9.70807 31.7289 9.67707 31.7099 9.66907C31.6459 9.63807 31.5739 9.62207 31.4989 9.62207H24.5739C24.4519 9.62207 24.3299 9.65007 24.2159 9.70707L24.1999 9.71507C21.9859 10.8821 20.5029 13.6921 20.5029 16.8341V22.4341C20.5029 22.7111 20.7259 22.9341 21.0029 22.9341ZM32.7759 21.9341H34.4969V16.8341C34.4969 14.1151 33.2809 11.6511 31.3739 10.6221H24.6259C22.7189 11.6511 21.5029 14.1151 21.5029 16.8341V21.9341H23.2239V16.4031C23.2239 16.1271 23.4479 15.9031 23.7239 15.9031C23.9999 15.9031 24.2239 16.1271 24.2239 16.4031V21.9341H31.7759V16.4031C31.7759 16.1271 31.9999 15.9031 32.2759 15.9031C32.5519 15.9031 32.7759 16.1271 32.7759 16.4031V21.9341Z" fill="black"/>
<path fill-rule="evenodd" clip-rule="evenodd" d="M7.4972 24.8857C5.24836 24.8857 3.40944 26.8012 3.40944 29.1772C3.40944 31.5532 5.24836 33.4686 7.4972 33.4686C9.74605 33.4686 11.585 31.5532 11.585 29.1772C11.585 26.8012 9.74605 24.8857 7.4972 24.8857ZM7.4972 25.8866C9.20963 25.8866 10.5857 27.3679 10.5857 29.1772C10.5857 30.9865 9.20963 32.4678 7.4972 32.4678C5.78478 32.4678 4.40875 30.9865 4.40875 29.1772C4.40875 27.3679 5.78478 25.8866 7.4972 25.8866Z" fill="black"/>
<path fill-rule="evenodd" clip-rule="evenodd" d="M28.0001 0C25.7513 0 23.9124 1.91542 23.9124 4.29144C23.9124 6.66747 25.7513 8.58289 28.0001 8.58289C30.249 8.58289 32.0879 6.66747 32.0879 4.29144C32.0879 1.91542 30.249 0 28.0001 0ZM28.0001 1.00083C29.7126 1.00083 31.0886 2.48218 31.0886 4.29144C31.0886 6.10071 29.7126 7.58206 28.0001 7.58206C26.2877 7.58206 24.9117 6.10071 24.9117 4.29144C24.9117 2.48218 26.2877 1.00083 28.0001 1.00083Z" fill="black"/>
<path fill-rule="evenodd" clip-rule="evenodd" d="M14.6182 31.7725V27.2455C14.6182 26.9695 14.3942 26.7455 14.1182 26.7455C13.8422 26.7455 13.6182 26.9695 13.6182 27.2455V32.9795C13.6182 33.2555 13.8422 33.4795 14.1182 33.4795H19.8522C20.1282 33.4795 20.3522 33.2555 20.3522 32.9795C20.3522 32.7035 20.1282 32.4795 19.8522 32.4795H15.3252L23.4202 24.3845C23.6152 24.1895 23.6152 23.8725 23.4202 23.6775C23.2252 23.4825 22.9082 23.4825 22.7132 23.6775L14.6182 31.7725Z" fill="black"/>
<path fill-rule="evenodd" clip-rule="evenodd" d="M44.7869 34.5578C44.7809 34.5598 44.6869 34.6098 44.6799 34.6138C42.4779 35.7878 41.0049 38.5888 41.0049 41.7208C41.0049 43.4738 41.0049 45.4738 41.0049 47.3208C41.0049 47.5968 41.2289 47.8208 41.5049 47.8208H55.4999C55.7759 47.8208 55.9999 47.5968 55.9999 47.3208V41.7208C55.9999 38.5778 54.5169 35.7688 52.3019 34.6008C52.1829 34.5388 52.0559 34.5078 51.9289 34.5078H45.0039C44.9259 34.5078 44.8519 34.5258 44.7869 34.5578ZM53.2789 46.8208H54.9999V41.7208C54.9999 39.0008 53.7829 36.5378 51.8759 35.5078H45.1289C43.2219 36.5378 42.0049 39.0008 42.0049 41.7208V46.8208H43.7259V41.2898C43.7259 41.0138 43.9499 40.7898 44.2259 40.7898C44.5019 40.7898 44.7259 41.0138 44.7259 41.2898V46.8208H52.2789V41.2898C52.2789 41.0138 52.5029 40.7898 52.7789 40.7898C53.0549 40.7898 53.2789 41.0138 53.2789 41.2898V46.8208Z" fill="black"/>
<path fill-rule="evenodd" clip-rule="evenodd" d="M48.5028 24.8857C46.254 24.8857 44.415 26.8012 44.415 29.1772C44.415 31.5532 46.254 33.4686 48.5028 33.4686C50.7516 33.4686 52.5906 31.5532 52.5906 29.1772C52.5906 26.8012 50.7516 24.8857 48.5028 24.8857ZM48.5028 25.8866C50.2152 25.8866 51.5913 27.3679 51.5913 29.1772C51.5913 30.9865 50.2152 32.4678 48.5028 32.4678C46.7904 32.4678 45.4143 30.9865 45.4143 29.1772C45.4143 27.3679 46.7904 25.8866 48.5028 25.8866Z" fill="black"/>
<path fill-rule="evenodd" clip-rule="evenodd" d="M40.6748 32.4795H36.1478C35.8718 32.4795 35.6478 32.7035 35.6478 32.9795C35.6478 33.2555 35.8718 33.4795 36.1478 33.4795H41.8818C42.1578 33.4795 42.3818 33.2555 42.3818 32.9795V27.2455C42.3818 26.9695 42.1578 26.7455 41.8818 26.7455C41.6058 26.7455 41.3818 26.9695 41.3818 27.2455V31.7725L33.2868 23.6775C33.0918 23.4825 32.7748 23.4825 32.5798 23.6775C32.3848 23.8725 32.3848 24.1895 32.5798 24.3845L40.6748 32.4795Z" fill="black"/>
</g>
<defs>
<clipPath id="clip0_525_419">
<rect width="56" height="48" fill="white"/>
</clipPath>
</defs>
</svg>
