<svg width="251" height="254" viewBox="0 0 251 254" fill="none" xmlns="http://www.w3.org/2000/svg">
<path d="M250.491 49.6961C249.419 45.5549 246.781 42.0893 243.067 39.94L242.822 39.7972C235.384 35.4962 225.932 37.771 221.305 44.977L147.718 159.685C146.35 161.815 144.341 163.444 142.011 164.362V150.026C150.148 145.96 156.089 139.787 158.768 135.589C160.652 132.635 162.348 128.269 163.672 122.967C165.664 115.024 166.414 106.607 165.901 97.9494C165.147 85.0768 162.525 75.0906 157.887 67.4202C151.174 56.3194 140.446 50.6906 126 50.6906C111.555 50.6906 100.826 56.3194 94.1133 67.4202C89.4746 75.0906 86.8531 85.0768 86.0992 97.9484C85.5863 106.606 86.3363 115.024 88.3273 122.965C89.6527 128.269 91.3485 132.635 93.2324 135.59C95.9119 139.788 101.853 145.96 109.989 150.026V164.361C107.658 163.443 105.65 161.815 104.283 159.685L30.6939 44.9765C26.0681 37.7705 16.617 35.4952 9.17085 39.8006L8.93822 39.9361C5.21911 42.0893 2.58031 45.5549 1.50892 49.6961C0.443978 53.8145 1.06251 58.0937 3.25043 61.7453L21.7349 92.6019C38.1817 120.056 54.6271 147.509 71.0715 174.966C75.5559 182.445 77.9264 191.001 77.9264 199.709V249.008C77.9264 250.103 78.8147 250.992 79.9104 250.992C81.0061 250.992 81.8945 250.103 81.8945 249.008V199.709C81.8945 190.282 79.3286 181.02 74.4751 172.926C58.0317 145.47 41.5854 118.017 25.139 90.5623L6.65408 59.7057C5.01624 56.9722 4.55395 53.7704 5.35055 50.6896C6.1536 47.5861 8.13369 44.9865 10.9322 43.367L11.1638 43.2321C16.7648 39.9951 23.8762 41.7014 27.3542 47.1198L100.943 161.829C103.374 165.616 107.326 168.213 111.79 168.954L117.662 169.922C118.742 170.098 119.764 169.368 119.942 168.286C120.12 167.204 119.388 166.184 118.306 166.006L113.956 165.289V140.137C113.956 139.042 113.068 138.153 111.972 138.153C110.877 138.153 109.988 139.042 109.988 140.137V145.543C103.493 141.889 98.7853 136.915 96.5775 133.456C94.9208 130.858 93.3995 126.897 92.1764 122.002C90.2831 114.451 89.5708 106.437 90.0599 98.182C90.7751 85.9692 93.2116 76.5786 97.5085 69.4737C103.453 59.6437 113.039 54.6592 126 54.6592C138.96 54.6592 148.546 59.6437 154.491 69.4737C158.787 76.5786 161.224 85.9692 161.939 98.183C162.428 106.438 161.717 114.451 159.822 122.003C158.6 126.897 157.078 130.858 155.422 133.455C153.214 136.915 148.506 141.889 142.011 145.543V140.137C142.011 139.042 141.123 138.153 140.027 138.153C138.931 138.153 138.043 139.042 138.043 140.137V165.29L133.693 166.006C132.611 166.184 131.879 167.205 132.057 168.286C132.235 169.368 133.258 170.103 134.337 169.922L140.213 168.954C144.673 168.213 148.625 165.617 151.057 161.829L224.645 47.1203C228.124 41.7009 235.236 39.9936 240.829 43.2281L241.073 43.3705C243.866 44.9865 245.846 47.5861 246.649 50.6896C247.446 53.7704 246.983 56.9722 245.345 59.7057L226.861 90.5623C210.414 118.017 193.968 145.47 177.525 172.925C172.671 181.02 170.105 190.282 170.105 199.709V249.008C170.105 250.103 170.994 250.992 172.089 250.992C173.185 250.992 174.073 250.103 174.073 249.008V199.709C174.073 191.001 176.444 182.445 180.929 174.965C197.372 147.509 213.818 120.056 230.265 92.6014L248.749 61.7448C250.938 58.0936 251.556 53.8145 250.491 49.6961Z" fill="black"/>
<path d="M120.017 44.9181C120.114 45.9359 120.969 46.7127 121.992 46.7127H130.007C131.03 46.7127 131.885 45.9359 131.982 44.9181C132.712 37.3097 133.442 29.7034 134.173 22.098L135.99 3.17353C136.043 2.61701 135.859 2.06395 135.483 1.64978C135.107 1.2361 134.574 1 134.015 1H117.984C117.425 1 116.892 1.2361 116.516 1.64978C116.139 2.06395 115.955 2.61701 116.009 3.17353L117.826 22.098C118.557 29.7034 119.288 37.3097 120.017 44.9181Z" fill="black"/>
<path d="M98.1787 49.5948C98.5274 50.2872 99.2258 50.686 99.9515 50.686C100.252 50.686 100.557 50.6176 100.843 50.4727C101.822 49.9797 102.215 48.7868 101.722 47.8081L81.6833 8.05259C81.1897 7.07395 79.9973 6.68012 79.0182 7.17415C78.0396 7.66768 77.6462 8.86059 78.1397 9.83923L98.1787 49.5948Z" fill="black"/>
<path d="M73.4518 68.7871C73.8342 69.1517 74.3273 69.3352 74.8218 69.3352C75.2781 69.3352 75.7359 69.1785 76.1079 68.862L82.1866 63.6767C82.9678 63.0086 83.1102 61.8544 82.5135 61.0176L73.3437 48.1455C68.2689 41.0227 63.1932 33.8985 58.12 26.7727C57.7971 26.3199 57.2991 26.0228 56.7465 25.9548C56.1925 25.8854 55.6394 26.0535 55.2158 26.4146C51.1634 29.8713 47.1114 33.3281 43.0595 36.7798C42.6319 37.1439 42.3785 37.6732 42.3631 38.2346C42.3472 38.7966 42.5704 39.3388 42.9767 39.7262L73.4518 68.7871Z" fill="black"/>
<path d="M151.156 50.4731C151.443 50.6179 151.748 50.6864 152.048 50.6864C152.773 50.6864 153.472 50.2866 153.821 49.5951L173.86 9.83959C174.353 8.86096 173.96 7.66804 172.982 7.17451C172.002 6.68147 170.81 7.0753 170.317 8.05295L150.278 47.8085C149.785 48.7871 150.178 49.98 151.156 50.4731Z" fill="black"/>
<path d="M169.813 63.6772L175.892 68.8625C176.264 69.179 176.721 69.3357 177.178 69.3357C177.673 69.3357 178.166 69.1522 178.548 68.7876L209.023 39.7262C209.43 39.3388 209.653 38.7966 209.637 38.2346C209.622 37.6732 209.368 37.1444 208.941 36.7798C204.889 33.3281 200.837 29.8709 196.784 26.4146C196.361 26.0535 195.806 25.8854 195.254 25.9548C194.701 26.0233 194.203 26.3199 193.88 26.7727C188.806 33.8985 183.731 41.0227 178.656 48.1455L169.487 61.0181C168.889 61.8553 169.032 63.0096 169.813 63.6772Z" fill="black"/>
</svg>
