<svg width="69" height="80" viewBox="0 0 69 80" fill="none" xmlns="http://www.w3.org/2000/svg">
<path d="M11.299 56.4964C11.982 56.8154 12.67 57.0914 13.326 57.3714C13.575 63.0914 11.785 65.9604 7.13304 69.8874C6.35704 70.5434 5.68504 70.2944 5.23204 69.8404C5.00804 69.6164 4.88904 69.3404 4.88904 69.1164C4.88404 68.8924 4.94604 68.6574 5.33204 68.3354C7.68004 66.3624 9.38904 64.8044 10.395 62.7624C11.231 61.0484 11.492 59.0754 11.299 56.4964ZM57.055 44.9764H63.612C64.908 44.9764 65.345 45.2094 65.575 45.5014C65.81 45.7984 65.976 46.5064 65.976 47.7414V73.2204C65.976 74.9964 65.679 75.9604 65.216 76.4554C64.752 76.9504 63.897 77.2524 62.189 77.2524H7.60704C7.00304 77.2524 6.90304 77.0434 6.84604 76.6684C6.78904 76.2934 6.94104 75.7364 7.61804 75.3244L18.602 68.5914C19.799 67.8564 20.701 67.0754 21.487 66.2584C21.894 66.2784 22.294 66.2314 22.679 66.1174C23.446 65.8934 24.159 65.4204 24.612 64.6964C25.06 63.9774 25.205 63.0134 24.935 62.0494L29.231 56.7164C30.315 55.3724 31.07 54.5444 31.836 54.0764C32.601 53.6074 33.44 53.3884 34.955 53.3884H38.695C42.159 53.3884 43.872 52.9454 46.518 50.9924L52.023 46.9354C54.211 45.3194 54.638 44.9764 57.055 44.9764ZM43.304 36.9444C43.893 37.1734 44.429 37.5754 44.752 37.9604C44.908 38.1484 45.34 39.0754 45.7 40.2154C46.06 41.3624 46.424 42.7524 46.804 44.0914C47.085 45.0914 47.741 45.8464 48.528 46.2264C48.721 46.3194 48.919 46.3874 49.117 46.4394L45.257 49.2884C42.512 51.0854 40.836 51.2674 38.402 51.2674C42.06 47.1434 43.299 42.3154 43.304 36.9444ZM39.055 34.9284L41.179 35.9394C41.346 41.8104 40.19 46.5544 36.034 50.6954C35.665 51.0704 35.367 51.1384 35.075 51.1224C34.788 51.1064 34.476 50.9554 34.242 50.7104C34.003 50.4714 33.862 50.1534 33.846 49.8624C33.837 49.5704 33.914 49.2784 34.294 48.9094C38.345 44.9964 39.487 40.7994 39.055 34.9284ZM24.497 34.7724C24.845 34.6894 25.293 35.1684 25.184 35.7994C24.533 39.5024 19.673 43.1224 14.727 41.6794C14.05 41.4824 13.372 41.9914 13.367 42.6954V51.4964C13.367 51.9494 13.654 52.3514 14.075 52.4964C15.774 53.0954 18.242 54.6324 19.998 56.3974C21.289 57.9184 22.091 59.8704 22.894 62.6104C23.029 63.0744 22.955 63.3294 22.81 63.5584C22.665 63.7874 22.398 63.9814 22.086 64.0744C21.774 64.1624 21.451 64.1424 21.206 64.0274C20.961 63.9124 20.758 63.7354 20.622 63.2714C19.851 60.6424 19.138 59.0274 18.133 57.8704C17.128 56.7194 15.68 56.0694 14.285 55.4704C12.884 54.8704 11.513 54.3184 10.597 53.6514C8.94604 52.4484 8.43604 51.3804 8.44104 48.5634L8.44604 44.0424C8.44604 43.1154 7.33704 42.6314 6.65904 43.2664C3.81504 45.9234 3.71104 50.5114 4.22204 54.1574C4.36704 55.1944 3.97104 55.3564 3.56104 55.4184C3.14904 55.4754 2.70604 55.3814 2.57004 54.5334C2.12204 51.6844 1.89404 48.8974 2.45104 46.4334C3.00704 43.9764 4.27904 41.8244 7.06004 39.9964C8.39304 39.1324 11.517 38.9814 13.924 39.6574C16.851 40.4814 19.107 40.3764 20.809 39.4444C22.517 38.5174 23.429 36.8354 24.205 35.0484C24.273 34.8874 24.383 34.7994 24.497 34.7724ZM10.673 28.8924C10.845 28.8814 11.017 28.8874 11.184 28.9034C11.413 28.9244 11.637 28.9664 11.851 29.0284C12.722 29.2774 13.482 29.8514 13.94 30.6954C14.867 32.3764 14.236 34.4664 12.487 35.4034C10.747 36.3354 8.61204 35.7044 7.69004 34.0234C6.76904 32.3354 7.39804 30.2624 9.13804 29.3304C9.62704 29.0644 10.153 28.9244 10.673 28.8924ZM53.107 12.4034C53.388 12.3824 53.711 12.5914 53.872 12.9144C54.039 13.2374 54.08 13.5234 53.7 13.9144C50.356 17.3574 46.612 19.2314 42.325 19.6064C41.778 19.6584 41.361 20.1114 41.356 20.6584L41.268 29.7784C41.263 30.1744 41.476 30.5344 41.82 30.7214L46.627 33.3984C47.2 33.7154 47.731 34.1744 48.242 34.6954C49.362 36.0544 50.425 39.9194 51.253 42.8354C51.389 43.3194 51.31 43.5954 51.154 43.8354C50.998 44.0804 50.722 44.2784 50.394 44.3714C50.061 44.4664 49.717 44.4444 49.455 44.3194C49.2 44.1904 48.982 43.9964 48.846 43.5124C48.471 42.2004 48.107 40.7934 47.722 39.5754C47.341 38.3564 47.034 37.3514 46.378 36.5914C45.774 35.8874 44.977 35.3924 44.279 35.0594L38.17 32.1634C37.321 31.7624 36.873 31.2474 36.555 30.4284C36.236 29.6114 36.107 28.4554 36.164 26.9764L36.2 22.3244C36.211 21.3924 35.107 20.9034 34.419 21.5334C31.487 24.2254 31.331 28.9494 31.826 32.7044C31.971 33.7884 31.545 33.9654 31.102 34.0234C30.665 34.0864 30.195 33.9714 30.065 33.0864C29.628 30.1434 29.414 27.2584 30.008 24.7214C30.608 22.1854 31.879 19.8724 34.832 18.1174C36.732 16.9824 38.561 17.1584 40.119 17.2054C44.947 17.3464 48.54 15.8984 52.619 12.6284C52.826 12.4554 52.976 12.4084 53.107 12.4034ZM38.492 6.49643C38.971 6.44943 39.445 6.49643 39.893 6.63243C40.793 6.89743 41.58 7.51243 42.054 8.38743C42.997 10.1484 42.319 12.3104 40.497 13.2674C38.684 14.2204 36.46 13.5434 35.522 11.7884C34.579 10.0284 35.257 7.87143 37.074 6.91943C37.533 6.67943 38.012 6.53743 38.492 6.49643ZM54.268 2.12143C55.721 2.15243 58.085 2.90843 60.809 3.20043C60.028 3.77743 59.268 4.29343 58.044 4.66343C56.669 5.07543 55.055 5.59543 53.627 6.83043L52.414 2.54343C53.08 2.20443 53.648 2.10543 54.268 2.12143ZM54.315 0.0014313C53.195 -0.0235687 52.007 0.277431 50.81 1.02243C50.122 1.45443 50.023 1.86643 50.165 2.37043L52.43 10.3814C52.029 10.4904 51.633 10.6844 51.285 10.9704C47.857 13.7144 45.232 14.9234 41.608 15.0744C44.337 13.5534 45.395 10.1314 43.92 7.38643V7.37543C43.175 5.98443 41.925 5.03243 40.508 4.61043C39.972 4.44943 39.42 4.36643 38.857 4.36643C37.92 4.36143 36.972 4.57443 36.086 5.03743C33.269 6.51743 32.159 10.0014 33.654 12.7934C34.253 13.9134 35.185 14.7464 36.263 15.2524C35.403 15.4284 34.564 15.7474 33.674 16.3294C30.378 18.4544 28.643 21.2574 27.946 24.2414C27.247 27.2204 27.507 30.3564 27.961 33.3924C28.237 35.2574 29.898 36.3354 31.394 36.1274C32.883 35.9244 34.19 34.3924 33.93 32.4284C33.742 31.0014 33.727 29.4854 33.894 28.0534L34.045 28.0584C34.065 29.2144 34.212 30.2614 34.57 31.1994C34.998 32.2874 35.774 33.1994 36.821 33.8184C37.518 40.0994 36.774 43.5634 32.816 47.3864C32.061 48.1154 31.691 49.0634 31.723 49.9434C31.748 50.5584 31.952 51.1204 32.27 51.6104C31.718 51.7664 31.202 51.9754 30.729 52.2664C29.577 52.9754 28.686 54.0014 27.577 55.3814L24.15 59.6424C23.494 57.8614 22.729 56.3184 21.233 54.7144C19.744 53.1104 17.489 51.7984 15.5 50.9594V43.8034C21.192 44.6674 26.536 40.9544 27.281 36.1204C27.52 34.5934 26.661 33.2814 25.509 32.8234C24.937 32.5944 24.265 32.5584 23.64 32.8034C23.015 33.0474 22.489 33.5904 22.224 34.2874C21.615 35.8804 20.875 36.9954 19.796 37.5844C18.719 38.1724 17.12 38.3444 14.505 37.6094C14.129 37.5054 13.744 37.4174 13.353 37.3384C13.4 37.3174 13.448 37.2974 13.489 37.2704C16.233 35.8024 17.29 32.3794 15.806 29.6714C15.066 28.3224 13.833 27.3954 12.442 26.9944C11.921 26.8434 11.379 26.7654 10.833 26.7704C9.92104 26.7704 8.99404 26.9894 8.14004 27.4474C5.40004 28.9164 4.34804 32.3324 5.83304 35.0404C6.38004 36.0454 7.19704 36.8124 8.15004 37.3014C7.33804 37.4884 6.58204 37.7904 5.90504 38.2064C2.77004 40.1344 1.05704 43.1704 0.385038 45.9674C-0.270962 48.8724 0.0140375 51.9204 0.478038 54.8634C0.765038 56.6864 2.39904 57.7224 3.86304 57.5084C5.32704 57.3004 6.59804 55.7794 6.32704 53.8574C6.13404 52.4774 6.08704 50.9974 6.23204 49.6014H6.37904C6.53004 52.0494 7.43604 53.8204 9.03504 55.1124C9.03504 55.1484 9.03504 55.1854 9.04004 55.2164C9.45204 58.3934 9.24804 60.2634 8.48304 61.8204C7.71804 63.3834 6.27504 64.7684 3.96704 66.7004C3.18004 67.3574 2.76404 68.2634 2.77004 69.1284C2.77504 69.9924 3.16104 70.7634 3.72904 71.3314C4.85804 72.4674 6.94204 72.8264 8.50904 71.5034C13.066 67.6544 15.405 64.0144 15.468 58.4354C15.911 58.7114 16.296 58.9924 16.567 59.2954C17.182 60.0194 17.848 61.3634 18.583 63.8674C18.75 64.4404 19.058 64.9204 19.427 65.3064C18.886 65.8154 18.276 66.3014 17.495 66.7794L6.50604 73.5084C5.18204 74.3204 4.55304 75.7114 4.74504 76.9774C4.93804 78.2484 6.11004 79.3664 7.61004 79.3664H62.193C64.152 79.3664 65.72 79.0134 66.766 77.9034C67.813 76.7944 68.105 75.2154 68.105 73.2154V47.7414C68.105 46.3664 68.016 45.1574 67.256 44.1894C66.496 43.2204 65.215 42.8454 63.616 42.8454H57.059C55.554 42.8454 54.464 43.0854 53.407 43.5694C53.45 43.1484 53.423 42.7004 53.298 42.2524C52.491 39.3974 51.751 35.4284 49.85 33.2934C49.199 32.5584 48.387 31.9384 47.669 31.5374L43.408 29.1684L43.476 21.4554C47.419 20.8984 51.033 19.2524 54.175 16.4084C54.752 17.3764 56.466 16.7834 56.091 15.5374L55.799 14.5694C56.2 13.7044 56.159 12.7144 55.784 11.9604C55.549 11.4914 55.189 11.0854 54.752 10.7884L54.293 9.16843C54.32 9.14843 54.341 9.12143 54.361 9.09543C55.56 7.66343 57.012 7.19543 58.664 6.70043C60.309 6.20443 62.211 5.68943 63.533 3.92843C63.746 3.64843 64.153 3.38743 64.028 2.51743C63.971 2.08043 63.569 1.63243 63.221 1.48143C62.877 1.32943 62.585 1.31843 62.257 1.32443C58.946 1.38143 56.924 0.0644313 54.315 0.0014313Z" fill="black"/>
</svg>
