<?xml version="1.0" encoding="UTF-8"?>
<svg id="Calque_1" data-name="Calque 1" xmlns="http://www.w3.org/2000/svg" viewBox="0 0 640.31 187.3">
  <defs>
    <style>
      .cls-1 {
        fill: #17142d;
      }

      .cls-2 {
        fill: #fbb915;
      }

      .cls-3 {
        fill: none;
        stroke: #fbb915;
        stroke-miterlimit: 10;
        stroke-width: 3px;
      }

      .cls-4 {
        fill: #b4d6e5;
      }
    </style>
  </defs>
  <g>
    <g>
      <g>
        <path class="cls-4" d="M108.76,40.38v.99c-1.4,1.16-2.42,2.31-3.03,3.47-.62,1.16-.89,2.6-.81,4.33l3.34,63.78c.16,3.55,.72,6.36,1.67,8.42,.95,2.07,2.62,3.84,5.02,5.33v.99h-24.15v-.99c1.9-1.16,3.28-2.83,4.15-5.02,.87-2.19,1.22-4.64,1.05-7.37l-3.59-66.75-27.87,74.06h-1.73L31.11,50.53l-3.1,62.42c-.08,2.72,.56,5.41,1.92,8.05,1.36,2.64,3.2,4.54,5.51,5.7v.99H19.22v-.99c2.39-1.49,4.09-3.45,5.08-5.88,.99-2.43,1.57-5.06,1.73-7.86l3.34-63.78c.16-3.55-1.45-6.15-4.83-7.8v-.99h15.98l28.36,64.77,24.27-64.9,15.6,.12Z"/>
        <path class="cls-4" d="M108.71,40.33v.99c-1.4,1.16-2.42,2.31-3.03,3.47-.62,1.16-.89,2.6-.81,4.33l3.34,63.78c.16,3.55,.72,6.36,1.67,8.42,.95,2.07,2.62,3.84,5.02,5.33v.99h-24.15v-.99c1.9-1.16,3.28-2.83,4.15-5.02,.87-2.19,1.22-4.64,1.05-7.37l-3.59-66.75-27.87,74.06h-1.73L31.06,50.49l-3.1,62.42c-.08,2.72,.56,5.41,1.92,8.05,1.36,2.64,3.2,4.54,5.51,5.7v.99H19.17v-.99c2.39-1.49,4.09-3.45,5.08-5.88,.99-2.43,1.57-5.06,1.73-7.86l3.34-63.78c.16-3.55-1.45-6.15-4.83-7.8v-.99h15.98l28.36,64.77,24.27-64.9,15.6,.12Z"/>
        <path class="cls-4" d="M108.66,40.28v.99c-1.4,1.16-2.42,2.31-3.03,3.47-.62,1.16-.89,2.6-.81,4.33l3.34,63.78c.16,3.55,.72,6.36,1.67,8.42,.95,2.07,2.62,3.84,5.02,5.33v.99h-24.15v-.99c1.9-1.16,3.28-2.83,4.15-5.02,.87-2.19,1.22-4.64,1.05-7.37l-3.59-66.75-27.87,74.06h-1.73L31.01,50.44l-3.1,62.42c-.08,2.72,.56,5.41,1.92,8.05,1.36,2.64,3.2,4.54,5.51,5.7v.99H19.12v-.99c2.39-1.49,4.09-3.45,5.08-5.88,.99-2.43,1.57-5.06,1.73-7.86l3.34-63.78c.16-3.55-1.45-6.15-4.83-7.8v-.99h15.98l28.36,64.77,24.27-64.9,15.6,.12Z"/>
        <path class="cls-4" d="M108.62,40.24v.99c-1.4,1.16-2.42,2.31-3.03,3.47-.62,1.16-.89,2.6-.81,4.33l3.34,63.78c.16,3.55,.72,6.36,1.67,8.42,.95,2.07,2.62,3.84,5.02,5.33v.99h-24.15v-.99c1.9-1.16,3.28-2.83,4.15-5.02,.87-2.19,1.22-4.64,1.05-7.37l-3.59-66.75-27.87,74.06h-1.73L30.96,50.39l-3.1,62.42c-.08,2.72,.56,5.41,1.92,8.05,1.36,2.64,3.2,4.54,5.51,5.7v.99H19.07v-.99c2.39-1.49,4.09-3.45,5.08-5.88,.99-2.43,1.57-5.06,1.73-7.86l3.34-63.78c.16-3.55-1.45-6.15-4.83-7.8v-.99h15.98l28.36,64.77,24.27-64.9,15.6,.12Z"/>
        <path class="cls-4" d="M108.57,40.19v.99c-1.4,1.16-2.42,2.31-3.03,3.47-.62,1.16-.89,2.6-.81,4.33l3.34,63.78c.16,3.55,.72,6.36,1.67,8.42,.95,2.07,2.62,3.84,5.02,5.33v.99h-24.15v-.99c1.9-1.16,3.28-2.83,4.15-5.02,.87-2.19,1.22-4.64,1.05-7.37l-3.59-66.75-27.87,74.06h-1.73L30.91,50.34l-3.1,62.42c-.08,2.72,.56,5.41,1.92,8.05,1.36,2.64,3.2,4.54,5.51,5.7v.99H19.03v-.99c2.39-1.49,4.09-3.45,5.08-5.88,.99-2.43,1.57-5.06,1.73-7.86l3.34-63.78c.16-3.55-1.45-6.15-4.83-7.8v-.99h15.98l28.36,64.77,24.27-64.9,15.6,.12Z"/>
        <path class="cls-4" d="M108.52,40.14v.99c-1.4,1.16-2.42,2.31-3.03,3.47-.62,1.16-.89,2.6-.81,4.33l3.34,63.78c.16,3.55,.72,6.36,1.67,8.42,.95,2.07,2.62,3.84,5.02,5.33v.99h-24.15v-.99c1.9-1.16,3.28-2.83,4.15-5.02,.87-2.19,1.22-4.64,1.05-7.37l-3.59-66.75-27.87,74.06h-1.73L30.87,50.29l-3.1,62.42c-.08,2.72,.56,5.41,1.92,8.05,1.36,2.64,3.2,4.54,5.51,5.7v.99H18.98v-.99c2.39-1.49,4.09-3.45,5.08-5.88,.99-2.43,1.57-5.06,1.73-7.86l3.34-63.78c.16-3.55-1.45-6.15-4.83-7.8v-.99h15.98l28.36,64.77,24.27-64.9,15.6,.12Z"/>
        <path class="cls-4" d="M108.47,40.09v.99c-1.4,1.16-2.42,2.31-3.03,3.47-.62,1.16-.89,2.6-.81,4.33l3.34,63.78c.16,3.55,.72,6.36,1.67,8.42,.95,2.07,2.62,3.84,5.02,5.33v.99h-24.15v-.99c1.9-1.16,3.28-2.83,4.15-5.02,.87-2.19,1.22-4.64,1.05-7.37l-3.59-66.75-27.87,74.06h-1.73L30.82,50.25l-3.1,62.42c-.08,2.72,.56,5.41,1.92,8.05,1.36,2.64,3.2,4.54,5.51,5.7v.99H18.93v-.99c2.39-1.49,4.09-3.45,5.08-5.88,.99-2.43,1.57-5.06,1.73-7.86l3.34-63.78c.16-3.55-1.45-6.15-4.83-7.8v-.99h15.98l28.36,64.77,24.27-64.9,15.6,.12Z"/>
        <path class="cls-4" d="M108.42,40.04v.99c-1.4,1.16-2.42,2.31-3.03,3.47-.62,1.16-.89,2.6-.81,4.33l3.34,63.78c.16,3.55,.72,6.36,1.67,8.42,.95,2.07,2.62,3.84,5.02,5.33v.99h-24.15v-.99c1.9-1.16,3.28-2.83,4.15-5.02,.87-2.19,1.22-4.64,1.05-7.37l-3.59-66.75-27.87,74.06h-1.73L30.77,50.2l-3.1,62.42c-.08,2.72,.56,5.41,1.92,8.05,1.36,2.64,3.2,4.54,5.51,5.7v.99H18.88v-.99c2.39-1.49,4.09-3.45,5.08-5.88,.99-2.43,1.57-5.06,1.73-7.86l3.34-63.78c.16-3.55-1.45-6.15-4.83-7.8v-.99h15.98l28.36,64.77,24.27-64.9,15.6,.12Z"/>
        <path class="cls-4" d="M108.38,40v.99c-1.4,1.16-2.42,2.31-3.03,3.47-.62,1.16-.89,2.6-.81,4.33l3.34,63.78c.16,3.55,.72,6.36,1.67,8.42,.95,2.07,2.62,3.84,5.02,5.33v.99h-24.15v-.99c1.9-1.16,3.28-2.83,4.15-5.02,.87-2.19,1.22-4.64,1.05-7.37l-3.59-66.75-27.87,74.06h-1.73L30.72,50.15l-3.1,62.42c-.08,2.72,.56,5.41,1.92,8.05,1.36,2.64,3.2,4.54,5.51,5.7v.99H18.83v-.99c2.39-1.49,4.09-3.45,5.08-5.88,.99-2.43,1.57-5.06,1.73-7.86l3.34-63.78c.16-3.55-1.45-6.15-4.83-7.8v-.99h15.98l28.36,64.77,24.27-64.9,15.6,.12Z"/>
        <path class="cls-4" d="M108.33,39.95v.99c-1.4,1.16-2.42,2.31-3.03,3.47-.62,1.16-.89,2.6-.81,4.33l3.34,63.78c.16,3.55,.72,6.36,1.67,8.42,.95,2.07,2.62,3.84,5.02,5.33v.99h-24.15v-.99c1.9-1.16,3.28-2.83,4.15-5.02,.87-2.19,1.22-4.64,1.05-7.37l-3.59-66.75-27.87,74.06h-1.73L30.68,50.1l-3.1,62.42c-.08,2.72,.56,5.41,1.92,8.05,1.36,2.64,3.2,4.54,5.51,5.7v.99H18.79v-.99c2.39-1.49,4.09-3.45,5.08-5.88,.99-2.43,1.57-5.06,1.73-7.86l3.34-63.78c.16-3.55-1.45-6.15-4.83-7.8v-.99h15.98l28.36,64.77,24.27-64.9,15.6,.12Z"/>
        <path class="cls-4" d="M108.28,39.9v.99c-1.4,1.16-2.42,2.31-3.03,3.47-.62,1.16-.89,2.6-.81,4.33l3.34,63.78c.16,3.55,.72,6.36,1.67,8.42,.95,2.07,2.62,3.84,5.02,5.33v.99h-24.15v-.99c1.9-1.16,3.28-2.83,4.15-5.02,.87-2.19,1.22-4.64,1.05-7.37l-3.59-66.75-27.87,74.06h-1.73L30.63,50.06l-3.1,62.42c-.08,2.72,.56,5.41,1.92,8.05,1.36,2.64,3.2,4.54,5.51,5.7v.99H18.74v-.99c2.39-1.49,4.09-3.45,5.08-5.88,.99-2.43,1.57-5.06,1.73-7.86l3.34-63.78c.16-3.55-1.45-6.15-4.83-7.8v-.99h15.98l28.36,64.77,24.27-64.9,15.6,.12Z"/>
        <path class="cls-4" d="M108.23,39.85v.99c-1.4,1.16-2.42,2.31-3.03,3.47-.62,1.16-.89,2.6-.81,4.33l3.34,63.78c.16,3.55,.72,6.36,1.67,8.42,.95,2.07,2.62,3.84,5.02,5.33v.99h-24.15v-.99c1.9-1.16,3.28-2.83,4.15-5.02,.87-2.19,1.22-4.64,1.05-7.37l-3.59-66.75-27.87,74.06h-1.73L30.58,50.01l-3.1,62.42c-.08,2.72,.56,5.41,1.92,8.05,1.36,2.64,3.2,4.54,5.51,5.7v.99H18.69v-.99c2.39-1.49,4.09-3.45,5.08-5.88,.99-2.43,1.57-5.06,1.73-7.86l3.34-63.78c.16-3.55-1.45-6.15-4.83-7.8v-.99h15.98l28.36,64.77,24.27-64.9,15.6,.12Z"/>
        <path class="cls-4" d="M108.19,39.81v.99c-1.4,1.16-2.42,2.31-3.03,3.47-.62,1.16-.89,2.6-.81,4.33l3.34,63.78c.16,3.55,.72,6.36,1.67,8.42,.95,2.07,2.62,3.84,5.02,5.33v.99h-24.15v-.99c1.9-1.16,3.28-2.83,4.15-5.02,.87-2.19,1.22-4.64,1.05-7.37l-3.59-66.75-27.87,74.06h-1.73L30.53,49.96l-3.1,62.42c-.08,2.72,.56,5.41,1.92,8.05,1.36,2.64,3.2,4.54,5.51,5.7v.99H18.64v-.99c2.39-1.49,4.09-3.45,5.08-5.88,.99-2.43,1.57-5.06,1.73-7.86l3.34-63.78c.16-3.55-1.45-6.15-4.83-7.8v-.99h15.98l28.36,64.77,24.27-64.9,15.6,.12Z"/>
        <path class="cls-4" d="M108.14,39.76v.99c-1.4,1.16-2.42,2.31-3.03,3.47-.62,1.16-.89,2.6-.81,4.33l3.34,63.78c.16,3.55,.72,6.36,1.67,8.42,.95,2.07,2.62,3.84,5.02,5.33v.99h-24.15v-.99c1.9-1.16,3.28-2.83,4.15-5.02,.87-2.19,1.22-4.64,1.05-7.37l-3.59-66.75-27.87,74.06h-1.73L30.48,49.91l-3.1,62.42c-.08,2.72,.56,5.41,1.92,8.05,1.36,2.64,3.2,4.54,5.51,5.7v.99H18.6v-.99c2.39-1.49,4.09-3.45,5.08-5.88,.99-2.43,1.57-5.06,1.73-7.86l3.34-63.78c.16-3.55-1.45-6.15-4.83-7.8v-.99h15.98l28.36,64.77,24.27-64.9,15.6,.12Z"/>
        <path class="cls-4" d="M108.09,39.71v.99c-1.4,1.16-2.42,2.31-3.03,3.47-.62,1.16-.89,2.6-.81,4.33l3.34,63.78c.16,3.55,.72,6.36,1.67,8.42,.95,2.07,2.62,3.84,5.02,5.33v.99h-24.15v-.99c1.9-1.16,3.28-2.83,4.15-5.02,.87-2.19,1.22-4.64,1.05-7.37l-3.59-66.75-27.87,74.06h-1.73L30.44,49.86l-3.1,62.42c-.08,2.72,.56,5.41,1.92,8.05,1.36,2.64,3.2,4.54,5.51,5.7v.99H18.55v-.99c2.39-1.49,4.09-3.45,5.08-5.88,.99-2.43,1.57-5.06,1.73-7.86l3.34-63.78c.16-3.55-1.45-6.15-4.83-7.8v-.99h15.98l28.36,64.77,24.27-64.9,15.6,.12Z"/>
        <path class="cls-4" d="M108.04,39.66v.99c-1.4,1.16-2.42,2.31-3.03,3.47-.62,1.16-.89,2.6-.81,4.33l3.34,63.78c.16,3.55,.72,6.36,1.67,8.42,.95,2.07,2.62,3.84,5.02,5.33v.99h-24.15v-.99c1.9-1.16,3.28-2.83,4.15-5.02,.87-2.19,1.22-4.64,1.05-7.37l-3.59-66.75-27.87,74.06h-1.73L30.39,49.82l-3.1,62.42c-.08,2.72,.56,5.41,1.92,8.05,1.36,2.64,3.2,4.54,5.51,5.7v.99H18.5v-.99c2.39-1.49,4.09-3.45,5.08-5.88,.99-2.43,1.57-5.06,1.73-7.86l3.34-63.78c.16-3.55-1.45-6.15-4.83-7.8v-.99h15.98l28.36,64.77,24.27-64.9,15.6,.12Z"/>
        <path class="cls-4" d="M107.99,39.61v.99c-1.4,1.16-2.42,2.31-3.03,3.47-.62,1.16-.89,2.6-.81,4.33l3.34,63.78c.16,3.55,.72,6.36,1.67,8.42,.95,2.07,2.62,3.84,5.02,5.33v.99h-24.15v-.99c1.9-1.16,3.28-2.83,4.15-5.02,.87-2.19,1.22-4.64,1.05-7.37l-3.59-66.75-27.87,74.06h-1.73L30.34,49.77l-3.1,62.42c-.08,2.72,.56,5.41,1.92,8.05,1.36,2.64,3.2,4.54,5.51,5.7v.99H18.45v-.99c2.39-1.49,4.09-3.45,5.08-5.88,.99-2.43,1.57-5.06,1.73-7.86l3.34-63.78c.16-3.55-1.45-6.15-4.83-7.8v-.99h15.98l28.36,64.77,24.27-64.9,15.6,.12Z"/>
        <path class="cls-4" d="M107.95,39.57v.99c-1.4,1.16-2.42,2.31-3.03,3.47-.62,1.16-.89,2.6-.81,4.33l3.34,63.78c.16,3.55,.72,6.36,1.67,8.42,.95,2.07,2.62,3.84,5.02,5.33v.99h-24.15v-.99c1.9-1.16,3.28-2.83,4.15-5.02,.87-2.19,1.22-4.64,1.05-7.37l-3.59-66.75-27.87,74.06h-1.73L30.29,49.72l-3.1,62.42c-.08,2.72,.56,5.41,1.92,8.05,1.36,2.64,3.2,4.54,5.51,5.7v.99H18.4v-.99c2.39-1.49,4.09-3.45,5.08-5.88,.99-2.43,1.57-5.06,1.73-7.86l3.34-63.78c.16-3.55-1.45-6.15-4.83-7.8v-.99h15.98l28.36,64.77,24.27-64.9,15.6,.12Z"/>
        <path class="cls-4" d="M107.9,39.52v.99c-1.4,1.16-2.42,2.31-3.03,3.47-.62,1.16-.89,2.6-.81,4.33l3.34,63.78c.16,3.55,.72,6.36,1.67,8.42,.95,2.07,2.62,3.84,5.02,5.33v.99h-24.15v-.99c1.9-1.16,3.28-2.83,4.15-5.02,.87-2.19,1.22-4.64,1.05-7.37l-3.59-66.75-27.87,74.06h-1.73L30.25,49.67l-3.1,62.42c-.08,2.72,.56,5.41,1.92,8.05,1.36,2.64,3.2,4.54,5.51,5.7v.99H18.36v-.99c2.39-1.49,4.09-3.45,5.08-5.88,.99-2.43,1.57-5.06,1.73-7.86l3.34-63.78c.16-3.55-1.45-6.15-4.83-7.8v-.99h15.98l28.36,64.77,24.27-64.9,15.6,.12Z"/>
        <path class="cls-4" d="M107.85,39.47v.99c-1.4,1.16-2.42,2.31-3.03,3.47-.62,1.16-.89,2.6-.81,4.33l3.34,63.78c.16,3.55,.72,6.36,1.67,8.42,.95,2.07,2.62,3.84,5.02,5.33v.99h-24.15v-.99c1.9-1.16,3.28-2.83,4.15-5.02,.87-2.19,1.22-4.64,1.05-7.37l-3.59-66.75-27.87,74.06h-1.73L30.2,49.63l-3.1,62.42c-.08,2.72,.56,5.41,1.92,8.05,1.36,2.64,3.2,4.54,5.51,5.7v.99H18.31v-.99c2.39-1.49,4.09-3.45,5.08-5.88,.99-2.43,1.57-5.06,1.73-7.86l3.34-63.78c.16-3.55-1.45-6.15-4.83-7.8v-.99h15.98l28.36,64.77,24.27-64.9,15.6,.12Z"/>
        <path class="cls-4" d="M107.8,39.42v.99c-1.4,1.16-2.42,2.31-3.03,3.47-.62,1.16-.89,2.6-.81,4.33l3.34,63.78c.16,3.55,.72,6.36,1.67,8.42,.95,2.07,2.62,3.84,5.02,5.33v.99h-24.15v-.99c1.9-1.16,3.28-2.83,4.15-5.02,.87-2.19,1.22-4.64,1.05-7.37l-3.59-66.75-27.87,74.06h-1.73L30.15,49.58l-3.1,62.42c-.08,2.72,.56,5.41,1.92,8.05,1.36,2.64,3.2,4.54,5.51,5.7v.99H18.26v-.99c2.39-1.49,4.09-3.45,5.08-5.88,.99-2.43,1.57-5.06,1.73-7.86l3.34-63.78c.16-3.55-1.45-6.15-4.83-7.8v-.99h15.98l28.36,64.77,24.27-64.9,15.6,.12Z"/>
        <path class="cls-4" d="M107.76,39.38v.99c-1.4,1.16-2.42,2.31-3.03,3.47-.62,1.16-.89,2.6-.81,4.33l3.34,63.78c.16,3.55,.72,6.36,1.67,8.42,.95,2.07,2.62,3.84,5.02,5.33v.99h-24.15v-.99c1.9-1.16,3.28-2.83,4.15-5.02,.87-2.19,1.22-4.64,1.05-7.37l-3.59-66.75-27.87,74.06h-1.73L30.1,49.53l-3.1,62.42c-.08,2.72,.56,5.41,1.92,8.05,1.36,2.64,3.2,4.54,5.51,5.7v.99H18.21v-.99c2.39-1.49,4.09-3.45,5.08-5.88,.99-2.43,1.57-5.06,1.73-7.86l3.34-63.78c.16-3.55-1.45-6.15-4.83-7.8v-.99h15.98l28.36,64.77,24.27-64.9,15.6,.12Z"/>
        <path class="cls-4" d="M107.71,39.33v.99c-1.4,1.16-2.42,2.31-3.03,3.47-.62,1.16-.89,2.6-.81,4.33l3.34,63.78c.16,3.55,.72,6.36,1.67,8.42,.95,2.07,2.62,3.84,5.02,5.33v.99h-24.15v-.99c1.9-1.16,3.28-2.83,4.15-5.02,.87-2.19,1.22-4.64,1.05-7.37l-3.59-66.75-27.87,74.06h-1.73L30.05,49.48l-3.1,62.42c-.08,2.72,.56,5.41,1.92,8.05,1.36,2.64,3.2,4.54,5.51,5.7v.99H18.17v-.99c2.39-1.49,4.09-3.45,5.08-5.88,.99-2.43,1.57-5.06,1.73-7.86l3.34-63.78c.16-3.55-1.45-6.15-4.83-7.8v-.99h15.98l28.36,64.77,24.27-64.9,15.6,.12Z"/>
        <path class="cls-4" d="M107.66,39.28v.99c-1.4,1.16-2.42,2.31-3.03,3.47-.62,1.16-.89,2.6-.81,4.33l3.34,63.78c.16,3.55,.72,6.36,1.67,8.42,.95,2.07,2.62,3.84,5.02,5.33v.99h-24.15v-.99c1.9-1.16,3.28-2.83,4.15-5.02,.87-2.19,1.22-4.64,1.05-7.37l-3.59-66.75-27.87,74.06h-1.73L30.01,49.43l-3.1,62.42c-.08,2.72,.56,5.41,1.92,8.05,1.36,2.64,3.2,4.54,5.51,5.7v.99H18.12v-.99c2.39-1.49,4.09-3.45,5.08-5.88,.99-2.43,1.57-5.06,1.73-7.86l3.34-63.78c.16-3.55-1.45-6.15-4.83-7.8v-.99h15.98l28.36,64.77,24.27-64.9,15.6,.12Z"/>
        <path class="cls-4" d="M107.61,39.23v.99c-1.4,1.16-2.42,2.31-3.03,3.47-.62,1.16-.89,2.6-.81,4.33l3.34,63.78c.16,3.55,.72,6.36,1.67,8.42,.95,2.07,2.62,3.84,5.02,5.33v.99h-24.15v-.99c1.9-1.16,3.28-2.83,4.15-5.02,.87-2.19,1.22-4.64,1.05-7.37l-3.59-66.75-27.87,74.06h-1.73L29.96,49.39l-3.1,62.42c-.08,2.72,.56,5.41,1.92,8.05,1.36,2.64,3.2,4.54,5.51,5.7v.99H18.07v-.99c2.39-1.49,4.09-3.45,5.08-5.88,.99-2.43,1.57-5.06,1.73-7.86l3.34-63.78c.16-3.55-1.45-6.15-4.83-7.8v-.99h15.98l28.36,64.77,24.27-64.9,15.6,.12Z"/>
        <path class="cls-4" d="M107.56,39.18v.99c-1.4,1.16-2.42,2.31-3.03,3.47-.62,1.16-.89,2.6-.81,4.33l3.34,63.78c.16,3.55,.72,6.36,1.67,8.42,.95,2.07,2.62,3.84,5.02,5.33v.99h-24.15v-.99c1.9-1.16,3.28-2.83,4.15-5.02,.87-2.19,1.22-4.64,1.05-7.37l-3.59-66.75-27.87,74.06h-1.73L29.91,49.34l-3.1,62.42c-.08,2.72,.56,5.41,1.92,8.05,1.36,2.64,3.2,4.54,5.51,5.7v.99H18.02v-.99c2.39-1.49,4.09-3.45,5.08-5.88,.99-2.43,1.57-5.06,1.73-7.86l3.34-63.78c.16-3.55-1.45-6.15-4.83-7.8v-.99h15.98l28.36,64.77,24.27-64.9,15.6,.12Z"/>
        <path class="cls-4" d="M107.52,39.14v.99c-1.4,1.16-2.42,2.31-3.03,3.47-.62,1.16-.89,2.6-.81,4.33l3.34,63.78c.16,3.55,.72,6.36,1.67,8.42,.95,2.07,2.62,3.84,5.02,5.33v.99h-24.15v-.99c1.9-1.16,3.28-2.83,4.15-5.02,.87-2.19,1.22-4.64,1.05-7.37l-3.59-66.75-27.87,74.06h-1.73L29.86,49.29l-3.1,62.42c-.08,2.72,.56,5.41,1.92,8.05,1.36,2.64,3.2,4.54,5.51,5.7v.99H17.97v-.99c2.39-1.49,4.09-3.45,5.08-5.88,.99-2.43,1.57-5.06,1.73-7.86l3.34-63.78c.16-3.55-1.45-6.15-4.83-7.8v-.99h15.98l28.36,64.77,24.27-64.9,15.6,.12Z"/>
        <path class="cls-4" d="M107.47,39.09v.99c-1.4,1.16-2.42,2.31-3.03,3.47-.62,1.16-.89,2.6-.81,4.33l3.34,63.78c.16,3.55,.72,6.36,1.67,8.42,.95,2.07,2.62,3.84,5.02,5.33v.99h-24.15v-.99c1.9-1.16,3.28-2.83,4.15-5.02,.87-2.19,1.22-4.64,1.05-7.37l-3.59-66.75-27.87,74.06h-1.73L29.82,49.24l-3.1,62.42c-.08,2.72,.56,5.41,1.92,8.05,1.36,2.64,3.2,4.54,5.51,5.7v.99H17.93v-.99c2.39-1.49,4.09-3.45,5.08-5.88,.99-2.43,1.57-5.06,1.73-7.86l3.34-63.78c.16-3.55-1.45-6.15-4.83-7.8v-.99h15.98l28.36,64.77,24.27-64.9,15.6,.12Z"/>
        <path class="cls-4" d="M107.42,39.04v.99c-1.4,1.16-2.42,2.31-3.03,3.47-.62,1.16-.89,2.6-.81,4.33l3.34,63.78c.16,3.55,.72,6.36,1.67,8.42,.95,2.07,2.62,3.84,5.02,5.33v.99h-24.15v-.99c1.9-1.16,3.28-2.83,4.15-5.02,.87-2.19,1.22-4.64,1.05-7.37l-3.59-66.75-27.87,74.06h-1.73L29.77,49.2l-3.1,62.42c-.08,2.72,.56,5.41,1.92,8.05,1.36,2.64,3.2,4.54,5.51,5.7v.99H17.88v-.99c2.39-1.49,4.09-3.45,5.08-5.88,.99-2.43,1.57-5.06,1.73-7.86l3.34-63.78c.16-3.55-1.45-6.15-4.83-7.8v-.99h15.98l28.36,64.77,24.27-64.9,15.6,.12Z"/>
        <path class="cls-4" d="M107.37,38.99v.99c-1.4,1.16-2.42,2.31-3.03,3.47-.62,1.16-.89,2.6-.81,4.33l3.34,63.78c.16,3.55,.72,6.36,1.67,8.42,.95,2.07,2.62,3.84,5.02,5.33v.99h-24.15v-.99c1.9-1.16,3.28-2.83,4.15-5.02,.87-2.19,1.22-4.64,1.05-7.37l-3.59-66.75-27.87,74.06h-1.73L29.72,49.15l-3.1,62.42c-.08,2.72,.56,5.41,1.92,8.05,1.36,2.64,3.2,4.54,5.51,5.7v.99H17.83v-.99c2.39-1.49,4.09-3.45,5.08-5.88,.99-2.43,1.57-5.06,1.73-7.86l3.34-63.78c.16-3.55-1.45-6.15-4.83-7.8v-.99h15.98l28.36,64.77,24.27-64.9,15.6,.12Z"/>
        <path class="cls-4" d="M107.33,38.95v.99c-1.4,1.16-2.42,2.31-3.03,3.47-.62,1.16-.89,2.6-.81,4.33l3.34,63.78c.16,3.55,.72,6.36,1.67,8.42,.95,2.07,2.62,3.84,5.02,5.33v.99h-24.15v-.99c1.9-1.16,3.28-2.83,4.15-5.02,.87-2.19,1.22-4.64,1.05-7.37l-3.59-66.75-27.87,74.06h-1.73L29.67,49.1l-3.1,62.42c-.08,2.72,.56,5.41,1.92,8.05,1.36,2.64,3.2,4.54,5.51,5.7v.99H17.78v-.99c2.39-1.49,4.09-3.45,5.08-5.88,.99-2.43,1.57-5.06,1.73-7.86l3.34-63.78c.16-3.55-1.45-6.15-4.83-7.8v-.99h15.98l28.36,64.77,24.27-64.9,15.6,.12Z"/>
        <path class="cls-4" d="M107.28,38.9v.99c-1.4,1.16-2.42,2.31-3.03,3.47-.62,1.16-.89,2.6-.81,4.33l3.34,63.78c.16,3.55,.72,6.36,1.67,8.42,.95,2.07,2.62,3.84,5.02,5.33v.99h-24.15v-.99c1.9-1.16,3.28-2.83,4.15-5.02,.87-2.19,1.22-4.64,1.05-7.37l-3.59-66.75-27.87,74.06h-1.73L29.62,49.05l-3.1,62.42c-.08,2.72,.56,5.41,1.92,8.05,1.36,2.64,3.2,4.54,5.51,5.7v.99H17.74v-.99c2.39-1.49,4.09-3.45,5.08-5.88,.99-2.43,1.57-5.06,1.73-7.86l3.34-63.78c.16-3.55-1.45-6.15-4.83-7.8v-.99h15.98l28.36,64.77,24.27-64.9,15.6,.12Z"/>
        <path class="cls-4" d="M107.23,38.85v.99c-1.4,1.16-2.42,2.31-3.03,3.47-.62,1.16-.89,2.6-.81,4.33l3.34,63.78c.16,3.55,.72,6.36,1.67,8.42,.95,2.07,2.62,3.84,5.02,5.33v.99h-24.15v-.99c1.9-1.16,3.28-2.83,4.15-5.02,.87-2.19,1.22-4.64,1.05-7.37l-3.59-66.75-27.87,74.06h-1.73L29.58,49l-3.1,62.42c-.08,2.72,.56,5.41,1.92,8.05,1.36,2.64,3.2,4.54,5.51,5.7v.99H17.69v-.99c2.39-1.49,4.09-3.45,5.08-5.88,.99-2.43,1.57-5.06,1.73-7.86l3.34-63.78c.16-3.55-1.45-6.15-4.83-7.8v-.99h15.98l28.36,64.77,24.27-64.9,15.6,.12Z"/>
        <path class="cls-4" d="M107.18,38.8v.99c-1.4,1.16-2.42,2.31-3.03,3.47-.62,1.16-.89,2.6-.81,4.33l3.34,63.78c.16,3.55,.72,6.36,1.67,8.42,.95,2.07,2.62,3.84,5.02,5.33v.99h-24.15v-.99c1.9-1.16,3.28-2.83,4.15-5.02,.87-2.19,1.22-4.64,1.05-7.37l-3.59-66.75-27.87,74.06h-1.73L29.53,48.96l-3.1,62.42c-.08,2.72,.56,5.41,1.92,8.05,1.36,2.64,3.2,4.54,5.51,5.7v.99H17.64v-.99c2.39-1.49,4.09-3.45,5.08-5.88,.99-2.43,1.57-5.06,1.73-7.86l3.34-63.78c.16-3.55-1.45-6.15-4.83-7.8v-.99h15.98l28.36,64.77,24.27-64.9,15.6,.12Z"/>
        <path class="cls-4" d="M107.13,38.75v.99c-1.4,1.16-2.42,2.31-3.03,3.47-.62,1.16-.89,2.6-.81,4.33l3.34,63.78c.16,3.55,.72,6.36,1.67,8.42,.95,2.07,2.62,3.84,5.02,5.33v.99h-24.15v-.99c1.9-1.16,3.28-2.83,4.15-5.02,.87-2.19,1.22-4.64,1.05-7.37l-3.59-66.75-27.87,74.06h-1.73L29.48,48.91l-3.1,62.42c-.08,2.72,.56,5.41,1.92,8.05,1.36,2.64,3.2,4.54,5.51,5.7v.99H17.59v-.99c2.39-1.49,4.09-3.45,5.08-5.88,.99-2.43,1.57-5.06,1.73-7.86l3.34-63.78c.16-3.55-1.45-6.15-4.83-7.8v-.99h15.98l28.36,64.77,24.27-64.9,15.6,.12Z"/>
        <path class="cls-4" d="M107.09,38.71v.99c-1.4,1.16-2.42,2.31-3.03,3.47-.62,1.16-.89,2.6-.81,4.33l3.34,63.78c.16,3.55,.72,6.36,1.67,8.42,.95,2.07,2.62,3.84,5.02,5.33v.99h-24.15v-.99c1.9-1.16,3.28-2.83,4.15-5.02,.87-2.19,1.22-4.64,1.05-7.37l-3.59-66.75-27.87,74.06h-1.73L29.43,48.86l-3.1,62.42c-.08,2.72,.56,5.41,1.92,8.05,1.36,2.64,3.2,4.54,5.51,5.7v.99H17.54v-.99c2.39-1.49,4.09-3.45,5.08-5.88,.99-2.43,1.57-5.06,1.73-7.86l3.34-63.78c.16-3.55-1.45-6.15-4.83-7.8v-.99h15.98l28.36,64.77,24.27-64.9,15.6,.12Z"/>
        <path class="cls-4" d="M107.04,38.66v.99c-1.4,1.16-2.42,2.31-3.03,3.47-.62,1.16-.89,2.6-.81,4.33l3.34,63.78c.16,3.55,.72,6.36,1.67,8.42,.95,2.07,2.62,3.84,5.02,5.33v.99h-24.15v-.99c1.9-1.16,3.28-2.83,4.15-5.02,.87-2.19,1.22-4.64,1.05-7.37l-3.59-66.75-27.87,74.06h-1.73L29.39,48.81l-3.1,62.42c-.08,2.72,.56,5.41,1.92,8.05,1.36,2.64,3.2,4.54,5.51,5.7v.99H17.5v-.99c2.39-1.49,4.09-3.45,5.08-5.88,.99-2.43,1.57-5.06,1.73-7.86l3.34-63.78c.16-3.55-1.45-6.15-4.83-7.8v-.99h15.98l28.36,64.77,24.27-64.9,15.6,.12Z"/>
        <path class="cls-4" d="M106.99,38.61v.99c-1.4,1.16-2.42,2.31-3.03,3.47-.62,1.16-.89,2.6-.81,4.33l3.34,63.78c.16,3.55,.72,6.36,1.67,8.42,.95,2.07,2.62,3.84,5.02,5.33v.99h-24.15v-.99c1.9-1.16,3.28-2.83,4.15-5.02,.87-2.19,1.22-4.64,1.05-7.37l-3.59-66.75-27.87,74.06h-1.73L29.34,48.77l-3.1,62.42c-.08,2.72,.56,5.41,1.92,8.05,1.36,2.64,3.2,4.54,5.51,5.7v.99H17.45v-.99c2.39-1.49,4.09-3.45,5.08-5.88,.99-2.43,1.57-5.06,1.73-7.86l3.34-63.78c.16-3.55-1.45-6.15-4.83-7.8v-.99h15.98l28.36,64.77,24.27-64.9,15.6,.12Z"/>
        <path class="cls-4" d="M106.94,38.56v.99c-1.4,1.16-2.42,2.31-3.03,3.47-.62,1.16-.89,2.6-.81,4.33l3.34,63.78c.16,3.55,.72,6.36,1.67,8.42,.95,2.07,2.62,3.84,5.02,5.33v.99h-24.15v-.99c1.9-1.16,3.28-2.83,4.15-5.02,.87-2.19,1.22-4.64,1.05-7.37l-3.59-66.75-27.87,74.06h-1.73L29.29,48.72l-3.1,62.42c-.08,2.72,.56,5.41,1.92,8.05,1.36,2.64,3.2,4.54,5.51,5.7v.99H17.4v-.99c2.39-1.49,4.09-3.45,5.08-5.88,.99-2.43,1.57-5.06,1.73-7.86l3.34-63.78c.16-3.55-1.45-6.15-4.83-7.8v-.99h15.98l28.36,64.77,24.27-64.9,15.6,.12Z"/>
        <path class="cls-4" d="M106.9,38.52v.99c-1.4,1.16-2.42,2.31-3.03,3.47-.62,1.16-.89,2.6-.81,4.33l3.34,63.78c.16,3.55,.72,6.36,1.67,8.42,.95,2.07,2.62,3.84,5.02,5.33v.99h-24.15v-.99c1.9-1.16,3.28-2.83,4.15-5.02,.87-2.19,1.22-4.64,1.05-7.37l-3.59-66.75-27.87,74.06h-1.73L29.24,48.67l-3.1,62.42c-.08,2.72,.56,5.41,1.92,8.05,1.36,2.64,3.2,4.54,5.51,5.7v.99H17.35v-.99c2.39-1.49,4.09-3.45,5.08-5.88,.99-2.43,1.57-5.06,1.73-7.86l3.34-63.78c.16-3.55-1.45-6.15-4.83-7.8v-.99h15.98l28.36,64.77,24.27-64.9,15.6,.12Z"/>
        <path class="cls-4" d="M106.85,38.47v.99c-1.4,1.16-2.42,2.31-3.03,3.47-.62,1.16-.89,2.6-.81,4.33l3.34,63.78c.16,3.55,.72,6.36,1.67,8.42,.95,2.07,2.62,3.84,5.02,5.33v.99h-24.15v-.99c1.9-1.16,3.28-2.83,4.15-5.02,.87-2.19,1.22-4.64,1.05-7.37l-3.59-66.75-27.87,74.06h-1.73L29.19,48.62l-3.1,62.42c-.08,2.72,.56,5.41,1.92,8.05,1.36,2.64,3.2,4.54,5.51,5.7v.99H17.31v-.99c2.39-1.49,4.09-3.45,5.08-5.88,.99-2.43,1.57-5.06,1.73-7.86l3.34-63.78c.16-3.55-1.45-6.15-4.83-7.8v-.99h15.98l28.36,64.77,24.27-64.9,15.6,.12Z"/>
        <path class="cls-4" d="M106.8,38.42v.99c-1.4,1.16-2.42,2.31-3.03,3.47-.62,1.16-.89,2.6-.81,4.33l3.34,63.78c.16,3.55,.72,6.36,1.67,8.42,.95,2.07,2.62,3.84,5.02,5.33v.99h-24.15v-.99c1.9-1.16,3.28-2.83,4.15-5.02,.87-2.19,1.22-4.64,1.05-7.37l-3.59-66.75-27.87,74.06h-1.73L29.15,48.57l-3.1,62.42c-.08,2.72,.56,5.41,1.92,8.05,1.36,2.64,3.2,4.54,5.51,5.7v.99H17.26v-.99c2.39-1.49,4.09-3.45,5.08-5.88,.99-2.43,1.57-5.06,1.73-7.86l3.34-63.78c.16-3.55-1.45-6.15-4.83-7.8v-.99h15.98l28.36,64.77,24.27-64.9,15.6,.12Z"/>
        <path class="cls-4" d="M106.75,38.37v.99c-1.4,1.16-2.42,2.31-3.03,3.47-.62,1.16-.89,2.6-.81,4.33l3.34,63.78c.16,3.55,.72,6.36,1.67,8.42,.95,2.07,2.62,3.84,5.02,5.33v.99h-24.15v-.99c1.9-1.16,3.28-2.83,4.15-5.02,.87-2.19,1.22-4.64,1.05-7.37l-3.59-66.75-27.87,74.06h-1.73L29.1,48.53l-3.1,62.42c-.08,2.72,.56,5.41,1.92,8.05,1.36,2.64,3.2,4.54,5.51,5.7v.99H17.21v-.99c2.39-1.49,4.09-3.45,5.08-5.88,.99-2.43,1.57-5.06,1.73-7.86l3.34-63.78c.16-3.55-1.45-6.15-4.83-7.8v-.99h15.98l28.36,64.77,24.27-64.9,15.6,.12Z"/>
        <path class="cls-4" d="M106.7,38.32v.99c-1.4,1.16-2.42,2.31-3.03,3.47-.62,1.16-.89,2.6-.81,4.33l3.34,63.78c.16,3.55,.72,6.36,1.67,8.42,.95,2.07,2.62,3.84,5.02,5.33v.99h-24.15v-.99c1.9-1.16,3.28-2.83,4.15-5.02,.87-2.19,1.22-4.64,1.05-7.37l-3.59-66.75-27.87,74.06h-1.73L29.05,48.48l-3.1,62.42c-.08,2.72,.56,5.41,1.92,8.05,1.36,2.64,3.2,4.54,5.51,5.7v.99H17.16v-.99c2.39-1.49,4.09-3.45,5.08-5.88,.99-2.43,1.57-5.06,1.73-7.86l3.34-63.78c.16-3.55-1.45-6.15-4.83-7.8v-.99h15.98l28.36,64.77,24.27-64.9,15.6,.12Z"/>
        <path class="cls-4" d="M106.66,38.28v.99c-1.4,1.16-2.42,2.31-3.03,3.47-.62,1.16-.89,2.6-.81,4.33l3.34,63.78c.16,3.55,.72,6.36,1.67,8.42,.95,2.07,2.62,3.84,5.02,5.33v.99h-24.15v-.99c1.9-1.16,3.28-2.83,4.15-5.02,.87-2.19,1.22-4.64,1.05-7.37l-3.59-66.75-27.87,74.06h-1.73L29,48.43l-3.1,62.42c-.08,2.72,.56,5.41,1.92,8.05,1.36,2.64,3.2,4.54,5.51,5.7v.99H17.11v-.99c2.39-1.49,4.09-3.45,5.08-5.88,.99-2.43,1.57-5.06,1.73-7.86l3.34-63.78c.16-3.55-1.45-6.15-4.83-7.8v-.99h15.98l28.36,64.77,24.27-64.9,15.6,.12Z"/>
        <path class="cls-4" d="M106.61,38.23v.99c-1.4,1.16-2.42,2.31-3.03,3.47-.62,1.16-.89,2.6-.81,4.33l3.34,63.78c.16,3.55,.72,6.36,1.67,8.42,.95,2.07,2.62,3.84,5.02,5.33v.99h-24.15v-.99c1.9-1.16,3.28-2.83,4.15-5.02,.87-2.19,1.22-4.64,1.05-7.37l-3.59-66.75-27.87,74.06h-1.73L28.96,48.38l-3.1,62.42c-.08,2.72,.56,5.41,1.92,8.05,1.36,2.64,3.2,4.54,5.51,5.7v.99H17.07v-.99c2.39-1.49,4.09-3.45,5.08-5.88,.99-2.43,1.57-5.06,1.73-7.86l3.34-63.78c.16-3.55-1.45-6.15-4.83-7.8v-.99h15.98l28.36,64.77,24.27-64.9,15.6,.12Z"/>
        <path class="cls-4" d="M106.56,38.18v.99c-1.4,1.16-2.42,2.31-3.03,3.47-.62,1.16-.89,2.6-.81,4.33l3.34,63.78c.16,3.55,.72,6.36,1.67,8.42,.95,2.07,2.62,3.84,5.02,5.33v.99h-24.15v-.99c1.9-1.16,3.28-2.83,4.15-5.02,.87-2.19,1.22-4.64,1.05-7.37l-3.59-66.75-27.87,74.06h-1.73L28.91,48.34l-3.1,62.42c-.08,2.72,.56,5.41,1.92,8.05,1.36,2.64,3.2,4.54,5.51,5.7v.99H17.02v-.99c2.39-1.49,4.09-3.45,5.08-5.88,.99-2.43,1.57-5.06,1.73-7.86l3.34-63.78c.16-3.55-1.45-6.15-4.83-7.8v-.99h15.98l28.36,64.77,24.27-64.9,15.6,.12Z"/>
        <path class="cls-4" d="M106.51,38.13v.99c-1.4,1.16-2.42,2.31-3.03,3.47-.62,1.16-.89,2.6-.81,4.33l3.34,63.78c.16,3.55,.72,6.36,1.67,8.42,.95,2.07,2.62,3.84,5.02,5.33v.99h-24.15v-.99c1.9-1.16,3.28-2.83,4.15-5.02,.87-2.19,1.22-4.64,1.05-7.37l-3.59-66.75-27.87,74.06h-1.73L28.86,48.29l-3.1,62.42c-.08,2.72,.56,5.41,1.92,8.05,1.36,2.64,3.2,4.54,5.51,5.7v.99H16.97v-.99c2.39-1.49,4.09-3.45,5.08-5.88,.99-2.43,1.57-5.06,1.73-7.86l3.34-63.78c.16-3.55-1.45-6.15-4.83-7.8v-.99h15.98l28.36,64.77,24.27-64.9,15.6,.12Z"/>
        <path class="cls-4" d="M106.47,38.09v.99c-1.4,1.16-2.42,2.31-3.03,3.47-.62,1.16-.89,2.6-.81,4.33l3.34,63.78c.16,3.55,.72,6.36,1.67,8.42,.95,2.07,2.62,3.84,5.02,5.33v.99h-24.15v-.99c1.9-1.16,3.28-2.83,4.15-5.02,.87-2.19,1.22-4.64,1.05-7.37l-3.59-66.75-27.87,74.06h-1.73L28.81,48.24l-3.1,62.42c-.08,2.72,.56,5.41,1.92,8.05,1.36,2.64,3.2,4.54,5.51,5.7v.99H16.92v-.99c2.39-1.49,4.09-3.45,5.08-5.88,.99-2.43,1.57-5.06,1.73-7.86l3.34-63.78c.16-3.55-1.45-6.15-4.83-7.8v-.99h15.98l28.36,64.77,24.27-64.9,15.6,.12Z"/>
        <path class="cls-4" d="M106.42,38.04v.99c-1.4,1.16-2.42,2.31-3.03,3.47-.62,1.16-.89,2.6-.81,4.33l3.34,63.78c.16,3.55,.72,6.36,1.67,8.42,.95,2.07,2.62,3.84,5.02,5.33v.99h-24.15v-.99c1.9-1.16,3.28-2.83,4.15-5.02,.87-2.19,1.22-4.64,1.05-7.37l-3.59-66.75-27.87,74.06h-1.73L28.76,48.19l-3.1,62.42c-.08,2.72,.56,5.41,1.92,8.05,1.36,2.64,3.2,4.54,5.51,5.7v.99H16.88v-.99c2.39-1.49,4.09-3.45,5.08-5.88,.99-2.43,1.57-5.06,1.73-7.86l3.34-63.78c.16-3.55-1.45-6.15-4.83-7.8v-.99h15.98l28.36,64.77,24.27-64.9,15.6,.12Z"/>
        <path class="cls-4" d="M106.37,37.99v.99c-1.4,1.16-2.42,2.31-3.03,3.47-.62,1.16-.89,2.6-.81,4.33l3.34,63.78c.16,3.55,.72,6.36,1.67,8.42,.95,2.07,2.62,3.84,5.02,5.33v.99h-24.15v-.99c1.9-1.16,3.28-2.83,4.15-5.02,.87-2.19,1.22-4.64,1.05-7.37l-3.59-66.75-27.87,74.06h-1.73L28.72,48.14l-3.1,62.42c-.08,2.72,.56,5.41,1.92,8.05,1.36,2.64,3.2,4.54,5.51,5.7v.99H16.83v-.99c2.39-1.49,4.09-3.45,5.08-5.88,.99-2.43,1.57-5.06,1.73-7.86l3.34-63.78c.16-3.55-1.45-6.15-4.83-7.8v-.99h15.98l28.36,64.77,24.27-64.9,15.6,.12Z"/>
        <path class="cls-4" d="M106.32,37.94v.99c-1.4,1.16-2.42,2.31-3.03,3.47-.62,1.16-.89,2.6-.81,4.33l3.34,63.78c.16,3.55,.72,6.36,1.67,8.42,.95,2.07,2.62,3.84,5.02,5.33v.99h-24.15v-.99c1.9-1.16,3.28-2.83,4.15-5.02,.87-2.19,1.22-4.64,1.05-7.37l-3.59-66.75-27.87,74.06h-1.73L28.67,48.1l-3.1,62.42c-.08,2.72,.56,5.41,1.92,8.05,1.36,2.64,3.2,4.54,5.51,5.7v.99H16.78v-.99c2.39-1.49,4.09-3.45,5.08-5.88,.99-2.43,1.57-5.06,1.73-7.86l3.34-63.78c.16-3.55-1.45-6.15-4.83-7.8v-.99h15.98l28.36,64.77,24.27-64.9,15.6,.12Z"/>
        <path class="cls-4" d="M106.27,37.89v.99c-1.4,1.16-2.42,2.31-3.03,3.47-.62,1.16-.89,2.6-.81,4.33l3.34,63.78c.16,3.55,.72,6.36,1.67,8.42,.95,2.07,2.62,3.84,5.02,5.33v.99h-24.15v-.99c1.9-1.16,3.28-2.83,4.15-5.02,.87-2.19,1.22-4.64,1.05-7.37l-3.59-66.75-27.87,74.06h-1.73L28.62,48.05l-3.1,62.42c-.08,2.72,.56,5.41,1.92,8.05,1.36,2.64,3.2,4.54,5.51,5.7v.99H16.73v-.99c2.39-1.49,4.09-3.45,5.08-5.88,.99-2.43,1.57-5.06,1.73-7.86l3.34-63.78c.16-3.55-1.45-6.15-4.83-7.8v-.99h15.98l28.36,64.77,24.27-64.9,15.6,.12Z"/>
        <path class="cls-4" d="M106.23,37.85v.99c-1.4,1.16-2.42,2.31-3.03,3.47-.62,1.16-.89,2.6-.81,4.33l3.34,63.78c.16,3.55,.72,6.36,1.67,8.42,.95,2.07,2.62,3.84,5.02,5.33v.99h-24.15v-.99c1.9-1.16,3.28-2.83,4.15-5.02,.87-2.19,1.22-4.64,1.05-7.37l-3.59-66.75-27.87,74.06h-1.73L28.57,48l-3.1,62.42c-.08,2.72,.56,5.41,1.92,8.05,1.36,2.64,3.2,4.54,5.51,5.7v.99H16.68v-.99c2.39-1.49,4.09-3.45,5.08-5.88,.99-2.43,1.57-5.06,1.73-7.86l3.34-63.78c.16-3.55-1.45-6.15-4.83-7.8v-.99h15.98l28.36,64.77,24.27-64.9,15.6,.12Z"/>
        <path class="cls-4" d="M106.18,37.8v.99c-1.4,1.16-2.42,2.31-3.03,3.47-.62,1.16-.89,2.6-.81,4.33l3.34,63.78c.16,3.55,.72,6.36,1.67,8.42,.95,2.07,2.62,3.84,5.02,5.33v.99h-24.15v-.99c1.9-1.16,3.28-2.83,4.15-5.02,.87-2.19,1.22-4.64,1.05-7.37l-3.59-66.75-27.87,74.06h-1.73L28.53,47.95l-3.1,62.42c-.08,2.72,.56,5.41,1.92,8.05,1.36,2.64,3.2,4.54,5.51,5.7v.99H16.64v-.99c2.39-1.49,4.09-3.45,5.08-5.88,.99-2.43,1.57-5.06,1.73-7.86l3.34-63.78c.16-3.55-1.45-6.15-4.83-7.8v-.99h15.98l28.36,64.77,24.27-64.9,15.6,.12Z"/>
        <path class="cls-4" d="M106.13,37.75v.99c-1.4,1.16-2.42,2.31-3.03,3.47-.62,1.16-.89,2.6-.81,4.33l3.34,63.78c.16,3.55,.72,6.36,1.67,8.42,.95,2.07,2.62,3.84,5.02,5.33v.99h-24.15v-.99c1.9-1.16,3.28-2.83,4.15-5.02,.87-2.19,1.22-4.64,1.05-7.37l-3.59-66.75-27.87,74.06h-1.73L28.48,47.91l-3.1,62.42c-.08,2.72,.56,5.41,1.92,8.05,1.36,2.64,3.2,4.54,5.51,5.7v.99H16.59v-.99c2.39-1.49,4.09-3.45,5.08-5.88,.99-2.43,1.57-5.06,1.73-7.86l3.34-63.78c.16-3.55-1.45-6.15-4.83-7.8v-.99h15.98l28.36,64.77,24.27-64.9,15.6,.12Z"/>
        <path class="cls-4" d="M106.08,37.7v.99c-1.4,1.16-2.42,2.31-3.03,3.47-.62,1.16-.89,2.6-.81,4.33l3.34,63.78c.16,3.55,.72,6.36,1.67,8.42,.95,2.07,2.62,3.84,5.02,5.33v.99h-24.15v-.99c1.9-1.16,3.28-2.83,4.15-5.02,.87-2.19,1.22-4.64,1.05-7.37l-3.59-66.75-27.87,74.06h-1.73L28.43,47.86l-3.1,62.42c-.08,2.72,.56,5.41,1.92,8.05,1.36,2.64,3.2,4.54,5.51,5.7v.99H16.54v-.99c2.39-1.49,4.09-3.45,5.08-5.88,.99-2.43,1.57-5.06,1.73-7.86l3.34-63.78c.16-3.55-1.45-6.15-4.83-7.8v-.99h15.98l28.36,64.77,24.27-64.9,15.6,.12Z"/>
        <path class="cls-4" d="M106.04,37.66v.99c-1.4,1.16-2.42,2.31-3.03,3.47-.62,1.16-.89,2.6-.81,4.33l3.34,63.78c.16,3.55,.72,6.36,1.67,8.42,.95,2.07,2.62,3.84,5.02,5.33v.99h-24.15v-.99c1.9-1.16,3.28-2.83,4.15-5.02,.87-2.19,1.22-4.64,1.05-7.37l-3.59-66.75-27.87,74.06h-1.73L28.38,47.81l-3.1,62.42c-.08,2.72,.56,5.41,1.92,8.05,1.36,2.64,3.2,4.54,5.51,5.7v.99H16.49v-.99c2.39-1.49,4.09-3.45,5.08-5.88,.99-2.43,1.57-5.06,1.73-7.86l3.34-63.78c.16-3.55-1.45-6.15-4.83-7.8v-.99h15.98l28.36,64.77,24.27-64.9,15.6,.12Z"/>
        <path class="cls-4" d="M105.99,37.61v.99c-1.4,1.16-2.42,2.31-3.03,3.47-.62,1.16-.89,2.6-.81,4.33l3.34,63.78c.16,3.55,.72,6.36,1.67,8.42,.95,2.07,2.62,3.84,5.02,5.33v.99h-24.15v-.99c1.9-1.16,3.28-2.83,4.15-5.02,.87-2.19,1.22-4.64,1.05-7.37l-3.59-66.75-27.87,74.06h-1.73L28.33,47.76l-3.1,62.42c-.08,2.72,.56,5.41,1.92,8.05,1.36,2.64,3.2,4.54,5.51,5.7v.99H16.45v-.99c2.39-1.49,4.09-3.45,5.08-5.88,.99-2.43,1.57-5.06,1.73-7.86l3.34-63.78c.16-3.55-1.45-6.15-4.83-7.8v-.99h15.98l28.36,64.77,24.27-64.9,15.6,.12Z"/>
        <path class="cls-4" d="M105.94,37.56v.99c-1.4,1.16-2.42,2.31-3.03,3.47-.62,1.16-.89,2.6-.81,4.33l3.34,63.78c.16,3.55,.72,6.36,1.67,8.42,.95,2.07,2.62,3.84,5.02,5.33v.99h-24.15v-.99c1.9-1.16,3.28-2.83,4.15-5.02,.87-2.19,1.22-4.64,1.05-7.37l-3.59-66.75-27.87,74.06h-1.73L28.29,47.71l-3.1,62.42c-.08,2.72,.56,5.41,1.92,8.05,1.36,2.64,3.2,4.54,5.51,5.7v.99H16.4v-.99c2.39-1.49,4.09-3.45,5.08-5.88,.99-2.43,1.57-5.06,1.73-7.86l3.34-63.78c.16-3.55-1.45-6.15-4.83-7.8v-.99h15.98l28.36,64.77,24.27-64.9,15.6,.12Z"/>
        <path class="cls-4" d="M105.89,37.51v.99c-1.4,1.16-2.42,2.31-3.03,3.47-.62,1.16-.89,2.6-.81,4.33l3.34,63.78c.16,3.55,.72,6.36,1.67,8.42,.95,2.07,2.62,3.84,5.02,5.33v.99h-24.15v-.99c1.9-1.16,3.28-2.83,4.15-5.02,.87-2.19,1.22-4.64,1.05-7.37l-3.59-66.75-27.87,74.06h-1.73L28.24,47.67l-3.1,62.42c-.08,2.72,.56,5.41,1.92,8.05,1.36,2.64,3.2,4.54,5.51,5.7v.99H16.35v-.99c2.39-1.49,4.09-3.45,5.08-5.88,.99-2.43,1.57-5.06,1.73-7.86l3.34-63.78c.16-3.55-1.45-6.15-4.83-7.8v-.99h15.98l28.36,64.77,24.27-64.9,15.6,.12Z"/>
        <path class="cls-4" d="M105.84,37.46v.99c-1.4,1.16-2.42,2.31-3.03,3.47-.62,1.16-.89,2.6-.81,4.33l3.34,63.78c.16,3.55,.72,6.36,1.67,8.42,.95,2.07,2.62,3.84,5.02,5.33v.99h-24.15v-.99c1.9-1.16,3.28-2.83,4.15-5.02,.87-2.19,1.22-4.64,1.05-7.37l-3.59-66.75-27.87,74.06h-1.73L28.19,47.62l-3.1,62.42c-.08,2.72,.56,5.41,1.92,8.05,1.36,2.64,3.2,4.54,5.51,5.7v.99H16.3v-.99c2.39-1.49,4.09-3.45,5.08-5.88,.99-2.43,1.57-5.06,1.73-7.86l3.34-63.78c.16-3.55-1.45-6.15-4.83-7.8v-.99h15.98l28.36,64.77,24.27-64.9,15.6,.12Z"/>
        <path class="cls-4" d="M105.8,37.42v.99c-1.4,1.16-2.42,2.31-3.03,3.47-.62,1.16-.89,2.6-.81,4.33l3.34,63.78c.16,3.55,.72,6.36,1.67,8.42,.95,2.07,2.62,3.84,5.02,5.33v.99h-24.15v-.99c1.9-1.16,3.28-2.83,4.15-5.02,.87-2.19,1.22-4.64,1.05-7.37l-3.59-66.75-27.87,74.06h-1.73L28.14,47.57l-3.1,62.42c-.08,2.72,.56,5.41,1.92,8.05,1.36,2.64,3.2,4.54,5.51,5.7v.99H16.25v-.99c2.39-1.49,4.09-3.45,5.08-5.88,.99-2.43,1.57-5.06,1.73-7.86l3.34-63.78c.16-3.55-1.45-6.15-4.83-7.8v-.99h15.98l28.36,64.77,24.27-64.9,15.6,.12Z"/>
        <path class="cls-4" d="M105.75,37.37v.99c-1.4,1.16-2.42,2.31-3.03,3.47-.62,1.16-.89,2.6-.81,4.33l3.34,63.78c.16,3.55,.72,6.36,1.67,8.42,.95,2.07,2.62,3.84,5.02,5.33v.99h-24.15v-.99c1.9-1.16,3.28-2.83,4.15-5.02,.87-2.19,1.22-4.64,1.05-7.37l-3.59-66.75-27.87,74.06h-1.73L28.1,47.52l-3.1,62.42c-.08,2.72,.56,5.41,1.92,8.05,1.36,2.64,3.2,4.54,5.51,5.7v.99H16.21v-.99c2.39-1.49,4.09-3.45,5.08-5.88,.99-2.43,1.57-5.06,1.73-7.86l3.34-63.78c.16-3.55-1.45-6.15-4.83-7.8v-.99h15.98l28.36,64.77,24.27-64.9,15.6,.12Z"/>
        <path class="cls-4" d="M105.7,37.32v.99c-1.4,1.16-2.42,2.31-3.03,3.47-.62,1.16-.89,2.6-.81,4.33l3.34,63.78c.16,3.55,.72,6.36,1.67,8.42,.95,2.07,2.62,3.84,5.02,5.33v.99h-24.15v-.99c1.9-1.16,3.28-2.83,4.15-5.02,.87-2.19,1.22-4.64,1.05-7.37l-3.59-66.75-27.87,74.06h-1.73L28.05,47.48l-3.1,62.42c-.08,2.72,.56,5.41,1.92,8.05,1.36,2.64,3.2,4.54,5.51,5.7v.99H16.16v-.99c2.39-1.49,4.09-3.45,5.08-5.88,.99-2.43,1.57-5.06,1.73-7.86l3.34-63.78c.16-3.55-1.45-6.15-4.83-7.8v-.99h15.98l28.36,64.77,24.27-64.9,15.6,.12Z"/>
        <path class="cls-4" d="M105.65,37.27v.99c-1.4,1.16-2.42,2.31-3.03,3.47-.62,1.16-.89,2.6-.81,4.33l3.34,63.78c.16,3.55,.72,6.36,1.67,8.42,.95,2.07,2.62,3.84,5.02,5.33v.99h-24.15v-.99c1.9-1.16,3.28-2.83,4.15-5.02,.87-2.19,1.22-4.64,1.05-7.37l-3.59-66.75-27.87,74.06h-1.73L28,47.43l-3.1,62.42c-.08,2.72,.56,5.41,1.92,8.05,1.36,2.64,3.2,4.54,5.51,5.7v.99H16.11v-.99c2.39-1.49,4.09-3.45,5.08-5.88,.99-2.43,1.57-5.06,1.73-7.86l3.34-63.78c.16-3.55-1.45-6.15-4.83-7.8v-.99h15.98l28.36,64.77,24.27-64.9,15.6,.12Z"/>
        <path class="cls-4" d="M105.61,37.23v.99c-1.4,1.16-2.42,2.31-3.03,3.47-.62,1.16-.89,2.6-.81,4.33l3.34,63.78c.16,3.55,.72,6.36,1.67,8.42,.95,2.07,2.62,3.84,5.02,5.33v.99h-24.15v-.99c1.9-1.16,3.28-2.83,4.15-5.02,.87-2.19,1.22-4.64,1.05-7.37l-3.59-66.75-27.87,74.06h-1.73L27.95,47.38l-3.1,62.42c-.08,2.72,.56,5.41,1.92,8.05,1.36,2.64,3.2,4.54,5.51,5.7v.99H16.06v-.99c2.39-1.49,4.09-3.45,5.08-5.88,.99-2.43,1.57-5.06,1.73-7.86l3.34-63.78c.16-3.55-1.45-6.15-4.83-7.8v-.99h15.98l28.36,64.77,24.27-64.9,15.6,.12Z"/>
        <path class="cls-4" d="M105.56,37.18v.99c-1.4,1.16-2.42,2.31-3.03,3.47-.62,1.16-.89,2.6-.81,4.33l3.34,63.78c.16,3.55,.72,6.36,1.67,8.42,.95,2.07,2.62,3.84,5.02,5.33v.99h-24.15v-.99c1.9-1.16,3.28-2.83,4.15-5.02,.87-2.19,1.22-4.64,1.05-7.37l-3.59-66.75-27.87,74.06h-1.73L27.9,47.33l-3.1,62.42c-.08,2.72,.56,5.41,1.92,8.05,1.36,2.64,3.2,4.54,5.51,5.7v.99H16.02v-.99c2.39-1.49,4.09-3.45,5.08-5.88,.99-2.43,1.57-5.06,1.73-7.86l3.34-63.78c.16-3.55-1.45-6.15-4.83-7.8v-.99h15.98l28.36,64.77,24.27-64.9,15.6,.12Z"/>
        <path class="cls-4" d="M105.51,37.13v.99c-1.4,1.16-2.42,2.31-3.03,3.47-.62,1.16-.89,2.6-.81,4.33l3.34,63.78c.16,3.55,.72,6.36,1.67,8.42,.95,2.07,2.62,3.84,5.02,5.33v.99h-24.15v-.99c1.9-1.16,3.28-2.83,4.15-5.02,.87-2.19,1.22-4.64,1.05-7.37l-3.59-66.75-27.87,74.06h-1.73L27.86,47.28l-3.1,62.42c-.08,2.72,.56,5.41,1.92,8.05,1.36,2.64,3.2,4.54,5.51,5.7v.99H15.97v-.99c2.39-1.49,4.09-3.45,5.08-5.88,.99-2.43,1.57-5.06,1.73-7.86l3.34-63.78c.16-3.55-1.45-6.15-4.83-7.8v-.99h15.98l28.36,64.77,24.27-64.9,15.6,.12Z"/>
        <path class="cls-4" d="M105.46,37.08v.99c-1.4,1.16-2.42,2.31-3.03,3.47-.62,1.16-.89,2.6-.81,4.33l3.34,63.78c.16,3.55,.72,6.36,1.67,8.42,.95,2.07,2.62,3.84,5.02,5.33v.99h-24.15v-.99c1.9-1.16,3.28-2.83,4.15-5.02,.87-2.19,1.22-4.64,1.05-7.37l-3.59-66.75-27.87,74.06h-1.73L27.81,47.24l-3.1,62.42c-.08,2.72,.56,5.41,1.92,8.05,1.36,2.64,3.2,4.54,5.51,5.7v.99H15.92v-.99c2.39-1.49,4.09-3.45,5.08-5.88,.99-2.43,1.57-5.06,1.73-7.86l3.34-63.78c.16-3.55-1.45-6.15-4.83-7.8v-.99h15.98l28.36,64.77,24.27-64.9,15.6,.12Z"/>
        <path class="cls-4" d="M105.41,37.03v.99c-1.4,1.16-2.42,2.31-3.03,3.47-.62,1.16-.89,2.6-.81,4.33l3.34,63.78c.16,3.55,.72,6.36,1.67,8.42,.95,2.07,2.62,3.84,5.02,5.33v.99h-24.15v-.99c1.9-1.16,3.28-2.83,4.15-5.02,.87-2.19,1.22-4.64,1.05-7.37l-3.59-66.75-27.87,74.06h-1.73L27.76,47.19l-3.1,62.42c-.08,2.72,.56,5.41,1.92,8.05,1.36,2.64,3.2,4.54,5.51,5.7v.99H15.87v-.99c2.39-1.49,4.09-3.45,5.08-5.88,.99-2.43,1.57-5.06,1.73-7.86l3.34-63.78c.16-3.55-1.45-6.15-4.83-7.8v-.99h15.98l28.36,64.77,24.27-64.9,15.6,.12Z"/>
        <path class="cls-4" d="M105.37,36.99v.99c-1.4,1.16-2.42,2.31-3.03,3.47-.62,1.16-.89,2.6-.81,4.33l3.34,63.78c.16,3.55,.72,6.36,1.67,8.42,.95,2.07,2.62,3.84,5.02,5.33v.99h-24.15v-.99c1.9-1.16,3.28-2.83,4.15-5.02,.87-2.19,1.22-4.64,1.05-7.37l-3.59-66.75-27.87,74.06h-1.73L27.71,47.14l-3.1,62.42c-.08,2.72,.56,5.41,1.92,8.05,1.36,2.64,3.2,4.54,5.51,5.7v.99H15.82v-.99c2.39-1.49,4.09-3.45,5.08-5.88,.99-2.43,1.57-5.06,1.73-7.86l3.34-63.78c.16-3.55-1.45-6.15-4.83-7.8v-.99h15.98l28.36,64.77,24.27-64.9,15.6,.12Z"/>
        <path class="cls-4" d="M105.32,36.94v.99c-1.4,1.16-2.42,2.31-3.03,3.47-.62,1.16-.89,2.6-.81,4.33l3.34,63.78c.16,3.55,.72,6.36,1.67,8.42,.95,2.07,2.62,3.84,5.02,5.33v.99h-24.15v-.99c1.9-1.16,3.28-2.83,4.15-5.02,.87-2.19,1.22-4.64,1.05-7.37l-3.59-66.75-27.87,74.06h-1.73L27.67,47.09l-3.1,62.42c-.08,2.72,.56,5.41,1.92,8.05,1.36,2.64,3.2,4.54,5.51,5.7v.99H15.78v-.99c2.39-1.49,4.09-3.45,5.08-5.88,.99-2.43,1.57-5.06,1.73-7.86l3.34-63.78c.16-3.55-1.45-6.15-4.83-7.8v-.99h15.98l28.36,64.77,24.27-64.9,15.6,.12Z"/>
        <path class="cls-4" d="M105.27,36.89v.99c-1.4,1.16-2.42,2.31-3.03,3.47-.62,1.16-.89,2.6-.81,4.33l3.34,63.78c.16,3.55,.72,6.36,1.67,8.42,.95,2.07,2.62,3.84,5.02,5.33v.99h-24.15v-.99c1.9-1.16,3.28-2.83,4.15-5.02,.87-2.19,1.22-4.64,1.05-7.37l-3.59-66.75-27.87,74.06h-1.73L27.62,47.05l-3.1,62.42c-.08,2.72,.56,5.41,1.92,8.05,1.36,2.64,3.2,4.54,5.51,5.7v.99H15.73v-.99c2.39-1.49,4.09-3.45,5.08-5.88,.99-2.43,1.57-5.06,1.73-7.86l3.34-63.78c.16-3.55-1.45-6.15-4.83-7.8v-.99h15.98l28.36,64.77,24.27-64.9,15.6,.12Z"/>
        <path class="cls-4" d="M105.22,36.84v.99c-1.4,1.16-2.42,2.31-3.03,3.47-.62,1.16-.89,2.6-.81,4.33l3.34,63.78c.16,3.55,.72,6.36,1.67,8.42,.95,2.07,2.62,3.84,5.02,5.33v.99h-24.15v-.99c1.9-1.16,3.28-2.83,4.15-5.02,.87-2.19,1.22-4.64,1.05-7.37l-3.59-66.75-27.87,74.06h-1.73L27.57,47l-3.1,62.42c-.08,2.72,.56,5.41,1.92,8.05,1.36,2.64,3.2,4.54,5.51,5.7v.99H15.68v-.99c2.39-1.49,4.09-3.45,5.08-5.88,.99-2.43,1.57-5.06,1.73-7.86l3.34-63.78c.16-3.55-1.45-6.15-4.83-7.8v-.99h15.98l28.36,64.77,24.27-64.9,15.6,.12Z"/>
        <path class="cls-4" d="M105.18,36.8v.99c-1.4,1.16-2.42,2.31-3.03,3.47-.62,1.16-.89,2.6-.81,4.33l3.34,63.78c.16,3.55,.72,6.36,1.67,8.42,.95,2.07,2.62,3.84,5.02,5.33v.99h-24.15v-.99c1.9-1.16,3.28-2.83,4.15-5.02,.87-2.19,1.22-4.64,1.05-7.37l-3.59-66.75-27.87,74.06h-1.73L27.52,46.95l-3.1,62.42c-.08,2.72,.56,5.41,1.92,8.05,1.36,2.64,3.2,4.54,5.51,5.7v.99H15.63v-.99c2.39-1.49,4.09-3.45,5.08-5.88,.99-2.43,1.57-5.06,1.73-7.86l3.34-63.78c.16-3.55-1.45-6.15-4.83-7.8v-.99h15.98l28.36,64.77,24.27-64.9,15.6,.12Z"/>
        <path class="cls-4" d="M105.13,36.75v.99c-1.4,1.16-2.42,2.31-3.03,3.47-.62,1.16-.89,2.6-.81,4.33l3.34,63.78c.16,3.55,.72,6.36,1.67,8.42,.95,2.07,2.62,3.84,5.02,5.33v.99h-24.15v-.99c1.9-1.16,3.28-2.83,4.15-5.02,.87-2.19,1.22-4.64,1.05-7.37l-3.59-66.75-27.87,74.06h-1.73L27.47,46.9l-3.1,62.42c-.08,2.72,.56,5.41,1.92,8.05,1.36,2.64,3.2,4.54,5.51,5.7v.99H15.59v-.99c2.39-1.49,4.09-3.45,5.08-5.88,.99-2.43,1.57-5.06,1.73-7.86l3.34-63.78c.16-3.55-1.45-6.15-4.83-7.8v-.99h15.98l28.36,64.77,24.27-64.9,15.6,.12Z"/>
        <path class="cls-4" d="M105.08,36.7v.99c-1.4,1.16-2.42,2.31-3.03,3.47-.62,1.16-.89,2.6-.81,4.33l3.34,63.78c.16,3.55,.72,6.36,1.67,8.42,.95,2.07,2.62,3.84,5.02,5.33v.99h-24.15v-.99c1.9-1.16,3.28-2.83,4.15-5.02,.87-2.19,1.22-4.64,1.05-7.37l-3.59-66.75-27.87,74.06h-1.73L27.43,46.85l-3.1,62.42c-.08,2.72,.56,5.41,1.92,8.05,1.36,2.64,3.2,4.54,5.51,5.7v.99H15.54v-.99c2.39-1.49,4.09-3.45,5.08-5.88,.99-2.43,1.57-5.06,1.73-7.86l3.34-63.78c.16-3.55-1.45-6.15-4.83-7.8v-.99h15.98l28.36,64.77,24.27-64.9,15.6,.12Z"/>
        <path class="cls-4" d="M105.03,36.65v.99c-1.4,1.16-2.42,2.31-3.03,3.47-.62,1.16-.89,2.6-.81,4.33l3.34,63.78c.16,3.55,.72,6.36,1.67,8.42,.95,2.07,2.62,3.84,5.02,5.33v.99h-24.15v-.99c1.9-1.16,3.28-2.83,4.15-5.02,.87-2.19,1.22-4.64,1.05-7.37l-3.59-66.75-27.87,74.06h-1.73L27.38,46.81l-3.1,62.42c-.08,2.72,.56,5.41,1.92,8.05,1.36,2.64,3.2,4.54,5.51,5.7v.99H15.49v-.99c2.39-1.49,4.09-3.45,5.08-5.88,.99-2.43,1.57-5.06,1.73-7.86l3.34-63.78c.16-3.55-1.45-6.15-4.83-7.8v-.99h15.98l28.36,64.77,24.27-64.9,15.6,.12Z"/>
        <path class="cls-4" d="M104.98,36.6v.99c-1.4,1.16-2.42,2.31-3.03,3.47-.62,1.16-.89,2.6-.81,4.33l3.34,63.78c.16,3.55,.72,6.36,1.67,8.42,.95,2.07,2.62,3.84,5.02,5.33v.99h-24.15v-.99c1.9-1.16,3.28-2.83,4.15-5.02,.87-2.19,1.22-4.64,1.05-7.37l-3.59-66.75-27.87,74.06h-1.73L27.33,46.76l-3.1,62.42c-.08,2.72,.56,5.41,1.92,8.05,1.36,2.64,3.2,4.54,5.51,5.7v.99H15.44v-.99c2.39-1.49,4.09-3.45,5.08-5.88,.99-2.43,1.57-5.06,1.73-7.86l3.34-63.78c.16-3.55-1.45-6.15-4.83-7.8v-.99h15.98l28.36,64.77,24.27-64.9,15.6,.12Z"/>
        <path class="cls-4" d="M104.94,36.56v.99c-1.4,1.16-2.42,2.31-3.03,3.47-.62,1.16-.89,2.6-.81,4.33l3.34,63.78c.16,3.55,.72,6.36,1.67,8.42,.95,2.07,2.62,3.84,5.02,5.33v.99h-24.15v-.99c1.9-1.16,3.28-2.83,4.15-5.02,.87-2.19,1.22-4.64,1.05-7.37l-3.59-66.75-27.87,74.06h-1.73L27.28,46.71l-3.1,62.42c-.08,2.72,.56,5.41,1.92,8.05,1.36,2.64,3.2,4.54,5.51,5.7v.99H15.39v-.99c2.39-1.49,4.09-3.45,5.08-5.88,.99-2.43,1.57-5.06,1.73-7.86l3.34-63.78c.16-3.55-1.45-6.15-4.83-7.8v-.99h15.98l28.36,64.77,24.27-64.9,15.6,.12Z"/>
        <path class="cls-4" d="M104.89,36.51v.99c-1.4,1.16-2.42,2.31-3.03,3.47-.62,1.16-.89,2.6-.81,4.33l3.34,63.78c.16,3.55,.72,6.36,1.67,8.42,.95,2.07,2.62,3.84,5.02,5.33v.99h-24.15v-.99c1.9-1.16,3.28-2.83,4.15-5.02,.87-2.19,1.22-4.64,1.05-7.37l-3.59-66.75-27.87,74.06h-1.73L27.24,46.66l-3.1,62.42c-.08,2.72,.56,5.41,1.92,8.05,1.36,2.64,3.2,4.54,5.51,5.7v.99H15.35v-.99c2.39-1.49,4.09-3.45,5.08-5.88,.99-2.43,1.57-5.06,1.73-7.86l3.34-63.78c.16-3.55-1.45-6.15-4.83-7.8v-.99h15.98l28.36,64.77,24.27-64.9,15.6,.12Z"/>
        <path class="cls-4" d="M104.84,36.46v.99c-1.4,1.16-2.42,2.31-3.03,3.47-.62,1.16-.89,2.6-.81,4.33l3.34,63.78c.16,3.55,.72,6.36,1.67,8.42,.95,2.07,2.62,3.84,5.02,5.33v.99h-24.15v-.99c1.9-1.16,3.28-2.83,4.15-5.02,.87-2.19,1.22-4.64,1.05-7.37l-3.59-66.75-27.87,74.06h-1.73L27.19,46.62l-3.1,62.42c-.08,2.72,.56,5.41,1.92,8.05,1.36,2.64,3.2,4.54,5.51,5.7v.99H15.3v-.99c2.39-1.49,4.09-3.45,5.08-5.88,.99-2.43,1.57-5.06,1.73-7.86l3.34-63.78c.16-3.55-1.45-6.15-4.83-7.8v-.99h15.98l28.36,64.77,24.27-64.9,15.6,.12Z"/>
        <path class="cls-4" d="M104.79,36.41v.99c-1.4,1.16-2.42,2.31-3.03,3.47-.62,1.16-.89,2.6-.81,4.33l3.34,63.78c.16,3.55,.72,6.36,1.67,8.42,.95,2.07,2.62,3.84,5.02,5.33v.99h-24.15v-.99c1.9-1.16,3.28-2.83,4.15-5.02,.87-2.19,1.22-4.64,1.05-7.37l-3.59-66.75-27.87,74.06h-1.73L27.14,46.57l-3.1,62.42c-.08,2.72,.56,5.41,1.92,8.05,1.36,2.64,3.2,4.54,5.51,5.7v.99H15.25v-.99c2.39-1.49,4.09-3.45,5.08-5.88,.99-2.43,1.57-5.06,1.73-7.86l3.34-63.78c.16-3.55-1.45-6.15-4.83-7.8v-.99h15.98l28.36,64.77,24.27-64.9,15.6,.12Z"/>
        <path class="cls-4" d="M104.75,36.37v.99c-1.4,1.16-2.42,2.31-3.03,3.47-.62,1.16-.89,2.6-.81,4.33l3.34,63.78c.16,3.55,.72,6.36,1.67,8.42,.95,2.07,2.62,3.84,5.02,5.33v.99h-24.15v-.99c1.9-1.16,3.28-2.83,4.15-5.02,.87-2.19,1.22-4.64,1.05-7.37l-3.59-66.75-27.87,74.06h-1.73L27.09,46.52l-3.1,62.42c-.08,2.72,.56,5.41,1.92,8.05,1.36,2.64,3.2,4.54,5.51,5.7v.99H15.2v-.99c2.39-1.49,4.09-3.45,5.08-5.88,.99-2.43,1.57-5.06,1.73-7.86l3.34-63.78c.16-3.55-1.45-6.15-4.83-7.8v-.99h15.98l28.36,64.77,24.27-64.9,15.6,.12Z"/>
        <path class="cls-4" d="M104.7,36.32v.99c-1.4,1.16-2.42,2.31-3.03,3.47-.62,1.16-.89,2.6-.81,4.33l3.34,63.78c.16,3.55,.72,6.36,1.67,8.42,.95,2.07,2.62,3.84,5.02,5.33v.99h-24.15v-.99c1.9-1.16,3.28-2.83,4.15-5.02,.87-2.19,1.22-4.64,1.05-7.37l-3.59-66.75-27.87,74.06h-1.73L27.04,46.47l-3.1,62.42c-.08,2.72,.56,5.41,1.92,8.05,1.36,2.64,3.2,4.54,5.51,5.7v.99H15.16v-.99c2.39-1.49,4.09-3.45,5.08-5.88,.99-2.43,1.57-5.06,1.73-7.86l3.34-63.78c.16-3.55-1.45-6.15-4.83-7.8v-.99h15.98l28.36,64.77,24.27-64.9,15.6,.12Z"/>
        <path class="cls-4" d="M104.65,36.27v.99c-1.4,1.16-2.42,2.31-3.03,3.47-.62,1.16-.89,2.6-.81,4.33l3.34,63.78c.16,3.55,.72,6.36,1.67,8.42,.95,2.07,2.62,3.84,5.02,5.33v.99h-24.15v-.99c1.9-1.16,3.28-2.83,4.15-5.02,.87-2.19,1.22-4.64,1.05-7.37l-3.59-66.75-27.87,74.06h-1.73L27,46.42l-3.1,62.42c-.08,2.72,.56,5.41,1.92,8.05,1.36,2.64,3.2,4.54,5.51,5.7v.99H15.11v-.99c2.39-1.49,4.09-3.45,5.08-5.88,.99-2.43,1.57-5.06,1.73-7.86l3.34-63.78c.16-3.55-1.45-6.15-4.83-7.8v-.99h15.98l28.36,64.77,24.27-64.9,15.6,.12Z"/>
        <path class="cls-4" d="M104.6,36.22v.99c-1.4,1.16-2.42,2.31-3.03,3.47-.62,1.16-.89,2.6-.81,4.33l3.34,63.78c.16,3.55,.72,6.36,1.67,8.42,.95,2.07,2.62,3.84,5.02,5.33v.99h-24.15v-.99c1.9-1.16,3.28-2.83,4.15-5.02,.87-2.19,1.22-4.64,1.05-7.37l-3.59-66.75-27.87,74.06h-1.73L26.95,46.38l-3.1,62.42c-.08,2.72,.56,5.41,1.92,8.05,1.36,2.64,3.2,4.54,5.51,5.7v.99H15.06v-.99c2.39-1.49,4.09-3.45,5.08-5.88,.99-2.43,1.57-5.06,1.73-7.86l3.34-63.78c.16-3.55-1.45-6.15-4.83-7.8v-.99h15.98l28.36,64.77,24.27-64.9,15.6,.12Z"/>
        <path class="cls-4" d="M104.55,36.17v.99c-1.4,1.16-2.42,2.31-3.03,3.47-.62,1.16-.89,2.6-.81,4.33l3.34,63.78c.16,3.55,.72,6.36,1.67,8.42,.95,2.07,2.62,3.84,5.02,5.33v.99h-24.15v-.99c1.9-1.16,3.28-2.83,4.15-5.02,.87-2.19,1.22-4.64,1.05-7.37l-3.59-66.75-27.87,74.06h-1.73L26.9,46.33l-3.1,62.42c-.08,2.72,.56,5.41,1.92,8.05,1.36,2.64,3.2,4.54,5.51,5.7v.99H15.01v-.99c2.39-1.49,4.09-3.45,5.08-5.88,.99-2.43,1.57-5.06,1.73-7.86l3.34-63.78c.16-3.55-1.45-6.15-4.83-7.8v-.99h15.98l28.36,64.77,24.27-64.9,15.6,.12Z"/>
        <path class="cls-4" d="M104.51,36.13v.99c-1.4,1.16-2.42,2.31-3.03,3.47-.62,1.16-.89,2.6-.81,4.33l3.34,63.78c.16,3.55,.72,6.36,1.67,8.42,.95,2.07,2.62,3.84,5.02,5.33v.99h-24.15v-.99c1.9-1.16,3.28-2.83,4.15-5.02,.87-2.19,1.22-4.64,1.05-7.37l-3.59-66.75-27.87,74.06h-1.73L26.85,46.28l-3.1,62.42c-.08,2.72,.56,5.41,1.92,8.05,1.36,2.64,3.2,4.54,5.51,5.7v.99H14.96v-.99c2.39-1.49,4.09-3.45,5.08-5.88,.99-2.43,1.57-5.06,1.73-7.86l3.34-63.78c.16-3.55-1.45-6.15-4.83-7.8v-.99h15.98l28.36,64.77,24.27-64.9,15.6,.12Z"/>
        <path class="cls-4" d="M104.46,36.08v.99c-1.4,1.16-2.42,2.31-3.03,3.47-.62,1.16-.89,2.6-.81,4.33l3.34,63.78c.16,3.55,.72,6.36,1.67,8.42,.95,2.07,2.62,3.84,5.02,5.33v.99h-24.15v-.99c1.9-1.16,3.28-2.83,4.15-5.02,.87-2.19,1.22-4.64,1.05-7.37l-3.59-66.75-27.87,74.06h-1.73L26.81,46.23l-3.1,62.42c-.08,2.72,.56,5.41,1.92,8.05,1.36,2.64,3.2,4.54,5.51,5.7v.99H14.92v-.99c2.39-1.49,4.09-3.45,5.08-5.88,.99-2.43,1.57-5.06,1.73-7.86l3.34-63.78c.16-3.55-1.45-6.15-4.83-7.8v-.99h15.98l28.36,64.77,24.27-64.9,15.6,.12Z"/>
        <path class="cls-4" d="M104.41,36.03v.99c-1.4,1.16-2.42,2.31-3.03,3.47-.62,1.16-.89,2.6-.81,4.33l3.34,63.78c.16,3.55,.72,6.36,1.67,8.42,.95,2.07,2.62,3.84,5.02,5.33v.99h-24.15v-.99c1.9-1.16,3.28-2.83,4.15-5.02,.87-2.19,1.22-4.64,1.05-7.37l-3.59-66.75-27.87,74.06h-1.73L26.76,46.19l-3.1,62.42c-.08,2.72,.56,5.41,1.92,8.05,1.36,2.64,3.2,4.54,5.51,5.7v.99H14.87v-.99c2.39-1.49,4.09-3.45,5.08-5.88,.99-2.43,1.57-5.06,1.73-7.86l3.34-63.78c.16-3.55-1.45-6.15-4.83-7.8v-.99h15.98l28.36,64.77,24.27-64.9,15.6,.12Z"/>
        <path class="cls-4" d="M104.36,35.98v.99c-1.4,1.16-2.42,2.31-3.03,3.47-.62,1.16-.89,2.6-.81,4.33l3.34,63.78c.16,3.55,.72,6.36,1.67,8.42,.95,2.07,2.62,3.84,5.02,5.33v.99h-24.15v-.99c1.9-1.16,3.28-2.83,4.15-5.02,.87-2.19,1.22-4.64,1.05-7.37l-3.59-66.75-27.87,74.06h-1.73L26.71,46.14l-3.1,62.42c-.08,2.72,.56,5.41,1.92,8.05,1.36,2.64,3.2,4.54,5.51,5.7v.99H14.82v-.99c2.39-1.49,4.09-3.45,5.08-5.88,.99-2.43,1.57-5.06,1.73-7.86l3.34-63.78c.16-3.55-1.45-6.15-4.83-7.8v-.99h15.98l28.36,64.77,24.27-64.9,15.6,.12Z"/>
        <path class="cls-4" d="M104.32,35.94v.99c-1.4,1.16-2.42,2.31-3.03,3.47-.62,1.16-.89,2.6-.81,4.33l3.34,63.78c.16,3.55,.72,6.36,1.67,8.42,.95,2.07,2.62,3.84,5.02,5.33v.99h-24.15v-.99c1.9-1.16,3.28-2.83,4.15-5.02,.87-2.19,1.22-4.64,1.05-7.37l-3.59-66.75-27.87,74.06h-1.73L26.66,46.09l-3.1,62.42c-.08,2.72,.56,5.41,1.92,8.05,1.36,2.64,3.2,4.54,5.51,5.7v.99H14.77v-.99c2.39-1.49,4.09-3.45,5.08-5.88,.99-2.43,1.57-5.06,1.73-7.86l3.34-63.78c.16-3.55-1.45-6.15-4.83-7.8v-.99h15.98l28.36,64.77,24.27-64.9,15.6,.12Z"/>
        <path class="cls-4" d="M104.27,35.89v.99c-1.4,1.16-2.42,2.31-3.03,3.47-.62,1.16-.89,2.6-.81,4.33l3.34,63.78c.16,3.55,.72,6.36,1.67,8.42,.95,2.07,2.62,3.84,5.02,5.33v.99h-24.15v-.99c1.9-1.16,3.28-2.83,4.15-5.02,.87-2.19,1.22-4.64,1.05-7.37l-3.59-66.75-27.87,74.06h-1.73L26.61,46.04l-3.1,62.42c-.08,2.72,.56,5.41,1.92,8.05,1.36,2.64,3.2,4.54,5.51,5.7v.99H14.73v-.99c2.39-1.49,4.09-3.45,5.08-5.88,.99-2.43,1.57-5.06,1.73-7.86l3.34-63.78c.16-3.55-1.45-6.15-4.83-7.8v-.99h15.98l28.36,64.77,24.27-64.9,15.6,.12Z"/>
        <path class="cls-4" d="M104.22,35.84v.99c-1.4,1.16-2.42,2.31-3.03,3.47-.62,1.16-.89,2.6-.81,4.33l3.34,63.78c.16,3.55,.72,6.36,1.67,8.42,.95,2.07,2.62,3.84,5.02,5.33v.99h-24.15v-.99c1.9-1.16,3.28-2.83,4.15-5.02,.87-2.19,1.22-4.64,1.05-7.37l-3.59-66.75-27.87,74.06h-1.73L26.57,45.99l-3.1,62.42c-.08,2.72,.56,5.41,1.92,8.05,1.36,2.64,3.2,4.54,5.51,5.7v.99H14.68v-.99c2.39-1.49,4.09-3.45,5.08-5.88,.99-2.43,1.57-5.06,1.73-7.86l3.34-63.78c.16-3.55-1.45-6.15-4.83-7.8v-.99h15.98l28.36,64.77,24.27-64.9,15.6,.12Z"/>
        <path class="cls-4" d="M104.17,35.79v.99c-1.4,1.16-2.42,2.31-3.03,3.47-.62,1.16-.89,2.6-.81,4.33l3.34,63.78c.16,3.55,.72,6.36,1.67,8.42,.95,2.07,2.62,3.84,5.02,5.33v.99h-24.15v-.99c1.9-1.16,3.28-2.83,4.15-5.02,.87-2.19,1.22-4.64,1.05-7.37l-3.59-66.75-27.87,74.06h-1.73L26.52,45.95l-3.1,62.42c-.08,2.72,.56,5.41,1.92,8.05,1.36,2.64,3.2,4.54,5.51,5.7v.99H14.63v-.99c2.39-1.49,4.09-3.45,5.08-5.88,.99-2.43,1.57-5.06,1.73-7.86l3.34-63.78c.16-3.55-1.45-6.15-4.83-7.8v-.99h15.98l28.36,64.77,24.27-64.9,15.6,.12Z"/>
        <path class="cls-4" d="M104.12,35.74v.99c-1.4,1.16-2.42,2.31-3.03,3.47-.62,1.16-.89,2.6-.81,4.33l3.34,63.78c.16,3.55,.72,6.36,1.67,8.42,.95,2.07,2.62,3.84,5.02,5.33v.99h-24.15v-.99c1.9-1.16,3.28-2.83,4.15-5.02,.87-2.19,1.22-4.64,1.05-7.37l-3.59-66.75-27.87,74.06h-1.73L26.47,45.9l-3.1,62.42c-.08,2.72,.56,5.41,1.92,8.05,1.36,2.64,3.2,4.54,5.51,5.7v.99H14.58v-.99c2.39-1.49,4.09-3.45,5.08-5.88,.99-2.43,1.57-5.06,1.73-7.86l3.34-63.78c.16-3.55-1.45-6.15-4.83-7.8v-.99h15.98l28.36,64.77,24.27-64.9,15.6,.12Z"/>
        <path class="cls-4" d="M104.08,35.7v.99c-1.4,1.16-2.42,2.31-3.03,3.47-.62,1.16-.89,2.6-.81,4.33l3.34,63.78c.16,3.55,.72,6.36,1.67,8.42,.95,2.07,2.62,3.84,5.02,5.33v.99h-24.15v-.99c1.9-1.16,3.28-2.83,4.15-5.02,.87-2.19,1.22-4.64,1.05-7.37l-3.59-66.75-27.87,74.06h-1.73L26.42,45.85l-3.1,62.42c-.08,2.72,.56,5.41,1.92,8.05,1.36,2.64,3.2,4.54,5.51,5.7v.99H14.53v-.99c2.39-1.49,4.09-3.45,5.08-5.88,.99-2.43,1.57-5.06,1.73-7.86l3.34-63.78c.16-3.55-1.45-6.15-4.83-7.8v-.99h15.98l28.36,64.77,24.27-64.9,15.6,.12Z"/>
        <path class="cls-4" d="M104.03,35.65v.99c-1.4,1.16-2.42,2.31-3.03,3.47-.62,1.16-.89,2.6-.81,4.33l3.34,63.78c.16,3.55,.72,6.36,1.67,8.42,.95,2.07,2.62,3.84,5.02,5.33v.99h-24.15v-.99c1.9-1.16,3.28-2.83,4.15-5.02,.87-2.19,1.22-4.64,1.05-7.37l-3.59-66.75-27.87,74.06h-1.73L26.38,45.8l-3.1,62.42c-.08,2.72,.56,5.41,1.92,8.05,1.36,2.64,3.2,4.54,5.51,5.7v.99H14.49v-.99c2.39-1.49,4.09-3.45,5.08-5.88,.99-2.43,1.57-5.06,1.73-7.86l3.34-63.78c.16-3.55-1.45-6.15-4.83-7.8v-.99h15.98l28.36,64.77,24.27-64.9,15.6,.12Z"/>
        <path class="cls-4" d="M103.98,35.6v.99c-1.4,1.16-2.42,2.31-3.03,3.47-.62,1.16-.89,2.6-.81,4.33l3.34,63.78c.16,3.55,.72,6.36,1.67,8.42,.95,2.07,2.62,3.84,5.02,5.33v.99h-24.15v-.99c1.9-1.16,3.28-2.83,4.15-5.02,.87-2.19,1.22-4.64,1.05-7.37l-3.59-66.75-27.87,74.06h-1.73L26.33,45.76l-3.1,62.42c-.08,2.72,.56,5.41,1.92,8.05,1.36,2.64,3.2,4.54,5.51,5.7v.99H14.44v-.99c2.39-1.49,4.09-3.45,5.08-5.88,.99-2.43,1.57-5.06,1.73-7.86l3.34-63.78c.16-3.55-1.45-6.15-4.83-7.8v-.99h15.98l28.36,64.77,24.27-64.9,15.6,.12Z"/>
        <path class="cls-4" d="M103.93,35.55v.99c-1.4,1.16-2.42,2.31-3.03,3.47-.62,1.16-.89,2.6-.81,4.33l3.34,63.78c.16,3.55,.72,6.36,1.67,8.42,.95,2.07,2.62,3.84,5.02,5.33v.99h-24.15v-.99c1.9-1.16,3.28-2.83,4.15-5.02,.87-2.19,1.22-4.64,1.05-7.37l-3.59-66.75-27.87,74.06h-1.73L26.28,45.71l-3.1,62.42c-.08,2.72,.56,5.41,1.92,8.05,1.36,2.64,3.2,4.54,5.51,5.7v.99H14.39v-.99c2.39-1.49,4.09-3.45,5.08-5.88,.99-2.43,1.57-5.06,1.73-7.86l3.34-63.78c.16-3.55-1.45-6.15-4.83-7.8v-.99h15.98l28.36,64.77,24.27-64.9,15.6,.12Z"/>
      </g>
      <path class="cls-1" d="M171.77,91.38h-40.25c-.08,.83-.15,1.63-.19,2.42-.04,.79-.06,1.63-.06,2.54,0,3.47,.56,6.56,1.67,9.29s2.6,5.04,4.46,6.94c1.86,1.9,4,3.39,6.44,4.46,2.43,1.07,4.97,1.65,7.62,1.73,3.47,.17,7.02-.47,10.65-1.92,3.63-1.44,6.77-4.11,9.41-7.99l.99,.87c-1.4,2.06-2.89,4.05-4.46,5.94-1.57,1.9-3.34,3.57-5.33,5.02-1.98,1.45-4.23,2.6-6.75,3.47-2.52,.87-5.39,1.3-8.61,1.3-4.38,0-8.36-.7-11.95-2.11-3.59-1.4-6.65-3.36-9.17-5.88-2.52-2.52-4.48-5.57-5.88-9.16-1.4-3.59-2.11-7.57-2.11-11.95s.7-8.36,2.11-11.95c1.4-3.59,3.36-6.65,5.88-9.17s5.57-4.48,9.17-5.88c3.59-1.4,7.57-2.11,11.95-2.11,3.22,0,6.32,.58,9.29,1.73,2.97,1.16,5.57,2.81,7.8,4.95,2.23,2.15,4,4.69,5.33,7.62,1.32,2.93,1.98,6.21,1.98,9.85Zm-12.88-2.11c.25-2.15,.19-4.4-.19-6.75-.37-2.35-1.03-4.52-1.98-6.5-.95-1.98-2.21-3.63-3.78-4.95-1.57-1.32-3.43-1.98-5.57-1.98-4.13,0-7.55,1.82-10.28,5.45-2.72,3.63-4.5,8.55-5.33,14.74h27.12Z"/>
      <path class="cls-1" d="M209.55,69.09h-12.76v38.76c0,1.49,.02,2.91,.06,4.27,.04,1.36,.29,2.6,.74,3.72,.45,1.11,1.16,2,2.11,2.66,.95,.66,2.29,.99,4.03,.99,1.16,0,2.48-.21,3.96-.62,1.49-.41,3.05-1.49,4.71-3.22l.87,.62c-1.9,2.64-4.17,4.83-6.81,6.56-2.64,1.73-5.62,2.6-8.92,2.6-2.64,0-4.81-.37-6.5-1.11-1.69-.74-3.04-1.88-4.03-3.41-.99-1.53-1.67-3.45-2.04-5.76-.37-2.31-.56-4.99-.56-8.05v-38.02h-10.28v-1.86c4.21-1.16,8.32-3.41,12.32-6.75s7.16-7.37,9.47-12.08h.99l-.12,18.82h12.76v1.86Z"/>
      <path class="cls-1" d="M251.03,125.44c0-.16-.1-.6-.31-1.3-.21-.7-.43-1.46-.68-2.29-.25-.82-.54-1.9-.87-3.22-2.48,2.23-5.29,3.92-8.42,5.08-3.14,1.16-6.4,1.73-9.78,1.73-4.87,0-8.83-1.13-11.89-3.41-3.06-2.27-4.58-6.05-4.58-11.33,0-4.46,1.16-8.05,3.47-10.78,2.31-2.72,5.18-4.85,8.61-6.38,3.43-1.53,7.16-2.54,11.21-3.03,4.04-.5,7.8-.74,11.27-.74,0-1.9-.04-4.04-.12-6.44-.08-2.39-.43-4.64-1.05-6.75-.62-2.1-1.65-3.88-3.1-5.33-1.45-1.44-3.53-2.17-6.25-2.17-2.23,0-4.05,.37-5.45,1.11-1.4,.74-2.5,1.75-3.28,3.03-.79,1.28-1.32,2.77-1.61,4.46-.29,1.69-.43,3.53-.43,5.51,0,1.24-.66,2.19-1.98,2.85-1.32,.66-2.48,.99-3.47,.99-1.41,0-2.72-.47-3.96-1.42-1.24-.95-1.86-2.17-1.86-3.65,0-2.89,.83-5.28,2.48-7.18,1.65-1.9,3.67-3.41,6.07-4.52,2.39-1.12,4.99-1.9,7.8-2.35,2.81-.45,5.33-.68,7.55-.68,2.56,0,5.08,.29,7.55,.87,2.48,.58,4.71,1.51,6.69,2.79,1.98,1.28,3.61,2.93,4.89,4.95,1.28,2.02,1.92,4.52,1.92,7.49l.25,29.97c0,1.65,.62,3.26,1.86,4.83,1.24,1.57,2.72,2.48,4.46,2.72v.99l-16.97,3.59Zm-1.98-33.56c-.58-.08-1.11-.14-1.61-.19-.5-.04-1.03-.06-1.61-.06-2.4,0-4.71,.39-6.94,1.18-2.23,.79-4.21,1.9-5.94,3.34-1.73,1.45-3.12,3.18-4.15,5.2-1.03,2.02-1.55,4.27-1.55,6.75,0,3.8,.82,6.92,2.48,9.35,1.65,2.44,4.54,3.65,8.67,3.65,1.98,0,3.86-.5,5.63-1.49,1.77-.99,3.45-2.11,5.02-3.34v-24.4Z"/>
      <path class="cls-1" d="M471.36,69.71l18.08-2.48v15.11c1.4-2.31,3.07-4.66,5.02-7.06,1.94-2.39,4.27-4.29,7-5.7,2.97-1.57,6.19-2.35,9.66-2.35,2.15,0,4.11,.23,5.88,.68,1.77,.46,3.36,1.51,4.77,3.16,1.49,1.73,2.06,3.47,1.73,5.2-.33,1.73-1.16,3.1-2.48,4.09-1.32,.99-2.89,1.42-4.71,1.3-1.82-.12-3.47-1.18-4.95-3.16-.33-.41-.72-.91-1.18-1.49-.46-.58-1.01-1.09-1.67-1.55-.66-.45-1.47-.85-2.42-1.18-.95-.33-2.04-.45-3.28-.37-1.32,.08-2.62,.5-3.9,1.24-1.28,.74-2.48,1.73-3.59,2.97-1.12,1.24-2.17,2.66-3.16,4.27-.99,1.61-1.9,3.28-2.72,5.02v25.27c0,1.4,.08,2.64,.25,3.71,.17,1.07,.45,2.04,.87,2.91,.41,.87,.93,1.71,1.55,2.54,.62,.83,1.34,1.69,2.17,2.6v.99h-21.8v-.99c.91-.91,1.67-1.77,2.29-2.6,.62-.82,1.09-1.67,1.42-2.54,.33-.87,.56-1.84,.68-2.91,.12-1.07,.19-2.31,.19-3.71v-30.22c0-2.89-.41-5.16-1.24-6.81-.83-1.65-2.31-3.3-4.46-4.95v-.99Z"/>
      <path class="cls-1" d="M579.23,91.38h-40.25c-.08,.83-.15,1.63-.19,2.42-.04,.79-.06,1.63-.06,2.54,0,3.47,.56,6.56,1.67,9.29s2.6,5.04,4.46,6.94c1.86,1.9,4,3.39,6.44,4.46,2.43,1.07,4.97,1.65,7.62,1.73,3.47,.17,7.02-.47,10.65-1.92,3.63-1.44,6.77-4.11,9.41-7.99l.99,.87c-1.4,2.06-2.89,4.05-4.46,5.94-1.57,1.9-3.34,3.57-5.33,5.02-1.98,1.45-4.23,2.6-6.75,3.47-2.52,.87-5.39,1.3-8.61,1.3-4.38,0-8.36-.7-11.95-2.11-3.59-1.4-6.65-3.36-9.16-5.88-2.52-2.52-4.48-5.57-5.88-9.16-1.41-3.59-2.11-7.57-2.11-11.95s.7-8.36,2.11-11.95c1.4-3.59,3.36-6.65,5.88-9.17s5.57-4.48,9.16-5.88c3.59-1.4,7.57-2.11,11.95-2.11,3.22,0,6.32,.58,9.29,1.73,2.97,1.16,5.57,2.81,7.8,4.95,2.23,2.15,4,4.69,5.33,7.62,1.32,2.93,1.98,6.21,1.98,9.85Zm-12.88-2.11c.25-2.15,.19-4.4-.19-6.75-.37-2.35-1.03-4.52-1.98-6.5-.95-1.98-2.21-3.63-3.78-4.95-1.57-1.32-3.43-1.98-5.57-1.98-4.13,0-7.55,1.82-10.28,5.45-2.72,3.63-4.5,8.55-5.33,14.74h27.12Z"/>
    </g>
    <path class="cls-4" d="M420.4,125.08c.78-3.34,1.88-6.19,3.28-8.55,1.4-2.35,3.1-4.19,5.08-5.51,1.98-1.32,4.21-1.98,6.69-1.98s4.58,.66,6.56,1.98c1.98,1.32,3.67,3.16,5.08,5.51,1.4,2.35,2.5,5.2,3.28,8.55,.02,.09,.03,.18,.05,.26h12.39c-.12-.34-.23-.68-.36-1.01-1.41-3.59-3.37-6.65-5.88-9.17-2.52-2.52-5.57-4.48-9.17-5.88-3.59-1.4-7.58-2.11-11.95-2.11s-8.36,.7-11.95,2.11c-3.59,1.41-6.65,3.37-9.16,5.88s-4.48,5.57-5.88,9.17c-.13,.33-.25,.67-.36,1.01h12.26c.02-.09,.03-.18,.05-.26Z"/>
    <path class="cls-2" d="M451.17,67.23c.24,2.02,.37,4.15,.37,6.4,0,4.05-.39,7.76-1.18,11.15-.79,3.39-1.88,6.25-3.28,8.61-1.41,2.35-3.1,4.19-5.08,5.51-1.98,1.32-4.17,1.98-6.56,1.98s-4.71-.66-6.69-1.98c-1.98-1.32-3.67-3.16-5.08-5.51-1.41-2.35-2.5-5.22-3.28-8.61-.79-3.38-1.18-7.1-1.18-11.15,0-2.26,.13-4.38,.37-6.4h-12.67c-.37,2.04-.58,4.16-.58,6.4,0,4.38,.7,8.36,2.11,11.95,1.4,3.59,3.36,6.65,5.88,9.16,2.52,2.52,5.57,4.48,9.16,5.88,3.59,1.41,7.57,2.11,11.95,2.11s8.36-.7,11.95-2.11c3.59-1.4,6.65-3.36,9.17-5.88s4.48-5.57,5.88-9.16c1.4-3.59,2.1-7.57,2.1-11.95,0-2.24-.21-4.37-.58-6.4h-12.8Z"/>
    <g>
      <path class="cls-2" d="M337.04,173.25c-1,0-2.01,.08-3.03,.25s-2.02,.34-3,.52c-.98,.18-1.95,.36-2.9,.53-.95,.17-1.88,.25-2.78,.25-2.6,0-4.95-.42-7.05-1.25-2.1-.83-3.89-2.02-5.38-3.55-1.48-1.53-2.62-3.38-3.42-5.55s-1.2-4.57-1.2-7.2,.4-5.04,1.2-7.23c.8-2.18,1.94-4.05,3.42-5.6,1.48-1.55,3.28-2.75,5.4-3.6,2.12-.85,4.49-1.28,7.12-1.28h1.1c1.03,0,1.92,.06,2.67,.17,.75,.12,1.48,.25,2.2,.4,.72,.15,1.45,.29,2.2,.42,.75,.13,1.64,.2,2.67,.2l1.35,8.25c-1.6-2.6-3.32-4.68-5.17-6.25-1.85-1.57-3.84-2.35-5.97-2.35-1.67,0-3.28,.38-4.83,1.12s-2.92,1.83-4.1,3.25c-1.18,1.42-2.13,3.17-2.85,5.25-.72,2.08-1.08,4.48-1.08,7.18,0,2.5,.33,4.79,.98,6.88,.65,2.08,1.52,3.86,2.62,5.32,1.1,1.47,2.39,2.61,3.88,3.43,1.48,.82,3.04,1.22,4.67,1.22,1.07,0,2.16-.15,3.28-.45,1.12-.3,2.22-.83,3.32-1.58,1.1-.75,2.18-1.77,3.25-3.07,1.07-1.3,2.07-2.97,3-5l-1.6,9.3Z"/>
      <path class="cls-2" d="M341.69,163.05c0-1.77,.28-3.38,.85-4.83,.57-1.45,1.36-2.68,2.38-3.7,1.02-1.02,2.25-1.81,3.7-2.38,1.45-.57,3.06-.85,4.83-.85s3.38,.28,4.83,.85c1.45,.57,2.68,1.36,3.7,2.38,1.02,1.02,1.81,2.25,2.38,3.7,.57,1.45,.85,3.06,.85,4.83s-.28,3.38-.85,4.83c-.57,1.45-1.36,2.68-2.38,3.7-1.02,1.02-2.25,1.81-3.7,2.38s-3.06,.85-4.83,.85-3.38-.28-4.83-.85-2.68-1.36-3.7-2.38-1.81-2.25-2.38-3.7c-.57-1.45-.85-3.06-.85-4.83Zm5.2,0c0,1.63,.16,3.13,.47,4.5,.32,1.37,.76,2.53,1.33,3.47,.57,.95,1.25,1.69,2.05,2.23s1.7,.8,2.7,.8,1.85-.27,2.65-.8c.8-.53,1.48-1.28,2.05-2.23,.57-.95,1.01-2.11,1.33-3.47,.32-1.37,.47-2.87,.47-4.5s-.16-3.17-.47-4.53c-.32-1.35-.76-2.5-1.33-3.45-.57-.95-1.25-1.69-2.05-2.23-.8-.53-1.68-.8-2.65-.8s-1.9,.27-2.7,.8c-.8,.53-1.48,1.28-2.05,2.23-.57,.95-1.01,2.1-1.33,3.45-.32,1.35-.47,2.86-.47,4.53Z"/>
      <path class="cls-2" d="M381.74,174.8c0-.07-.04-.24-.12-.53-.08-.28-.17-.59-.27-.92-.1-.33-.22-.77-.35-1.3-1,.9-2.13,1.58-3.4,2.05-1.27,.47-2.58,.7-3.95,.7-1.97,0-3.57-.46-4.8-1.38-1.23-.92-1.85-2.44-1.85-4.58,0-1.8,.47-3.25,1.4-4.35,.93-1.1,2.09-1.96,3.47-2.58,1.38-.62,2.89-1.03,4.53-1.22,1.63-.2,3.15-.3,4.55-.3,0-.77-.02-1.63-.05-2.6-.03-.97-.17-1.88-.42-2.72-.25-.85-.67-1.57-1.25-2.15-.58-.58-1.43-.88-2.53-.88-.9,0-1.63,.15-2.2,.45-.57,.3-1.01,.71-1.33,1.22-.32,.52-.53,1.12-.65,1.8-.12,.68-.17,1.43-.17,2.23,0,.5-.27,.88-.8,1.15-.53,.27-1,.4-1.4,.4-.57,0-1.1-.19-1.6-.58-.5-.38-.75-.88-.75-1.47,0-1.17,.33-2.13,1-2.9,.67-.77,1.48-1.38,2.45-1.83,.97-.45,2.02-.77,3.15-.95,1.13-.18,2.15-.28,3.05-.28,1.03,0,2.05,.12,3.05,.35,1,.23,1.9,.61,2.7,1.12,.8,.52,1.46,1.18,1.97,2,.52,.82,.78,1.83,.78,3.03l.1,12.1c0,.67,.25,1.32,.75,1.95,.5,.63,1.1,1,1.8,1.1v.4l-6.85,1.45Zm-.8-13.55c-.23-.03-.45-.06-.65-.08-.2-.02-.42-.03-.65-.03-.97,0-1.9,.16-2.8,.48-.9,.32-1.7,.77-2.4,1.35-.7,.58-1.26,1.28-1.67,2.1-.42,.82-.62,1.72-.62,2.72,0,1.53,.33,2.79,1,3.78,.67,.98,1.83,1.47,3.5,1.47,.8,0,1.56-.2,2.27-.6,.72-.4,1.39-.85,2.03-1.35v-9.85Z"/>
      <path class="cls-2" d="M411.59,168.1l.4,.35c-.57,.83-1.17,1.63-1.8,2.4-.63,.77-1.35,1.44-2.15,2.03s-1.71,1.05-2.73,1.4c-1.02,.35-2.17,.53-3.47,.53-1.77,0-3.38-.28-4.83-.85s-2.68-1.36-3.7-2.38-1.81-2.25-2.38-3.7-.85-3.06-.85-4.83,.28-3.38,.85-4.85,1.36-2.73,2.38-3.78,2.25-1.87,3.7-2.45c1.45-.58,3.06-.88,4.83-.88,1.93,0,3.71,.29,5.33,.88,1.62,.58,2.86,1.46,3.72,2.62,.37,.5,.57,1.01,.6,1.53,.03,.52-.05,.98-.25,1.4-.2,.42-.47,.76-.8,1.03-.33,.27-.7,.4-1.1,.4-.37,0-.72-.12-1.05-.35-.33-.23-.63-.63-.9-1.2-.4-.87-.79-1.64-1.17-2.32-.38-.68-.78-1.27-1.2-1.75s-.88-.85-1.38-1.1-1.1-.38-1.8-.38c-.97,0-1.87,.28-2.7,.83s-1.55,1.32-2.15,2.3c-.6,.98-1.05,2.16-1.35,3.53-.3,1.37-.4,2.88-.3,4.55,.1,1.4,.38,2.65,.83,3.75s1.04,2.03,1.77,2.8c.73,.77,1.58,1.37,2.53,1.8,.95,.43,1.96,.67,3.03,.7,1.4,.07,2.83-.19,4.3-.77,1.47-.58,2.73-1.66,3.8-3.23Z"/>
      <path class="cls-2" d="M420.74,138.55v18.8c.5-.83,1.03-1.62,1.58-2.35s1.17-1.38,1.85-1.92c.68-.55,1.43-.98,2.25-1.3,.82-.32,1.74-.47,2.78-.47,1.87,0,3.42,.47,4.67,1.42s1.88,2.42,1.88,4.42l.1,12.5c0,.57,.03,1.07,.1,1.5,.07,.43,.18,.83,.35,1.18,.17,.35,.38,.69,.62,1.02,.25,.33,.54,.68,.88,1.05v.4h-8.8v-.4c.37-.37,.67-.72,.92-1.05,.25-.33,.44-.67,.58-1.02,.13-.35,.23-.74,.28-1.18,.05-.43,.08-.93,.08-1.5l-.1-11.5c0-1.17-.34-2.16-1.02-2.97-.68-.82-1.56-1.22-2.62-1.22-.77,0-1.46,.14-2.08,.42-.62,.28-1.18,.66-1.7,1.12-.52,.47-.98,.99-1.4,1.58s-.81,1.17-1.17,1.77v10.8c0,.57,.03,1.07,.1,1.5,.07,.43,.18,.83,.35,1.18,.17,.35,.38,.69,.62,1.02,.25,.33,.54,.68,.88,1.05v.4h-8.8v-.4c.37-.37,.67-.72,.92-1.05,.25-.33,.44-.67,.58-1.02,.13-.35,.22-.74,.27-1.18,.05-.43,.08-.93,.08-1.5v-24.95c0-1.17-.17-2.08-.5-2.75s-.93-1.33-1.8-2v-.4l7.3-1Z"/>
      <path class="cls-2" d="M448.09,151.3v18.35c0,.57,.03,1.07,.1,1.5,.07,.43,.18,.83,.35,1.18,.17,.35,.38,.69,.62,1.02,.25,.33,.54,.68,.88,1.05v.4h-8.8v-.4c.37-.37,.67-.72,.92-1.05,.25-.33,.44-.67,.58-1.02,.13-.35,.22-.74,.27-1.18,.05-.43,.08-.93,.08-1.5v-12.2c0-1.17-.17-2.08-.5-2.75s-.93-1.33-1.8-2v-.4l7.3-1Zm-6.05-6.45c0-.97,.29-1.74,.88-2.33,.58-.58,1.36-.88,2.33-.88s1.74,.29,2.33,.88c.58,.58,.88,1.36,.88,2.33s-.29,1.75-.88,2.35c-.58,.6-1.36,.9-2.33,.9s-1.74-.3-2.33-.9c-.58-.6-.88-1.38-.88-2.35Z"/>
      <path class="cls-2" d="M460.34,151.3v6.05c.5-.83,1.03-1.62,1.58-2.35s1.17-1.38,1.85-1.92c.68-.55,1.43-.98,2.25-1.3,.82-.32,1.74-.47,2.78-.47,1.87,0,3.42,.47,4.67,1.42s1.88,2.42,1.88,4.42l.1,12.5c0,.57,.03,1.07,.1,1.5,.07,.43,.18,.83,.35,1.18,.17,.35,.38,.69,.62,1.02,.25,.33,.54,.68,.88,1.05v.4h-8.8v-.4c.37-.37,.67-.72,.92-1.05,.25-.33,.44-.67,.58-1.02,.13-.35,.23-.74,.28-1.18,.05-.43,.08-.93,.08-1.5l-.1-11.5c0-1.17-.34-2.16-1.02-2.97-.68-.82-1.56-1.22-2.62-1.22-.77,0-1.46,.14-2.08,.42-.62,.28-1.18,.66-1.7,1.12-.52,.47-.98,.99-1.4,1.58s-.81,1.17-1.17,1.77v10.8c0,.57,.03,1.07,.1,1.5,.07,.43,.18,.83,.35,1.18,.17,.35,.38,.69,.62,1.02,.25,.33,.54,.68,.88,1.05v.4h-8.8v-.4c.37-.37,.67-.72,.92-1.05,.25-.33,.44-.67,.58-1.02,.13-.35,.22-.74,.27-1.18,.05-.43,.08-.93,.08-1.5v-12.2c0-1.17-.17-2.08-.5-2.75s-.93-1.33-1.8-2v-.4l7.3-1Z"/>
      <path class="cls-2" d="M503.34,160.75c0,1.43-.31,2.73-.92,3.9-.62,1.17-1.45,2.17-2.5,3-1.05,.83-2.28,1.47-3.68,1.9-1.4,.43-2.88,.65-4.45,.65-1.4,0-2.73-.18-4-.53-1.27-.35-2.4-.86-3.4-1.53-.97,.7-1.45,1.45-1.45,2.25,0,.5,.15,.89,.45,1.18s.66,.48,1.08,.6c.42,.12,.88,.19,1.38,.22,.5,.03,.95,.07,1.35,.1,1.27,.1,2.55,.21,3.85,.33,1.3,.12,2.56,.27,3.77,.45,1.22,.18,2.36,.41,3.42,.68s2.02,.62,2.85,1.05c1.07,.57,1.84,1.29,2.33,2.17,.48,.88,.72,1.82,.7,2.8s-.27,1.94-.75,2.88c-.48,.93-1.16,1.72-2.02,2.35-1.27,.87-2.78,1.43-4.55,1.7-1.77,.27-3.55,.4-5.35,.4-.8,0-1.82-.06-3.05-.17-1.23-.12-2.45-.37-3.65-.75-1.2-.38-2.25-.94-3.15-1.67-.9-.73-1.42-1.73-1.55-3-.13-1.33,.07-2.31,.6-2.93s1.16-.96,1.88-1.02c.72-.07,1.38,.1,2,.5,.62,.4,.92,.97,.92,1.7,0,.87,.11,1.7,.33,2.5,.22,.8,.58,1.51,1.1,2.12,.52,.62,1.2,1.11,2.05,1.47,.85,.37,1.89,.55,3.12,.55,.73,0,1.54-.08,2.42-.25,.88-.17,1.7-.44,2.45-.83s1.38-.89,1.88-1.52c.5-.63,.75-1.42,.75-2.35,.03-.63-.16-1.22-.58-1.77-.42-.55-1.11-.99-2.08-1.33-.87-.27-1.87-.48-3-.65-1.13-.17-2.25-.33-3.35-.5-.87-.13-1.93-.26-3.18-.38s-2.44-.35-3.57-.7c-1.13-.35-2.1-.87-2.9-1.55-.8-.68-1.2-1.66-1.2-2.92,0-1.13,.4-2.03,1.2-2.7,.8-.67,1.73-1.17,2.8-1.5-1.03-.73-1.87-1.72-2.5-2.95-.63-1.23-.95-2.55-.95-3.95s.31-2.78,.93-3.92c.62-1.15,1.45-2.14,2.5-2.98,1.05-.83,2.27-1.47,3.67-1.9,1.4-.43,2.88-.65,4.45-.65,1.8,0,3.47,.28,5,.85,.23-.6,.52-1.25,.88-1.95,.35-.7,.77-1.36,1.27-1.98,.5-.62,1.09-1.12,1.78-1.52,.68-.4,1.47-.6,2.38-.6,1.07,0,1.85,.27,2.35,.8,.5,.53,.79,1.12,.88,1.78s-.04,1.25-.38,1.8-.82,.86-1.45,.92c-.3,.03-.59,.02-.88-.05-.28-.07-.56-.15-.82-.25-.27-.1-.56-.19-.88-.27-.32-.08-.66-.14-1.03-.18-.63-.07-1.24,.03-1.83,.3s-1.06,.78-1.42,1.55c1.7,.77,3.08,1.85,4.12,3.25,1.05,1.4,1.58,3.07,1.58,5Zm-5.15,0c0-1.33-.17-2.54-.52-3.62-.35-1.08-.82-2-1.4-2.75-.58-.75-1.26-1.33-2.03-1.73-.77-.4-1.58-.6-2.45-.6s-1.69,.2-2.48,.6c-.78,.4-1.47,.98-2.05,1.73-.58,.75-1.05,1.67-1.4,2.75-.35,1.08-.52,2.29-.52,3.62s.17,2.54,.52,3.62c.35,1.08,.82,2,1.4,2.75,.58,.75,1.27,1.33,2.05,1.72,.78,.4,1.61,.6,2.48,.6s1.68-.2,2.45-.6c.77-.4,1.44-.97,2.03-1.72,.58-.75,1.05-1.67,1.4-2.75,.35-1.08,.52-2.29,.52-3.62Z"/>
    </g>
    <path class="cls-1" d="M397.36,121.85c-.62-.82-1.14-1.67-1.55-2.54-.41-.87-.7-1.84-.87-2.91-.17-1.07-.25-2.31-.25-3.71l-.25-30.96c0-4.95-1.55-8.61-4.64-10.96-3.1-2.35-6.96-3.53-11.58-3.53-2.56,0-4.85,.39-6.87,1.18-2.02,.79-3.88,1.86-5.57,3.22-1.69,1.36-3.22,2.95-4.58,4.77-1.27,1.69-2.47,3.49-3.63,5.39v-.24c-.07,.09-.18,.21-.27,.33V35.65l-18.08,2.48v.99c2.15,1.65,3.63,3.3,4.46,4.95,.83,1.65,1.24,3.92,1.24,6.81v43.54c-4.63,4.41-9.96,9.27-15.13,13.57,1.33-3.52,2-7.4,2-11.66s-.7-8.36-2.11-11.95c-1.41-3.59-3.37-6.65-5.88-9.17-2.52-2.52-5.57-4.48-9.17-5.88-3.59-1.4-7.58-2.11-11.95-2.11-2.4,0-4.67,.31-6.81,.93-2.15,.62-4.17,1.47-6.07,2.54l-.5-3.47-17.59,2.48v.99c2.15,1.65,3.63,3.3,4.46,4.95,.83,1.65,1.24,3.92,1.24,6.81v61.8c0,1.4-.06,2.64-.19,3.72-.12,1.07-.35,2.04-.68,2.91-.33,.87-.8,1.71-1.42,2.54-.62,.82-1.38,1.69-2.29,2.6v.99h21.8v-.99c-.83-.91-1.55-1.78-2.17-2.6-.62-.83-1.14-1.67-1.55-2.54-.41-.87-.7-1.84-.87-2.91-.17-1.07-.25-2.31-.25-3.72v-21.3c3.8,1.65,8.09,2.48,12.88,2.48,4.38,0,8.36-.7,11.95-2.11,3.59-1.4,6.65-3.36,9.17-5.88,.05-.05,.08-.1,.13-.14,5.63-4.56,13.99-12.29,20.99-19.06v14.43c0,1.4-.06,2.64-.19,3.71-.12,1.07-.35,2.04-.68,2.91-.33,.87-.8,1.71-1.42,2.54-.62,.83-1.38,1.69-2.29,2.6v.99h21.8v-.99c-.83-.91-1.55-1.77-2.17-2.6-.62-.82-1.14-1.67-1.55-2.54-.41-.87-.7-1.84-.87-2.91-.17-1.07-.25-2.31-.25-3.71v-26.75c.91-1.49,1.88-2.95,2.91-4.4,1.03-1.44,2.19-2.74,3.47-3.9,1.28-1.16,2.68-2.08,4.21-2.79,1.53-.7,3.24-1.05,5.14-1.05,2.64,0,4.81,1.01,6.5,3.03,1.69,2.02,2.54,4.48,2.54,7.37l.25,28.49c0,1.4-.06,2.64-.19,3.71-.12,1.07-.35,2.04-.68,2.91-.33,.87-.81,1.71-1.42,2.54-.62,.83-1.38,1.69-2.29,2.6v.99h21.8v-.99c-.83-.91-1.55-1.77-2.17-2.6Zm-94.68,1.73c-2.64,0-5.06-.62-7.25-1.86-2.19-1.24-4.07-3.01-5.63-5.33v-40.25c3.22-4.71,7.51-7.06,12.88-7.06,2.39,0,4.58,.66,6.56,1.98,1.98,1.32,3.67,3.16,5.08,5.51,1.4,2.35,2.5,5.2,3.28,8.55,.78,3.34,1.18,7.08,1.18,11.21s-.39,7.76-1.18,11.15c-.79,3.39-1.88,6.25-3.28,8.61-.89,1.49-1.9,2.74-3.02,3.82-.18,.03-.37,.08-.54,.1,0,0,.05,.09,.21,.23-.55,.5-1.12,.97-1.72,1.37-1.98,1.32-4.17,1.98-6.56,1.98Z"/>
    <polyline class="cls-3" points="53 24.57 1.5 24.57 1.5 76.18"/>
    <polygon class="cls-4" points="146.26 43.33 156.04 49.15 136.6 59.67 134.74 58.19 146.26 43.33"/>
    <path class="cls-1" d="M104.09,35.43v.99c-1.4,1.16-2.42,2.31-3.03,3.47-.62,1.16-.89,2.6-.81,4.33l3.34,63.78c.16,3.55,.72,6.36,1.67,8.42,.95,2.07,2.62,3.84,5.02,5.33v.99h-24.15v-.99c1.9-1.16,3.28-2.83,4.15-5.02,.87-2.19,1.22-4.64,1.05-7.37l-3.59-66.75-27.87,74.06h-1.73L26.44,45.58l-3.1,62.42c-.08,2.72,.56,5.41,1.92,8.05,1.36,2.64,3.2,4.54,5.51,5.7v.99H14.55v-.99c2.39-1.49,4.09-3.45,5.08-5.88,.99-2.43,1.57-5.06,1.73-7.86l3.34-63.78c.16-3.55-1.45-6.15-4.83-7.8v-.99h15.98l28.36,64.77,24.27-64.9,15.6,.12Z"/>
  </g>
  <g>
    <path class="cls-2" d="M483.6,33.77l.63,.43-2.69,3.93,12.08,8.27-.43,.63-12.08-8.27-2.69,3.93-.63-.43,5.8-8.49Z"/>
    <path class="cls-2" d="M501.9,33.85l-.65,.7-6.55-.68-2.17,2.33,3.85,3.58-.52,.56-10.02-9.32,2.97-3.19c1.51-1.63,4.04-1.79,5.76-.38,1.72,1.41,2.04,3.92,.74,5.72l6.58,.68Zm-7.5-.8c1.29-1.39,1.22-3.57-.18-4.86-1.39-1.29-3.57-1.22-4.86,.18l-2.44,2.62,5.05,4.7,2.42-2.64Z"/>
    <path class="cls-2" d="M509.58,19.01c1.67,2.2,1.87,5.19,.47,7.59-1.4,2.39-4.09,3.71-6.83,3.34-2.75-.37-4.99-2.36-5.7-5.04-.71-2.68,.28-5.51,2.47-7.19,3.01-2.29,7.3-1.71,9.59,1.3Zm-.6,.46c-2.04-2.67-5.85-3.19-8.52-1.15-2.67,2.04-3.19,5.85-1.16,8.52,2.04,2.67,5.85,3.19,8.52,1.16,2.67-2.04,3.19-5.85,1.16-8.52Z"/>
    <path class="cls-2" d="M516.34,7.79l4.35,8.35c1.09,2.09,.27,4.68-1.82,5.77-2.09,1.09-4.68,.27-5.77-1.82l-4.35-8.35,.67-.35,4.35,8.35c.9,1.72,3.03,2.39,4.75,1.5,1.72-.9,2.39-3.03,1.5-4.75l-4.35-8.35,.67-.35Z"/>
    <path class="cls-2" d="M528.97,3.05l.14,14.46-.76,.26-8.79-11.46,.76-.26,8.03,10.47-.13-13.21,.76-.26Z"/>
    <path class="cls-2" d="M533.28,2.83l1.06,5.6,5.97-1.13,.14,.75-5.97,1.13,1.06,5.6,7.66-1.45,.14,.75-8.41,1.59-2.54-13.44,8.41-1.59,.14,.75-7.67,1.45Z"/>
    <path class="cls-2" d="M553.72,13.45l-.96,.05-4.2-5.07-3.18,.15,.25,5.25-.76,.04-.65-13.66,4.35-.21c2.22-.1,4.14,1.55,4.38,3.76,.25,2.21-1.28,4.22-3.47,4.61l4.22,5.08Zm-4.8-5.82c1.9-.09,3.36-1.7,3.27-3.6s-1.7-3.36-3.6-3.27l-3.58,.17,.33,6.89,3.57-.19Z"/>
    <path class="cls-2" d="M566.82,1.02c3.72,.65,6.21,4.2,5.55,7.92-.66,3.72-4.2,6.21-7.92,5.55l-4.27-.75,2.37-13.47,4.27,.75Zm-2.24,12.73c3.31,.58,6.46-1.63,7.04-4.94s-1.63-6.46-4.94-7.04l-3.53-.62-2.11,11.98,3.53,.62Z"/>
    <path class="cls-2" d="M585.14,5.98l-3.05,8.91c-.76,2.23-3.2,3.43-5.43,2.66-2.23-.76-3.43-3.2-2.66-5.43l3.05-8.91,.72,.25-3.05,8.91c-.63,1.84,.36,3.84,2.19,4.47,1.83,.63,3.84-.36,4.47-2.19l3.05-8.91,.72,.25Z"/>
    <path class="cls-2" d="M595.45,19.01c1.16,1.25,1.44,2.93,.7,4.18v.02c-.46,.71-1.16,1.23-1.97,1.42-1.16,.26-2.36,.06-3.37-.56h-.02s-.6-.37-.6-.37c-1.94-1.16-2.74-3.42-1.76-5.05l.65,.39c-.76,1.27-.08,3.07,1.5,4.01l.6,.36h.02c.83,.53,1.82,.7,2.78,.5,.62-.14,1.15-.53,1.48-1.08v-.02c.58-.96,.35-2.29-.58-3.31l-2.3-2.51c-1.16-1.25-1.44-2.93-.7-4.18,.97-1.63,3.36-2,5.32-.84l.6,.36c1.96,1.17,2.77,3.44,1.8,5.07l-.65-.39c.76-1.27,.06-3.08-1.53-4.03l-.6-.36c-1.6-.95-3.52-.7-4.27,.57-.57,.96-.34,2.29,.59,3.31l2.3,2.51h.03Z"/>
    <path class="cls-2" d="M604.26,17.5l-3.57,4.44,4.74,3.8-.48,.59-4.74-3.8-3.57,4.44,6.08,4.88-.48,.59-6.67-5.36,8.56-10.67,6.67,5.36-.48,.59-6.08-4.88Z"/>
    <path class="cls-2" d="M619.24,30.34l-9.94,9.4-.56-.6,4.08-13.53-8.9,8.43-.52-.55,9.95-9.42,.55,.58-4.08,13.55,8.9-8.43,.52,.55Z"/>
    <path class="cls-2" d="M619.43,42.1c.56,1.61,.14,3.26-1.05,4.11h-.02c-.7,.48-1.54,.67-2.37,.52-1.17-.23-2.19-.9-2.85-1.87v-.02s-.42-.57-.42-.57c-1.31-1.84-1.12-4.23,.43-5.33l.44,.62c-1.21,.86-1.31,2.78-.25,4.28l.41,.57v.02c.56,.81,1.4,1.37,2.36,1.57,.62,.12,1.26-.02,1.79-.39h.02c.91-.66,1.23-1.97,.79-3.28l-1.09-3.22c-.56-1.61-.14-3.26,1.05-4.11,1.55-1.1,3.88-.48,5.2,1.38l.41,.57c1.32,1.86,1.15,4.27-.4,5.37l-.44-.62c1.21-.86,1.3-2.79,.22-4.31l-.41-.57c-1.08-1.52-2.94-2.06-4.14-1.2-.91,.65-1.23,1.96-.79,3.27l1.09,3.22h.03Z"/>
    <path class="cls-2" d="M630.82,49.4l-5.22,2.28,2.44,5.57-.7,.3-2.44-5.57-5.22,2.28,3.12,7.15-.7,.3-3.43-7.84,12.54-5.48,3.43,7.84-.7,.3-3.12-7.15Z"/>
    <path class="cls-2" d="M638.55,69.51l-.73,.2-1.23-4.6-12.48,3.35-.2-.73,12.48-3.35-1.24-4.6,.73-.2,2.67,9.93Z"/>
    <path class="cls-2" d="M639.18,79.62l-5.69,.27,.29,6.07-.76,.04-.29-6.07-5.69,.27,.37,7.79-.76,.04-.41-8.55,13.66-.65,.41,8.55-.76,.04-.37-7.79Z"/>
    <path class="cls-2" d="M639.49,99.33l-13.63-1.2,.07-.82,12.83-5.92-12.22-1.08,.07-.76,13.65,1.2-.07,.8-12.85,5.94,12.22,1.08-.07,.76Z"/>
    <path class="cls-2" d="M636.43,112.78c-1.15,3.6-5,5.58-8.6,4.43-3.6-1.15-5.58-5-4.43-8.6l1.33-4.13,13.03,4.17-1.33,4.13Zm-12.3-3.94c-1.03,3.2,.73,6.62,3.93,7.64s6.62-.73,7.64-3.93l1.09-3.41-11.58-3.71-1.09,3.41Z"/>
    <path class="cls-2" d="M620.32,131.77c-2.42-1.32-3.83-3.97-3.53-6.73,.29-2.75,2.21-5.06,4.87-5.84,2.66-.78,5.52,.11,7.26,2.27,1.74,2.16,2,5.15,.68,7.57-1.81,3.32-5.96,4.54-9.28,2.73Zm.36-.67c2.95,1.61,6.64,.52,8.25-2.43,1.61-2.95,.52-6.64-2.43-8.25-2.95-1.61-6.64-.52-8.25,2.43-1.61,2.95-.52,6.64,2.43,8.25Z"/>
    <path class="cls-2" d="M618.74,144.79l-10.73-8.48,.51-.64,13.97,2.1-9.62-7.6,.47-.6,10.75,8.5-.5,.63-14-2.1,9.62,7.6-.47,.6Z"/>
    <path class="cls-2" d="M610.23,153.29l-9.48-9.87,.59-.57,13.56,3.99-8.49-8.85,.55-.53,9.49,9.89-.58,.55-13.59-3.99,8.49,8.85-.55,.53Z"/>
    <path class="cls-2" d="M606.55,155.3l-3.35-4.61-4.92,3.57-.45-.62,4.92-3.57-3.35-4.61-6.31,4.58-.45-.61,6.92-5.03,8.04,11.06-6.92,5.03-.45-.61,6.31-4.58Z"/>
    <path class="cls-2" d="M583.53,154.45l.85-.45,5.97,2.78,2.81-1.49-2.47-4.64,.67-.36,6.43,12.08-3.85,2.05c-1.96,1.04-4.4,.37-5.57-1.52-1.17-1.89-.65-4.37,1.16-5.65l-6-2.79Zm6.83,3.21c-1.68,.89-2.31,2.98-1.42,4.65,.89,1.68,2.98,2.31,4.65,1.42l3.16-1.68-3.24-6.09-3.15,1.7Z"/>
  </g>
</svg>