<svg width="89" height="76" viewBox="0 0 89 76" fill="none" xmlns="http://www.w3.org/2000/svg">
<path d="M6.22781 75.02C5.98517 75.02 5.75062 74.7482 5.58886 74.2673C3.84183 69.2074 2.48304 63.583 1.52056 57.3732C0.509549 50.8497 0 43.9917 0 36.7991C0 33.2865 0.137497 29.8365 0.420579 26.4284C0.703662 23.0204 1.09189 19.7586 1.60144 16.6014C2.11099 13.4442 2.72568 10.4752 3.44552 7.65254C4.09256 5.1226 4.8124 2.80175 5.59694 0.689984C5.75871 0.250904 5.98517 0 6.21973 0C6.93957 0 7.33588 2.13268 6.89104 3.59628C6.61604 4.47444 6.34914 5.41532 6.08223 6.39803C5.41092 8.88615 4.8124 11.667 4.2705 14.7615C3.7286 17.8559 3.29184 21.2431 2.96023 24.923C2.62862 28.6029 2.45877 32.5338 2.45877 36.7155C2.45877 44.5144 2.95215 51.5397 3.94698 57.7913C4.71535 62.6421 5.73444 67.2002 6.98809 71.4655C7.41676 72.9291 7.01236 75.02 6.30869 75.02H6.22781Z" fill="#0D0630"/>
<g clip-path="url(#clip0_134_306)">
<path d="M26.1639 31.51C25.175 31.51 24.2083 31.2168 23.3861 30.6674C22.5638 30.118 21.923 29.3371 21.5445 28.4234C21.1661 27.5098 21.0671 26.5045 21.26 25.5346C21.4529 24.5647 21.9291 23.6737 22.6284 22.9745C23.3277 22.2752 24.2186 21.799 25.1885 21.6061C26.1584 21.4132 27.1637 21.5122 28.0774 21.8906C28.991 22.2691 29.7719 22.9099 30.3213 23.7322C30.8707 24.5544 31.1639 25.5211 31.1639 26.51C31.1624 27.8356 30.6351 29.1065 29.6977 30.0438C28.7604 30.9811 27.4895 31.5084 26.1639 31.51ZM26.1639 23.51C25.5706 23.51 24.9906 23.686 24.4972 24.0156C24.0039 24.3452 23.6194 24.8138 23.3923 25.362C23.1652 25.9101 23.1058 26.5133 23.2216 27.0953C23.3373 27.6772 23.6231 28.2118 24.0426 28.6313C24.4622 29.0509 24.9967 29.3366 25.5787 29.4524C26.1606 29.5681 26.7638 29.5087 27.312 29.2817C27.8602 29.0546 28.3287 28.6701 28.6584 28.1767C28.988 27.6834 29.1639 27.1034 29.1639 26.51C29.1639 25.7144 28.8479 24.9513 28.2853 24.3887C27.7227 23.8261 26.9596 23.51 26.1639 23.51Z" fill="#0D0630"/>
<path d="M45.1639 31.51C44.175 31.51 43.2083 31.2168 42.3861 30.6674C41.5638 30.118 40.923 29.3371 40.5445 28.4234C40.1661 27.5098 40.0671 26.5045 40.26 25.5346C40.4529 24.5647 40.9291 23.6737 41.6284 22.9745C42.3277 22.2752 43.2186 21.799 44.1885 21.6061C45.1584 21.4132 46.1637 21.5122 47.0774 21.8906C47.991 22.2691 48.7719 22.9099 49.3213 23.7322C49.8707 24.5544 50.1639 25.5211 50.1639 26.51C50.1624 27.8356 49.6351 29.1065 48.6977 30.0438C47.7604 30.9811 46.4895 31.5084 45.1639 31.51ZM45.1639 23.51C44.5706 23.51 43.9906 23.686 43.4972 24.0156C43.0039 24.3452 42.6194 24.8138 42.3923 25.362C42.1652 25.9101 42.1058 26.5133 42.2216 27.0953C42.3373 27.6772 42.6231 28.2118 43.0426 28.6313C43.4622 29.0509 43.9967 29.3366 44.5787 29.4524C45.1606 29.5681 45.7638 29.5087 46.312 29.2817C46.8602 29.0546 47.3287 28.6701 47.6584 28.1767C47.988 27.6834 48.1639 27.1034 48.1639 26.51C48.1639 25.7144 47.8479 24.9513 47.2853 24.3887C46.7227 23.8261 45.9596 23.51 45.1639 23.51Z" fill="#0D0630"/>
<path d="M58.1639 60.5975L56.1639 60.4234L60.1639 14.4234C60.1828 14.2064 60.2721 14.0014 60.4181 13.8397C60.5642 13.678 60.7591 13.5684 60.9732 13.5277C61.1872 13.4869 61.4088 13.5172 61.604 13.6139C61.7993 13.7106 61.9576 13.8685 62.0549 14.0635C62.0809 14.1005 62.9249 15.5104 66.1639 15.5104C67.2141 15.5583 68.2558 15.3021 69.1639 14.7724C70.2559 14.2105 71.6189 13.5104 75.1639 13.5104C75.4292 13.5104 75.6835 13.6158 75.871 13.8033C76.0586 13.9909 76.1639 14.2452 76.1639 14.5104V25.5105C76.1639 25.7757 76.0586 26.03 75.871 26.2176C75.6835 26.4051 75.4292 26.5105 75.1639 26.5105C72.1019 26.5105 71.0709 27.0395 70.0729 27.5515C68.8847 28.2289 67.5308 28.561 66.1639 28.5105C64.389 28.5355 62.6349 28.1266 61.0539 27.3195L58.1639 60.5975ZM61.2469 25.1105C62.7003 26.0774 64.4192 26.5668 66.1639 26.5105C67.2141 26.5583 68.2558 26.3021 69.1639 25.7724C70.6996 24.9446 72.4194 24.5177 74.1639 24.5315V15.5314C72.7355 15.5161 71.327 15.8673 70.0729 16.5515C68.8847 17.2289 67.5308 17.561 66.1639 17.5104C64.7152 17.5637 63.2771 17.2435 61.9879 16.5804L61.2469 25.1105Z" fill="#0D0630"/>
<path d="M46.1641 61.5092H39.1641C39.0136 61.5093 38.865 61.4754 38.7294 61.4101C38.5938 61.3448 38.4748 61.2497 38.381 61.132C38.2873 61.0142 38.2214 60.8768 38.1881 60.73C38.1549 60.5833 38.1552 60.4309 38.1891 60.2842L41.1891 47.2842C41.2267 47.122 41.3041 46.9717 41.4145 46.8471C41.5249 46.7224 41.6646 46.6272 41.8211 46.5702C41.9773 46.5121 42.1456 46.4943 42.3104 46.5186C42.4753 46.5429 42.6313 46.6085 42.7641 46.7092L46.7641 49.7092C46.8883 49.8024 46.9891 49.9232 47.0585 50.062C47.1279 50.2009 47.1641 50.354 47.1641 50.5092V60.5092C47.1641 60.7744 47.0587 61.0288 46.8712 61.2163C46.6837 61.4039 46.4293 61.5092 46.1641 61.5092ZM40.4211 59.5092H45.1641V51.0092L42.7931 49.2312L40.4211 59.5092Z" fill="#0D0630"/>
<path d="M27.1641 61.5092H20.1641C20.0136 61.5093 19.865 61.4754 19.7294 61.4101C19.5938 61.3448 19.4748 61.2497 19.381 61.132C19.2873 61.0142 19.2214 60.8768 19.1881 60.73C19.1549 60.5833 19.1552 60.4309 19.1891 60.2842L22.1891 47.2842C22.2267 47.122 22.3041 46.9717 22.4145 46.8471C22.5249 46.7224 22.6646 46.6272 22.8211 46.5702C22.9773 46.5121 23.1456 46.4943 23.3104 46.5186C23.4753 46.5429 23.6313 46.6085 23.7641 46.7092L27.7641 49.7092C27.8883 49.8024 27.9891 49.9232 28.0585 50.062C28.1279 50.2009 28.1641 50.354 28.1641 50.5092V60.5092C28.1641 60.7744 28.0587 61.0288 27.8712 61.2163C27.6837 61.4039 27.4293 61.5092 27.1641 61.5092ZM21.4211 59.5092H26.1641V51.0092L23.7931 49.2312L21.4211 59.5092Z" fill="#0D0630"/>
<path d="M45.1719 36.3845L44.1719 44.3845C44.1506 44.5541 44.1732 44.7264 44.2375 44.8849C44.3017 45.0433 44.4055 45.1826 44.5389 45.2895L45.1719 36.3845ZM45.1719 36.3845C45.2001 36.1553 45.3068 35.943 45.4737 35.7835M45.1719 36.3845L45.4737 35.7835M45.4737 35.7835C45.6407 35.624 45.8577 35.5272 46.0879 35.5095L45.4737 35.7835ZM44.8515 44.8993C44.8515 44.8992 44.8514 44.8992 44.8513 44.8991C44.7847 44.8457 44.7329 44.7761 44.7008 44.697C44.6687 44.6177 44.6574 44.5316 44.668 44.4468L44.6681 44.4465L45.6681 36.4465L45.6682 36.4455C45.6823 36.331 45.7356 36.2248 45.8191 36.145C45.9026 36.0653 46.0111 36.0169 46.1262 36.008L46.1263 36.008L57.6321 35.1231C57.77 35.1193 57.906 35.0896 58.033 35.0355C58.1659 34.9789 58.2864 34.8967 58.3875 34.7935C58.4886 34.6904 58.5684 34.5683 58.6224 34.4343C58.6763 34.3003 58.7034 34.1569 58.7019 34.0125C58.7005 33.8681 58.6706 33.7253 58.614 33.5924C58.5574 33.4595 58.4751 33.339 58.372 33.2379C58.2688 33.1368 58.1467 33.057 58.0127 33.0031L57.826 33.4669L58.0127 33.0031C57.8845 32.9515 57.7478 32.9245 57.6098 32.9235L44.5767 32.1993L44.5745 32.1992C43.7388 32.1564 42.9153 32.4136 42.2525 32.9244C41.5896 33.4352 41.1311 34.166 40.9596 34.985L40.9593 34.9861L35.6533 60.6081L35.653 60.6095C35.63 60.7224 35.5687 60.8238 35.4795 60.8967C35.3903 60.9696 35.2787 61.0094 35.1635 61.0095H31.1639C31.0313 61.0095 30.9042 60.9568 30.8104 60.8631C30.7166 60.7693 30.6639 60.6421 30.6639 60.5095V48.9895V48.7492L30.4763 48.5991L25.8515 44.8993C25.7848 44.8458 25.7329 44.7762 25.7008 44.697C25.6687 44.6177 25.6574 44.5316 25.668 44.4468L25.6681 44.4465L26.6681 36.4465L26.6682 36.4455C26.6823 36.331 26.7356 36.2248 26.8191 36.145C26.9026 36.0653 27.0111 36.0169 27.1262 36.008L27.1263 36.008L38.6321 35.1231C38.77 35.1193 38.906 35.0896 39.033 35.0355C39.166 34.9789 39.2864 34.8967 39.3875 34.7935C39.4886 34.6904 39.5684 34.5683 39.6224 34.4343C39.6763 34.3003 39.7034 34.157 39.7019 34.0125C39.7005 33.8681 39.6706 33.7253 39.614 33.5924C39.5574 33.4595 39.4751 33.339 39.372 33.2379L39.022 33.595L39.372 33.2379C39.2688 33.1368 39.1467 33.057 39.0127 33.0031L38.826 33.4669L39.0127 33.0031C38.8845 32.9515 38.7478 32.9245 38.6098 32.9235L25.5767 32.1993V32.1993L25.5738 32.1991C24.7385 32.1575 23.9158 32.4151 23.2534 32.9256C22.591 33.4361 22.1323 34.166 21.9597 34.9843L21.9593 34.9861L16.6533 60.6081L16.653 60.6095C16.63 60.7224 16.5687 60.8238 16.4795 60.8967C16.3903 60.9696 16.2787 61.0094 16.1635 61.0095H12.6639V60.0095H15.3499H15.7571L15.8396 59.6108L20.9753 34.7852C20.9753 34.785 20.9754 34.7848 20.9754 34.7846C21.1968 33.73 21.7879 32.7893 22.642 32.1323C23.4961 31.4753 24.5569 31.1453 25.6329 31.2018C25.6332 31.2018 25.6334 31.2018 25.6336 31.2018L38.6777 31.9267C38.6778 31.9267 38.6779 31.9267 38.678 31.9267C38.9773 31.9437 39.2695 32.0245 39.535 32.1638C39.8005 32.3031 40.0331 32.4977 40.2172 32.7344L40.5912 33.2154L40.9899 32.7548C41.439 32.2361 42.0008 31.827 42.6322 31.5587C43.2635 31.2905 43.9477 31.1701 44.6326 31.2068C44.6328 31.2068 44.633 31.2068 44.6331 31.2068L57.6782 31.9317L57.6782 31.9318L57.686 31.9321C58.224 31.9536 58.7333 32.181 59.1085 32.5673C59.4837 32.9536 59.6961 33.4693 59.7019 34.0078C59.7077 34.5463 59.5064 35.0664 59.1397 35.4607C58.7729 35.855 58.2687 36.0933 57.7312 36.1264L57.7236 36.127L47.0166 36.951L46.6094 36.9823L46.5588 37.3875L45.7298 44.0205L45.6951 44.2981L45.9136 44.4729L50.4764 48.1238C50.5347 48.1704 50.5817 48.2295 50.6141 48.2966C50.6465 48.3635 50.6635 48.4368 50.6639 48.5111C50.6639 48.5113 50.6639 48.5116 50.6639 48.5118L50.6639 59.5095V60.0095H51.1639H75.6639V61.0095H50.1639C50.0313 61.0095 49.9042 60.9568 49.8104 60.8631C49.7166 60.7693 49.6639 60.6421 49.6639 60.5095V48.9895V48.7492L49.4763 48.5991L44.8515 44.8993ZM31.6639 59.5095V60.0095H32.1639H34.3499H34.7571L34.8396 59.6108L39.5856 36.6738L39.7409 35.9233L38.9914 36.0836C38.9034 36.1024 38.8143 36.1152 38.7245 36.1219L38.7236 36.122L28.0166 36.946L27.6094 36.9773L27.5588 37.3825L26.7298 44.0155L26.6951 44.2931L26.9136 44.4679L31.4764 48.1188C31.4765 48.1189 31.4765 48.1189 31.4766 48.1189C31.535 48.1658 31.5822 48.2252 31.6147 48.2927C31.6471 48.3603 31.664 48.4343 31.6639 48.5093V48.5095V59.5095Z" fill="#0D0630" stroke="#0D0630"/>
</g>
<path d="M82.1001 75.02C82.3428 75.02 82.5773 74.7482 82.7391 74.2673C84.4861 69.2074 85.8449 63.583 86.8074 57.3732C87.8184 50.8497 88.3279 43.9917 88.3279 36.7991C88.3279 33.2865 88.1904 29.8365 87.9074 26.4284C87.6243 23.0204 87.2361 19.7586 86.7265 16.6014C86.217 13.4442 85.6023 10.4752 84.8824 7.65254C84.2354 5.1226 83.5155 2.80175 82.731 0.689984C82.5692 0.250904 82.3428 0 82.1082 0C81.3884 0 80.9921 2.13268 81.4369 3.59628C81.7119 4.47444 81.9788 5.41532 82.2457 6.39803C82.917 8.88615 83.5155 11.667 84.0574 14.7615C84.5993 17.8559 85.0361 21.2431 85.3677 24.923C85.6993 28.6029 85.8692 32.5338 85.8692 36.7155C85.8692 44.5144 85.3758 51.5397 84.381 57.7913C83.6126 62.6421 82.5935 67.2002 81.3398 71.4655C80.9112 72.9291 81.3156 75.02 82.0192 75.02H82.1001Z" fill="#0D0630"/>
<defs>
<clipPath id="clip0_134_306">
<rect width="64" height="64" fill="white" transform="translate(12.1639 5.51001)"/>
</clipPath>
</defs>
</svg>
