<svg width="338" height="252" viewBox="0 0 338 252" fill="none" xmlns="http://www.w3.org/2000/svg">
<path d="M90.4884 16.8992L72.4951 59.9363L103.638 71.5746C103.638 71.5746 108.656 38.8699 90.4884 16.8992Z" fill="#D8850A"/>
<path d="M132.852 29.2112L113.721 75.116L143.978 86.5298C143.978 86.5298 152.154 52.8955 132.852 29.2112Z" fill="#D8850A"/>
<path d="M186.458 153.602C185.064 154.721 184.836 157.63 185.959 159.03C186.152 159.271 204.828 184.432 207.534 228.695H196.895C195.109 228.695 193.658 230.068 193.658 231.857C193.658 233.647 195.109 235.019 196.895 235.019H210.939C211.822 235.019 212.666 233.868 213.279 233.236C213.886 232.6 214.215 231.342 214.177 230.463C212.15 181.327 191.871 155.372 191.011 154.297C189.892 152.894 187.849 152.486 186.458 153.602Z" fill="#D8850A"/>
<path d="M155.07 173.423C154.909 171.643 153.322 170.33 151.551 170.479C149.768 170.643 148.45 173.084 148.611 174.867C148.756 176.489 151.909 209.725 158.131 228.696H138.538C136.748 228.696 135.294 230.068 135.294 231.857C135.294 233.647 136.745 235.019 138.538 235.019H163.142C164.299 235.019 165.368 233.612 165.947 232.613C166.528 231.614 166.532 229.986 165.959 228.983C158.978 216.776 155.108 173.846 155.07 173.423Z" fill="#D8850A"/>
<path d="M311.999 0C181.338 7.28774 197.706 135.871 200.555 150.617L137.523 116.721C123.703 141.063 99.6302 151.775 99.6302 151.775C107.519 157.915 118.705 166.331 127.077 171.222C121.848 182.421 114.636 203.402 114.177 228.696H96.3894C94.5999 228.696 93.1455 230.068 93.1455 231.858C93.1455 233.647 94.5967 235.019 96.3894 235.019H117.399C118.259 235.019 119.087 233.884 119.698 233.274C120.305 232.661 120.646 231.437 120.64 230.574C120.516 205.312 127.652 184.995 132.778 173.796C137.362 176.344 141.839 178.599 146.022 180.679C145.63 177.109 145.412 174.691 145.38 174.337C145.225 172.607 145.753 170.903 146.863 169.572C147.973 168.244 149.538 167.416 151.261 167.261L151.827 167.235C155.216 167.235 157.998 169.768 158.299 173.135C158.593 176.449 159.127 181.457 159.854 187.119C168.046 190.781 173.358 192.782 173.358 192.782L176.387 189.295C178.471 201.066 181.62 216.049 184.882 228.696H174.199C172.41 228.696 170.958 230.068 170.958 231.858C170.958 233.647 172.41 235.019 174.199 235.019H189.378C190.441 235.019 191.434 233.71 192.041 232.841C192.651 231.971 192.787 230.463 192.423 229.47C188.237 218.174 183.833 193.851 181.664 181.036L189.312 169.932C186.024 163.65 183.494 160.321 183.428 160.235C182.35 158.898 181.86 157.181 182.043 155.458C182.227 153.735 183.074 152.176 184.427 151.092C185.572 150.165 187.01 149.653 188.48 149.653C190.457 149.653 192.303 150.529 193.539 152.075C193.767 152.36 195.329 154.355 197.555 157.972L200.995 153.014C212.355 138.91 229.731 135.144 229.731 135.144C301.259 115.804 293.358 44.5832 293.358 44.5832C290.929 2.30489 311.999 0 311.999 0Z" fill="#D8850A"/>
<path d="M141.641 93.6311L69.5634 65.7954L33.6274 147.567C27.4905 147.611 22.0555 148.161 16.7281 151.512C11.8812 154.56 9.45297 162.414 15.9376 164.592C25.1888 167.7 32.2995 160.239 35.1861 150.507C54.4852 154.466 70.2052 154.342 83.3958 150.988C90.8195 142.031 88.4293 133.105 88.4008 133.004C87.9076 131.281 88.9067 129.491 90.6267 128.995C92.3466 128.498 94.1457 129.501 94.6357 131.221C94.759 131.657 96.7667 139.166 92.8652 147.984C131.422 132.928 141.641 93.6311 141.641 93.6311ZM15.8428 161.526C13.7466 160.128 15.4634 158.942 16.3645 158.886C17.4078 158.819 19.3965 159.376 19.561 160.612C19.7507 162.063 16.7249 162.107 15.8428 161.526ZM65.1844 101.238C62.7657 101.238 60.8054 99.2747 60.8054 96.8592C60.8054 94.4405 62.7657 92.4802 65.1844 92.4802C67.5999 92.4802 69.5602 94.4405 69.5602 96.8592C69.5602 99.2747 67.5968 101.238 65.1844 101.238ZM93.6524 108.007C93.6524 105.491 95.6949 103.448 98.2116 103.448C100.728 103.448 102.771 105.491 102.771 108.007C102.771 110.524 100.728 112.563 98.2116 112.563C95.6949 112.563 93.6524 110.524 93.6524 108.007Z" fill="#D8850A"/>
</svg>
