<svg width="75" height="73" viewBox="0 0 75 73" fill="none" xmlns="http://www.w3.org/2000/svg">
<path fill-rule="evenodd" clip-rule="evenodd" d="M40.5019 2C39.2164 2 37.9596 2.38122 36.8907 3.09545C35.8218 3.80968 34.9887 4.82484 34.4967 6.01256C34.0047 7.20028 33.876 8.50721 34.1268 9.76809C34.3776 11.029 34.9967 12.1872 35.9057 13.0962C36.8148 14.0052 37.973 14.6243 39.2338 14.8751C40.4947 15.1259 41.8017 14.9972 42.9894 14.5052C44.1771 14.0133 45.1923 13.1801 45.9065 12.1112C46.6207 11.0423 47.0019 9.78558 47.0019 8.5C47.0019 6.7761 46.3171 5.1228 45.0981 3.90381C43.8791 2.68482 42.2258 2 40.5019 2ZM32.0019 8.5C32.0019 6.81886 32.5004 5.17547 33.4344 3.77766C34.3684 2.37984 35.696 1.29037 37.2491 0.647028C38.8023 0.00368291 40.5114 -0.164645 42.1602 0.163329C43.809 0.491303 45.3236 1.30085 46.5123 2.4896C47.7011 3.67834 48.5106 5.1929 48.8386 6.84174C49.1666 8.49057 48.9983 10.1996 48.3549 11.7528C47.7116 13.306 46.6221 14.6335 45.2243 15.5675C43.8265 16.5015 42.1831 17 40.5019 17C38.2484 16.9974 36.0879 16.101 34.4944 14.5075C32.901 12.914 32.0046 10.7535 32.0019 8.5ZM21.1019 10.55C20.8085 10.1963 20.412 9.9429 19.9678 9.82506C19.5235 9.70722 19.0536 9.73082 18.6234 9.89255C18.1932 10.0543 17.8242 10.3461 17.5676 10.7274C17.311 11.1088 17.1797 11.5606 17.1919 12.02C17.1893 12.5603 17.3769 13.0842 17.7219 13.5L24.9319 22.22C25.016 22.3211 25.0793 22.4378 25.1182 22.5634C25.1572 22.689 25.171 22.821 25.159 22.9519C25.1469 23.0829 25.1091 23.2101 25.0479 23.3265C24.9866 23.4428 24.903 23.546 24.8019 23.63C24.7008 23.7141 24.5841 23.7774 24.4585 23.8163C24.333 23.8553 24.2009 23.8691 24.07 23.857C23.9391 23.845 23.8118 23.8072 23.6955 23.746C23.5791 23.6847 23.476 23.6011 23.3919 23.5L16.1819 14.79C15.5381 14.018 15.1844 13.0452 15.1819 12.04C15.169 11.1688 15.4268 10.315 15.9196 9.59639C16.4125 8.87782 17.1162 8.32988 17.9336 8.02814C18.751 7.72641 19.642 7.68574 20.4835 7.91175C21.325 8.13777 22.0757 8.61932 22.6319 9.29L23.9419 10.86C26.3837 13.8047 29.6669 15.9331 33.3519 16.96L38.2419 18.32H43.9519L48.8519 16.96C52.5369 15.9331 55.8202 13.8047 58.2619 10.86L59.5719 9.29C60.1282 8.61932 60.8789 8.13777 61.7204 7.91175C62.5619 7.68574 63.4528 7.72641 64.2703 8.02814C65.0877 8.32988 65.7914 8.87782 66.2842 9.59639C66.7771 10.315 67.0348 11.1688 67.0219 12.04C67.0195 13.0452 66.6658 14.018 66.0219 14.79L61.8019 19.88C59.7414 22.3708 57.1337 24.3522 54.1819 25.67L51.0619 27.06V31.5C51.0619 31.7652 50.9566 32.0196 50.769 32.2071C50.5815 32.3946 50.3271 32.5 50.0619 32.5C49.7967 32.5 49.5424 32.3946 49.3548 32.2071C49.1673 32.0196 49.0619 31.7652 49.0619 31.5V26.39C49.0623 26.1976 49.1182 26.0095 49.2229 25.8481C49.3275 25.6867 49.4765 25.5589 49.6519 25.48L53.3619 23.83C56.0337 22.6362 58.3947 20.8432 60.2619 18.59L64.5019 13.5C64.8447 13.0869 65.0322 12.5668 65.0319 12.03C65.0442 11.5706 64.9129 11.1188 64.6563 10.7374C64.3997 10.3561 64.0306 10.0643 63.6004 9.90255C63.1702 9.74081 62.7003 9.71722 62.2561 9.83506C61.8118 9.9529 61.4154 10.2063 61.1219 10.56L59.8119 12.13C57.1076 15.3893 53.472 17.7444 49.3919 18.88L44.3919 20.27C44.3059 20.2851 44.2179 20.2851 44.1319 20.27H38.1319C38.0425 20.2846 37.9513 20.2846 37.8619 20.27L32.8619 18.88C28.7861 17.7414 25.1545 15.3866 22.4519 12.13L21.1019 10.55ZM9.30193 23.71C8.84362 23.4524 8.30231 23.3856 7.79514 23.5241C7.28796 23.6626 6.85572 23.9952 6.59193 24.45C6.32377 24.9196 6.25001 25.4755 6.38643 25.9987C6.52286 26.522 6.85863 26.9711 7.32193 27.25C7.78145 27.5068 8.32366 27.572 8.83098 27.4316C9.3383 27.2912 9.76981 26.9565 10.0319 26.5C10.2996 26.0319 10.3731 25.4776 10.2366 24.956C10.1001 24.4343 9.76454 23.987 9.30193 23.71ZM4.86193 23.5C5.39136 22.5814 6.26386 21.9105 7.28767 21.6349C8.31148 21.3592 9.40285 21.5014 10.3219 22.03C11.226 22.5756 11.8826 23.4511 12.1531 24.4718C12.4237 25.4924 12.287 26.5783 11.7719 27.5C11.2425 28.4186 10.37 29.0895 9.34619 29.3651C8.32238 29.6408 7.23101 29.4986 6.31193 28.97C5.40595 28.4262 4.74768 27.5506 4.47693 26.5292C4.20618 25.5079 4.34429 24.4212 4.86193 23.5ZM28.0019 30C26.7164 30 25.4596 30.3812 24.3907 31.0955C23.3218 31.8097 22.4887 32.8248 21.9967 34.0126C21.5047 35.2003 21.376 36.5072 21.6268 37.7681C21.8776 39.029 22.4967 40.1872 23.4057 41.0962C24.3148 42.0052 25.473 42.6243 26.7338 42.8751C27.9947 43.1259 29.3017 42.9972 30.4894 42.5052C31.6771 42.0133 32.6923 41.1801 33.4065 40.1112C34.1207 39.0423 34.5019 37.7856 34.5019 36.5C34.5019 34.7761 33.8171 33.1228 32.5981 31.9038C31.3791 30.6848 29.7258 30 28.0019 30ZM19.5019 36.5C19.5019 34.8189 20.0004 33.1755 20.9344 31.7777C21.8684 30.3798 23.196 29.2904 24.7491 28.647C26.3023 28.0037 28.0114 27.8354 29.6602 28.1633C31.309 28.4913 32.8236 29.3009 34.0123 30.4896C35.2011 31.6783 36.0106 33.1929 36.3386 34.8417C36.6666 36.4906 36.4983 38.1996 35.8549 39.7528C35.2116 41.306 34.1221 42.6335 32.7243 43.5675C31.3265 44.5015 29.6831 45 28.0019 45C25.7484 44.9974 23.5879 44.101 21.9944 42.5075C20.401 40.914 19.5046 38.7535 19.5019 36.5ZM65.1219 37.9C64.6636 37.6424 64.1223 37.5756 63.6151 37.7141C63.108 37.8526 62.6757 38.1852 62.4119 38.64C62.1438 39.1096 62.07 39.6655 62.2064 40.1887C62.3429 40.712 62.6786 41.1611 63.1419 41.44C63.6002 41.6976 64.1416 41.7644 64.6487 41.6259C65.1559 41.4874 65.5881 41.1548 65.8519 40.7C66.1227 40.231 66.1979 39.6743 66.0613 39.1503C65.9247 38.6262 65.5872 38.1771 65.1219 37.9ZM60.6819 37.65C61.2114 36.7314 62.0839 36.0605 63.1077 35.7849C64.1315 35.5092 65.2228 35.6514 66.1419 36.18C67.0566 36.726 67.7208 37.6088 67.9919 38.639C68.263 39.6691 68.1194 40.7645 67.5919 41.69C67.0625 42.6086 66.19 43.2795 65.1662 43.5551C64.1424 43.8308 63.051 43.6886 62.1319 43.16C61.2153 42.6158 60.5494 41.733 60.2781 40.7021C60.0068 39.6711 60.1519 38.5749 60.6819 37.65ZM7.14193 38.92C6.84521 38.5715 6.44802 38.3232 6.00474 38.2091C5.56145 38.0951 5.09375 38.1208 4.66566 38.2829C4.23758 38.4449 3.87005 38.7353 3.61339 39.1143C3.35673 39.4933 3.2235 39.9424 3.23193 40.4C3.23163 40.9368 3.41912 41.4569 3.76193 41.87L7.98193 46.97C9.84918 49.2232 12.2102 51.0162 14.8819 52.21L18.5919 53.86C18.7674 53.9389 18.9164 54.0667 19.021 54.2281C19.1257 54.3895 19.1815 54.5776 19.1819 54.77V72C19.1819 72.2652 19.0766 72.5196 18.889 72.7071C18.7015 72.8946 18.4471 73 18.1819 73C17.9167 73 17.6624 72.8946 17.4748 72.7071C17.2873 72.5196 17.1819 72.2652 17.1819 72V55.42L14.0619 54.03C11.1102 52.7122 8.50244 50.7308 6.44193 48.24L2.22193 43.15C1.5781 42.378 1.22437 41.4052 1.22193 40.4C1.21277 39.5306 1.47239 38.6795 1.9653 37.9632C2.45821 37.2469 3.16034 36.7004 3.97568 36.3983C4.79103 36.0963 5.67977 36.0535 6.52038 36.2757C7.36099 36.498 8.11243 36.9744 8.67193 37.64L9.98193 39.22C12.4263 42.1618 15.7085 44.2896 19.3919 45.32L24.2919 46.68H31.1319C32.058 46.6799 32.9748 46.8636 33.8293 47.2204C34.6839 47.5772 35.4591 48.1 36.1102 48.7585C36.7612 49.417 37.2752 50.1981 37.6222 51.0566C37.9693 51.9152 38.1425 52.834 38.1319 53.76V55.76C38.1319 56.0252 38.0266 56.2796 37.839 56.4671C37.6515 56.6546 37.3971 56.76 37.1319 56.76C36.8667 56.76 36.6124 56.6546 36.4248 56.4671C36.2373 56.2796 36.1319 56.0252 36.1319 55.76V53.76C36.1425 53.0967 36.0211 52.4379 35.7745 51.822C35.528 51.2061 35.1614 50.6454 34.6961 50.1726C34.2307 49.6998 33.6759 49.3244 33.064 49.0681C32.4521 48.8119 31.7953 48.6799 31.1319 48.68H24.1319C24.0456 48.6904 23.9583 48.6904 23.8719 48.68L18.8719 47.29C14.8069 46.1302 11.1903 43.7622 8.50193 40.5L7.14193 38.92ZM48.5019 42C47.2164 42 45.9596 42.3812 44.8907 43.0955C43.8218 43.8097 42.9887 44.8248 42.4967 46.0126C42.0047 47.2003 41.876 48.5072 42.1268 49.7681C42.3776 51.029 42.9967 52.1872 43.9057 53.0962C44.8148 54.0052 45.973 54.6243 47.2338 54.8751C48.4947 55.1259 49.8017 54.9972 50.9894 54.5052C52.1771 54.0133 53.1923 53.1801 53.9065 52.1112C54.6207 51.0423 55.0019 49.7856 55.0019 48.5C55.0019 46.7761 54.3171 45.1228 53.0981 43.9038C51.8791 42.6848 50.2258 42 48.5019 42ZM40.0019 48.5C40.0019 46.8189 40.5004 45.1755 41.4344 43.7777C42.3684 42.3798 43.696 41.2904 45.2491 40.647C46.8023 40.0037 48.5114 39.8354 50.1602 40.1633C51.809 40.4913 53.3236 41.3009 54.5123 42.4896C55.7011 43.6783 56.5106 45.1929 56.8386 46.8417C57.1666 48.4906 56.9982 50.1996 56.3549 51.7528C55.7116 53.306 54.6221 54.6335 53.2243 55.5675C51.8265 56.5015 50.1831 57 48.5019 57C46.2484 56.9974 44.0879 56.101 42.4944 54.5075C40.901 52.914 40.0046 50.7535 40.0019 48.5ZM67.5519 49.81C68.1082 49.1393 68.8589 48.6578 69.7004 48.4318C70.5419 48.2057 71.4328 48.2464 72.2503 48.5481C73.0677 48.8499 73.7714 49.3978 74.2642 50.1164C74.7571 50.835 75.0148 51.6887 75.0019 52.56C74.9995 53.5652 74.6458 54.538 74.0019 55.31L69.7919 60.4C67.7337 62.8931 65.1254 64.875 62.1719 66.19L59.0519 67.58V72C59.0519 72.2652 58.9466 72.5196 58.759 72.7071C58.5715 72.8946 58.3171 73 58.0519 73C57.7867 73 57.5324 72.8946 57.3448 72.7071C57.1573 72.5196 57.0519 72.2652 57.0519 72V66.93C57.0532 66.7365 57.1106 66.5476 57.217 66.3861C57.3235 66.2245 57.4746 66.0974 57.6519 66.02L61.3619 64.37C64.0312 63.1767 66.389 61.3835 68.2519 59.13L72.5019 54.03C72.8447 53.6169 73.0322 53.0968 73.0319 52.56C73.0442 52.1006 72.9129 51.6488 72.6563 51.2674C72.3997 50.8861 72.0306 50.5943 71.6004 50.4326C71.1702 50.2708 70.7003 50.2472 70.2561 50.3651C69.8118 50.4829 69.4154 50.7363 69.1219 51.09L67.8119 52.66C65.1094 55.9166 61.4778 58.2714 57.4019 59.41L52.4019 60.8C52.3125 60.8146 52.2213 60.8146 52.1319 60.8H45.1319C44.4685 60.7999 43.8118 60.9319 43.1999 61.1881C42.588 61.4444 42.0332 61.8198 41.5678 62.2926C41.1025 62.7654 40.7358 63.3261 40.4893 63.942C40.2428 64.5579 40.1213 65.2167 40.1319 65.88V72C40.1319 72.2652 40.0266 72.5196 39.839 72.7071C39.6515 72.8946 39.3971 73 39.1319 73C38.8667 73 38.6124 72.8946 38.4248 72.7071C38.2373 72.5196 38.1319 72.2652 38.1319 72V65.92C38.1213 64.994 38.2946 64.0752 38.6416 63.2166C38.9887 62.3581 39.5026 61.577 40.1537 60.9185C40.8047 60.26 41.58 59.7372 42.4345 59.3804C43.2891 59.0236 44.2059 58.8399 45.1319 58.84H51.9819L56.8319 57.5C60.5169 56.4731 63.8001 54.3447 66.2419 51.4L67.5519 49.81ZM8.29193 59.29C7.81537 59.0112 7.28794 58.8302 6.74056 58.7578C6.19318 58.6853 5.63685 58.7228 5.10415 58.8681C4.57145 59.0134 4.0731 59.2635 3.63828 59.6038C3.20347 59.9442 2.84094 60.3678 2.57193 60.85C2.01032 61.8329 1.85597 62.9967 2.14195 64.092C2.42793 65.1873 3.1315 66.1271 4.10193 66.71C4.5785 66.9889 5.10592 67.1698 5.6533 67.2422C6.20068 67.3147 6.75702 67.2772 7.28972 67.1319C7.82242 66.9866 8.32077 66.7365 8.75558 66.3962C9.19039 66.0559 9.55292 65.6322 9.82193 65.15C10.3835 64.1671 10.5379 63.0033 10.2519 61.908C9.96593 60.8127 9.26237 59.8729 8.29193 59.29ZM0.831932 59.86C1.23243 59.1468 1.77117 58.5207 2.41663 58.0182C3.06208 57.5158 3.80128 57.1472 4.59095 56.9339C5.38062 56.7207 6.2049 56.6671 7.01553 56.7763C7.82616 56.8855 8.60686 57.1554 9.31193 57.57C10.7337 58.42 11.7657 59.7935 12.1864 61.3957C12.607 62.9979 12.3828 64.7012 11.5619 66.14C11.1614 66.8532 10.6227 67.4793 9.97724 67.9818C9.33178 68.4842 8.59258 68.8529 7.80291 69.0661C7.01324 69.2793 6.18897 69.3329 5.37833 69.2237C4.5677 69.1145 3.787 68.8446 3.08193 68.43C1.66012 67.58 0.628161 66.2065 0.207509 64.6043C-0.213143 63.0021 0.0110338 61.2988 0.831932 59.86Z" fill="black"/>
</svg>
