<svg width="563" height="532" viewBox="0 0 563 532" fill="none" xmlns="http://www.w3.org/2000/svg">
<path d="M213.081 369.51C211.105 369.51 209.21 370.295 207.813 371.692C206.416 373.089 205.631 374.984 205.631 376.96V494.96C205.631 496.936 206.416 498.831 207.813 500.228C209.21 501.625 211.105 502.41 213.081 502.41C215.057 502.41 216.952 501.625 218.349 500.228C219.746 498.831 220.531 496.936 220.531 494.96V376.96C220.528 374.985 219.742 373.091 218.346 371.695C216.949 370.298 215.056 369.512 213.081 369.51Z" fill="black"/>
<path d="M365.301 369.51C363.326 369.512 361.432 370.298 360.036 371.695C358.639 373.091 357.853 374.985 357.851 376.96V494.96C357.851 496.936 358.635 498.831 360.033 500.228C361.43 501.625 363.325 502.41 365.301 502.41C367.276 502.41 369.171 501.625 370.569 500.228C371.966 498.831 372.751 496.936 372.751 494.96V376.96C372.751 374.984 371.966 373.089 370.569 371.692C369.171 370.295 367.276 369.51 365.301 369.51Z" fill="black"/>
<path d="M473.52 145.78C481.647 139.221 487.54 130.303 490.387 120.255C493.235 110.207 492.896 99.5227 489.418 89.6751C485.94 79.8275 479.493 71.3008 470.967 65.2697C462.441 59.2386 452.254 56 441.81 56C431.366 56 421.179 59.2386 412.653 65.2697C404.127 71.3008 397.68 79.8275 394.202 89.6751C390.724 99.5227 390.385 110.207 393.233 120.255C396.08 130.303 401.973 139.221 410.1 145.78C407.56 146.6 405.066 147.558 402.63 148.65C397.914 143.457 392.166 139.305 385.754 136.46C379.342 133.615 372.406 132.14 365.392 132.128C358.377 132.117 351.436 133.57 345.015 136.394C338.594 139.219 332.833 143.352 328.1 148.53C325.752 147.49 323.353 146.572 320.91 145.78C329.031 139.22 334.919 130.303 337.762 120.258C340.605 110.213 340.264 99.5328 336.785 89.6895C333.306 79.8463 326.861 71.3238 318.337 65.2958C309.813 59.2678 299.63 56.0309 289.19 56.0309C278.75 56.0309 268.567 59.2678 260.043 65.2958C251.519 71.3238 245.074 79.8463 241.595 89.6895C238.116 99.5328 237.775 110.213 240.618 120.258C243.461 130.303 249.349 139.22 257.47 145.78C255.027 146.572 252.628 147.49 250.28 148.53C245.548 143.352 239.788 139.219 233.368 136.395C226.947 133.571 220.008 132.118 212.993 132.129C205.979 132.14 199.045 133.616 192.633 136.46C186.222 139.305 180.475 143.457 175.76 148.65C173.323 147.56 170.83 146.602 168.29 145.78C176.416 139.22 182.308 130.302 185.154 120.254C188 110.206 187.66 99.523 184.182 89.6761C180.703 79.8293 174.257 71.3033 165.731 65.2728C157.205 59.2423 147.018 56.004 136.575 56.004C126.132 56.004 115.945 59.2423 107.419 65.2728C98.8932 71.3033 92.4469 79.8293 88.9683 89.6761C85.4897 99.523 85.1501 110.206 87.9962 120.254C90.8423 130.302 96.7341 139.22 104.86 145.78C89.8006 150.683 76.6761 160.22 67.3621 173.029C58.0481 185.838 53.0213 201.263 53 217.1V287.57C53.0156 291.036 53.7161 294.464 55.0611 297.658C56.4061 300.852 58.3691 303.749 60.8373 306.182C63.3055 308.615 66.2302 310.536 69.4433 311.835C72.6564 313.133 76.0945 313.784 79.56 313.75C83.4581 313.766 87.3097 312.904 90.83 311.23V418.93C90.9007 420.86 91.7171 422.687 93.1074 424.028C94.4978 425.368 96.3538 426.117 98.285 426.117C100.216 426.117 102.072 425.368 103.463 424.028C104.853 422.687 105.669 420.86 105.74 418.93V217.12C105.669 215.19 104.853 213.363 103.463 212.023C102.072 210.682 100.216 209.933 98.285 209.933C96.3538 209.933 94.4978 210.682 93.1074 212.023C91.7171 213.363 90.9007 215.19 90.83 217.12V287.57C90.7419 290.552 89.4954 293.383 87.3549 295.461C85.2144 297.539 82.3484 298.702 79.365 298.702C76.3816 298.702 73.5156 297.539 71.3751 295.461C69.2346 293.383 67.9881 290.552 67.9 287.57V217.1C67.9185 201.169 74.2554 185.896 85.5204 174.631C96.7855 163.366 112.059 157.029 127.99 157.01H145.19C152.792 157.013 160.325 158.455 167.39 161.26C162.608 171.47 161.388 182.988 163.926 193.973C166.464 204.958 172.613 214.774 181.39 221.85C166.331 226.754 153.208 236.291 143.894 249.1C134.58 261.909 129.553 277.333 129.53 293.17V363.64C129.546 367.106 130.246 370.534 131.591 373.728C132.936 376.922 134.899 379.819 137.367 382.252C139.835 384.685 142.76 386.606 145.973 387.905C149.186 389.203 152.624 389.854 156.09 389.82C159.987 389.811 163.831 388.926 167.34 387.23V494.93C167.411 496.86 168.227 498.687 169.617 500.028C171.008 501.368 172.864 502.117 174.795 502.117C176.726 502.117 178.582 501.368 179.973 500.028C181.363 498.687 182.179 496.86 182.25 494.93V293.23C182.179 291.3 181.363 289.473 179.973 288.133C178.582 286.792 176.726 286.043 174.795 286.043C172.864 286.043 171.008 286.792 169.617 288.133C168.227 289.473 167.411 291.3 167.34 293.23V363.68C167.34 366.72 166.133 369.634 163.983 371.784C161.834 373.933 158.919 375.14 155.88 375.14C152.841 375.14 149.926 373.933 147.777 371.784C145.627 369.634 144.42 366.72 144.42 363.68V293.17C144.439 277.242 150.774 261.971 162.037 250.708C173.301 239.444 188.571 233.109 204.5 233.09H221.65C237.58 233.106 252.854 239.441 264.119 250.704C275.384 261.968 281.721 277.24 281.74 293.17V363.64C281.652 366.622 280.405 369.453 278.265 371.531C276.124 373.609 273.258 374.772 270.275 374.772C267.292 374.772 264.426 373.609 262.285 371.531C260.145 369.453 258.898 366.622 258.81 363.64V293.23C258.81 291.254 258.025 289.359 256.628 287.962C255.231 286.565 253.336 285.78 251.36 285.78C249.384 285.78 247.489 286.565 246.092 287.962C244.695 289.359 243.91 291.254 243.91 293.23V494.96C243.91 496.936 244.695 498.831 246.092 500.228C247.489 501.625 249.384 502.41 251.36 502.41C253.336 502.41 255.231 501.625 256.628 500.228C258.025 498.831 258.81 496.936 258.81 494.96V387.23C262.448 388.965 266.429 389.861 270.46 389.85C273.957 389.844 277.416 389.135 280.634 387.766C283.851 386.397 286.761 384.396 289.19 381.88C291.681 384.408 294.652 386.412 297.929 387.776C301.205 389.139 304.721 389.834 308.27 389.82C312.184 389.818 316.046 388.933 319.57 387.23V494.93C319.57 495.909 319.763 496.877 320.137 497.781C320.511 498.685 321.06 499.506 321.752 500.198C322.444 500.89 323.265 501.439 324.169 501.813C325.073 502.187 326.042 502.38 327.02 502.38C327.998 502.38 328.967 502.187 329.871 501.813C330.775 501.439 331.596 500.89 332.288 500.198C332.98 499.506 333.528 498.685 333.903 497.781C334.277 496.877 334.47 495.909 334.47 494.93V293.23C334.47 291.254 333.685 289.359 332.288 287.962C330.891 286.565 328.996 285.78 327.02 285.78C325.044 285.78 323.149 286.565 321.752 287.962C320.355 289.359 319.57 291.254 319.57 293.23V363.68C319.482 366.662 318.235 369.493 316.095 371.571C313.954 373.649 311.088 374.812 308.105 374.812C305.122 374.812 302.256 373.649 300.115 371.571C297.975 369.493 296.728 366.662 296.64 363.68V293.17C296.659 277.24 302.996 261.968 314.261 250.704C325.526 239.441 340.8 233.106 356.73 233.09H373.88C389.809 233.109 405.079 239.444 416.343 250.708C427.606 261.971 433.941 277.242 433.96 293.17V363.64C433.96 366.68 432.753 369.594 430.603 371.744C428.454 373.893 425.539 375.1 422.5 375.1C419.461 375.1 416.546 373.893 414.397 371.744C412.247 369.594 411.04 366.68 411.04 363.64V293.23C410.969 291.3 410.153 289.473 408.763 288.133C407.372 286.792 405.516 286.043 403.585 286.043C401.654 286.043 399.798 286.792 398.407 288.133C397.017 289.473 396.201 291.3 396.13 293.23V494.96C396.201 496.89 397.017 498.717 398.407 500.058C399.798 501.398 401.654 502.147 403.585 502.147C405.516 502.147 407.372 501.398 408.763 500.058C410.153 498.717 410.969 496.89 411.04 494.96V387.23C414.677 388.967 418.659 389.863 422.69 389.85C429.63 389.84 436.283 387.078 441.19 382.171C446.098 377.263 448.859 370.61 448.87 363.67V293.17C448.847 277.333 443.82 261.909 434.506 249.1C425.192 236.291 412.069 226.754 397.01 221.85C405.787 214.774 411.936 204.958 414.474 193.973C417.012 182.988 415.792 171.47 411.01 161.26C418.076 158.456 425.608 157.014 433.21 157.01H450.39C466.321 157.029 481.595 163.366 492.86 174.631C504.125 185.896 510.461 201.169 510.48 217.1V287.57C510.392 290.552 509.145 293.383 507.005 295.461C504.864 297.539 501.998 298.702 499.015 298.702C496.032 298.702 493.166 297.539 491.025 295.461C488.885 293.383 487.638 290.552 487.55 287.57V217.12C487.479 215.19 486.663 213.363 485.273 212.023C483.882 210.682 482.026 209.933 480.095 209.933C478.164 209.933 476.308 210.682 474.917 212.023C473.527 213.363 472.711 215.19 472.64 217.12V418.89C472.711 420.82 473.527 422.647 474.917 423.988C476.308 425.328 478.164 426.077 480.095 426.077C482.026 426.077 483.882 425.328 485.273 423.988C486.663 422.647 487.479 420.82 487.55 418.89V311.13C491.185 312.865 495.163 313.76 499.19 313.75C506.13 313.74 512.783 310.978 517.69 306.071C522.598 301.163 525.359 294.51 525.37 287.57V217.1C525.349 201.264 520.324 185.84 511.012 173.031C501.7 160.222 488.578 150.684 473.52 145.78ZM136.57 70.9502C143.607 70.9502 150.486 73.0369 156.337 76.9465C162.188 80.856 166.749 86.4129 169.442 92.9143C172.135 99.4157 172.839 106.57 171.466 113.471C170.093 120.373 166.705 126.713 161.729 131.689C156.753 136.665 150.413 140.054 143.511 141.426C136.609 142.799 129.456 142.095 122.954 139.402C116.453 136.709 110.896 132.148 106.986 126.297C103.077 120.446 100.99 113.567 100.99 106.53C101.003 97.0978 104.756 88.0556 111.426 81.3859C118.095 74.7162 127.138 70.9634 136.57 70.9502ZM289.19 70.9502C296.227 70.9502 303.106 73.0369 308.957 76.9465C314.808 80.856 319.369 86.4129 322.062 92.9143C324.755 99.4157 325.459 106.57 324.086 113.471C322.713 120.373 319.325 126.713 314.349 131.689C309.373 136.665 303.033 140.054 296.131 141.426C289.229 142.799 282.076 142.095 275.574 139.402C269.073 136.709 263.516 132.148 259.606 126.297C255.697 120.446 253.61 113.567 253.61 106.53C253.621 97.097 257.373 88.0532 264.043 81.383C270.713 74.7127 279.757 70.9607 289.19 70.9502ZM213.08 147.02C220.119 147.018 227.001 149.104 232.855 153.013C238.71 156.923 243.273 162.48 245.968 168.984C248.663 175.487 249.369 182.643 247.997 189.547C246.625 196.452 243.236 202.794 238.259 207.773C233.283 212.751 226.941 216.142 220.037 217.516C213.133 218.89 205.976 218.185 199.473 215.492C192.969 212.799 187.41 208.237 183.499 202.384C179.588 196.531 177.5 189.65 177.5 182.61C177.508 173.175 181.259 164.129 187.929 157.457C194.6 150.784 203.645 147.031 213.08 147.02ZM289.19 260.6C284.771 251.489 278.561 243.361 270.93 236.703C263.3 230.046 254.406 224.994 244.78 221.85C253.586 214.766 259.754 204.927 262.294 193.914C264.833 182.901 263.595 171.355 258.78 161.13C265.75 158.408 273.167 157.011 280.65 157.01H297.8C305.279 157.012 312.693 158.409 319.66 161.13C314.845 171.355 313.607 182.901 316.146 193.914C318.686 204.927 324.854 214.766 333.66 221.85C324.023 224.987 315.117 230.035 307.476 236.694C299.835 243.352 293.616 251.483 289.19 260.6ZM365.3 218.23C358.261 218.23 351.379 216.143 345.526 212.231C339.673 208.32 335.112 202.761 332.418 196.258C329.725 189.754 329.021 182.597 330.395 175.693C331.769 168.789 335.159 162.448 340.138 157.471C345.116 152.494 351.458 149.105 358.363 147.733C365.267 146.361 372.424 147.067 378.927 149.762C385.43 152.457 390.987 157.021 394.897 162.875C398.806 168.729 400.892 175.611 400.89 182.65C400.877 192.084 397.123 201.128 390.451 207.798C383.779 214.468 374.734 218.22 365.3 218.23ZM441.81 70.9502C448.845 70.9581 455.72 73.0515 461.566 76.9659C467.412 80.8803 471.966 86.4399 474.653 92.942C477.34 99.4441 478.039 106.597 476.661 113.496C475.284 120.395 471.892 126.731 466.915 131.703C461.937 136.675 455.597 140.06 448.697 141.429C441.796 142.799 434.644 142.092 428.145 139.398C421.646 136.704 416.091 132.143 412.184 126.293C408.276 120.443 406.19 113.566 406.19 106.53C406.201 97.0901 409.958 88.0403 416.637 81.3689C423.316 74.6975 432.37 70.9501 441.81 70.9502Z" fill="black"/>
</svg>
