<svg width="84" height="84" viewBox="0 0 84 84" fill="none" xmlns="http://www.w3.org/2000/svg">
<path d="M41.6204 83.26H41.4505C40.6205 83.26 39.9505 82.59 39.9505 81.76C39.9505 80.93 40.6205 80.26 41.4505 80.26H41.6304C44.1904 80.26 46.7605 80 49.2705 79.5C50.0805 79.33 50.8704 79.86 51.0404 80.67C51.2004 81.48 50.6804 82.27 49.8704 82.44C47.1704 82.98 44.4004 83.26 41.6304 83.26H41.6204ZM31.5704 81.99C31.4504 81.99 31.3204 81.97 31.1904 81.94C28.5204 81.25 25.9004 80.28 23.4204 79.07C22.6804 78.71 22.3704 77.81 22.7304 77.06C23.0904 76.32 23.9904 76.01 24.7404 76.37C27.0404 77.49 29.4705 78.39 31.9505 79.03C32.7505 79.24 33.2304 80.06 33.0304 80.86C32.8604 81.54 32.2504 81.98 31.5804 81.98L31.5704 81.99ZM59.0205 79.29C58.4605 79.29 57.9305 78.98 57.6705 78.44C57.3105 77.69 57.6204 76.8 58.3704 76.44C60.6804 75.33 62.8805 73.98 64.9205 72.42C65.5805 71.92 66.5205 72.05 67.0205 72.71C67.5205 73.37 67.3905 74.31 66.7305 74.81C64.5305 76.48 62.1505 77.94 59.6705 79.14C59.4605 79.24 59.2405 79.29 59.0205 79.29ZM15.7204 73.77C15.3804 73.77 15.0304 73.65 14.7504 73.42C12.6404 71.64 10.7004 69.63 8.99045 67.47C8.47045 66.82 8.58045 65.88 9.23045 65.36C9.88045 64.84 10.8204 64.95 11.3404 65.6C12.9304 67.61 14.7304 69.47 16.6904 71.12C17.3204 71.66 17.4004 72.6 16.8704 73.23C16.5704 73.58 16.1504 73.76 15.7204 73.76V73.77ZM72.9705 68.16C72.6405 68.16 72.3105 68.05 72.0305 67.83C71.3805 67.31 71.2805 66.37 71.8005 65.72C73.4005 63.71 74.8105 61.54 75.9805 59.27C76.3605 58.53 77.2605 58.24 78.0005 58.62C78.7405 59 79.0305 59.9 78.6505 60.64C77.3905 63.09 75.8704 65.43 74.1404 67.59C73.8404 67.96 73.4105 68.15 72.9705 68.15V68.16ZM4.99045 59.51C4.42045 59.51 3.87045 59.18 3.62045 58.62C2.49045 56.1 1.61045 53.45 1.00045 50.76C0.820449 49.95 1.33045 49.15 2.13045 48.97C2.94045 48.79 3.74045 49.3 3.92045 50.1C4.48045 52.6 5.30045 55.05 6.35045 57.39C6.69045 58.15 6.35045 59.03 5.60045 59.37C5.40045 59.46 5.19045 59.5 4.99045 59.5V59.51ZM80.7505 52.09C80.6405 52.09 80.5305 52.08 80.4105 52.05C79.6005 51.86 79.1005 51.06 79.2805 50.25C79.8505 47.76 80.1705 45.19 80.2405 42.63C80.2605 41.81 80.9305 41.17 81.7405 41.17C81.7505 41.17 81.7705 41.17 81.7805 41.17C82.6105 41.19 83.2605 41.88 83.2405 42.71C83.1705 45.48 82.8204 48.24 82.2104 50.93C82.0504 51.62 81.4305 52.1 80.7505 52.1V52.09ZM1.50045 42.01C1.50045 42.01 1.47045 42.01 1.46045 42.01C0.630449 41.99 -0.0195506 41.3 0.000449404 40.47C0.0804494 37.7 0.43045 34.94 1.05045 32.25C1.24045 31.44 2.04045 30.94 2.85045 31.13C3.66045 31.32 4.16045 32.12 3.97045 32.93C3.39045 35.42 3.07045 37.98 3.00045 40.55C2.98045 41.36 2.31045 42.01 1.50045 42.01ZM80.7605 34.25C80.0705 34.25 79.4605 33.78 79.3005 33.08C78.7305 30.59 77.9105 28.13 76.8605 25.79C76.5205 25.03 76.8605 24.15 77.6105 23.81C78.3705 23.47 79.2505 23.81 79.5905 24.56C80.7305 27.08 81.6105 29.73 82.2205 32.42C82.4005 33.23 81.9005 34.03 81.0905 34.21C80.9805 34.24 80.8705 34.25 80.7605 34.25ZM5.96045 24.73C5.73045 24.73 5.49045 24.68 5.27045 24.56C4.53045 24.18 4.25045 23.27 4.63045 22.54C5.90045 20.09 7.42045 17.76 9.15045 15.6C9.67045 14.95 10.6104 14.85 11.2604 15.37C11.9104 15.89 12.0104 16.83 11.4904 17.48C9.88045 19.48 8.47045 21.65 7.29045 23.92C7.02045 24.44 6.50045 24.73 5.96045 24.73ZM73.0205 18.16C72.5805 18.16 72.1405 17.97 71.8505 17.6C70.2505 15.59 68.4505 13.74 66.4905 12.09C65.8605 11.56 65.7805 10.61 66.3105 9.98C66.8405 9.35 67.7905 9.26 68.4205 9.8C70.5305 11.58 72.4705 13.58 74.2005 15.74C74.7205 16.39 74.6104 17.33 73.9604 17.85C73.6804 18.07 73.3505 18.18 73.0305 18.18L73.0205 18.16ZM17.4704 11.09C17.0204 11.09 16.5704 10.88 16.2704 10.49C15.7704 9.83 15.9004 8.89 16.5604 8.39C18.7704 6.72 21.1504 5.27 23.6304 4.08C24.3804 3.72 25.2704 4.04 25.6304 4.78C25.9904 5.53 25.6705 6.42 24.9305 6.78C22.6205 7.89 20.4104 9.24 18.3704 10.78C18.1004 10.98 17.7804 11.08 17.4704 11.08V11.09ZM59.0804 7C58.8604 7 58.6404 6.95 58.4304 6.85C56.1204 5.73 53.6904 4.84 51.2204 4.2C50.4204 3.99 49.9304 3.18 50.1404 2.37C50.3504 1.56 51.1604 1.08 51.9704 1.29C54.6404 1.98 57.2604 2.94 59.7504 4.14C60.5004 4.5 60.8104 5.4 60.4404 6.14C60.1804 6.67 59.6505 6.99 59.0905 6.99L59.0804 7ZM33.7404 3.77C33.0404 3.77 32.4105 3.28 32.2705 2.56C32.1105 1.75 32.6305 0.96 33.4505 0.8C36.1205 0.27 38.8605 0 41.6105 0C42.4405 0 43.1504 0.67 43.1504 1.5C43.1504 2.33 42.5204 3 41.6904 3H41.6105C39.0605 3 36.5104 3.25 34.0404 3.75C33.9404 3.77 33.8404 3.78 33.7404 3.78V3.77ZM41.6105 13.57C26.1405 13.57 13.5504 26.15 13.5504 41.62C13.5504 57.09 26.1405 69.67 41.6105 69.67C57.0805 69.67 69.6705 57.09 69.6705 41.62C69.6705 26.15 57.0805 13.57 41.6105 13.57ZM24.1204 59.54C25.5404 54.31 29.2205 49.97 34.2705 47.75C31.4405 45.46 29.7505 41.99 29.7505 38.27C29.7505 31.55 35.2204 26.08 41.9404 26.08C48.6604 26.08 54.1304 31.55 54.1304 38.27C54.1304 42.12 52.3404 45.66 49.3504 47.94C54.1804 50.21 57.6904 54.48 59.0804 59.54C54.5604 63.95 48.3904 66.67 41.6004 66.67C34.8104 66.67 28.6305 63.94 24.1105 59.53L24.1204 59.54ZM15.8704 22.47V12.52C15.8704 11.69 15.2004 11.02 14.3704 11.02H4.43045C3.60045 11.02 2.93045 11.69 2.93045 12.52C2.93045 13.35 3.60045 14.02 4.43045 14.02H12.8704V22.47C12.8704 23.3 13.5404 23.97 14.3704 23.97C15.2004 23.97 15.8704 23.3 15.8704 22.47ZM80.5905 70.75C80.5905 69.92 79.9205 69.25 79.0905 69.25H70.6505V60.8C70.6505 59.97 69.9805 59.3 69.1505 59.3C68.3205 59.3 67.6505 59.97 67.6505 60.8V70.75C67.6505 71.58 68.3205 72.25 69.1505 72.25H79.0905C79.9205 72.25 80.5905 71.58 80.5905 70.75Z" fill="black"/>
</svg>
