<svg width="150" height="103" viewBox="0 0 150 103" fill="none" xmlns="http://www.w3.org/2000/svg">
<g clip-path="url(#clip0_416_479)">
<path d="M102.361 14.5535C106.772 15.2416 110.006 20.1595 111.668 27.5543C113.259 34.6332 113.456 44.0744 111.885 54.2093C111.881 54.2714 111.871 54.332 111.856 54.3905C111.57 56.2149 111.236 58.0001 110.859 59.7381L114.077 60.7658C114.476 58.8217 114.836 56.835 115.151 54.8116C117.272 41.2213 117.021 28.5942 114.902 19.1654C112.849 10.0319 109.097 3.99541 104.132 3.22086C99.1652 2.44599 93.7516 7.05231 89.0143 15.126C84.1339 23.4437 80.0558 35.3626 77.932 48.9189C77.9291 48.9602 77.9235 49.0018 77.9152 49.0435L77.9151 49.0438L77.9125 49.0432C75.7995 62.6173 76.0518 75.2279 78.1688 84.6468C80.2217 93.7802 83.9739 99.8166 88.9384 100.591C90.168 100.783 91.4249 100.645 92.6921 100.206C92.7047 100.201 92.7174 100.195 92.7298 100.19C92.7836 100.166 92.8384 100.147 92.8935 100.134C96.6815 98.7285 100.554 94.6554 104.056 88.6861C107.972 82.0121 111.372 73.0194 113.659 62.7229L110.414 61.6866C108.708 68.7878 106.291 75.0044 103.531 79.7094C99.6949 86.2469 95.1178 89.9465 90.709 89.2587C86.2981 88.5706 83.0646 83.6526 81.4025 76.2578C79.8067 69.1583 79.6129 59.683 81.1993 49.5147C82.7857 39.3462 85.8569 30.3795 89.5398 24.1027C93.3757 17.5653 97.9527 13.8657 102.361 14.5535ZM100.232 59.6929L99.8519 60.8837L98.6611 60.5035L99.0413 59.3127L100.232 59.6929ZM143.393 73.4734L142.318 73.1304L141.938 74.3212L143.012 74.6642L143.393 73.4734ZM138.746 71.9898L138.366 73.1806L137.175 72.8004L137.555 71.6096L138.746 71.9898ZM133.983 70.469L133.603 71.6598L132.412 71.2796L132.792 70.0888L133.983 70.469ZM129.22 68.9482L128.84 70.139L127.649 69.7588L128.029 68.568L129.22 68.9482ZM124.457 67.4274L124.076 68.6182L122.886 68.238L123.266 67.0472L124.457 67.4274ZM119.694 65.9066L119.313 67.0974L118.123 66.7172L118.503 65.5264L119.694 65.9066ZM96.2117 57.1521C95.6875 56.986 95.3972 56.4263 95.5633 55.9021C95.7294 55.3779 96.2891 55.0876 96.8133 55.2537L103.391 57.3539C103.678 55.951 103.937 54.5181 104.164 53.0595C105.441 44.8748 105.545 37.1624 104.678 30.8312C103.803 24.4319 101.948 19.4796 99.3287 16.9356C99.3026 16.9103 99.2792 16.8831 99.2586 16.8547C96.5601 17.8684 93.7841 20.8063 91.2586 25.1105C88.0017 30.6611 85.2345 38.4162 83.6008 47.277L91.2442 51.2497C91.5503 51.4088 91.6694 51.7859 91.5103 52.092C91.3531 52.3945 90.9828 52.5144 90.6787 52.3635L83.234 49.4035C83.2118 49.5419 83.1897 49.6805 83.1681 49.8194C82.9663 51.1126 82.7942 52.3936 82.6505 53.6591L90.2349 55.3144C90.5471 55.3806 90.763 55.6752 90.7248 55.9984C90.6844 56.3409 90.3739 56.5857 90.0314 56.5453L82.448 55.6336C81.7472 63.3039 82.1097 70.3123 83.3478 75.8203C84.4322 80.6451 86.1588 84.2674 88.3891 86.072C91.6315 84.549 94.8922 80.5132 97.682 74.8001C99.7996 70.4638 101.631 65.1814 102.969 59.3095L96.2117 57.1521ZM104.584 57.7348L108.953 59.1296C109.311 57.4601 109.629 55.7455 109.902 53.9932L109.902 53.9927C111.45 44.0754 111.268 34.8653 109.723 27.9918C108.244 21.4136 105.572 17.0706 102.057 16.5222C101.592 16.4497 101.12 16.4453 100.645 16.5051C103.229 19.3467 105.05 24.3505 105.914 30.6652C106.795 37.1051 106.691 44.9417 105.395 53.25C105.157 54.7741 104.886 56.2706 104.584 57.7348ZM115.986 61.3751L148.606 71.7901C149.13 71.9562 149.42 72.5159 149.254 73.0401C149.088 73.5644 148.528 73.8547 148.004 73.6886L115.564 63.3311C113.229 73.7633 109.766 82.8921 105.775 89.6939C102.056 96.0323 97.8383 100.39 93.5799 101.988C93.565 101.996 93.5499 102.003 93.5345 102.01C91.9333 102.722 89.6293 103.02 87.2633 103.095C83.5287 103.214 79.5736 102.787 78.1588 102.574C78.0916 102.569 78.0263 102.559 77.9633 102.542C72.1575 101.564 67.8827 94.9738 65.6599 85.0846C63.7523 76.5979 63.319 65.6093 64.7087 53.6736L16.2491 48.8988C13.8569 52.4316 11.0994 54.3759 8.39878 54.0131C8.32708 54.0095 8.25741 53.9984 8.19046 53.9805C5.17776 53.4419 2.98351 50.1137 1.86684 45.1455C0.80366 40.4154 0.673335 34.1089 1.72781 27.3466L1.72458 27.3462L1.72463 27.3458C1.72908 27.3162 1.73486 27.2872 1.74173 27.2586C2.80078 20.5287 4.83974 14.5909 7.28413 10.425C9.89158 5.98116 13.0371 3.47171 16.1024 3.94994C19.1699 4.42849 21.4025 7.77679 22.5323 12.8033C22.744 13.745 22.9185 14.7495 23.0543 15.8074L67.3348 38.8226C69.4613 29.9886 72.4042 22.2939 75.7859 16.2257C80.6462 7.50446 86.4703 2.07731 92.1738 1.32826C93.5102 1.15279 97.4622 0.974437 100.682 1.00304C102.811 1.02196 104.691 1.15821 105.509 1.48746C110.824 2.99926 114.749 9.39479 116.847 18.7279C119.017 28.3826 119.28 41.275 117.12 55.1163C116.788 57.2439 116.409 59.3324 115.986 61.3751ZM108.512 61.0792L104.16 59.6897C102.802 65.6217 100.947 70.9598 98.805 75.347C96.0834 80.9204 92.8757 84.9909 89.6011 86.8468C90.0551 87.0646 90.5263 87.2139 91.0137 87.29C94.5311 87.8387 98.4001 84.5165 101.812 78.7016C104.499 74.1223 106.853 68.0425 108.512 61.0792ZM7.56776 48.0434C7.22528 48.0097 6.97496 47.7048 7.00866 47.3623C7.04236 47.0198 7.34733 46.7695 7.68981 46.8032L14.787 47.5025C14.992 47.1875 15.1952 46.8585 15.3962 46.5159C17.7253 42.5464 19.6735 36.8504 20.6921 30.3631C20.6936 30.3468 20.6955 30.3304 20.6979 30.3139L20.6999 30.314L20.7018 30.3022C21.5096 25.1245 21.6004 20.244 21.095 16.1969L13.6743 12.3399C13.3682 12.1809 13.2491 11.8037 13.4082 11.4977C13.5672 11.1916 13.9444 11.0725 14.2504 11.2315L20.8694 14.6718C20.7848 14.1795 20.6907 13.702 20.587 13.2408C19.6407 9.03084 17.9695 6.25751 15.7977 5.91869C13.6238 5.57954 11.1863 7.71159 9.00288 11.4328C6.67561 15.3991 4.72868 21.0894 3.70936 27.5705C3.70751 27.5945 3.70481 27.6186 3.70118 27.6427L3.70113 27.6431L3.69966 27.6428L3.69731 27.6582L3.69553 27.6581C2.68136 34.1667 2.80008 40.2054 3.81213 44.708C4.75833 48.9178 6.42953 51.691 8.60126 52.0299C10.3109 52.2967 12.1835 51.0348 13.9673 48.674L7.56776 48.0434ZM16.9984 47.7204L64.8588 52.4362C64.9212 51.9428 64.9867 51.4479 65.0553 50.9516L57.7601 49.2969C57.4244 49.2214 57.2135 48.888 57.289 48.5523C57.3645 48.2165 57.6979 48.0056 58.0336 48.0811L65.2323 49.7139C65.2818 49.3794 65.3323 49.0445 65.3846 48.7089L65.3826 48.7086L65.3827 48.7075C65.3866 48.6804 65.3915 48.6538 65.3974 48.6276C65.7118 46.6194 66.068 44.6538 66.4625 42.7351L59.9663 40.1522C59.6468 40.0255 59.4905 39.6637 59.6172 39.3441C59.7439 39.0246 60.1058 38.8683 60.4253 38.995L66.7232 41.499C66.8264 41.022 66.9323 40.5483 67.0402 40.0773L23.2165 17.2996C23.5708 21.2358 23.4194 25.8005 22.6724 30.5947L22.6745 30.595C22.6706 30.6223 22.6656 30.649 22.6597 30.6752C21.6013 37.4112 19.5612 43.3546 17.115 47.5237C17.0762 47.5897 17.0374 47.6552 16.9984 47.7204ZM22.634 41.3294C22.2983 41.2539 22.0873 40.9205 22.1628 40.5848C22.2383 40.2491 22.5717 40.0381 22.9075 40.1136L29.9918 41.7205C30.3275 41.796 30.5384 42.1294 30.4629 42.4652C30.3874 42.8009 30.054 43.0118 29.7183 42.9363L22.634 41.3294ZM35.6115 44.273C35.2758 44.1975 35.0648 43.8641 35.1403 43.5284C35.2158 43.1927 35.5492 42.9817 35.8849 43.0572L47.8396 45.7689C48.1754 45.8444 48.3863 46.1778 48.3108 46.5135C48.2353 46.8492 47.9019 47.0602 47.5662 46.9847L35.6115 44.273ZM25.7519 26.5486C25.4324 26.4219 25.2761 26.06 25.4028 25.7405C25.5295 25.4209 25.8914 25.2646 26.2109 25.3914L33.7057 28.3713C34.0253 28.498 34.1816 28.8599 34.0548 29.1794C33.9281 29.499 33.5663 29.6553 33.2467 29.5285L25.7519 26.5486ZM38.862 31.7612C38.5425 31.6344 38.3862 31.2726 38.5129 30.953C38.6396 30.6335 39.0015 30.4772 39.321 30.6039L50.712 35.133C51.0316 35.2597 51.1879 35.6216 51.0612 35.9411C50.9344 36.2607 50.5726 36.417 50.253 36.2903L38.862 31.7612ZM95.8527 30.1094C95.6693 29.8181 95.7568 29.4333 96.048 29.25C96.3392 29.0666 96.724 29.1541 96.9074 29.4453L99.1563 33.0172C99.3397 33.3084 99.2522 33.6932 98.961 33.8766C98.6698 34.0599 98.285 33.9725 98.1016 33.6812L95.8527 30.1094ZM96.1172 25.3469C95.9339 25.0556 96.0213 24.6708 96.3126 24.4875C96.6038 24.3041 96.9886 24.3916 97.1719 24.6828L99.4209 28.2547C99.6042 28.5459 99.5168 28.9307 99.2256 29.1141C98.9343 29.2974 98.5495 29.21 98.3662 28.9187L96.1172 25.3469ZM97.0583 3.03564C95.0448 3.09309 93.2345 3.19939 92.4316 3.30481C87.379 3.96839 82.0784 9.02944 77.5281 17.1944C73.0521 25.2261 69.3587 36.2007 67.365 48.9395C67.3635 48.9559 67.3616 48.9723 67.3593 48.9888L67.3591 48.9898L67.3571 48.9895L67.3552 49.0015C65.2351 62.5917 65.4859 75.2185 67.6052 84.6471C69.658 93.7802 73.41 99.8165 78.3744 100.591L78.3749 100.591C79.3877 100.749 82.0435 101.053 84.9333 101.113C80.9448 98.5142 77.9588 92.8046 76.2235 85.0843C74.0535 75.4296 73.7909 62.5374 75.9503 48.6961L75.957 48.6537L75.9542 48.6531L75.9542 48.6529C75.9572 48.6378 75.9606 48.623 75.9642 48.6083C78.1276 34.8028 82.2978 22.6358 87.2956 14.1182C90.3043 8.99049 93.6394 5.15914 97.0583 3.03564Z" fill="black"/>
</g>
<defs>
<clipPath id="clip0_416_479">
<rect width="150" height="103" fill="white"/>
</clipPath>
</defs>
</svg>
