<svg width="61" height="75" viewBox="0 0 61 75" fill="none" xmlns="http://www.w3.org/2000/svg">
<path d="M54.7225 33.2297H50.4537V20.7916C50.4537 15.2774 48.3581 10.1039 44.5395 6.23152C40.7364 2.2972 35.6759 0.144165 30.2584 0.144165C19.1285 0.144165 10.0632 9.40686 10.0632 20.7916V33.2297H5.79437C2.67427 33.2297 0.144043 35.7544 0.144043 38.8678V68.8554C0.144043 71.9688 2.67427 74.4936 5.79437 74.4936H54.707C57.8271 74.4936 60.3573 71.9688 60.3573 68.8554V38.8678C60.3729 35.7544 57.8426 33.2297 54.7225 33.2297ZM13.1677 20.7916C13.1677 11.1107 20.8361 3.24206 30.2584 3.24206C34.8222 3.24206 39.1065 5.06981 42.3197 8.38456C45.564 11.6838 47.3491 16.0983 47.3491 20.7916V33.2297H13.1677V20.7916ZM57.2683 68.8554C57.2683 70.265 56.1196 71.3957 54.7225 71.3957H5.79437C4.38179 71.3957 3.24862 70.2495 3.24862 68.8554V38.8678C3.24862 37.4583 4.39731 36.3275 5.79437 36.3275H11.5999H11.6155H11.631H48.8704H48.8859H48.9014H54.707C56.1196 36.3275 57.2528 37.4738 57.2528 38.8678V68.8554H57.2683Z" fill="black"/>
<path d="M30.2589 43.4062C26.6576 43.4062 23.7393 46.3802 23.7393 50.0512C23.7393 53.1646 25.8659 55.7668 28.7066 56.4794V62.7836C28.7066 63.6355 29.4051 64.3325 30.2589 64.3325C31.1126 64.3325 31.8112 63.6355 31.8112 62.7836V56.4794C34.6518 55.7668 36.7785 53.1646 36.7785 50.0512C36.7785 46.3802 33.8602 43.4062 30.2589 43.4062ZM30.2589 53.5828C28.3806 53.5828 26.8438 51.9874 26.8438 50.0357C26.8438 48.0841 28.3806 46.4886 30.2589 46.4886C32.1371 46.4886 33.6739 48.0841 33.6739 50.0357C33.6739 51.9874 32.1371 53.5828 30.2589 53.5828Z" fill="black"/>
</svg>
