<?xml version="1.0" encoding="UTF-8"?>
<svg id="Calque_1" data-name="Calque 1" xmlns="http://www.w3.org/2000/svg" viewBox="0 0 579.97 208.38">
  <defs>
    <style>
      .cls-1 {
        font-family: BelgianoSerif-Regular, 'Belgiano Serif';
        font-size: 50px;
      }

      .cls-1, .cls-2 {
        fill: #fbb915;
      }

      .cls-3 {
        fill: #17142d;
      }

      .cls-4 {
        fill: none;
        stroke: #fbb915;
        stroke-miterlimit: 10;
        stroke-width: 3px;
      }

      .cls-5 {
        letter-spacing: -.02em;
      }

      .cls-6 {
        fill: #b4d6e5;
      }
    </style>
  </defs>
  <g>
    <g>
      <path class="cls-6" d="M108.76,17.31v.99c-1.4,1.16-2.42,2.31-3.03,3.47-.62,1.16-.89,2.6-.81,4.33l3.34,63.78c.16,3.55,.72,6.36,1.67,8.42,.95,2.07,2.62,3.84,5.02,5.33v.99h-24.15v-.99c1.9-1.16,3.28-2.83,4.15-5.02,.87-2.19,1.22-4.64,1.05-7.37l-3.59-66.75-27.87,74.06h-1.73L31.11,27.46l-3.1,62.42c-.08,2.72,.56,5.41,1.92,8.05,1.36,2.64,3.2,4.54,5.51,5.7v.99H19.22v-.99c2.39-1.49,4.09-3.45,5.08-5.88,.99-2.43,1.57-5.06,1.73-7.86l3.34-63.78c.16-3.55-1.45-6.15-4.83-7.8v-.99h15.98l28.36,64.77L93.15,17.19l15.6,.12Z"/>
      <path class="cls-6" d="M108.71,17.26v.99c-1.4,1.16-2.42,2.31-3.03,3.47-.62,1.16-.89,2.6-.81,4.33l3.34,63.78c.16,3.55,.72,6.36,1.67,8.42,.95,2.07,2.62,3.84,5.02,5.33v.99h-24.15v-.99c1.9-1.16,3.28-2.83,4.15-5.02,.87-2.19,1.22-4.64,1.05-7.37l-3.59-66.75-27.87,74.06h-1.73L31.06,27.42l-3.1,62.42c-.08,2.72,.56,5.41,1.92,8.05,1.36,2.64,3.2,4.54,5.51,5.7v.99H19.17v-.99c2.39-1.49,4.09-3.45,5.08-5.88,.99-2.43,1.57-5.06,1.73-7.86l3.34-63.78c.16-3.55-1.45-6.15-4.83-7.8v-.99h15.98l28.36,64.77L93.11,17.14l15.6,.12Z"/>
      <path class="cls-6" d="M108.66,17.21v.99c-1.4,1.16-2.42,2.31-3.03,3.47-.62,1.16-.89,2.6-.81,4.33l3.34,63.78c.16,3.55,.72,6.36,1.67,8.42,.95,2.07,2.62,3.84,5.02,5.33v.99h-24.15v-.99c1.9-1.16,3.28-2.83,4.15-5.02,.87-2.19,1.22-4.64,1.05-7.37l-3.59-66.75-27.87,74.06h-1.73L31.01,27.37l-3.1,62.42c-.08,2.72,.56,5.41,1.92,8.05,1.36,2.64,3.2,4.54,5.51,5.7v.99H19.12v-.99c2.39-1.49,4.09-3.45,5.08-5.88,.99-2.43,1.57-5.06,1.73-7.86l3.34-63.78c.16-3.55-1.45-6.15-4.83-7.8v-.99h15.98l28.36,64.77L93.06,17.09l15.6,.12Z"/>
      <path class="cls-6" d="M108.62,17.17v.99c-1.4,1.16-2.42,2.31-3.03,3.47-.62,1.16-.89,2.6-.81,4.33l3.34,63.78c.16,3.55,.72,6.36,1.67,8.42,.95,2.07,2.62,3.84,5.02,5.33v.99h-24.15v-.99c1.9-1.16,3.28-2.83,4.15-5.02,.87-2.19,1.22-4.64,1.05-7.37l-3.59-66.75-27.87,74.06h-1.73L30.96,27.32l-3.1,62.42c-.08,2.72,.56,5.41,1.92,8.05,1.36,2.64,3.2,4.54,5.51,5.7v.99H19.07v-.99c2.39-1.49,4.09-3.45,5.08-5.88,.99-2.43,1.57-5.06,1.73-7.86l3.34-63.78c.16-3.55-1.45-6.15-4.83-7.8v-.99h15.98l28.36,64.77L93.01,17.04l15.6,.12Z"/>
      <path class="cls-6" d="M108.57,17.12v.99c-1.4,1.16-2.42,2.31-3.03,3.47-.62,1.16-.89,2.6-.81,4.33l3.34,63.78c.16,3.55,.72,6.36,1.67,8.42,.95,2.07,2.62,3.84,5.02,5.33v.99h-24.15v-.99c1.9-1.16,3.28-2.83,4.15-5.02,.87-2.19,1.22-4.64,1.05-7.37l-3.59-66.75-27.87,74.06h-1.73L30.91,27.27l-3.1,62.42c-.08,2.72,.56,5.41,1.92,8.05,1.36,2.64,3.2,4.54,5.51,5.7v.99H19.03v-.99c2.39-1.49,4.09-3.45,5.08-5.88,.99-2.43,1.57-5.06,1.73-7.86l3.34-63.78c.16-3.55-1.45-6.15-4.83-7.8v-.99h15.98l28.36,64.77L92.96,16.99l15.6,.12Z"/>
      <path class="cls-6" d="M108.52,17.07v.99c-1.4,1.16-2.42,2.31-3.03,3.47-.62,1.16-.89,2.6-.81,4.33l3.34,63.78c.16,3.55,.72,6.36,1.67,8.42,.95,2.07,2.62,3.84,5.02,5.33v.99h-24.15v-.99c1.9-1.16,3.28-2.83,4.15-5.02,.87-2.19,1.22-4.64,1.05-7.37l-3.59-66.75-27.87,74.06h-1.73L30.87,27.23l-3.1,62.42c-.08,2.72,.56,5.41,1.92,8.05,1.36,2.64,3.2,4.54,5.51,5.7v.99H18.98v-.99c2.39-1.49,4.09-3.45,5.08-5.88,.99-2.43,1.57-5.06,1.73-7.86l3.34-63.78c.16-3.55-1.45-6.15-4.83-7.8v-.99h15.98l28.36,64.77L92.91,16.95l15.6,.12Z"/>
      <path class="cls-6" d="M108.47,17.02v.99c-1.4,1.16-2.42,2.31-3.03,3.47-.62,1.16-.89,2.6-.81,4.33l3.34,63.78c.16,3.55,.72,6.36,1.67,8.42,.95,2.07,2.62,3.84,5.02,5.33v.99h-24.15v-.99c1.9-1.16,3.28-2.83,4.15-5.02,.87-2.19,1.22-4.64,1.05-7.37l-3.59-66.75-27.87,74.06h-1.73L30.82,27.18l-3.1,62.42c-.08,2.72,.56,5.41,1.92,8.05,1.36,2.64,3.2,4.54,5.51,5.7v.99H18.93v-.99c2.39-1.49,4.09-3.45,5.08-5.88,.99-2.43,1.57-5.06,1.73-7.86l3.34-63.78c.16-3.55-1.45-6.15-4.83-7.8v-.99h15.98l28.36,64.77L92.87,16.9l15.6,.12Z"/>
      <path class="cls-6" d="M108.42,16.98v.99c-1.4,1.16-2.42,2.31-3.03,3.47-.62,1.16-.89,2.6-.81,4.33l3.34,63.78c.16,3.55,.72,6.36,1.67,8.42,.95,2.07,2.62,3.84,5.02,5.33v.99h-24.15v-.99c1.9-1.16,3.28-2.83,4.15-5.02,.87-2.19,1.22-4.64,1.05-7.37l-3.59-66.75-27.87,74.06h-1.73L30.77,27.13l-3.1,62.42c-.08,2.72,.56,5.41,1.92,8.05,1.36,2.64,3.2,4.54,5.51,5.7v.99H18.88v-.99c2.39-1.49,4.09-3.45,5.08-5.88,.99-2.43,1.57-5.06,1.73-7.86l3.34-63.78c.16-3.55-1.45-6.15-4.83-7.8v-.99h15.98l28.36,64.77L92.82,16.85l15.6,.12Z"/>
      <path class="cls-6" d="M108.38,16.93v.99c-1.4,1.16-2.42,2.31-3.03,3.47-.62,1.16-.89,2.6-.81,4.33l3.34,63.78c.16,3.55,.72,6.36,1.67,8.42,.95,2.07,2.62,3.84,5.02,5.33v.99h-24.15v-.99c1.9-1.16,3.28-2.83,4.15-5.02,.87-2.19,1.22-4.64,1.05-7.37l-3.59-66.75-27.87,74.06h-1.73L30.72,27.08l-3.1,62.42c-.08,2.72,.56,5.41,1.92,8.05,1.36,2.64,3.2,4.54,5.51,5.7v.99H18.83v-.99c2.39-1.49,4.09-3.45,5.08-5.88,.99-2.43,1.57-5.06,1.73-7.86l3.34-63.78c.16-3.55-1.45-6.15-4.83-7.8v-.99h15.98l28.36,64.77L92.77,16.8l15.6,.12Z"/>
      <path class="cls-6" d="M108.33,16.88v.99c-1.4,1.16-2.42,2.31-3.03,3.47-.62,1.16-.89,2.6-.81,4.33l3.34,63.78c.16,3.55,.72,6.36,1.67,8.42,.95,2.07,2.62,3.84,5.02,5.33v.99h-24.15v-.99c1.9-1.16,3.28-2.83,4.15-5.02,.87-2.19,1.22-4.64,1.05-7.37l-3.59-66.75-27.87,74.06h-1.73L30.68,27.03l-3.1,62.42c-.08,2.72,.56,5.41,1.92,8.05,1.36,2.64,3.2,4.54,5.51,5.7v.99H18.79v-.99c2.39-1.49,4.09-3.45,5.08-5.88,.99-2.43,1.57-5.06,1.73-7.86l3.34-63.78c.16-3.55-1.45-6.15-4.83-7.8v-.99h15.98l28.36,64.77L92.72,16.76l15.6,.12Z"/>
      <path class="cls-6" d="M108.28,16.83v.99c-1.4,1.16-2.42,2.31-3.03,3.47-.62,1.16-.89,2.6-.81,4.33l3.34,63.78c.16,3.55,.72,6.36,1.67,8.42,.95,2.07,2.62,3.84,5.02,5.33v.99h-24.15v-.99c1.9-1.16,3.28-2.83,4.15-5.02,.87-2.19,1.22-4.64,1.05-7.37l-3.59-66.75-27.87,74.06h-1.73L30.63,26.99l-3.1,62.42c-.08,2.72,.56,5.41,1.92,8.05,1.36,2.64,3.2,4.54,5.51,5.7v.99H18.74v-.99c2.39-1.49,4.09-3.45,5.08-5.88,.99-2.43,1.57-5.06,1.73-7.86l3.34-63.78c.16-3.55-1.45-6.15-4.83-7.8v-.99h15.98l28.36,64.77L92.68,16.71l15.6,.12Z"/>
      <path class="cls-6" d="M108.23,16.78v.99c-1.4,1.16-2.42,2.31-3.03,3.47-.62,1.16-.89,2.6-.81,4.33l3.34,63.78c.16,3.55,.72,6.36,1.67,8.42,.95,2.07,2.62,3.84,5.02,5.33v.99h-24.15v-.99c1.9-1.16,3.28-2.83,4.15-5.02,.87-2.19,1.22-4.64,1.05-7.37l-3.59-66.75-27.87,74.06h-1.73L30.58,26.94l-3.1,62.42c-.08,2.72,.56,5.41,1.92,8.05,1.36,2.64,3.2,4.54,5.51,5.7v.99H18.69v-.99c2.39-1.49,4.09-3.45,5.08-5.88,.99-2.43,1.57-5.06,1.73-7.86l3.34-63.78c.16-3.55-1.45-6.15-4.83-7.8v-.99h15.98l28.36,64.77L92.63,16.66l15.6,.12Z"/>
      <path class="cls-6" d="M108.19,16.74v.99c-1.4,1.16-2.42,2.31-3.03,3.47-.62,1.16-.89,2.6-.81,4.33l3.34,63.78c.16,3.55,.72,6.36,1.67,8.42,.95,2.07,2.62,3.84,5.02,5.33v.99h-24.15v-.99c1.9-1.16,3.28-2.83,4.15-5.02,.87-2.19,1.22-4.64,1.05-7.37l-3.59-66.75-27.87,74.06h-1.73L30.53,26.89l-3.1,62.42c-.08,2.72,.56,5.41,1.92,8.05,1.36,2.64,3.2,4.54,5.51,5.7v.99H18.64v-.99c2.39-1.49,4.09-3.45,5.08-5.88,.99-2.43,1.57-5.06,1.73-7.86l3.34-63.78c.16-3.55-1.45-6.15-4.83-7.8v-.99h15.98l28.36,64.77L92.58,16.61l15.6,.12Z"/>
      <path class="cls-6" d="M108.14,16.69v.99c-1.4,1.16-2.42,2.31-3.03,3.47-.62,1.16-.89,2.6-.81,4.33l3.34,63.78c.16,3.55,.72,6.36,1.67,8.42,.95,2.07,2.62,3.84,5.02,5.33v.99h-24.15v-.99c1.9-1.16,3.28-2.83,4.15-5.02,.87-2.19,1.22-4.64,1.05-7.37l-3.59-66.75-27.87,74.06h-1.73L30.48,26.84l-3.1,62.42c-.08,2.72,.56,5.41,1.92,8.05,1.36,2.64,3.2,4.54,5.51,5.7v.99H18.6v-.99c2.39-1.49,4.09-3.45,5.08-5.88,.99-2.43,1.57-5.06,1.73-7.86l3.34-63.78c.16-3.55-1.45-6.15-4.83-7.8v-.99h15.98l28.36,64.77L92.53,16.56l15.6,.12Z"/>
      <path class="cls-6" d="M108.09,16.64v.99c-1.4,1.16-2.42,2.31-3.03,3.47-.62,1.16-.89,2.6-.81,4.33l3.34,63.78c.16,3.55,.72,6.36,1.67,8.42,.95,2.07,2.62,3.84,5.02,5.33v.99h-24.15v-.99c1.9-1.16,3.28-2.83,4.15-5.02,.87-2.19,1.22-4.64,1.05-7.37l-3.59-66.75-27.87,74.06h-1.73L30.44,26.8l-3.1,62.42c-.08,2.72,.56,5.41,1.92,8.05,1.36,2.64,3.2,4.54,5.51,5.7v.99H18.55v-.99c2.39-1.49,4.09-3.45,5.08-5.88,.99-2.43,1.57-5.06,1.73-7.86l3.34-63.78c.16-3.55-1.45-6.15-4.83-7.8v-.99h15.98l28.36,64.77L92.48,16.52l15.6,.12Z"/>
      <path class="cls-6" d="M108.04,16.59v.99c-1.4,1.16-2.42,2.31-3.03,3.47-.62,1.16-.89,2.6-.81,4.33l3.34,63.78c.16,3.55,.72,6.36,1.67,8.42,.95,2.07,2.62,3.84,5.02,5.33v.99h-24.15v-.99c1.9-1.16,3.28-2.83,4.15-5.02,.87-2.19,1.22-4.64,1.05-7.37l-3.59-66.75-27.87,74.06h-1.73L30.39,26.75l-3.1,62.42c-.08,2.72,.56,5.41,1.92,8.05,1.36,2.64,3.2,4.54,5.51,5.7v.99H18.5v-.99c2.39-1.49,4.09-3.45,5.08-5.88,.99-2.43,1.57-5.06,1.73-7.86l3.34-63.78c.16-3.55-1.45-6.15-4.83-7.8v-.99h15.98l28.36,64.77L92.44,16.47l15.6,.12Z"/>
      <path class="cls-6" d="M107.99,16.55v.99c-1.4,1.16-2.42,2.31-3.03,3.47-.62,1.16-.89,2.6-.81,4.33l3.34,63.78c.16,3.55,.72,6.36,1.67,8.42,.95,2.07,2.62,3.84,5.02,5.33v.99h-24.15v-.99c1.9-1.16,3.28-2.83,4.15-5.02,.87-2.19,1.22-4.64,1.05-7.37l-3.59-66.75-27.87,74.06h-1.73L30.34,26.7l-3.1,62.42c-.08,2.72,.56,5.41,1.92,8.05,1.36,2.64,3.2,4.54,5.51,5.7v.99H18.45v-.99c2.39-1.49,4.09-3.45,5.08-5.88,.99-2.43,1.57-5.06,1.73-7.86l3.34-63.78c.16-3.55-1.45-6.15-4.83-7.8v-.99h15.98l28.36,64.77L92.39,16.42l15.6,.12Z"/>
      <path class="cls-6" d="M107.95,16.5v.99c-1.4,1.16-2.42,2.31-3.03,3.47-.62,1.16-.89,2.6-.81,4.33l3.34,63.78c.16,3.55,.72,6.36,1.67,8.42,.95,2.07,2.62,3.84,5.02,5.33v.99h-24.15v-.99c1.9-1.16,3.28-2.83,4.15-5.02,.87-2.19,1.22-4.64,1.05-7.37l-3.59-66.75-27.87,74.06h-1.73L30.29,26.65l-3.1,62.42c-.08,2.72,.56,5.41,1.92,8.05,1.36,2.64,3.2,4.54,5.51,5.7v.99H18.4v-.99c2.39-1.49,4.09-3.45,5.08-5.88,.99-2.43,1.57-5.06,1.73-7.86l3.34-63.78c.16-3.55-1.45-6.15-4.83-7.8v-.99h15.98l28.36,64.77L92.34,16.37l15.6,.12Z"/>
      <path class="cls-6" d="M107.9,16.45v.99c-1.4,1.16-2.42,2.31-3.03,3.47-.62,1.16-.89,2.6-.81,4.33l3.34,63.78c.16,3.55,.72,6.36,1.67,8.42,.95,2.07,2.62,3.84,5.02,5.33v.99h-24.15v-.99c1.9-1.16,3.28-2.83,4.15-5.02,.87-2.19,1.22-4.64,1.05-7.37l-3.59-66.75-27.87,74.06h-1.73L30.25,26.6l-3.1,62.42c-.08,2.72,.56,5.41,1.92,8.05,1.36,2.64,3.2,4.54,5.51,5.7v.99H18.36v-.99c2.39-1.49,4.09-3.45,5.08-5.88,.99-2.43,1.57-5.06,1.73-7.86l3.34-63.78c.16-3.55-1.45-6.15-4.83-7.8v-.99h15.98l28.36,64.77L92.29,16.33l15.6,.12Z"/>
      <path class="cls-6" d="M107.85,16.4v.99c-1.4,1.16-2.42,2.31-3.03,3.47-.62,1.16-.89,2.6-.81,4.33l3.34,63.78c.16,3.55,.72,6.36,1.67,8.42,.95,2.07,2.62,3.84,5.02,5.33v.99h-24.15v-.99c1.9-1.16,3.28-2.83,4.15-5.02,.87-2.19,1.22-4.64,1.05-7.37l-3.59-66.75-27.87,74.06h-1.73L30.2,26.56l-3.1,62.42c-.08,2.72,.56,5.41,1.92,8.05,1.36,2.64,3.2,4.54,5.51,5.7v.99H18.31v-.99c2.39-1.49,4.09-3.45,5.08-5.88,.99-2.43,1.57-5.06,1.73-7.86l3.34-63.78c.16-3.55-1.45-6.15-4.83-7.8v-.99h15.98l28.36,64.77L92.25,16.28l15.6,.12Z"/>
      <path class="cls-6" d="M107.8,16.35v.99c-1.4,1.16-2.42,2.31-3.03,3.47-.62,1.16-.89,2.6-.81,4.33l3.34,63.78c.16,3.55,.72,6.36,1.67,8.42,.95,2.07,2.62,3.84,5.02,5.33v.99h-24.15v-.99c1.9-1.16,3.28-2.83,4.15-5.02,.87-2.19,1.22-4.64,1.05-7.37l-3.59-66.75-27.87,74.06h-1.73L30.15,26.51l-3.1,62.42c-.08,2.72,.56,5.41,1.92,8.05,1.36,2.64,3.2,4.54,5.51,5.7v.99H18.26v-.99c2.39-1.49,4.09-3.45,5.08-5.88,.99-2.43,1.57-5.06,1.73-7.86l3.34-63.78c.16-3.55-1.45-6.15-4.83-7.8v-.99h15.98l28.36,64.77L92.2,16.23l15.6,.12Z"/>
      <path class="cls-6" d="M107.76,16.31v.99c-1.4,1.16-2.42,2.31-3.03,3.47-.62,1.16-.89,2.6-.81,4.33l3.34,63.78c.16,3.55,.72,6.36,1.67,8.42,.95,2.07,2.62,3.84,5.02,5.33v.99h-24.15v-.99c1.9-1.16,3.28-2.83,4.15-5.02,.87-2.19,1.22-4.64,1.05-7.37l-3.59-66.75-27.87,74.06h-1.73L30.1,26.46l-3.1,62.42c-.08,2.72,.56,5.41,1.92,8.05,1.36,2.64,3.2,4.54,5.51,5.7v.99H18.21v-.99c2.39-1.49,4.09-3.45,5.08-5.88,.99-2.43,1.57-5.06,1.73-7.86l3.34-63.78c.16-3.55-1.45-6.15-4.83-7.8v-.99h15.98l28.36,64.77L92.15,16.18l15.6,.12Z"/>
      <path class="cls-6" d="M107.71,16.26v.99c-1.4,1.16-2.42,2.31-3.03,3.47-.62,1.16-.89,2.6-.81,4.33l3.34,63.78c.16,3.55,.72,6.36,1.67,8.42,.95,2.07,2.62,3.84,5.02,5.33v.99h-24.15v-.99c1.9-1.16,3.28-2.83,4.15-5.02,.87-2.19,1.22-4.64,1.05-7.37l-3.59-66.75-27.87,74.06h-1.73L30.05,26.41l-3.1,62.42c-.08,2.72,.56,5.41,1.92,8.05,1.36,2.64,3.2,4.54,5.51,5.7v.99H18.17v-.99c2.39-1.49,4.09-3.45,5.08-5.88,.99-2.43,1.57-5.06,1.73-7.86l3.34-63.78c.16-3.55-1.45-6.15-4.83-7.8v-.99h15.98l28.36,64.77L92.1,16.13l15.6,.12Z"/>
      <path class="cls-6" d="M107.66,16.21v.99c-1.4,1.16-2.42,2.31-3.03,3.47-.62,1.16-.89,2.6-.81,4.33l3.34,63.78c.16,3.55,.72,6.36,1.67,8.42,.95,2.07,2.62,3.84,5.02,5.33v.99h-24.15v-.99c1.9-1.16,3.28-2.83,4.15-5.02,.87-2.19,1.22-4.64,1.05-7.37l-3.59-66.75-27.87,74.06h-1.73L30.01,26.37l-3.1,62.42c-.08,2.72,.56,5.41,1.92,8.05,1.36,2.64,3.2,4.54,5.51,5.7v.99H18.12v-.99c2.39-1.49,4.09-3.45,5.08-5.88,.99-2.43,1.57-5.06,1.73-7.86l3.34-63.78c.16-3.55-1.45-6.15-4.83-7.8v-.99h15.98l28.36,64.77L92.05,16.09l15.6,.12Z"/>
      <path class="cls-6" d="M107.61,16.16v.99c-1.4,1.16-2.42,2.31-3.03,3.47-.62,1.16-.89,2.6-.81,4.33l3.34,63.78c.16,3.55,.72,6.36,1.67,8.42,.95,2.07,2.62,3.84,5.02,5.33v.99h-24.15v-.99c1.9-1.16,3.28-2.83,4.15-5.02,.87-2.19,1.22-4.64,1.05-7.37l-3.59-66.75-27.87,74.06h-1.73L29.96,26.32l-3.1,62.42c-.08,2.72,.56,5.41,1.92,8.05,1.36,2.64,3.2,4.54,5.51,5.7v.99H18.07v-.99c2.39-1.49,4.09-3.45,5.08-5.88,.99-2.43,1.57-5.06,1.73-7.86l3.34-63.78c.16-3.55-1.45-6.15-4.83-7.8v-.99h15.98l28.36,64.77L92.01,16.04l15.6,.12Z"/>
      <path class="cls-6" d="M107.56,16.12v.99c-1.4,1.16-2.42,2.31-3.03,3.47-.62,1.16-.89,2.6-.81,4.33l3.34,63.78c.16,3.55,.72,6.36,1.67,8.42,.95,2.07,2.62,3.84,5.02,5.33v.99h-24.15v-.99c1.9-1.16,3.28-2.83,4.15-5.02,.87-2.19,1.22-4.64,1.05-7.37l-3.59-66.75-27.87,74.06h-1.73L29.91,26.27l-3.1,62.42c-.08,2.72,.56,5.41,1.92,8.05,1.36,2.64,3.2,4.54,5.51,5.7v.99H18.02v-.99c2.39-1.49,4.09-3.45,5.08-5.88,.99-2.43,1.57-5.06,1.73-7.86l3.34-63.78c.16-3.55-1.45-6.15-4.83-7.8v-.99h15.98l28.36,64.77L91.96,15.99l15.6,.12Z"/>
      <path class="cls-6" d="M107.52,16.07v.99c-1.4,1.16-2.42,2.31-3.03,3.47-.62,1.16-.89,2.6-.81,4.33l3.34,63.78c.16,3.55,.72,6.36,1.67,8.42,.95,2.07,2.62,3.84,5.02,5.33v.99h-24.15v-.99c1.9-1.16,3.28-2.83,4.15-5.02,.87-2.19,1.22-4.64,1.05-7.37l-3.59-66.75-27.87,74.06h-1.73L29.86,26.22l-3.1,62.42c-.08,2.72,.56,5.41,1.92,8.05,1.36,2.64,3.2,4.54,5.51,5.7v.99H17.97v-.99c2.39-1.49,4.09-3.45,5.08-5.88,.99-2.43,1.57-5.06,1.73-7.86l3.34-63.78c.16-3.55-1.45-6.15-4.83-7.8v-.99h15.98l28.36,64.77L91.91,15.94l15.6,.12Z"/>
      <path class="cls-6" d="M107.47,16.02v.99c-1.4,1.16-2.42,2.31-3.03,3.47-.62,1.16-.89,2.6-.81,4.33l3.34,63.78c.16,3.55,.72,6.36,1.67,8.42,.95,2.07,2.62,3.84,5.02,5.33v.99h-24.15v-.99c1.9-1.16,3.28-2.83,4.15-5.02,.87-2.19,1.22-4.64,1.05-7.37l-3.59-66.75-27.87,74.06h-1.73L29.82,26.17l-3.1,62.42c-.08,2.72,.56,5.41,1.92,8.05,1.36,2.64,3.2,4.54,5.51,5.7v.99H17.93v-.99c2.39-1.49,4.09-3.45,5.08-5.88,.99-2.43,1.57-5.06,1.73-7.86l3.34-63.78c.16-3.55-1.45-6.15-4.83-7.8v-.99h15.98l28.36,64.77L91.86,15.9l15.6,.12Z"/>
      <path class="cls-6" d="M107.42,15.97v.99c-1.4,1.16-2.42,2.31-3.03,3.47-.62,1.16-.89,2.6-.81,4.33l3.34,63.78c.16,3.55,.72,6.36,1.67,8.42,.95,2.07,2.62,3.84,5.02,5.33v.99h-24.15v-.99c1.9-1.16,3.28-2.83,4.15-5.02,.87-2.19,1.22-4.64,1.05-7.37l-3.59-66.75-27.87,74.06h-1.73L29.77,26.13l-3.1,62.42c-.08,2.72,.56,5.41,1.92,8.05,1.36,2.64,3.2,4.54,5.51,5.7v.99H17.88v-.99c2.39-1.49,4.09-3.45,5.08-5.88,.99-2.43,1.57-5.06,1.73-7.86l3.34-63.78c.16-3.55-1.45-6.15-4.83-7.8v-.99h15.98l28.36,64.77L91.82,15.85l15.6,.12Z"/>
      <path class="cls-6" d="M107.37,15.92v.99c-1.4,1.16-2.42,2.31-3.03,3.47-.62,1.16-.89,2.6-.81,4.33l3.34,63.78c.16,3.55,.72,6.36,1.67,8.42,.95,2.07,2.62,3.84,5.02,5.33v.99h-24.15v-.99c1.9-1.16,3.28-2.83,4.15-5.02,.87-2.19,1.22-4.64,1.05-7.37l-3.59-66.75-27.87,74.06h-1.73L29.72,26.08l-3.1,62.42c-.08,2.72,.56,5.41,1.92,8.05,1.36,2.64,3.2,4.54,5.51,5.7v.99H17.83v-.99c2.39-1.49,4.09-3.45,5.08-5.88,.99-2.43,1.57-5.06,1.73-7.86l3.34-63.78c.16-3.55-1.45-6.15-4.83-7.8v-.99h15.98l28.36,64.77L91.77,15.8l15.6,.12Z"/>
      <path class="cls-6" d="M107.33,15.88v.99c-1.4,1.16-2.42,2.31-3.03,3.47-.62,1.16-.89,2.6-.81,4.33l3.34,63.78c.16,3.55,.72,6.36,1.67,8.42,.95,2.07,2.62,3.84,5.02,5.33v.99h-24.15v-.99c1.9-1.16,3.28-2.83,4.15-5.02,.87-2.19,1.22-4.64,1.05-7.37l-3.59-66.75-27.87,74.06h-1.73L29.67,26.03l-3.1,62.42c-.08,2.72,.56,5.41,1.92,8.05,1.36,2.64,3.2,4.54,5.51,5.7v.99H17.78v-.99c2.39-1.49,4.09-3.45,5.08-5.88,.99-2.43,1.57-5.06,1.73-7.86l3.34-63.78c.16-3.55-1.45-6.15-4.83-7.8v-.99h15.98l28.36,64.77L91.72,15.75l15.6,.12Z"/>
      <path class="cls-6" d="M107.28,15.83v.99c-1.4,1.16-2.42,2.31-3.03,3.47-.62,1.16-.89,2.6-.81,4.33l3.34,63.78c.16,3.55,.72,6.36,1.67,8.42,.95,2.07,2.62,3.84,5.02,5.33v.99h-24.15v-.99c1.9-1.16,3.28-2.83,4.15-5.02,.87-2.19,1.22-4.64,1.05-7.37l-3.59-66.75-27.87,74.06h-1.73L29.62,25.98l-3.1,62.42c-.08,2.72,.56,5.41,1.92,8.05,1.36,2.64,3.2,4.54,5.51,5.7v.99H17.74v-.99c2.39-1.49,4.09-3.45,5.08-5.88,.99-2.43,1.57-5.06,1.73-7.86l3.34-63.78c.16-3.55-1.45-6.15-4.83-7.8v-.99h15.98l28.36,64.77L91.67,15.7l15.6,.12Z"/>
      <path class="cls-6" d="M107.23,15.78v.99c-1.4,1.16-2.42,2.31-3.03,3.47-.62,1.16-.89,2.6-.81,4.33l3.34,63.78c.16,3.55,.72,6.36,1.67,8.42,.95,2.07,2.62,3.84,5.02,5.33v.99h-24.15v-.99c1.9-1.16,3.28-2.83,4.15-5.02,.87-2.19,1.22-4.64,1.05-7.37l-3.59-66.75-27.87,74.06h-1.73L29.58,25.94l-3.1,62.42c-.08,2.72,.56,5.41,1.92,8.05,1.36,2.64,3.2,4.54,5.51,5.7v.99H17.69v-.99c2.39-1.49,4.09-3.45,5.08-5.88,.99-2.43,1.57-5.06,1.73-7.86l3.34-63.78c.16-3.55-1.45-6.15-4.83-7.8v-.99h15.98l28.36,64.77L91.62,15.66l15.6,.12Z"/>
      <path class="cls-6" d="M107.18,15.73v.99c-1.4,1.16-2.42,2.31-3.03,3.47-.62,1.16-.89,2.6-.81,4.33l3.34,63.78c.16,3.55,.72,6.36,1.67,8.42,.95,2.07,2.62,3.84,5.02,5.33v.99h-24.15v-.99c1.9-1.16,3.28-2.83,4.15-5.02,.87-2.19,1.22-4.64,1.05-7.37l-3.59-66.75-27.87,74.06h-1.73L29.53,25.89l-3.1,62.42c-.08,2.72,.56,5.41,1.92,8.05,1.36,2.64,3.2,4.54,5.51,5.7v.99H17.64v-.99c2.39-1.49,4.09-3.45,5.08-5.88,.99-2.43,1.57-5.06,1.73-7.86l3.34-63.78c.16-3.55-1.45-6.15-4.83-7.8v-.99h15.98l28.36,64.77L91.58,15.61l15.6,.12Z"/>
      <path class="cls-6" d="M107.13,15.69v.99c-1.4,1.16-2.42,2.31-3.03,3.47-.62,1.16-.89,2.6-.81,4.33l3.34,63.78c.16,3.55,.72,6.36,1.67,8.42,.95,2.07,2.62,3.84,5.02,5.33v.99h-24.15v-.99c1.9-1.16,3.28-2.83,4.15-5.02,.87-2.19,1.22-4.64,1.05-7.37l-3.59-66.75-27.87,74.06h-1.73L29.48,25.84l-3.1,62.42c-.08,2.72,.56,5.41,1.92,8.05,1.36,2.64,3.2,4.54,5.51,5.7v.99H17.59v-.99c2.39-1.49,4.09-3.45,5.08-5.88,.99-2.43,1.57-5.06,1.73-7.86l3.34-63.78c.16-3.55-1.45-6.15-4.83-7.8v-.99h15.98l28.36,64.77L91.53,15.56l15.6,.12Z"/>
      <path class="cls-6" d="M107.09,15.64v.99c-1.4,1.16-2.42,2.31-3.03,3.47-.62,1.16-.89,2.6-.81,4.33l3.34,63.78c.16,3.55,.72,6.36,1.67,8.42,.95,2.07,2.62,3.84,5.02,5.33v.99h-24.15v-.99c1.9-1.16,3.28-2.83,4.15-5.02,.87-2.19,1.22-4.64,1.05-7.37l-3.59-66.75-27.87,74.06h-1.73L29.43,25.79l-3.1,62.42c-.08,2.72,.56,5.41,1.92,8.05,1.36,2.64,3.2,4.54,5.51,5.7v.99H17.54v-.99c2.39-1.49,4.09-3.45,5.08-5.88,.99-2.43,1.57-5.06,1.73-7.86l3.34-63.78c.16-3.55-1.45-6.15-4.83-7.8v-.99h15.98l28.36,64.77L91.48,15.51l15.6,.12Z"/>
      <path class="cls-6" d="M107.04,15.59v.99c-1.4,1.16-2.42,2.31-3.03,3.47-.62,1.16-.89,2.6-.81,4.33l3.34,63.78c.16,3.55,.72,6.36,1.67,8.42,.95,2.07,2.62,3.84,5.02,5.33v.99h-24.15v-.99c1.9-1.16,3.28-2.83,4.15-5.02,.87-2.19,1.22-4.64,1.05-7.37l-3.59-66.75-27.87,74.06h-1.73L29.39,25.74l-3.1,62.42c-.08,2.72,.56,5.41,1.92,8.05,1.36,2.64,3.2,4.54,5.51,5.7v.99H17.5v-.99c2.39-1.49,4.09-3.45,5.08-5.88,.99-2.43,1.57-5.06,1.73-7.86l3.34-63.78c.16-3.55-1.45-6.15-4.83-7.8v-.99h15.98l28.36,64.77L91.43,15.47l15.6,.12Z"/>
      <path class="cls-6" d="M106.99,15.54v.99c-1.4,1.16-2.42,2.31-3.03,3.47-.62,1.16-.89,2.6-.81,4.33l3.34,63.78c.16,3.55,.72,6.36,1.67,8.42,.95,2.07,2.62,3.84,5.02,5.33v.99h-24.15v-.99c1.9-1.16,3.28-2.83,4.15-5.02,.87-2.19,1.22-4.64,1.05-7.37l-3.59-66.75-27.87,74.06h-1.73L29.34,25.7l-3.1,62.42c-.08,2.72,.56,5.41,1.92,8.05,1.36,2.64,3.2,4.54,5.51,5.7v.99H17.45v-.99c2.39-1.49,4.09-3.45,5.08-5.88,.99-2.43,1.57-5.06,1.73-7.86l3.34-63.78c.16-3.55-1.45-6.15-4.83-7.8v-.99h15.98l28.36,64.77L91.39,15.42l15.6,.12Z"/>
      <path class="cls-6" d="M106.94,15.49v.99c-1.4,1.16-2.42,2.31-3.03,3.47-.62,1.16-.89,2.6-.81,4.33l3.34,63.78c.16,3.55,.72,6.36,1.67,8.42,.95,2.07,2.62,3.84,5.02,5.33v.99h-24.15v-.99c1.9-1.16,3.28-2.83,4.15-5.02,.87-2.19,1.22-4.64,1.05-7.37l-3.59-66.75-27.87,74.06h-1.73L29.29,25.65l-3.1,62.42c-.08,2.72,.56,5.41,1.92,8.05,1.36,2.64,3.2,4.54,5.51,5.7v.99H17.4v-.99c2.39-1.49,4.09-3.45,5.08-5.88,.99-2.43,1.57-5.06,1.73-7.86l3.34-63.78c.16-3.55-1.45-6.15-4.83-7.8v-.99h15.98l28.36,64.77L91.34,15.37l15.6,.12Z"/>
      <path class="cls-6" d="M106.9,15.45v.99c-1.4,1.16-2.42,2.31-3.03,3.47-.62,1.16-.89,2.6-.81,4.33l3.34,63.78c.16,3.55,.72,6.36,1.67,8.42,.95,2.07,2.62,3.84,5.02,5.33v.99h-24.15v-.99c1.9-1.16,3.28-2.83,4.15-5.02,.87-2.19,1.22-4.64,1.05-7.37l-3.59-66.75-27.87,74.06h-1.73L29.24,25.6l-3.1,62.42c-.08,2.72,.56,5.41,1.92,8.05,1.36,2.64,3.2,4.54,5.51,5.7v.99H17.35v-.99c2.39-1.49,4.09-3.45,5.08-5.88,.99-2.43,1.57-5.06,1.73-7.86l3.34-63.78c.16-3.55-1.45-6.15-4.83-7.8v-.99h15.98l28.36,64.77L91.29,15.32l15.6,.12Z"/>
      <path class="cls-6" d="M106.85,15.4v.99c-1.4,1.16-2.42,2.31-3.03,3.47-.62,1.16-.89,2.6-.81,4.33l3.34,63.78c.16,3.55,.72,6.36,1.67,8.42,.95,2.07,2.62,3.84,5.02,5.33v.99h-24.15v-.99c1.9-1.16,3.28-2.83,4.15-5.02,.87-2.19,1.22-4.64,1.05-7.37l-3.59-66.75-27.87,74.06h-1.73L29.19,25.55l-3.1,62.42c-.08,2.72,.56,5.41,1.92,8.05,1.36,2.64,3.2,4.54,5.51,5.7v.99H17.31v-.99c2.39-1.49,4.09-3.45,5.08-5.88,.99-2.43,1.57-5.06,1.73-7.86l3.34-63.78c.16-3.55-1.45-6.15-4.83-7.8v-.99h15.98l28.36,64.77L91.24,15.27l15.6,.12Z"/>
      <path class="cls-6" d="M106.8,15.35v.99c-1.4,1.16-2.42,2.31-3.03,3.47-.62,1.16-.89,2.6-.81,4.33l3.34,63.78c.16,3.55,.72,6.36,1.67,8.42,.95,2.07,2.62,3.84,5.02,5.33v.99h-24.15v-.99c1.9-1.16,3.28-2.83,4.15-5.02,.87-2.19,1.22-4.64,1.05-7.37l-3.59-66.75-27.87,74.06h-1.73L29.15,25.51l-3.1,62.42c-.08,2.72,.56,5.41,1.92,8.05,1.36,2.64,3.2,4.54,5.51,5.7v.99H17.26v-.99c2.39-1.49,4.09-3.45,5.08-5.88,.99-2.43,1.57-5.06,1.73-7.86l3.34-63.78c.16-3.55-1.45-6.15-4.83-7.8v-.99h15.98l28.36,64.77L91.19,15.23l15.6,.12Z"/>
      <path class="cls-6" d="M106.75,15.3v.99c-1.4,1.16-2.42,2.31-3.03,3.47-.62,1.16-.89,2.6-.81,4.33l3.34,63.78c.16,3.55,.72,6.36,1.67,8.42,.95,2.07,2.62,3.84,5.02,5.33v.99h-24.15v-.99c1.9-1.16,3.28-2.83,4.15-5.02,.87-2.19,1.22-4.64,1.05-7.37l-3.59-66.75-27.87,74.06h-1.73L29.1,25.46l-3.1,62.42c-.08,2.72,.56,5.41,1.92,8.05,1.36,2.64,3.2,4.54,5.51,5.7v.99H17.21v-.99c2.39-1.49,4.09-3.45,5.08-5.88,.99-2.43,1.57-5.06,1.73-7.86l3.34-63.78c.16-3.55-1.45-6.15-4.83-7.8v-.99h15.98l28.36,64.77L91.15,15.18l15.6,.12Z"/>
      <path class="cls-6" d="M106.7,15.26v.99c-1.4,1.16-2.42,2.31-3.03,3.47-.62,1.16-.89,2.6-.81,4.33l3.34,63.78c.16,3.55,.72,6.36,1.67,8.42,.95,2.07,2.62,3.84,5.02,5.33v.99h-24.15v-.99c1.9-1.16,3.28-2.83,4.15-5.02,.87-2.19,1.22-4.64,1.05-7.37l-3.59-66.75-27.87,74.06h-1.73L29.05,25.41l-3.1,62.42c-.08,2.72,.56,5.41,1.92,8.05,1.36,2.64,3.2,4.54,5.51,5.7v.99H17.16v-.99c2.39-1.49,4.09-3.45,5.08-5.88,.99-2.43,1.57-5.06,1.73-7.86l3.34-63.78c.16-3.55-1.45-6.15-4.83-7.8v-.99h15.98l28.36,64.77L91.1,15.13l15.6,.12Z"/>
      <path class="cls-6" d="M106.66,15.21v.99c-1.4,1.16-2.42,2.31-3.03,3.47-.62,1.16-.89,2.6-.81,4.33l3.34,63.78c.16,3.55,.72,6.36,1.67,8.42,.95,2.07,2.62,3.84,5.02,5.33v.99h-24.15v-.99c1.9-1.16,3.28-2.83,4.15-5.02,.87-2.19,1.22-4.64,1.05-7.37l-3.59-66.75-27.87,74.06h-1.73L29,25.36l-3.1,62.42c-.08,2.72,.56,5.41,1.92,8.05,1.36,2.64,3.2,4.54,5.51,5.7v.99H17.11v-.99c2.39-1.49,4.09-3.45,5.08-5.88,.99-2.43,1.57-5.06,1.73-7.86l3.34-63.78c.16-3.55-1.45-6.15-4.83-7.8v-.99h15.98l28.36,64.77L91.05,15.08l15.6,.12Z"/>
      <path class="cls-6" d="M106.61,15.16v.99c-1.4,1.16-2.42,2.31-3.03,3.47-.62,1.16-.89,2.6-.81,4.33l3.34,63.78c.16,3.55,.72,6.36,1.67,8.42,.95,2.07,2.62,3.84,5.02,5.33v.99h-24.15v-.99c1.9-1.16,3.28-2.83,4.15-5.02,.87-2.19,1.22-4.64,1.05-7.37l-3.59-66.75-27.87,74.06h-1.73L28.96,25.31l-3.1,62.42c-.08,2.72,.56,5.41,1.92,8.05,1.36,2.64,3.2,4.54,5.51,5.7v.99H17.07v-.99c2.39-1.49,4.09-3.45,5.08-5.88,.99-2.43,1.57-5.06,1.73-7.86l3.34-63.78c.16-3.55-1.45-6.15-4.83-7.8v-.99h15.98l28.36,64.77L91,15.04l15.6,.12Z"/>
      <path class="cls-6" d="M106.56,15.11v.99c-1.4,1.16-2.42,2.31-3.03,3.47-.62,1.16-.89,2.6-.81,4.33l3.34,63.78c.16,3.55,.72,6.36,1.67,8.42,.95,2.07,2.62,3.84,5.02,5.33v.99h-24.15v-.99c1.9-1.16,3.28-2.83,4.15-5.02,.87-2.19,1.22-4.64,1.05-7.37l-3.59-66.75-27.87,74.06h-1.73L28.91,25.27l-3.1,62.42c-.08,2.72,.56,5.41,1.92,8.05,1.36,2.64,3.2,4.54,5.51,5.7v.99H17.02v-.99c2.39-1.49,4.09-3.45,5.08-5.88,.99-2.43,1.57-5.06,1.73-7.86l3.34-63.78c.16-3.55-1.45-6.15-4.83-7.8v-.99h15.98l28.36,64.77L90.96,14.99l15.6,.12Z"/>
      <path class="cls-6" d="M106.51,15.06v.99c-1.4,1.16-2.42,2.31-3.03,3.47-.62,1.16-.89,2.6-.81,4.33l3.34,63.78c.16,3.55,.72,6.36,1.67,8.42,.95,2.07,2.62,3.84,5.02,5.33v.99h-24.15v-.99c1.9-1.16,3.28-2.83,4.15-5.02,.87-2.19,1.22-4.64,1.05-7.37l-3.59-66.75-27.87,74.06h-1.73L28.86,25.22l-3.1,62.42c-.08,2.72,.56,5.41,1.92,8.05,1.36,2.64,3.2,4.54,5.51,5.7v.99H16.97v-.99c2.39-1.49,4.09-3.45,5.08-5.88,.99-2.43,1.57-5.06,1.73-7.86l3.34-63.78c.16-3.55-1.45-6.15-4.83-7.8v-.99h15.98l28.36,64.77L90.91,14.94l15.6,.12Z"/>
      <path class="cls-6" d="M106.47,15.02v.99c-1.4,1.16-2.42,2.31-3.03,3.47-.62,1.16-.89,2.6-.81,4.33l3.34,63.78c.16,3.55,.72,6.36,1.67,8.42,.95,2.07,2.62,3.84,5.02,5.33v.99h-24.15v-.99c1.9-1.16,3.28-2.83,4.15-5.02,.87-2.19,1.22-4.64,1.05-7.37l-3.59-66.75-27.87,74.06h-1.73L28.81,25.17l-3.1,62.42c-.08,2.72,.56,5.41,1.92,8.05,1.36,2.64,3.2,4.54,5.51,5.7v.99H16.92v-.99c2.39-1.49,4.09-3.45,5.08-5.88,.99-2.43,1.57-5.06,1.73-7.86l3.34-63.78c.16-3.55-1.45-6.15-4.83-7.8v-.99h15.98l28.36,64.77L90.86,14.89l15.6,.12Z"/>
      <path class="cls-6" d="M106.42,14.97v.99c-1.4,1.16-2.42,2.31-3.03,3.47-.62,1.16-.89,2.6-.81,4.33l3.34,63.78c.16,3.55,.72,6.36,1.67,8.42,.95,2.07,2.62,3.84,5.02,5.33v.99h-24.15v-.99c1.9-1.16,3.28-2.83,4.15-5.02,.87-2.19,1.22-4.64,1.05-7.37l-3.59-66.75-27.87,74.06h-1.73L28.76,25.12l-3.1,62.42c-.08,2.72,.56,5.41,1.92,8.05,1.36,2.64,3.2,4.54,5.51,5.7v.99H16.88v-.99c2.39-1.49,4.09-3.45,5.08-5.88,.99-2.43,1.57-5.06,1.73-7.86l3.34-63.78c.16-3.55-1.45-6.15-4.83-7.8v-.99h15.98l28.36,64.77L90.81,14.84l15.6,.12Z"/>
      <path class="cls-6" d="M106.37,14.92v.99c-1.4,1.16-2.42,2.31-3.03,3.47-.62,1.16-.89,2.6-.81,4.33l3.34,63.78c.16,3.55,.72,6.36,1.67,8.42,.95,2.07,2.62,3.84,5.02,5.33v.99h-24.15v-.99c1.9-1.16,3.28-2.83,4.15-5.02,.87-2.19,1.22-4.64,1.05-7.37l-3.59-66.75-27.87,74.06h-1.73L28.72,25.08l-3.1,62.42c-.08,2.72,.56,5.41,1.92,8.05,1.36,2.64,3.2,4.54,5.51,5.7v.99H16.83v-.99c2.39-1.49,4.09-3.45,5.08-5.88,.99-2.43,1.57-5.06,1.73-7.86l3.34-63.78c.16-3.55-1.45-6.15-4.83-7.8v-.99h15.98l28.36,64.77L90.76,14.8l15.6,.12Z"/>
      <path class="cls-6" d="M106.32,14.87v.99c-1.4,1.16-2.42,2.31-3.03,3.47-.62,1.16-.89,2.6-.81,4.33l3.34,63.78c.16,3.55,.72,6.36,1.67,8.42,.95,2.07,2.62,3.84,5.02,5.33v.99h-24.15v-.99c1.9-1.16,3.28-2.83,4.15-5.02,.87-2.19,1.22-4.64,1.05-7.37l-3.59-66.75-27.87,74.06h-1.73L28.67,25.03l-3.1,62.42c-.08,2.72,.56,5.41,1.92,8.05,1.36,2.64,3.2,4.54,5.51,5.7v.99H16.78v-.99c2.39-1.49,4.09-3.45,5.08-5.88,.99-2.43,1.57-5.06,1.73-7.86l3.34-63.78c.16-3.55-1.45-6.15-4.83-7.8v-.99h15.98l28.36,64.77L90.72,14.75l15.6,.12Z"/>
      <path class="cls-6" d="M106.27,14.83v.99c-1.4,1.16-2.42,2.31-3.03,3.47-.62,1.16-.89,2.6-.81,4.33l3.34,63.78c.16,3.55,.72,6.36,1.67,8.42,.95,2.07,2.62,3.84,5.02,5.33v.99h-24.15v-.99c1.9-1.16,3.28-2.83,4.15-5.02,.87-2.19,1.22-4.64,1.05-7.37l-3.59-66.75-27.87,74.06h-1.73L28.62,24.98l-3.1,62.42c-.08,2.72,.56,5.41,1.92,8.05,1.36,2.64,3.2,4.54,5.51,5.7v.99H16.73v-.99c2.39-1.49,4.09-3.45,5.08-5.88,.99-2.43,1.57-5.06,1.73-7.86l3.34-63.78c.16-3.55-1.45-6.15-4.83-7.8v-.99h15.98l28.36,64.77L90.67,14.7l15.6,.12Z"/>
      <path class="cls-6" d="M106.23,14.78v.99c-1.4,1.16-2.42,2.31-3.03,3.47-.62,1.16-.89,2.6-.81,4.33l3.34,63.78c.16,3.55,.72,6.36,1.67,8.42,.95,2.07,2.62,3.84,5.02,5.33v.99h-24.15v-.99c1.9-1.16,3.28-2.83,4.15-5.02,.87-2.19,1.22-4.64,1.05-7.37l-3.59-66.75-27.87,74.06h-1.73L28.57,24.93l-3.1,62.42c-.08,2.72,.56,5.41,1.92,8.05,1.36,2.64,3.2,4.54,5.51,5.7v.99H16.68v-.99c2.39-1.49,4.09-3.45,5.08-5.88,.99-2.43,1.57-5.06,1.73-7.86l3.34-63.78c.16-3.55-1.45-6.15-4.83-7.8v-.99h15.98l28.36,64.77L90.62,14.65l15.6,.12Z"/>
      <path class="cls-6" d="M106.18,14.73v.99c-1.4,1.16-2.42,2.31-3.03,3.47-.62,1.16-.89,2.6-.81,4.33l3.34,63.78c.16,3.55,.72,6.36,1.67,8.42,.95,2.07,2.62,3.84,5.02,5.33v.99h-24.15v-.99c1.9-1.16,3.28-2.83,4.15-5.02,.87-2.19,1.22-4.64,1.05-7.37l-3.59-66.75-27.87,74.06h-1.73L28.53,24.88l-3.1,62.42c-.08,2.72,.56,5.41,1.92,8.05,1.36,2.64,3.2,4.54,5.51,5.7v.99H16.64v-.99c2.39-1.49,4.09-3.45,5.08-5.88,.99-2.43,1.57-5.06,1.73-7.86l3.34-63.78c.16-3.55-1.45-6.15-4.83-7.8v-.99h15.98l28.36,64.77L90.57,14.61l15.6,.12Z"/>
      <path class="cls-6" d="M106.13,14.68v.99c-1.4,1.16-2.42,2.31-3.03,3.47-.62,1.16-.89,2.6-.81,4.33l3.34,63.78c.16,3.55,.72,6.36,1.67,8.42,.95,2.07,2.62,3.84,5.02,5.33v.99h-24.15v-.99c1.9-1.16,3.28-2.83,4.15-5.02,.87-2.19,1.22-4.64,1.05-7.37l-3.59-66.75-27.87,74.06h-1.73L28.48,24.84l-3.1,62.42c-.08,2.72,.56,5.41,1.92,8.05,1.36,2.64,3.2,4.54,5.51,5.7v.99H16.59v-.99c2.39-1.49,4.09-3.45,5.08-5.88,.99-2.43,1.57-5.06,1.73-7.86l3.34-63.78c.16-3.55-1.45-6.15-4.83-7.8v-.99h15.98l28.36,64.77L90.53,14.56l15.6,.12Z"/>
      <path class="cls-6" d="M106.08,14.63v.99c-1.4,1.16-2.42,2.31-3.03,3.47-.62,1.16-.89,2.6-.81,4.33l3.34,63.78c.16,3.55,.72,6.36,1.67,8.42,.95,2.07,2.62,3.84,5.02,5.33v.99h-24.15v-.99c1.9-1.16,3.28-2.83,4.15-5.02,.87-2.19,1.22-4.64,1.05-7.37l-3.59-66.75-27.87,74.06h-1.73L28.43,24.79l-3.1,62.42c-.08,2.72,.56,5.41,1.92,8.05,1.36,2.64,3.2,4.54,5.51,5.7v.99H16.54v-.99c2.39-1.49,4.09-3.45,5.08-5.88,.99-2.43,1.57-5.06,1.73-7.86l3.34-63.78c.16-3.55-1.45-6.15-4.83-7.8v-.99h15.98l28.36,64.77L90.48,14.51l15.6,.12Z"/>
      <path class="cls-6" d="M106.04,14.59v.99c-1.4,1.16-2.42,2.31-3.03,3.47-.62,1.16-.89,2.6-.81,4.33l3.34,63.78c.16,3.55,.72,6.36,1.67,8.42,.95,2.07,2.62,3.84,5.02,5.33v.99h-24.15v-.99c1.9-1.16,3.28-2.83,4.15-5.02,.87-2.19,1.22-4.64,1.05-7.37l-3.59-66.75-27.87,74.06h-1.73L28.38,24.74l-3.1,62.42c-.08,2.72,.56,5.41,1.92,8.05,1.36,2.64,3.2,4.54,5.51,5.7v.99H16.49v-.99c2.39-1.49,4.09-3.45,5.08-5.88,.99-2.43,1.57-5.06,1.73-7.86l3.34-63.78c.16-3.55-1.45-6.15-4.83-7.8v-.99h15.98l28.36,64.77L90.43,14.46l15.6,.12Z"/>
      <path class="cls-6" d="M105.99,14.54v.99c-1.4,1.16-2.42,2.31-3.03,3.47-.62,1.16-.89,2.6-.81,4.33l3.34,63.78c.16,3.55,.72,6.36,1.67,8.42,.95,2.07,2.62,3.84,5.02,5.33v.99h-24.15v-.99c1.9-1.16,3.28-2.83,4.15-5.02,.87-2.19,1.22-4.64,1.05-7.37l-3.59-66.75-27.87,74.06h-1.73L28.33,24.69l-3.1,62.42c-.08,2.72,.56,5.41,1.92,8.05,1.36,2.64,3.2,4.54,5.51,5.7v.99H16.45v-.99c2.39-1.49,4.09-3.45,5.08-5.88,.99-2.43,1.57-5.06,1.73-7.86l3.34-63.78c.16-3.55-1.45-6.15-4.83-7.8v-.99h15.98l28.36,64.77L90.38,14.41l15.6,.12Z"/>
      <path class="cls-6" d="M105.94,14.49v.99c-1.4,1.16-2.42,2.31-3.03,3.47-.62,1.16-.89,2.6-.81,4.33l3.34,63.78c.16,3.55,.72,6.36,1.67,8.42,.95,2.07,2.62,3.84,5.02,5.33v.99h-24.15v-.99c1.9-1.16,3.28-2.83,4.15-5.02,.87-2.19,1.22-4.64,1.05-7.37l-3.59-66.75-27.87,74.06h-1.73L28.29,24.65l-3.1,62.42c-.08,2.72,.56,5.41,1.92,8.05,1.36,2.64,3.2,4.54,5.51,5.7v.99H16.4v-.99c2.39-1.49,4.09-3.45,5.08-5.88,.99-2.43,1.57-5.06,1.73-7.86l3.34-63.78c.16-3.55-1.45-6.15-4.83-7.8v-.99h15.98l28.36,64.77L90.33,14.37l15.6,.12Z"/>
      <path class="cls-6" d="M105.89,14.44v.99c-1.4,1.16-2.42,2.31-3.03,3.47-.62,1.16-.89,2.6-.81,4.33l3.34,63.78c.16,3.55,.72,6.36,1.67,8.42,.95,2.07,2.62,3.84,5.02,5.33v.99h-24.15v-.99c1.9-1.16,3.28-2.83,4.15-5.02,.87-2.19,1.22-4.64,1.05-7.37l-3.59-66.75-27.87,74.06h-1.73L28.24,24.6l-3.1,62.42c-.08,2.72,.56,5.41,1.92,8.05,1.36,2.64,3.2,4.54,5.51,5.7v.99H16.35v-.99c2.39-1.49,4.09-3.45,5.08-5.88,.99-2.43,1.57-5.06,1.73-7.86l3.34-63.78c.16-3.55-1.45-6.15-4.83-7.8v-.99h15.98l28.36,64.77L90.29,14.32l15.6,.12Z"/>
      <path class="cls-6" d="M105.84,14.4v.99c-1.4,1.16-2.42,2.31-3.03,3.47-.62,1.16-.89,2.6-.81,4.33l3.34,63.78c.16,3.55,.72,6.36,1.67,8.42,.95,2.07,2.62,3.84,5.02,5.33v.99h-24.15v-.99c1.9-1.16,3.28-2.83,4.15-5.02,.87-2.19,1.22-4.64,1.05-7.37l-3.59-66.75-27.87,74.06h-1.73L28.19,24.55l-3.1,62.42c-.08,2.72,.56,5.41,1.92,8.05,1.36,2.64,3.2,4.54,5.51,5.7v.99H16.3v-.99c2.39-1.49,4.09-3.45,5.08-5.88,.99-2.43,1.57-5.06,1.73-7.86l3.34-63.78c.16-3.55-1.45-6.15-4.83-7.8v-.99h15.98l28.36,64.77L90.24,14.27l15.6,.12Z"/>
      <path class="cls-6" d="M105.8,14.35v.99c-1.4,1.16-2.42,2.31-3.03,3.47-.62,1.16-.89,2.6-.81,4.33l3.34,63.78c.16,3.55,.72,6.36,1.67,8.42,.95,2.07,2.62,3.84,5.02,5.33v.99h-24.15v-.99c1.9-1.16,3.28-2.83,4.15-5.02,.87-2.19,1.22-4.64,1.05-7.37l-3.59-66.75-27.87,74.06h-1.73L28.14,24.5l-3.1,62.42c-.08,2.72,.56,5.41,1.92,8.05,1.36,2.64,3.2,4.54,5.51,5.7v.99H16.25v-.99c2.39-1.49,4.09-3.45,5.08-5.88,.99-2.43,1.57-5.06,1.73-7.86l3.34-63.78c.16-3.55-1.45-6.15-4.83-7.8v-.99h15.98l28.36,64.77L90.19,14.22l15.6,.12Z"/>
      <path class="cls-6" d="M105.75,14.3v.99c-1.4,1.16-2.42,2.31-3.03,3.47-.62,1.16-.89,2.6-.81,4.33l3.34,63.78c.16,3.55,.72,6.36,1.67,8.42,.95,2.07,2.62,3.84,5.02,5.33v.99h-24.15v-.99c1.9-1.16,3.28-2.83,4.15-5.02,.87-2.19,1.22-4.64,1.05-7.37l-3.59-66.75-27.87,74.06h-1.73L28.1,24.45l-3.1,62.42c-.08,2.72,.56,5.41,1.92,8.05,1.36,2.64,3.2,4.54,5.51,5.7v.99H16.21v-.99c2.39-1.49,4.09-3.45,5.08-5.88,.99-2.43,1.57-5.06,1.73-7.86l3.34-63.78c.16-3.55-1.45-6.15-4.83-7.8v-.99h15.98l28.36,64.77L90.14,14.18l15.6,.12Z"/>
      <path class="cls-6" d="M105.7,14.25v.99c-1.4,1.16-2.42,2.31-3.03,3.47-.62,1.16-.89,2.6-.81,4.33l3.34,63.78c.16,3.55,.72,6.36,1.67,8.42,.95,2.07,2.62,3.84,5.02,5.33v.99h-24.15v-.99c1.9-1.16,3.28-2.83,4.15-5.02,.87-2.19,1.22-4.64,1.05-7.37l-3.59-66.75-27.87,74.06h-1.73L28.05,24.41l-3.1,62.42c-.08,2.72,.56,5.41,1.92,8.05,1.36,2.64,3.2,4.54,5.51,5.7v.99H16.16v-.99c2.39-1.49,4.09-3.45,5.08-5.88,.99-2.43,1.57-5.06,1.73-7.86l3.34-63.78c.16-3.55-1.45-6.15-4.83-7.8v-.99h15.98l28.36,64.77L90.1,14.13l15.6,.12Z"/>
      <path class="cls-6" d="M105.65,14.2v.99c-1.4,1.16-2.42,2.31-3.03,3.47-.62,1.16-.89,2.6-.81,4.33l3.34,63.78c.16,3.55,.72,6.36,1.67,8.42,.95,2.07,2.62,3.84,5.02,5.33v.99h-24.15v-.99c1.9-1.16,3.28-2.83,4.15-5.02,.87-2.19,1.22-4.64,1.05-7.37l-3.59-66.75-27.87,74.06h-1.73L28,24.36l-3.1,62.42c-.08,2.72,.56,5.41,1.92,8.05,1.36,2.64,3.2,4.54,5.51,5.7v.99H16.11v-.99c2.39-1.49,4.09-3.45,5.08-5.88,.99-2.43,1.57-5.06,1.73-7.86l3.34-63.78c.16-3.55-1.45-6.15-4.83-7.8v-.99h15.98l28.36,64.77L90.05,14.08l15.6,.12Z"/>
      <path class="cls-6" d="M105.61,14.16v.99c-1.4,1.16-2.42,2.31-3.03,3.47-.62,1.16-.89,2.6-.81,4.33l3.34,63.78c.16,3.55,.72,6.36,1.67,8.42,.95,2.07,2.62,3.84,5.02,5.33v.99h-24.15v-.99c1.9-1.16,3.28-2.83,4.15-5.02,.87-2.19,1.22-4.64,1.05-7.37l-3.59-66.75-27.87,74.06h-1.73L27.95,24.31l-3.1,62.42c-.08,2.72,.56,5.41,1.92,8.05,1.36,2.64,3.2,4.54,5.51,5.7v.99H16.06v-.99c2.39-1.49,4.09-3.45,5.08-5.88,.99-2.43,1.57-5.06,1.73-7.86l3.34-63.78c.16-3.55-1.45-6.15-4.83-7.8v-.99h15.98l28.36,64.77L90,14.03l15.6,.12Z"/>
      <path class="cls-6" d="M105.56,14.11v.99c-1.4,1.16-2.42,2.31-3.03,3.47-.62,1.16-.89,2.6-.81,4.33l3.34,63.78c.16,3.55,.72,6.36,1.67,8.42,.95,2.07,2.62,3.84,5.02,5.33v.99h-24.15v-.99c1.9-1.16,3.28-2.83,4.15-5.02,.87-2.19,1.22-4.64,1.05-7.37l-3.59-66.75-27.87,74.06h-1.73L27.9,24.26l-3.1,62.42c-.08,2.72,.56,5.41,1.92,8.05,1.36,2.64,3.2,4.54,5.51,5.7v.99H16.02v-.99c2.39-1.49,4.09-3.45,5.08-5.88,.99-2.43,1.57-5.06,1.73-7.86l3.34-63.78c.16-3.55-1.45-6.15-4.83-7.8v-.99h15.98l28.36,64.77L89.95,13.98l15.6,.12Z"/>
      <path class="cls-6" d="M105.51,14.06v.99c-1.4,1.16-2.42,2.31-3.03,3.47-.62,1.16-.89,2.6-.81,4.33l3.34,63.78c.16,3.55,.72,6.36,1.67,8.42,.95,2.07,2.62,3.84,5.02,5.33v.99h-24.15v-.99c1.9-1.16,3.28-2.83,4.15-5.02,.87-2.19,1.22-4.64,1.05-7.37l-3.59-66.75-27.87,74.06h-1.73L27.86,24.22l-3.1,62.42c-.08,2.72,.56,5.41,1.92,8.05,1.36,2.64,3.2,4.54,5.51,5.7v.99H15.97v-.99c2.39-1.49,4.09-3.45,5.08-5.88,.99-2.43,1.57-5.06,1.73-7.86l3.34-63.78c.16-3.55-1.45-6.15-4.83-7.8v-.99h15.98l28.36,64.77L89.9,13.94l15.6,.12Z"/>
      <path class="cls-6" d="M105.46,14.01v.99c-1.4,1.16-2.42,2.31-3.03,3.47-.62,1.16-.89,2.6-.81,4.33l3.34,63.78c.16,3.55,.72,6.36,1.67,8.42,.95,2.07,2.62,3.84,5.02,5.33v.99h-24.15v-.99c1.9-1.16,3.28-2.83,4.15-5.02,.87-2.19,1.22-4.64,1.05-7.37l-3.59-66.75-27.87,74.06h-1.73L27.81,24.17l-3.1,62.42c-.08,2.72,.56,5.41,1.92,8.05,1.36,2.64,3.2,4.54,5.51,5.7v.99H15.92v-.99c2.39-1.49,4.09-3.45,5.08-5.88,.99-2.43,1.57-5.06,1.73-7.86l3.34-63.78c.16-3.55-1.45-6.15-4.83-7.8v-.99h15.98l28.36,64.77L89.86,13.89l15.6,.12Z"/>
      <path class="cls-6" d="M105.41,13.97v.99c-1.4,1.16-2.42,2.31-3.03,3.47-.62,1.16-.89,2.6-.81,4.33l3.34,63.78c.16,3.55,.72,6.36,1.67,8.42,.95,2.07,2.62,3.84,5.02,5.33v.99h-24.15v-.99c1.9-1.16,3.28-2.83,4.15-5.02,.87-2.19,1.22-4.64,1.05-7.37l-3.59-66.75-27.87,74.06h-1.73L27.76,24.12l-3.1,62.42c-.08,2.72,.56,5.41,1.92,8.05,1.36,2.64,3.2,4.54,5.51,5.7v.99H15.87v-.99c2.39-1.49,4.09-3.45,5.08-5.88,.99-2.43,1.57-5.06,1.73-7.86l3.34-63.78c.16-3.55-1.45-6.15-4.83-7.8v-.99h15.98l28.36,64.77L89.81,13.84l15.6,.12Z"/>
      <path class="cls-6" d="M105.37,13.92v.99c-1.4,1.16-2.42,2.31-3.03,3.47-.62,1.16-.89,2.6-.81,4.33l3.34,63.78c.16,3.55,.72,6.36,1.67,8.42,.95,2.07,2.62,3.84,5.02,5.33v.99h-24.15v-.99c1.9-1.16,3.28-2.83,4.15-5.02,.87-2.19,1.22-4.64,1.05-7.37l-3.59-66.75-27.87,74.06h-1.73L27.71,24.07l-3.1,62.42c-.08,2.72,.56,5.41,1.92,8.05,1.36,2.64,3.2,4.54,5.51,5.7v.99H15.82v-.99c2.39-1.49,4.09-3.45,5.08-5.88,.99-2.43,1.57-5.06,1.73-7.86l3.34-63.78c.16-3.55-1.45-6.15-4.83-7.8v-.99h15.98l28.36,64.77L89.76,13.79l15.6,.12Z"/>
      <path class="cls-6" d="M105.32,13.87v.99c-1.4,1.16-2.42,2.31-3.03,3.47-.62,1.16-.89,2.6-.81,4.33l3.34,63.78c.16,3.55,.72,6.36,1.67,8.42,.95,2.07,2.62,3.84,5.02,5.33v.99h-24.15v-.99c1.9-1.16,3.28-2.83,4.15-5.02,.87-2.19,1.22-4.64,1.05-7.37l-3.59-66.75-27.87,74.06h-1.73L27.67,24.02l-3.1,62.42c-.08,2.72,.56,5.41,1.92,8.05,1.36,2.64,3.2,4.54,5.51,5.7v.99H15.78v-.99c2.39-1.49,4.09-3.45,5.08-5.88,.99-2.43,1.57-5.06,1.73-7.86l3.34-63.78c.16-3.55-1.45-6.15-4.83-7.8v-.99h15.98l28.36,64.77L89.71,13.75l15.6,.12Z"/>
      <path class="cls-6" d="M105.27,13.82v.99c-1.4,1.16-2.42,2.31-3.03,3.47-.62,1.16-.89,2.6-.81,4.33l3.34,63.78c.16,3.55,.72,6.36,1.67,8.42,.95,2.07,2.62,3.84,5.02,5.33v.99h-24.15v-.99c1.9-1.16,3.28-2.83,4.15-5.02,.87-2.19,1.22-4.64,1.05-7.37l-3.59-66.75-27.87,74.06h-1.73L27.62,23.98l-3.1,62.42c-.08,2.72,.56,5.41,1.92,8.05,1.36,2.64,3.2,4.54,5.51,5.7v.99H15.73v-.99c2.39-1.49,4.09-3.45,5.08-5.88,.99-2.43,1.57-5.06,1.73-7.86l3.34-63.78c.16-3.55-1.45-6.15-4.83-7.8v-.99h15.98l28.36,64.77L89.67,13.7l15.6,.12Z"/>
      <path class="cls-6" d="M105.22,13.77v.99c-1.4,1.16-2.42,2.31-3.03,3.47-.62,1.16-.89,2.6-.81,4.33l3.34,63.78c.16,3.55,.72,6.36,1.67,8.42,.95,2.07,2.62,3.84,5.02,5.33v.99h-24.15v-.99c1.9-1.16,3.28-2.83,4.15-5.02,.87-2.19,1.22-4.64,1.05-7.37l-3.59-66.75-27.87,74.06h-1.73L27.57,23.93l-3.1,62.42c-.08,2.72,.56,5.41,1.92,8.05,1.36,2.64,3.2,4.54,5.51,5.7v.99H15.68v-.99c2.39-1.49,4.09-3.45,5.08-5.88,.99-2.43,1.57-5.06,1.73-7.86l3.34-63.78c.16-3.55-1.45-6.15-4.83-7.8v-.99h15.98l28.36,64.77L89.62,13.65l15.6,.12Z"/>
      <path class="cls-6" d="M105.18,13.73v.99c-1.4,1.16-2.42,2.31-3.03,3.47-.62,1.16-.89,2.6-.81,4.33l3.34,63.78c.16,3.55,.72,6.36,1.67,8.42,.95,2.07,2.62,3.84,5.02,5.33v.99h-24.15v-.99c1.9-1.16,3.28-2.83,4.15-5.02,.87-2.19,1.22-4.64,1.05-7.37l-3.59-66.75-27.87,74.06h-1.73L27.52,23.88l-3.1,62.42c-.08,2.72,.56,5.41,1.92,8.05,1.36,2.64,3.2,4.54,5.51,5.7v.99H15.63v-.99c2.39-1.49,4.09-3.45,5.08-5.88,.99-2.43,1.57-5.06,1.73-7.86l3.34-63.78c.16-3.55-1.45-6.15-4.83-7.8v-.99h15.98l28.36,64.77L89.57,13.6l15.6,.12Z"/>
      <path class="cls-6" d="M105.13,13.68v.99c-1.4,1.16-2.42,2.31-3.03,3.47-.62,1.16-.89,2.6-.81,4.33l3.34,63.78c.16,3.55,.72,6.36,1.67,8.42,.95,2.07,2.62,3.84,5.02,5.33v.99h-24.15v-.99c1.9-1.16,3.28-2.83,4.15-5.02,.87-2.19,1.22-4.64,1.05-7.37l-3.59-66.75-27.87,74.06h-1.73L27.47,23.83l-3.1,62.42c-.08,2.72,.56,5.41,1.92,8.05,1.36,2.64,3.2,4.54,5.51,5.7v.99H15.59v-.99c2.39-1.49,4.09-3.45,5.08-5.88,.99-2.43,1.57-5.06,1.73-7.86l3.34-63.78c.16-3.55-1.45-6.15-4.83-7.8v-.99h15.98l28.36,64.77L89.52,13.55l15.6,.12Z"/>
      <path class="cls-6" d="M105.08,13.63v.99c-1.4,1.16-2.42,2.31-3.03,3.47-.62,1.16-.89,2.6-.81,4.33l3.34,63.78c.16,3.55,.72,6.36,1.67,8.42,.95,2.07,2.62,3.84,5.02,5.33v.99h-24.15v-.99c1.9-1.16,3.28-2.83,4.15-5.02,.87-2.19,1.22-4.64,1.05-7.37l-3.59-66.75-27.87,74.06h-1.73L27.43,23.79l-3.1,62.42c-.08,2.72,.56,5.41,1.92,8.05,1.36,2.64,3.2,4.54,5.51,5.7v.99H15.54v-.99c2.39-1.49,4.09-3.45,5.08-5.88,.99-2.43,1.57-5.06,1.73-7.86l3.34-63.78c.16-3.55-1.45-6.15-4.83-7.8v-.99h15.98l28.36,64.77L89.47,13.51l15.6,.12Z"/>
      <path class="cls-6" d="M105.03,13.58v.99c-1.4,1.16-2.42,2.31-3.03,3.47-.62,1.16-.89,2.6-.81,4.33l3.34,63.78c.16,3.55,.72,6.36,1.67,8.42,.95,2.07,2.62,3.84,5.02,5.33v.99h-24.15v-.99c1.9-1.16,3.28-2.83,4.15-5.02,.87-2.19,1.22-4.64,1.05-7.37l-3.59-66.75-27.87,74.06h-1.73L27.38,23.74l-3.1,62.42c-.08,2.72,.56,5.41,1.92,8.05,1.36,2.64,3.2,4.54,5.51,5.7v.99H15.49v-.99c2.39-1.49,4.09-3.45,5.08-5.88,.99-2.43,1.57-5.06,1.73-7.86l3.34-63.78c.16-3.55-1.45-6.15-4.83-7.8v-.99h15.98l28.36,64.77L89.43,13.46l15.6,.12Z"/>
      <path class="cls-6" d="M104.98,13.54v.99c-1.4,1.16-2.42,2.31-3.03,3.47-.62,1.16-.89,2.6-.81,4.33l3.34,63.78c.16,3.55,.72,6.36,1.67,8.42,.95,2.07,2.62,3.84,5.02,5.33v.99h-24.15v-.99c1.9-1.16,3.28-2.83,4.15-5.02,.87-2.19,1.22-4.64,1.05-7.37l-3.59-66.75-27.87,74.06h-1.73L27.33,23.69l-3.1,62.42c-.08,2.72,.56,5.41,1.92,8.05,1.36,2.64,3.2,4.54,5.51,5.7v.99H15.44v-.99c2.39-1.49,4.09-3.45,5.08-5.88,.99-2.43,1.57-5.06,1.73-7.86l3.34-63.78c.16-3.55-1.45-6.15-4.83-7.8v-.99h15.98l28.36,64.77L89.38,13.41l15.6,.12Z"/>
      <path class="cls-6" d="M104.94,13.49v.99c-1.4,1.16-2.42,2.31-3.03,3.47-.62,1.16-.89,2.6-.81,4.33l3.34,63.78c.16,3.55,.72,6.36,1.67,8.42,.95,2.07,2.62,3.84,5.02,5.33v.99h-24.15v-.99c1.9-1.16,3.28-2.83,4.15-5.02,.87-2.19,1.22-4.64,1.05-7.37l-3.59-66.75-27.87,74.06h-1.73L27.28,23.64l-3.1,62.42c-.08,2.72,.56,5.41,1.92,8.05,1.36,2.64,3.2,4.54,5.51,5.7v.99H15.39v-.99c2.39-1.49,4.09-3.45,5.08-5.88,.99-2.43,1.57-5.06,1.73-7.86l3.34-63.78c.16-3.55-1.45-6.15-4.83-7.8v-.99h15.98l28.36,64.77L89.33,13.36l15.6,.12Z"/>
      <path class="cls-6" d="M104.89,13.44v.99c-1.4,1.16-2.42,2.31-3.03,3.47-.62,1.16-.89,2.6-.81,4.33l3.34,63.78c.16,3.55,.72,6.36,1.67,8.42,.95,2.07,2.62,3.84,5.02,5.33v.99h-24.15v-.99c1.9-1.16,3.28-2.83,4.15-5.02,.87-2.19,1.22-4.64,1.05-7.37l-3.59-66.75-27.87,74.06h-1.73L27.24,23.59l-3.1,62.42c-.08,2.72,.56,5.41,1.92,8.05,1.36,2.64,3.2,4.54,5.51,5.7v.99H15.35v-.99c2.39-1.49,4.09-3.45,5.08-5.88,.99-2.43,1.57-5.06,1.73-7.86l3.34-63.78c.16-3.55-1.45-6.15-4.83-7.8v-.99h15.98l28.36,64.77L89.28,13.32l15.6,.12Z"/>
      <path class="cls-6" d="M104.84,13.39v.99c-1.4,1.16-2.42,2.31-3.03,3.47-.62,1.16-.89,2.6-.81,4.33l3.34,63.78c.16,3.55,.72,6.36,1.67,8.42,.95,2.07,2.62,3.84,5.02,5.33v.99h-24.15v-.99c1.9-1.16,3.28-2.83,4.15-5.02,.87-2.19,1.22-4.64,1.05-7.37l-3.59-66.75-27.87,74.06h-1.73L27.19,23.55l-3.1,62.42c-.08,2.72,.56,5.41,1.92,8.05,1.36,2.64,3.2,4.54,5.51,5.7v.99H15.3v-.99c2.39-1.49,4.09-3.45,5.08-5.88,.99-2.43,1.57-5.06,1.73-7.86l3.34-63.78c.16-3.55-1.45-6.15-4.83-7.8v-.99h15.98l28.36,64.77L89.24,13.27l15.6,.12Z"/>
      <path class="cls-6" d="M104.79,13.34v.99c-1.4,1.16-2.42,2.31-3.03,3.47-.62,1.16-.89,2.6-.81,4.33l3.34,63.78c.16,3.55,.72,6.36,1.67,8.42,.95,2.07,2.62,3.84,5.02,5.33v.99h-24.15v-.99c1.9-1.16,3.28-2.83,4.15-5.02,.87-2.19,1.22-4.64,1.05-7.37l-3.59-66.75-27.87,74.06h-1.73L27.14,23.5l-3.1,62.42c-.08,2.72,.56,5.41,1.92,8.05,1.36,2.64,3.2,4.54,5.51,5.7v.99H15.25v-.99c2.39-1.49,4.09-3.45,5.08-5.88,.99-2.43,1.57-5.06,1.73-7.86l3.34-63.78c.16-3.55-1.45-6.15-4.83-7.8v-.99h15.98l28.36,64.77L89.19,13.22l15.6,.12Z"/>
      <path class="cls-6" d="M104.75,13.3v.99c-1.4,1.16-2.42,2.31-3.03,3.47-.62,1.16-.89,2.6-.81,4.33l3.34,63.78c.16,3.55,.72,6.36,1.67,8.42,.95,2.07,2.62,3.84,5.02,5.33v.99h-24.15v-.99c1.9-1.16,3.28-2.83,4.15-5.02,.87-2.19,1.22-4.64,1.05-7.37l-3.59-66.75-27.87,74.06h-1.73L27.09,23.45l-3.1,62.42c-.08,2.72,.56,5.41,1.92,8.05,1.36,2.64,3.2,4.54,5.51,5.7v.99H15.2v-.99c2.39-1.49,4.09-3.45,5.08-5.88,.99-2.43,1.57-5.06,1.73-7.86l3.34-63.78c.16-3.55-1.45-6.15-4.83-7.8v-.99h15.98l28.36,64.77L89.14,13.17l15.6,.12Z"/>
      <path class="cls-6" d="M104.7,13.25v.99c-1.4,1.16-2.42,2.31-3.03,3.47-.62,1.16-.89,2.6-.81,4.33l3.34,63.78c.16,3.55,.72,6.36,1.67,8.42,.95,2.07,2.62,3.84,5.02,5.33v.99h-24.15v-.99c1.9-1.16,3.28-2.83,4.15-5.02,.87-2.19,1.22-4.64,1.05-7.37l-3.59-66.75-27.87,74.06h-1.73L27.04,23.4l-3.1,62.42c-.08,2.72,.56,5.41,1.92,8.05,1.36,2.64,3.2,4.54,5.51,5.7v.99H15.16v-.99c2.39-1.49,4.09-3.45,5.08-5.88,.99-2.43,1.57-5.06,1.73-7.86l3.34-63.78c.16-3.55-1.45-6.15-4.83-7.8v-.99h15.98l28.36,64.77L89.09,13.12l15.6,.12Z"/>
      <path class="cls-6" d="M104.65,13.2v.99c-1.4,1.16-2.42,2.31-3.03,3.47-.62,1.16-.89,2.6-.81,4.33l3.34,63.78c.16,3.55,.72,6.36,1.67,8.42,.95,2.07,2.62,3.84,5.02,5.33v.99h-24.15v-.99c1.9-1.16,3.28-2.83,4.15-5.02,.87-2.19,1.22-4.64,1.05-7.37l-3.59-66.75-27.87,74.06h-1.73L27,23.36l-3.1,62.42c-.08,2.72,.56,5.41,1.92,8.05,1.36,2.64,3.2,4.54,5.51,5.7v.99H15.11v-.99c2.39-1.49,4.09-3.45,5.08-5.88,.99-2.43,1.57-5.06,1.73-7.86l3.34-63.78c.16-3.55-1.45-6.15-4.83-7.8v-.99h15.98l28.36,64.77L89.04,13.08l15.6,.12Z"/>
      <path class="cls-6" d="M104.6,13.15v.99c-1.4,1.16-2.42,2.31-3.03,3.47-.62,1.16-.89,2.6-.81,4.33l3.34,63.78c.16,3.55,.72,6.36,1.67,8.42,.95,2.07,2.62,3.84,5.02,5.33v.99h-24.15v-.99c1.9-1.16,3.28-2.83,4.15-5.02,.87-2.19,1.22-4.64,1.05-7.37l-3.59-66.75-27.87,74.06h-1.73L26.95,23.31l-3.1,62.42c-.08,2.72,.56,5.41,1.92,8.05,1.36,2.64,3.2,4.54,5.51,5.7v.99H15.06v-.99c2.39-1.49,4.09-3.45,5.08-5.88,.99-2.43,1.57-5.06,1.73-7.86l3.34-63.78c.16-3.55-1.45-6.15-4.83-7.8v-.99h15.98l28.36,64.77L89,13.03l15.6,.12Z"/>
      <path class="cls-6" d="M104.55,13.11v.99c-1.4,1.16-2.42,2.31-3.03,3.47-.62,1.16-.89,2.6-.81,4.33l3.34,63.78c.16,3.55,.72,6.36,1.67,8.42,.95,2.07,2.62,3.84,5.02,5.33v.99h-24.15v-.99c1.9-1.16,3.28-2.83,4.15-5.02,.87-2.19,1.22-4.64,1.05-7.37l-3.59-66.75-27.87,74.06h-1.73L26.9,23.26l-3.1,62.42c-.08,2.72,.56,5.41,1.92,8.05,1.36,2.64,3.2,4.54,5.51,5.7v.99H15.01v-.99c2.39-1.49,4.09-3.45,5.08-5.88,.99-2.43,1.57-5.06,1.73-7.86l3.34-63.78c.16-3.55-1.45-6.15-4.83-7.8v-.99h15.98l28.36,64.77L88.95,12.98l15.6,.12Z"/>
      <path class="cls-6" d="M104.51,13.06v.99c-1.4,1.16-2.42,2.31-3.03,3.47-.62,1.16-.89,2.6-.81,4.33l3.34,63.78c.16,3.55,.72,6.36,1.67,8.42,.95,2.07,2.62,3.84,5.02,5.33v.99h-24.15v-.99c1.9-1.16,3.28-2.83,4.15-5.02,.87-2.19,1.22-4.64,1.05-7.37l-3.59-66.75-27.87,74.06h-1.73L26.85,23.21l-3.1,62.42c-.08,2.72,.56,5.41,1.92,8.05,1.36,2.64,3.2,4.54,5.51,5.7v.99H14.96v-.99c2.39-1.49,4.09-3.45,5.08-5.88,.99-2.43,1.57-5.06,1.73-7.86l3.34-63.78c.16-3.55-1.45-6.15-4.83-7.8v-.99h15.98l28.36,64.77L88.9,12.93l15.6,.12Z"/>
      <path class="cls-6" d="M104.46,13.01v.99c-1.4,1.16-2.42,2.31-3.03,3.47-.62,1.16-.89,2.6-.81,4.33l3.34,63.78c.16,3.55,.72,6.36,1.67,8.42,.95,2.07,2.62,3.84,5.02,5.33v.99h-24.15v-.99c1.9-1.16,3.28-2.83,4.15-5.02,.87-2.19,1.22-4.64,1.05-7.37l-3.59-66.75-27.87,74.06h-1.73L26.81,23.16l-3.1,62.42c-.08,2.72,.56,5.41,1.92,8.05,1.36,2.64,3.2,4.54,5.51,5.7v.99H14.92v-.99c2.39-1.49,4.09-3.45,5.08-5.88,.99-2.43,1.57-5.06,1.73-7.86l3.34-63.78c.16-3.55-1.45-6.15-4.83-7.8v-.99h15.98l28.36,64.77L88.85,12.89l15.6,.12Z"/>
      <path class="cls-6" d="M104.41,12.96v.99c-1.4,1.16-2.42,2.31-3.03,3.47-.62,1.16-.89,2.6-.81,4.33l3.34,63.78c.16,3.55,.72,6.36,1.67,8.42,.95,2.07,2.62,3.84,5.02,5.33v.99h-24.15v-.99c1.9-1.16,3.28-2.83,4.15-5.02,.87-2.19,1.22-4.64,1.05-7.37l-3.59-66.75-27.87,74.06h-1.73L26.76,23.12l-3.1,62.42c-.08,2.72,.56,5.41,1.92,8.05,1.36,2.64,3.2,4.54,5.51,5.7v.99H14.87v-.99c2.39-1.49,4.09-3.45,5.08-5.88,.99-2.43,1.57-5.06,1.73-7.86l3.34-63.78c.16-3.55-1.45-6.15-4.83-7.8v-.99h15.98l28.36,64.77L88.81,12.84l15.6,.12Z"/>
      <path class="cls-6" d="M104.36,12.91v.99c-1.4,1.16-2.42,2.31-3.03,3.47-.62,1.16-.89,2.6-.81,4.33l3.34,63.78c.16,3.55,.72,6.36,1.67,8.42,.95,2.07,2.62,3.84,5.02,5.33v.99h-24.15v-.99c1.9-1.16,3.28-2.83,4.15-5.02,.87-2.19,1.22-4.64,1.05-7.37l-3.59-66.75-27.87,74.06h-1.73L26.71,23.07l-3.1,62.42c-.08,2.72,.56,5.41,1.92,8.05,1.36,2.64,3.2,4.54,5.51,5.7v.99H14.82v-.99c2.39-1.49,4.09-3.45,5.08-5.88,.99-2.43,1.57-5.06,1.73-7.86l3.34-63.78c.16-3.55-1.45-6.15-4.83-7.8v-.99h15.98l28.36,64.77L88.76,12.79l15.6,.12Z"/>
      <path class="cls-6" d="M104.32,12.87v.99c-1.4,1.16-2.42,2.31-3.03,3.47-.62,1.16-.89,2.6-.81,4.33l3.34,63.78c.16,3.55,.72,6.36,1.67,8.42,.95,2.07,2.62,3.84,5.02,5.33v.99h-24.15v-.99c1.9-1.16,3.28-2.83,4.15-5.02,.87-2.19,1.22-4.64,1.05-7.37l-3.59-66.75-27.87,74.06h-1.73L26.66,23.02l-3.1,62.42c-.08,2.72,.56,5.41,1.92,8.05,1.36,2.64,3.2,4.54,5.51,5.7v.99H14.77v-.99c2.39-1.49,4.09-3.45,5.08-5.88,.99-2.43,1.57-5.06,1.73-7.86l3.34-63.78c.16-3.55-1.45-6.15-4.83-7.8v-.99h15.98l28.36,64.77L88.71,12.74l15.6,.12Z"/>
      <path class="cls-6" d="M104.27,12.82v.99c-1.4,1.16-2.42,2.31-3.03,3.47-.62,1.16-.89,2.6-.81,4.33l3.34,63.78c.16,3.55,.72,6.36,1.67,8.42,.95,2.07,2.62,3.84,5.02,5.33v.99h-24.15v-.99c1.9-1.16,3.28-2.83,4.15-5.02,.87-2.19,1.22-4.64,1.05-7.37l-3.59-66.75-27.87,74.06h-1.73L26.61,22.97l-3.1,62.42c-.08,2.72,.56,5.41,1.92,8.05,1.36,2.64,3.2,4.54,5.51,5.7v.99H14.73v-.99c2.39-1.49,4.09-3.45,5.08-5.88,.99-2.43,1.57-5.06,1.73-7.86l3.34-63.78c.16-3.55-1.45-6.15-4.83-7.8v-.99h15.98l28.36,64.77L88.66,12.69l15.6,.12Z"/>
      <path class="cls-6" d="M104.22,12.77v.99c-1.4,1.16-2.42,2.31-3.03,3.47-.62,1.16-.89,2.6-.81,4.33l3.34,63.78c.16,3.55,.72,6.36,1.67,8.42,.95,2.07,2.62,3.84,5.02,5.33v.99h-24.15v-.99c1.9-1.16,3.28-2.83,4.15-5.02,.87-2.19,1.22-4.64,1.05-7.37l-3.59-66.75-27.87,74.06h-1.73L26.57,22.93l-3.1,62.42c-.08,2.72,.56,5.41,1.92,8.05,1.36,2.64,3.2,4.54,5.51,5.7v.99H14.68v-.99c2.39-1.49,4.09-3.45,5.08-5.88,.99-2.43,1.57-5.06,1.73-7.86l3.34-63.78c.16-3.55-1.45-6.15-4.83-7.8v-.99h15.98l28.36,64.77L88.61,12.65l15.6,.12Z"/>
      <path class="cls-6" d="M104.17,12.72v.99c-1.4,1.16-2.42,2.31-3.03,3.47-.62,1.16-.89,2.6-.81,4.33l3.34,63.78c.16,3.55,.72,6.36,1.67,8.42,.95,2.07,2.62,3.84,5.02,5.33v.99h-24.15v-.99c1.9-1.16,3.28-2.83,4.15-5.02,.87-2.19,1.22-4.64,1.05-7.37l-3.59-66.75-27.87,74.06h-1.73L26.52,22.88l-3.1,62.42c-.08,2.72,.56,5.41,1.92,8.05,1.36,2.64,3.2,4.54,5.51,5.7v.99H14.63v-.99c2.39-1.49,4.09-3.45,5.08-5.88,.99-2.43,1.57-5.06,1.73-7.86l3.34-63.78c.16-3.55-1.45-6.15-4.83-7.8v-.99h15.98l28.36,64.77L88.57,12.6l15.6,.12Z"/>
      <path class="cls-6" d="M104.12,12.68v.99c-1.4,1.16-2.42,2.31-3.03,3.47-.62,1.16-.89,2.6-.81,4.33l3.34,63.78c.16,3.55,.72,6.36,1.67,8.42,.95,2.07,2.62,3.84,5.02,5.33v.99h-24.15v-.99c1.9-1.16,3.28-2.83,4.15-5.02,.87-2.19,1.22-4.64,1.05-7.37l-3.59-66.75-27.87,74.06h-1.73L26.47,22.83l-3.1,62.42c-.08,2.72,.56,5.41,1.92,8.05,1.36,2.64,3.2,4.54,5.51,5.7v.99H14.58v-.99c2.39-1.49,4.09-3.45,5.08-5.88,.99-2.43,1.57-5.06,1.73-7.86l3.34-63.78c.16-3.55-1.45-6.15-4.83-7.8v-.99h15.98l28.36,64.77L88.52,12.55l15.6,.12Z"/>
      <path class="cls-6" d="M104.08,12.63v.99c-1.4,1.16-2.42,2.31-3.03,3.47-.62,1.16-.89,2.6-.81,4.33l3.34,63.78c.16,3.55,.72,6.36,1.67,8.42,.95,2.07,2.62,3.84,5.02,5.33v.99h-24.15v-.99c1.9-1.16,3.28-2.83,4.15-5.02,.87-2.19,1.22-4.64,1.05-7.37l-3.59-66.75-27.87,74.06h-1.73L26.42,22.78l-3.1,62.42c-.08,2.72,.56,5.41,1.92,8.05,1.36,2.64,3.2,4.54,5.51,5.7v.99H14.53v-.99c2.39-1.49,4.09-3.45,5.08-5.88,.99-2.43,1.57-5.06,1.73-7.86l3.34-63.78c.16-3.55-1.45-6.15-4.83-7.8v-.99h15.98l28.36,64.77L88.47,12.5l15.6,.12Z"/>
      <path class="cls-6" d="M104.03,12.58v.99c-1.4,1.16-2.42,2.31-3.03,3.47-.62,1.16-.89,2.6-.81,4.33l3.34,63.78c.16,3.55,.72,6.36,1.67,8.42,.95,2.07,2.62,3.84,5.02,5.33v.99h-24.15v-.99c1.9-1.16,3.28-2.83,4.15-5.02,.87-2.19,1.22-4.64,1.05-7.37l-3.59-66.75-27.87,74.06h-1.73L26.38,22.73l-3.1,62.42c-.08,2.72,.56,5.41,1.92,8.05,1.36,2.64,3.2,4.54,5.51,5.7v.99H14.49v-.99c2.39-1.49,4.09-3.45,5.08-5.88,.99-2.43,1.57-5.06,1.73-7.86l3.34-63.78c.16-3.55-1.45-6.15-4.83-7.8v-.99h15.98l28.36,64.77L88.42,12.46l15.6,.12Z"/>
      <path class="cls-6" d="M103.98,12.53v.99c-1.4,1.16-2.42,2.31-3.03,3.47-.62,1.16-.89,2.6-.81,4.33l3.34,63.78c.16,3.55,.72,6.36,1.67,8.42,.95,2.07,2.62,3.84,5.02,5.33v.99h-24.15v-.99c1.9-1.16,3.28-2.83,4.15-5.02,.87-2.19,1.22-4.64,1.05-7.37l-3.59-66.75-27.87,74.06h-1.73L26.33,22.69l-3.1,62.42c-.08,2.72,.56,5.41,1.92,8.05,1.36,2.64,3.2,4.54,5.51,5.7v.99H14.44v-.99c2.39-1.49,4.09-3.45,5.08-5.88,.99-2.43,1.57-5.06,1.73-7.86l3.34-63.78c.16-3.55-1.45-6.15-4.83-7.8v-.99h15.98l28.36,64.77L88.38,12.41l15.6,.12Z"/>
      <path class="cls-6" d="M103.93,12.48v.99c-1.4,1.16-2.42,2.31-3.03,3.47-.62,1.16-.89,2.6-.81,4.33l3.34,63.78c.16,3.55,.72,6.36,1.67,8.42,.95,2.07,2.62,3.84,5.02,5.33v.99h-24.15v-.99c1.9-1.16,3.28-2.83,4.15-5.02,.87-2.19,1.22-4.64,1.05-7.37l-3.59-66.75-27.87,74.06h-1.73L26.28,22.64l-3.1,62.42c-.08,2.72,.56,5.41,1.92,8.05,1.36,2.64,3.2,4.54,5.51,5.7v.99H14.39v-.99c2.39-1.49,4.09-3.45,5.08-5.88,.99-2.43,1.57-5.06,1.73-7.86l3.34-63.78c.16-3.55-1.45-6.15-4.83-7.8v-.99h15.98l28.36,64.77L88.33,12.36l15.6,.12Z"/>
    </g>
    <path class="cls-3" d="M171.77,68.31h-40.25c-.08,.83-.15,1.63-.19,2.42-.04,.79-.06,1.63-.06,2.54,0,3.47,.56,6.56,1.67,9.29s2.6,5.04,4.46,6.94c1.86,1.9,4,3.39,6.44,4.46,2.43,1.07,4.97,1.65,7.62,1.73,3.47,.17,7.02-.47,10.65-1.92,3.63-1.44,6.77-4.11,9.41-7.99l.99,.87c-1.4,2.06-2.89,4.05-4.46,5.94-1.57,1.9-3.34,3.57-5.33,5.02-1.98,1.45-4.23,2.6-6.75,3.47-2.52,.87-5.39,1.3-8.61,1.3-4.38,0-8.36-.7-11.95-2.11-3.59-1.4-6.65-3.36-9.17-5.88-2.52-2.52-4.48-5.57-5.88-9.16-1.4-3.59-2.11-7.57-2.11-11.95s.7-8.36,2.11-11.95c1.4-3.59,3.36-6.65,5.88-9.17s5.57-4.48,9.17-5.88c3.59-1.4,7.57-2.11,11.95-2.11,3.22,0,6.32,.58,9.29,1.73,2.97,1.16,5.57,2.81,7.8,4.95,2.23,2.15,4,4.69,5.33,7.62,1.32,2.93,1.98,6.21,1.98,9.85Zm-12.88-2.11c.25-2.15,.19-4.4-.19-6.75-.37-2.35-1.03-4.52-1.98-6.5-.95-1.98-2.21-3.63-3.78-4.95-1.57-1.32-3.43-1.98-5.57-1.98-4.13,0-7.55,1.82-10.28,5.45-2.72,3.63-4.5,8.55-5.33,14.74h27.12Z"/>
    <path class="cls-3" d="M209.55,46.02h-12.76v38.76c0,1.49,.02,2.91,.06,4.27,.04,1.36,.29,2.6,.74,3.72,.45,1.11,1.16,2,2.11,2.66,.95,.66,2.29,.99,4.03,.99,1.16,0,2.48-.21,3.96-.62,1.49-.41,3.05-1.49,4.71-3.22l.87,.62c-1.9,2.64-4.17,4.83-6.81,6.56-2.64,1.73-5.62,2.6-8.92,2.6-2.64,0-4.81-.37-6.5-1.11-1.69-.74-3.04-1.88-4.03-3.41-.99-1.53-1.67-3.45-2.04-5.76-.37-2.31-.56-4.99-.56-8.05V46.02h-10.28v-1.86c4.21-1.16,8.32-3.41,12.32-6.75s7.16-7.37,9.47-12.08h.99l-.12,18.82h12.76v1.86Z"/>
    <path class="cls-3" d="M251.03,102.37c0-.16-.1-.6-.31-1.3-.21-.7-.43-1.46-.68-2.29-.25-.82-.54-1.9-.87-3.22-2.48,2.23-5.29,3.92-8.42,5.08-3.14,1.16-6.4,1.73-9.78,1.73-4.87,0-8.83-1.13-11.89-3.41-3.06-2.27-4.58-6.05-4.58-11.33,0-4.46,1.16-8.05,3.47-10.78,2.31-2.72,5.18-4.85,8.61-6.38,3.43-1.53,7.16-2.54,11.21-3.03,4.04-.5,7.8-.74,11.27-.74,0-1.9-.04-4.04-.12-6.44-.08-2.39-.43-4.64-1.05-6.75-.62-2.1-1.65-3.88-3.1-5.33-1.45-1.44-3.53-2.17-6.25-2.17-2.23,0-4.05,.37-5.45,1.11-1.4,.74-2.5,1.75-3.28,3.03-.79,1.28-1.32,2.77-1.61,4.46-.29,1.69-.43,3.53-.43,5.51,0,1.24-.66,2.19-1.98,2.85-1.32,.66-2.48,.99-3.47,.99-1.41,0-2.72-.47-3.96-1.42-1.24-.95-1.86-2.17-1.86-3.65,0-2.89,.83-5.28,2.48-7.18,1.65-1.9,3.67-3.41,6.07-4.52,2.39-1.12,4.99-1.9,7.8-2.35,2.81-.45,5.33-.68,7.55-.68,2.56,0,5.08,.29,7.55,.87,2.48,.58,4.71,1.51,6.69,2.79,1.98,1.28,3.61,2.93,4.89,4.95,1.28,2.02,1.92,4.52,1.92,7.49l.25,29.97c0,1.65,.62,3.26,1.86,4.83,1.24,1.57,2.72,2.48,4.46,2.72v.99l-16.97,3.59Zm-1.98-33.56c-.58-.08-1.11-.14-1.61-.19-.5-.04-1.03-.06-1.61-.06-2.4,0-4.71,.39-6.94,1.18-2.23,.79-4.21,1.9-5.94,3.34-1.73,1.45-3.12,3.18-4.15,5.2-1.03,2.02-1.55,4.27-1.55,6.75,0,3.8,.82,6.92,2.48,9.35,1.65,2.44,4.54,3.65,8.67,3.65,1.98,0,3.86-.5,5.63-1.49,1.77-.99,3.45-2.11,5.02-3.34v-24.4Z"/>
    <path class="cls-3" d="M271.72,46.64l17.59-2.48,.5,3.47c1.9-1.07,3.92-1.92,6.07-2.54,2.15-.62,4.42-.93,6.81-.93,4.38,0,8.36,.7,11.95,2.11,3.59,1.41,6.65,3.37,9.17,5.88,2.52,2.52,4.48,5.57,5.88,9.17,1.4,3.59,2.11,7.58,2.11,11.95s-.7,8.36-2.11,11.95c-1.41,3.59-3.37,6.65-5.88,9.16s-5.57,4.48-9.17,5.88c-3.59,1.41-7.58,2.11-11.95,2.11-4.79,0-9.08-.82-12.88-2.48v21.3c0,1.4,.08,2.64,.25,3.72,.17,1.07,.45,2.04,.87,2.91,.41,.87,.93,1.71,1.55,2.54,.62,.82,1.34,1.69,2.17,2.6v.99h-21.8v-.99c.91-.91,1.67-1.78,2.29-2.6,.62-.83,1.09-1.67,1.42-2.54,.33-.87,.56-1.84,.68-2.91,.12-1.07,.19-2.31,.19-3.72V59.39c0-2.89-.41-5.16-1.24-6.81-.83-1.65-2.31-3.3-4.46-4.95v-.99Zm30.96-.62c-5.37,0-9.66,2.35-12.88,7.06v40.25c1.57,2.31,3.45,4.09,5.63,5.33,2.19,1.24,4.6,1.86,7.25,1.86,2.39,0,4.58-.66,6.56-1.98,1.98-1.32,3.67-3.16,5.08-5.51,1.4-2.35,2.5-5.22,3.28-8.61,.78-3.38,1.18-7.1,1.18-11.15s-.39-7.86-1.18-11.21c-.79-3.34-1.88-6.19-3.28-8.55-1.4-2.35-3.1-4.19-5.08-5.51-1.98-1.32-4.17-1.98-6.56-1.98Z"/>
    <path class="cls-3" d="M357.3,12.58V59.15c1.24-2.06,2.54-4,3.9-5.82,1.36-1.81,2.89-3.41,4.58-4.77,1.69-1.36,3.55-2.43,5.57-3.22,2.02-.78,4.31-1.18,6.87-1.18,4.62,0,8.48,1.18,11.58,3.53,3.1,2.35,4.64,6.01,4.64,10.96l.25,30.96c0,1.4,.08,2.64,.25,3.71,.17,1.07,.45,2.04,.87,2.91,.41,.87,.93,1.71,1.55,2.54,.62,.83,1.34,1.69,2.17,2.6v.99h-21.8v-.99c.91-.91,1.67-1.77,2.29-2.6,.62-.82,1.09-1.67,1.42-2.54,.33-.87,.56-1.84,.68-2.91,.12-1.07,.19-2.31,.19-3.71l-.25-28.49c0-2.89-.85-5.34-2.54-7.37-1.69-2.02-3.86-3.03-6.5-3.03-1.9,0-3.61,.35-5.14,1.05-1.53,.7-2.93,1.63-4.21,2.79-1.28,1.16-2.44,2.46-3.47,3.9-1.03,1.45-2,2.91-2.91,4.4v26.75c0,1.4,.08,2.64,.25,3.71,.17,1.07,.45,2.04,.87,2.91,.41,.87,.93,1.71,1.55,2.54,.62,.83,1.34,1.69,2.17,2.6v.99h-21.8v-.99c.91-.91,1.67-1.77,2.29-2.6,.62-.82,1.09-1.67,1.42-2.54,.33-.87,.56-1.84,.68-2.91,.12-1.07,.19-2.31,.19-3.71V27.81c0-2.89-.41-5.16-1.24-6.81-.83-1.65-2.31-3.3-4.46-4.95v-.99l18.08-2.48Z"/>
    <path class="cls-3" d="M471.36,46.64l18.08-2.48v15.11c1.4-2.31,3.07-4.66,5.02-7.06,1.94-2.39,4.27-4.29,7-5.7,2.97-1.57,6.19-2.35,9.66-2.35,2.15,0,4.11,.23,5.88,.68,1.77,.46,3.36,1.51,4.77,3.16,1.49,1.73,2.06,3.47,1.73,5.2-.33,1.73-1.16,3.1-2.48,4.09-1.32,.99-2.89,1.42-4.71,1.3-1.82-.12-3.47-1.18-4.95-3.16-.33-.41-.72-.91-1.18-1.49-.46-.58-1.01-1.09-1.67-1.55-.66-.45-1.47-.85-2.42-1.18-.95-.33-2.04-.45-3.28-.37-1.32,.08-2.62,.5-3.9,1.24-1.28,.74-2.48,1.73-3.59,2.97-1.12,1.24-2.17,2.66-3.16,4.27-.99,1.61-1.9,3.28-2.72,5.02v25.27c0,1.4,.08,2.64,.25,3.71,.17,1.07,.45,2.04,.87,2.91,.41,.87,.93,1.71,1.55,2.54,.62,.83,1.34,1.69,2.17,2.6v.99h-21.8v-.99c.91-.91,1.67-1.77,2.29-2.6,.62-.82,1.09-1.67,1.42-2.54,.33-.87,.56-1.84,.68-2.91,.12-1.07,.19-2.31,.19-3.71v-30.22c0-2.89-.41-5.16-1.24-6.81-.83-1.65-2.31-3.3-4.46-4.95v-.99Z"/>
    <path class="cls-3" d="M579.23,68.31h-40.25c-.08,.83-.15,1.63-.19,2.42-.04,.79-.06,1.63-.06,2.54,0,3.47,.56,6.56,1.67,9.29s2.6,5.04,4.46,6.94c1.86,1.9,4,3.39,6.44,4.46,2.43,1.07,4.97,1.65,7.62,1.73,3.47,.17,7.02-.47,10.65-1.92,3.63-1.44,6.77-4.11,9.41-7.99l.99,.87c-1.4,2.06-2.89,4.05-4.46,5.94-1.57,1.9-3.34,3.57-5.33,5.02-1.98,1.45-4.23,2.6-6.75,3.47-2.52,.87-5.39,1.3-8.61,1.3-4.38,0-8.36-.7-11.95-2.11-3.59-1.4-6.65-3.36-9.16-5.88-2.52-2.52-4.48-5.57-5.88-9.16-1.41-3.59-2.11-7.57-2.11-11.95s.7-8.36,2.11-11.95c1.4-3.59,3.36-6.65,5.88-9.17s5.57-4.48,9.16-5.88c3.59-1.4,7.57-2.11,11.95-2.11,3.22,0,6.32,.58,9.29,1.73,2.97,1.16,5.57,2.81,7.8,4.95,2.23,2.15,4,4.69,5.33,7.62,1.32,2.93,1.98,6.21,1.98,9.85Zm-12.88-2.11c.25-2.15,.19-4.4-.19-6.75-.37-2.35-1.03-4.52-1.98-6.5-.95-1.98-2.21-3.63-3.78-4.95-1.57-1.32-3.43-1.98-5.57-1.98-4.13,0-7.55,1.82-10.28,5.45-2.72,3.63-4.5,8.55-5.33,14.74h27.12Z"/>
  </g>
  <path class="cls-6" d="M420.4,102.01c.78-3.34,1.88-6.19,3.28-8.55,1.4-2.35,3.1-4.19,5.08-5.51,1.98-1.32,4.21-1.98,6.69-1.98s4.58,.66,6.56,1.98c1.98,1.32,3.67,3.16,5.08,5.51,1.4,2.35,2.5,5.2,3.28,8.55,.02,.09,.03,.18,.05,.26h12.39c-.12-.34-.23-.68-.36-1.01-1.41-3.59-3.37-6.65-5.88-9.17-2.52-2.52-5.57-4.48-9.17-5.88-3.59-1.4-7.58-2.11-11.95-2.11s-8.36,.7-11.95,2.11c-3.59,1.41-6.65,3.37-9.16,5.88s-4.48,5.57-5.88,9.17c-.13,.33-.25,.67-.36,1.01h12.26c.02-.09,.03-.18,.05-.26Z"/>
  <path class="cls-2" d="M451.17,44.16c.24,2.02,.37,4.15,.37,6.4,0,4.05-.39,7.76-1.18,11.15-.79,3.39-1.88,6.25-3.28,8.61-1.41,2.35-3.1,4.19-5.08,5.51-1.98,1.32-4.17,1.98-6.56,1.98s-4.71-.66-6.69-1.98c-1.98-1.32-3.67-3.16-5.08-5.51-1.41-2.35-2.5-5.22-3.28-8.61-.79-3.38-1.18-7.1-1.18-11.15,0-2.26,.13-4.38,.37-6.4h-12.67c-.37,2.04-.58,4.16-.58,6.4,0,4.38,.7,8.36,2.11,11.95,1.4,3.59,3.36,6.65,5.88,9.16,2.52,2.52,5.57,4.48,9.16,5.88,3.59,1.41,7.57,2.11,11.95,2.11s8.36-.7,11.95-2.11c3.59-1.4,6.65-3.36,9.17-5.88s4.48-5.57,5.88-9.16c1.4-3.59,2.1-7.57,2.1-11.95,0-2.24-.21-4.37-.58-6.4h-12.8Z"/>
  <text class="cls-1" transform="translate(306.29 151.73)"><tspan x="0" y="0">Coa</tspan><tspan class="cls-5" x="81.8" y="0">c</tspan><tspan x="105.15" y="0">hing</tspan></text>
  <path class="cls-3" d="M357.57,62.19c-2.13,3.24-35.43,35.57-39.61,36-6.31,.43-7.2-1.27-7.2-1.27,9.98-.9,43.07-33.77,46.81-38.45"/>
  <polyline class="cls-4" points="53 1.5 1.5 1.5 1.5 53.11"/>
  <polygon class="cls-6" points="146.26 20.26 156.04 26.08 136.6 36.6 134.74 35.12 146.26 20.26"/>
  <path class="cls-3" d="M104.09,12.36v.99c-1.4,1.16-2.42,2.31-3.03,3.47-.62,1.16-.89,2.6-.81,4.33l3.34,63.78c.16,3.55,.72,6.36,1.67,8.42,.95,2.07,2.62,3.84,5.02,5.33v.99h-24.15v-.99c1.9-1.16,3.28-2.83,4.15-5.02,.87-2.19,1.22-4.64,1.05-7.37l-3.59-66.75-27.87,74.06h-1.73L26.44,22.51l-3.1,62.42c-.08,2.72,.56,5.41,1.92,8.05,1.36,2.64,3.2,4.54,5.51,5.7v.99H14.55v-.99c2.39-1.49,4.09-3.45,5.08-5.88,.99-2.43,1.57-5.06,1.73-7.86l3.34-63.78c.16-3.55-1.45-6.15-4.83-7.8v-.99h15.98l28.36,64.77L88.49,12.23l15.6,.12Z"/>
</svg>