<svg width="66" height="63" viewBox="0 0 66 63" fill="none" xmlns="http://www.w3.org/2000/svg">
<path d="M65.3038 59.1532L45.014 39.5311C48.751 35.1447 50.7635 29.6214 50.6954 23.9382C50.5546 10.8573 39.5556 0.18647 26.0359 0.00525009C12.0854 -0.179938 0.67334 10.7435 0.67334 24.1948C0.67334 37.5694 11.9582 48.44 25.787 48.3871C31.816 48.3681 37.6333 46.2348 42.1597 42.383L62.4016 61.9601C62.7863 62.3321 63.308 62.541 63.852 62.541C64.396 62.541 64.9177 62.3321 65.3024 61.9601C65.4932 61.7759 65.6445 61.5572 65.7478 61.3164C65.8511 61.0757 65.9043 60.8176 65.9045 60.5569C65.9046 60.2962 65.8516 60.0381 65.7486 59.7972C65.6455 59.5564 65.4944 59.3375 65.3038 59.1532ZM26.1535 44.4135C14.2546 44.6674 4.5152 35.2506 4.7778 23.7398C5.02261 12.9698 14.0781 4.213 25.2125 3.97622C37.1115 3.72225 46.8509 13.1391 46.5883 24.6499C46.3421 35.4199 37.2893 44.1767 26.1535 44.4135Z" fill="black"/>
</svg>
