<svg width="65" height="79" viewBox="0 0 65 79" fill="none" xmlns="http://www.w3.org/2000/svg">
<g clip-path="url(#clip0_134_727)">
<path fill-rule="evenodd" clip-rule="evenodd" d="M60.9375 16.25C60.9375 14.6331 60.2956 13.0833 59.152 11.9417C58.0105 10.7981 56.4606 10.1562 54.8438 10.1562H10.1562C8.53937 10.1562 6.98953 10.7981 5.84796 11.9417C4.70437 13.0833 4.0625 14.6331 4.0625 16.25C4.0625 24.0337 4.0625 40.9662 4.0625 48.75C4.0625 50.3669 4.70437 51.9167 5.84796 53.0583C6.98953 54.2019 8.53937 54.8438 10.1562 54.8438H54.8438C56.4606 54.8438 58.0105 54.2019 59.152 53.0583C60.2956 51.9167 60.9375 50.3669 60.9375 48.75V16.25ZM56.875 21.9172L35.6931 34.9517C33.735 36.1563 31.265 36.1563 29.3069 34.9517L8.125 21.9172V48.75C8.125 49.2883 8.33828 49.8063 8.72015 50.1861C9.1 50.568 9.61797 50.7812 10.1562 50.7812H54.8438C55.382 50.7812 55.9 50.568 56.2798 50.1861C56.6617 49.8063 56.875 49.2883 56.875 48.75V21.9172ZM56.875 17.1458V16.25C56.875 15.7117 56.6617 15.1937 56.2798 14.8139C55.9 14.432 55.382 14.2188 54.8438 14.2188H10.1562C9.61797 14.2188 9.1 14.432 8.72015 14.8139C8.33828 15.1937 8.125 15.7117 8.125 16.25V17.1458L31.4357 31.4905C32.0877 31.8927 32.9123 31.8927 33.5643 31.4905L56.875 17.1458Z" fill="black"/>
</g>
<defs>
<clipPath id="clip0_134_727">
<rect width="65" height="78.7109" fill="white"/>
</clipPath>
</defs>
</svg>
