<?xml version="1.0" encoding="UTF-8"?>
<svg id="Calque_1" data-name="Calque 1" xmlns="http://www.w3.org/2000/svg" viewBox="0 0 114.95 104.62">
  <defs>
    <style>
      .cls-1 {
        fill: #17142d;
      }

      .cls-2 {
        fill: none;
        stroke: #fbb915;
        stroke-miterlimit: 10;
        stroke-width: 3px;
      }

      .cls-3 {
        fill: #b4d6e5;
      }
    </style>
  </defs>
  <g>
    <path class="cls-3" d="M108.76,17.31v.99c-1.4,1.16-2.42,2.31-3.03,3.47-.62,1.16-.89,2.6-.81,4.33l3.34,63.78c.16,3.55,.72,6.36,1.67,8.42,.95,2.07,2.62,3.84,5.02,5.33v.99h-24.15v-.99c1.9-1.16,3.28-2.83,4.15-5.02,.87-2.19,1.22-4.64,1.05-7.37l-3.59-66.75-27.87,74.06h-1.73L31.11,27.46l-3.1,62.42c-.08,2.72,.56,5.41,1.92,8.05,1.36,2.64,3.2,4.54,5.51,5.7v.99H19.22v-.99c2.39-1.49,4.09-3.45,5.08-5.88,.99-2.43,1.57-5.06,1.73-7.86l3.34-63.78c.16-3.55-1.45-6.15-4.83-7.8v-.99h15.98l28.36,64.77L93.15,17.19l15.6,.12Z"/>
    <path class="cls-3" d="M108.71,17.26v.99c-1.4,1.16-2.42,2.31-3.03,3.47-.62,1.16-.89,2.6-.81,4.33l3.34,63.78c.16,3.55,.72,6.36,1.67,8.42,.95,2.07,2.62,3.84,5.02,5.33v.99h-24.15v-.99c1.9-1.16,3.28-2.83,4.15-5.02,.87-2.19,1.22-4.64,1.05-7.37l-3.59-66.75-27.87,74.06h-1.73L31.06,27.42l-3.1,62.42c-.08,2.72,.56,5.41,1.92,8.05,1.36,2.64,3.2,4.54,5.51,5.7v.99H19.17v-.99c2.39-1.49,4.09-3.45,5.08-5.88,.99-2.43,1.57-5.06,1.73-7.86l3.34-63.78c.16-3.55-1.45-6.15-4.83-7.8v-.99h15.98l28.36,64.77L93.11,17.14l15.6,.12Z"/>
    <path class="cls-3" d="M108.66,17.21v.99c-1.4,1.16-2.42,2.31-3.03,3.47-.62,1.16-.89,2.6-.81,4.33l3.34,63.78c.16,3.55,.72,6.36,1.67,8.42,.95,2.07,2.62,3.84,5.02,5.33v.99h-24.15v-.99c1.9-1.16,3.28-2.83,4.15-5.02,.87-2.19,1.22-4.64,1.05-7.37l-3.59-66.75-27.87,74.06h-1.73L31.01,27.37l-3.1,62.42c-.08,2.72,.56,5.41,1.92,8.05,1.36,2.64,3.2,4.54,5.51,5.7v.99H19.12v-.99c2.39-1.49,4.09-3.45,5.08-5.88,.99-2.43,1.57-5.06,1.73-7.86l3.34-63.78c.16-3.55-1.45-6.15-4.83-7.8v-.99h15.98l28.36,64.77L93.06,17.09l15.6,.12Z"/>
    <path class="cls-3" d="M108.62,17.17v.99c-1.4,1.16-2.42,2.31-3.03,3.47-.62,1.16-.89,2.6-.81,4.33l3.34,63.78c.16,3.55,.72,6.36,1.67,8.42,.95,2.07,2.62,3.84,5.02,5.33v.99h-24.15v-.99c1.9-1.16,3.28-2.83,4.15-5.02,.87-2.19,1.22-4.64,1.05-7.37l-3.59-66.75-27.87,74.06h-1.73L30.96,27.32l-3.1,62.42c-.08,2.72,.56,5.41,1.92,8.05,1.36,2.64,3.2,4.54,5.51,5.7v.99H19.07v-.99c2.39-1.49,4.09-3.45,5.08-5.88,.99-2.43,1.57-5.06,1.73-7.86l3.34-63.78c.16-3.55-1.45-6.15-4.83-7.8v-.99h15.98l28.36,64.77L93.01,17.04l15.6,.12Z"/>
    <path class="cls-3" d="M108.57,17.12v.99c-1.4,1.16-2.42,2.31-3.03,3.47-.62,1.16-.89,2.6-.81,4.33l3.34,63.78c.16,3.55,.72,6.36,1.67,8.42,.95,2.07,2.62,3.84,5.02,5.33v.99h-24.15v-.99c1.9-1.16,3.28-2.83,4.15-5.02,.87-2.19,1.22-4.64,1.05-7.37l-3.59-66.75-27.87,74.06h-1.73L30.91,27.27l-3.1,62.42c-.08,2.72,.56,5.41,1.92,8.05,1.36,2.64,3.2,4.54,5.51,5.7v.99H19.03v-.99c2.39-1.49,4.09-3.45,5.08-5.88,.99-2.43,1.57-5.06,1.73-7.86l3.34-63.78c.16-3.55-1.45-6.15-4.83-7.8v-.99h15.98l28.36,64.77L92.96,16.99l15.6,.12Z"/>
    <path class="cls-3" d="M108.52,17.07v.99c-1.4,1.16-2.42,2.31-3.03,3.47-.62,1.16-.89,2.6-.81,4.33l3.34,63.78c.16,3.55,.72,6.36,1.67,8.42,.95,2.07,2.62,3.84,5.02,5.33v.99h-24.15v-.99c1.9-1.16,3.28-2.83,4.15-5.02,.87-2.19,1.22-4.64,1.05-7.37l-3.59-66.75-27.87,74.06h-1.73L30.87,27.23l-3.1,62.42c-.08,2.72,.56,5.41,1.92,8.05,1.36,2.64,3.2,4.54,5.51,5.7v.99H18.98v-.99c2.39-1.49,4.09-3.45,5.08-5.88,.99-2.43,1.57-5.06,1.73-7.86l3.34-63.78c.16-3.55-1.45-6.15-4.83-7.8v-.99h15.98l28.36,64.77L92.91,16.95l15.6,.12Z"/>
    <path class="cls-3" d="M108.47,17.02v.99c-1.4,1.16-2.42,2.31-3.03,3.47-.62,1.16-.89,2.6-.81,4.33l3.34,63.78c.16,3.55,.72,6.36,1.67,8.42,.95,2.07,2.62,3.84,5.02,5.33v.99h-24.15v-.99c1.9-1.16,3.28-2.83,4.15-5.02,.87-2.19,1.22-4.64,1.05-7.37l-3.59-66.75-27.87,74.06h-1.73L30.82,27.18l-3.1,62.42c-.08,2.72,.56,5.41,1.92,8.05,1.36,2.64,3.2,4.54,5.51,5.7v.99H18.93v-.99c2.39-1.49,4.09-3.45,5.08-5.88,.99-2.43,1.57-5.06,1.73-7.86l3.34-63.78c.16-3.55-1.45-6.15-4.83-7.8v-.99h15.98l28.36,64.77L92.87,16.9l15.6,.12Z"/>
    <path class="cls-3" d="M108.42,16.98v.99c-1.4,1.16-2.42,2.31-3.03,3.47-.62,1.16-.89,2.6-.81,4.33l3.34,63.78c.16,3.55,.72,6.36,1.67,8.42,.95,2.07,2.62,3.84,5.02,5.33v.99h-24.15v-.99c1.9-1.16,3.28-2.83,4.15-5.02,.87-2.19,1.22-4.64,1.05-7.37l-3.59-66.75-27.87,74.06h-1.73L30.77,27.13l-3.1,62.42c-.08,2.72,.56,5.41,1.92,8.05,1.36,2.64,3.2,4.54,5.51,5.7v.99H18.88v-.99c2.39-1.49,4.09-3.45,5.08-5.88,.99-2.43,1.57-5.06,1.73-7.86l3.34-63.78c.16-3.55-1.45-6.15-4.83-7.8v-.99h15.98l28.36,64.77L92.82,16.85l15.6,.12Z"/>
    <path class="cls-3" d="M108.38,16.93v.99c-1.4,1.16-2.42,2.31-3.03,3.47-.62,1.16-.89,2.6-.81,4.33l3.34,63.78c.16,3.55,.72,6.36,1.67,8.42,.95,2.07,2.62,3.84,5.02,5.33v.99h-24.15v-.99c1.9-1.16,3.28-2.83,4.15-5.02,.87-2.19,1.22-4.64,1.05-7.37l-3.59-66.75-27.87,74.06h-1.73L30.72,27.08l-3.1,62.42c-.08,2.72,.56,5.41,1.92,8.05,1.36,2.64,3.2,4.54,5.51,5.7v.99H18.83v-.99c2.39-1.49,4.09-3.45,5.08-5.88,.99-2.43,1.57-5.06,1.73-7.86l3.34-63.78c.16-3.55-1.45-6.15-4.83-7.8v-.99h15.98l28.36,64.77L92.77,16.8l15.6,.12Z"/>
    <path class="cls-3" d="M108.33,16.88v.99c-1.4,1.16-2.42,2.31-3.03,3.47-.62,1.16-.89,2.6-.81,4.33l3.34,63.78c.16,3.55,.72,6.36,1.67,8.42,.95,2.07,2.62,3.84,5.02,5.33v.99h-24.15v-.99c1.9-1.16,3.28-2.83,4.15-5.02,.87-2.19,1.22-4.64,1.05-7.37l-3.59-66.75-27.87,74.06h-1.73L30.68,27.03l-3.1,62.42c-.08,2.72,.56,5.41,1.92,8.05,1.36,2.64,3.2,4.54,5.51,5.7v.99H18.79v-.99c2.39-1.49,4.09-3.45,5.08-5.88,.99-2.43,1.57-5.06,1.73-7.86l3.34-63.78c.16-3.55-1.45-6.15-4.83-7.8v-.99h15.98l28.36,64.77L92.72,16.76l15.6,.12Z"/>
    <path class="cls-3" d="M108.28,16.83v.99c-1.4,1.16-2.42,2.31-3.03,3.47-.62,1.16-.89,2.6-.81,4.33l3.34,63.78c.16,3.55,.72,6.36,1.67,8.42,.95,2.07,2.62,3.84,5.02,5.33v.99h-24.15v-.99c1.9-1.16,3.28-2.83,4.15-5.02,.87-2.19,1.22-4.64,1.05-7.37l-3.59-66.75-27.87,74.06h-1.73L30.63,26.99l-3.1,62.42c-.08,2.72,.56,5.41,1.92,8.05,1.36,2.64,3.2,4.54,5.51,5.7v.99H18.74v-.99c2.39-1.49,4.09-3.45,5.08-5.88,.99-2.43,1.57-5.06,1.73-7.86l3.34-63.78c.16-3.55-1.45-6.15-4.83-7.8v-.99h15.98l28.36,64.77L92.68,16.71l15.6,.12Z"/>
    <path class="cls-3" d="M108.23,16.78v.99c-1.4,1.16-2.42,2.31-3.03,3.47-.62,1.16-.89,2.6-.81,4.33l3.34,63.78c.16,3.55,.72,6.36,1.67,8.42,.95,2.07,2.62,3.84,5.02,5.33v.99h-24.15v-.99c1.9-1.16,3.28-2.83,4.15-5.02,.87-2.19,1.22-4.64,1.05-7.37l-3.59-66.75-27.87,74.06h-1.73L30.58,26.94l-3.1,62.42c-.08,2.72,.56,5.41,1.92,8.05,1.36,2.64,3.2,4.54,5.51,5.7v.99H18.69v-.99c2.39-1.49,4.09-3.45,5.08-5.88,.99-2.43,1.57-5.06,1.73-7.86l3.34-63.78c.16-3.55-1.45-6.15-4.83-7.8v-.99h15.98l28.36,64.77L92.63,16.66l15.6,.12Z"/>
    <path class="cls-3" d="M108.19,16.74v.99c-1.4,1.16-2.42,2.31-3.03,3.47-.62,1.16-.89,2.6-.81,4.33l3.34,63.78c.16,3.55,.72,6.36,1.67,8.42,.95,2.07,2.62,3.84,5.02,5.33v.99h-24.15v-.99c1.9-1.16,3.28-2.83,4.15-5.02,.87-2.19,1.22-4.64,1.05-7.37l-3.59-66.75-27.87,74.06h-1.73L30.53,26.89l-3.1,62.42c-.08,2.72,.56,5.41,1.92,8.05,1.36,2.64,3.2,4.54,5.51,5.7v.99H18.64v-.99c2.39-1.49,4.09-3.45,5.08-5.88,.99-2.43,1.57-5.06,1.73-7.86l3.34-63.78c.16-3.55-1.45-6.15-4.83-7.8v-.99h15.98l28.36,64.77L92.58,16.61l15.6,.12Z"/>
    <path class="cls-3" d="M108.14,16.69v.99c-1.4,1.16-2.42,2.31-3.03,3.47-.62,1.16-.89,2.6-.81,4.33l3.34,63.78c.16,3.55,.72,6.36,1.67,8.42,.95,2.07,2.62,3.84,5.02,5.33v.99h-24.15v-.99c1.9-1.16,3.28-2.83,4.15-5.02,.87-2.19,1.22-4.64,1.05-7.37l-3.59-66.75-27.87,74.06h-1.73L30.48,26.84l-3.1,62.42c-.08,2.72,.56,5.41,1.92,8.05,1.36,2.64,3.2,4.54,5.51,5.7v.99H18.6v-.99c2.39-1.49,4.09-3.45,5.08-5.88,.99-2.43,1.57-5.06,1.73-7.86l3.34-63.78c.16-3.55-1.45-6.15-4.83-7.8v-.99h15.98l28.36,64.77L92.53,16.56l15.6,.12Z"/>
    <path class="cls-3" d="M108.09,16.64v.99c-1.4,1.16-2.42,2.31-3.03,3.47-.62,1.16-.89,2.6-.81,4.33l3.34,63.78c.16,3.55,.72,6.36,1.67,8.42,.95,2.07,2.62,3.84,5.02,5.33v.99h-24.15v-.99c1.9-1.16,3.28-2.83,4.15-5.02,.87-2.19,1.22-4.64,1.05-7.37l-3.59-66.75-27.87,74.06h-1.73L30.44,26.8l-3.1,62.42c-.08,2.72,.56,5.41,1.92,8.05,1.36,2.64,3.2,4.54,5.51,5.7v.99H18.55v-.99c2.39-1.49,4.09-3.45,5.08-5.88,.99-2.43,1.57-5.06,1.73-7.86l3.34-63.78c.16-3.55-1.45-6.15-4.83-7.8v-.99h15.98l28.36,64.77L92.48,16.52l15.6,.12Z"/>
    <path class="cls-3" d="M108.04,16.59v.99c-1.4,1.16-2.42,2.31-3.03,3.47-.62,1.16-.89,2.6-.81,4.33l3.34,63.78c.16,3.55,.72,6.36,1.67,8.42,.95,2.07,2.62,3.84,5.02,5.33v.99h-24.15v-.99c1.9-1.16,3.28-2.83,4.15-5.02,.87-2.19,1.22-4.64,1.05-7.37l-3.59-66.75-27.87,74.06h-1.73L30.39,26.75l-3.1,62.42c-.08,2.72,.56,5.41,1.92,8.05,1.36,2.64,3.2,4.54,5.51,5.7v.99H18.5v-.99c2.39-1.49,4.09-3.45,5.08-5.88,.99-2.43,1.57-5.06,1.73-7.86l3.34-63.78c.16-3.55-1.45-6.15-4.83-7.8v-.99h15.98l28.36,64.77L92.44,16.47l15.6,.12Z"/>
    <path class="cls-3" d="M107.99,16.55v.99c-1.4,1.16-2.42,2.31-3.03,3.47-.62,1.16-.89,2.6-.81,4.33l3.34,63.78c.16,3.55,.72,6.36,1.67,8.42,.95,2.07,2.62,3.84,5.02,5.33v.99h-24.15v-.99c1.9-1.16,3.28-2.83,4.15-5.02,.87-2.19,1.22-4.64,1.05-7.37l-3.59-66.75-27.87,74.06h-1.73L30.34,26.7l-3.1,62.42c-.08,2.72,.56,5.41,1.92,8.05,1.36,2.64,3.2,4.54,5.51,5.7v.99H18.45v-.99c2.39-1.49,4.09-3.45,5.08-5.88,.99-2.43,1.57-5.06,1.73-7.86l3.34-63.78c.16-3.55-1.45-6.15-4.83-7.8v-.99h15.98l28.36,64.77L92.39,16.42l15.6,.12Z"/>
    <path class="cls-3" d="M107.95,16.5v.99c-1.4,1.16-2.42,2.31-3.03,3.47-.62,1.16-.89,2.6-.81,4.33l3.34,63.78c.16,3.55,.72,6.36,1.67,8.42,.95,2.07,2.62,3.84,5.02,5.33v.99h-24.15v-.99c1.9-1.16,3.28-2.83,4.15-5.02,.87-2.19,1.22-4.64,1.05-7.37l-3.59-66.75-27.87,74.06h-1.73L30.29,26.65l-3.1,62.42c-.08,2.72,.56,5.41,1.92,8.05,1.36,2.64,3.2,4.54,5.51,5.7v.99H18.4v-.99c2.39-1.49,4.09-3.45,5.08-5.88,.99-2.43,1.57-5.06,1.73-7.86l3.34-63.78c.16-3.55-1.45-6.15-4.83-7.8v-.99h15.98l28.36,64.77L92.34,16.37l15.6,.12Z"/>
    <path class="cls-3" d="M107.9,16.45v.99c-1.4,1.16-2.42,2.31-3.03,3.47-.62,1.16-.89,2.6-.81,4.33l3.34,63.78c.16,3.55,.72,6.36,1.67,8.42,.95,2.07,2.62,3.84,5.02,5.33v.99h-24.15v-.99c1.9-1.16,3.28-2.83,4.15-5.02,.87-2.19,1.22-4.64,1.05-7.37l-3.59-66.75-27.87,74.06h-1.73L30.25,26.6l-3.1,62.42c-.08,2.72,.56,5.41,1.92,8.05,1.36,2.64,3.2,4.54,5.51,5.7v.99H18.36v-.99c2.39-1.49,4.09-3.45,5.08-5.88,.99-2.43,1.57-5.06,1.73-7.86l3.34-63.78c.16-3.55-1.45-6.15-4.83-7.8v-.99h15.98l28.36,64.77L92.29,16.33l15.6,.12Z"/>
    <path class="cls-3" d="M107.85,16.4v.99c-1.4,1.16-2.42,2.31-3.03,3.47-.62,1.16-.89,2.6-.81,4.33l3.34,63.78c.16,3.55,.72,6.36,1.67,8.42,.95,2.07,2.62,3.84,5.02,5.33v.99h-24.15v-.99c1.9-1.16,3.28-2.83,4.15-5.02,.87-2.19,1.22-4.64,1.05-7.37l-3.59-66.75-27.87,74.06h-1.73L30.2,26.56l-3.1,62.42c-.08,2.72,.56,5.41,1.92,8.05,1.36,2.64,3.2,4.54,5.51,5.7v.99H18.31v-.99c2.39-1.49,4.09-3.45,5.08-5.88,.99-2.43,1.57-5.06,1.73-7.86l3.34-63.78c.16-3.55-1.45-6.15-4.83-7.8v-.99h15.98l28.36,64.77L92.25,16.28l15.6,.12Z"/>
    <path class="cls-3" d="M107.8,16.35v.99c-1.4,1.16-2.42,2.31-3.03,3.47-.62,1.16-.89,2.6-.81,4.33l3.34,63.78c.16,3.55,.72,6.36,1.67,8.42,.95,2.07,2.62,3.84,5.02,5.33v.99h-24.15v-.99c1.9-1.16,3.28-2.83,4.15-5.02,.87-2.19,1.22-4.64,1.05-7.37l-3.59-66.75-27.87,74.06h-1.73L30.15,26.51l-3.1,62.42c-.08,2.72,.56,5.41,1.92,8.05,1.36,2.64,3.2,4.54,5.51,5.7v.99H18.26v-.99c2.39-1.49,4.09-3.45,5.08-5.88,.99-2.43,1.57-5.06,1.73-7.86l3.34-63.78c.16-3.55-1.45-6.15-4.83-7.8v-.99h15.98l28.36,64.77L92.2,16.23l15.6,.12Z"/>
    <path class="cls-3" d="M107.76,16.31v.99c-1.4,1.16-2.42,2.31-3.03,3.47-.62,1.16-.89,2.6-.81,4.33l3.34,63.78c.16,3.55,.72,6.36,1.67,8.42,.95,2.07,2.62,3.84,5.02,5.33v.99h-24.15v-.99c1.9-1.16,3.28-2.83,4.15-5.02,.87-2.19,1.22-4.64,1.05-7.37l-3.59-66.75-27.87,74.06h-1.73L30.1,26.46l-3.1,62.42c-.08,2.72,.56,5.41,1.92,8.05,1.36,2.64,3.2,4.54,5.51,5.7v.99H18.21v-.99c2.39-1.49,4.09-3.45,5.08-5.88,.99-2.43,1.57-5.06,1.73-7.86l3.34-63.78c.16-3.55-1.45-6.15-4.83-7.8v-.99h15.98l28.36,64.77L92.15,16.18l15.6,.12Z"/>
    <path class="cls-3" d="M107.71,16.26v.99c-1.4,1.16-2.42,2.31-3.03,3.47-.62,1.16-.89,2.6-.81,4.33l3.34,63.78c.16,3.55,.72,6.36,1.67,8.42,.95,2.07,2.62,3.84,5.02,5.33v.99h-24.15v-.99c1.9-1.16,3.28-2.83,4.15-5.02,.87-2.19,1.22-4.64,1.05-7.37l-3.59-66.75-27.87,74.06h-1.73L30.05,26.41l-3.1,62.42c-.08,2.72,.56,5.41,1.92,8.05,1.36,2.64,3.2,4.54,5.51,5.7v.99H18.17v-.99c2.39-1.49,4.09-3.45,5.08-5.88,.99-2.43,1.57-5.06,1.73-7.86l3.34-63.78c.16-3.55-1.45-6.15-4.83-7.8v-.99h15.98l28.36,64.77L92.1,16.13l15.6,.12Z"/>
    <path class="cls-3" d="M107.66,16.21v.99c-1.4,1.16-2.42,2.31-3.03,3.47-.62,1.16-.89,2.6-.81,4.33l3.34,63.78c.16,3.55,.72,6.36,1.67,8.42,.95,2.07,2.62,3.84,5.02,5.33v.99h-24.15v-.99c1.9-1.16,3.28-2.83,4.15-5.02,.87-2.19,1.22-4.64,1.05-7.37l-3.59-66.75-27.87,74.06h-1.73L30.01,26.37l-3.1,62.42c-.08,2.72,.56,5.41,1.92,8.05,1.36,2.64,3.2,4.54,5.51,5.7v.99H18.12v-.99c2.39-1.49,4.09-3.45,5.08-5.88,.99-2.43,1.57-5.06,1.73-7.86l3.34-63.78c.16-3.55-1.45-6.15-4.83-7.8v-.99h15.98l28.36,64.77L92.05,16.09l15.6,.12Z"/>
    <path class="cls-3" d="M107.61,16.16v.99c-1.4,1.16-2.42,2.31-3.03,3.47-.62,1.16-.89,2.6-.81,4.33l3.34,63.78c.16,3.55,.72,6.36,1.67,8.42,.95,2.07,2.62,3.84,5.02,5.33v.99h-24.15v-.99c1.9-1.16,3.28-2.83,4.15-5.02,.87-2.19,1.22-4.64,1.05-7.37l-3.59-66.75-27.87,74.06h-1.73L29.96,26.32l-3.1,62.42c-.08,2.72,.56,5.41,1.92,8.05,1.36,2.64,3.2,4.54,5.51,5.7v.99H18.07v-.99c2.39-1.49,4.09-3.45,5.08-5.88,.99-2.43,1.57-5.06,1.73-7.86l3.34-63.78c.16-3.55-1.45-6.15-4.83-7.8v-.99h15.98l28.36,64.77L92.01,16.04l15.6,.12Z"/>
    <path class="cls-3" d="M107.56,16.12v.99c-1.4,1.16-2.42,2.31-3.03,3.47-.62,1.16-.89,2.6-.81,4.33l3.34,63.78c.16,3.55,.72,6.36,1.67,8.42,.95,2.07,2.62,3.84,5.02,5.33v.99h-24.15v-.99c1.9-1.16,3.28-2.83,4.15-5.02,.87-2.19,1.22-4.64,1.05-7.37l-3.59-66.75-27.87,74.06h-1.73L29.91,26.27l-3.1,62.42c-.08,2.72,.56,5.41,1.92,8.05,1.36,2.64,3.2,4.54,5.51,5.7v.99H18.02v-.99c2.39-1.49,4.09-3.45,5.08-5.88,.99-2.43,1.57-5.06,1.73-7.86l3.34-63.78c.16-3.55-1.45-6.15-4.83-7.8v-.99h15.98l28.36,64.77L91.96,15.99l15.6,.12Z"/>
    <path class="cls-3" d="M107.52,16.07v.99c-1.4,1.16-2.42,2.31-3.03,3.47-.62,1.16-.89,2.6-.81,4.33l3.34,63.78c.16,3.55,.72,6.36,1.67,8.42,.95,2.07,2.62,3.84,5.02,5.33v.99h-24.15v-.99c1.9-1.16,3.28-2.83,4.15-5.02,.87-2.19,1.22-4.64,1.05-7.37l-3.59-66.75-27.87,74.06h-1.73L29.86,26.22l-3.1,62.42c-.08,2.72,.56,5.41,1.92,8.05,1.36,2.64,3.2,4.54,5.51,5.7v.99H17.97v-.99c2.39-1.49,4.09-3.45,5.08-5.88,.99-2.43,1.57-5.06,1.73-7.86l3.34-63.78c.16-3.55-1.45-6.15-4.83-7.8v-.99h15.98l28.36,64.77L91.91,15.94l15.6,.12Z"/>
    <path class="cls-3" d="M107.47,16.02v.99c-1.4,1.16-2.42,2.31-3.03,3.47-.62,1.16-.89,2.6-.81,4.33l3.34,63.78c.16,3.55,.72,6.36,1.67,8.42,.95,2.07,2.62,3.84,5.02,5.33v.99h-24.15v-.99c1.9-1.16,3.28-2.83,4.15-5.02,.87-2.19,1.22-4.64,1.05-7.37l-3.59-66.75-27.87,74.06h-1.73L29.82,26.17l-3.1,62.42c-.08,2.72,.56,5.41,1.92,8.05,1.36,2.64,3.2,4.54,5.51,5.7v.99H17.93v-.99c2.39-1.49,4.09-3.45,5.08-5.88,.99-2.43,1.57-5.06,1.73-7.86l3.34-63.78c.16-3.55-1.45-6.15-4.83-7.8v-.99h15.98l28.36,64.77L91.86,15.9l15.6,.12Z"/>
    <path class="cls-3" d="M107.42,15.97v.99c-1.4,1.16-2.42,2.31-3.03,3.47-.62,1.16-.89,2.6-.81,4.33l3.34,63.78c.16,3.55,.72,6.36,1.67,8.42,.95,2.07,2.62,3.84,5.02,5.33v.99h-24.15v-.99c1.9-1.16,3.28-2.83,4.15-5.02,.87-2.19,1.22-4.64,1.05-7.37l-3.59-66.75-27.87,74.06h-1.73L29.77,26.13l-3.1,62.42c-.08,2.72,.56,5.41,1.92,8.05,1.36,2.64,3.2,4.54,5.51,5.7v.99H17.88v-.99c2.39-1.49,4.09-3.45,5.08-5.88,.99-2.43,1.57-5.06,1.73-7.86l3.34-63.78c.16-3.55-1.45-6.15-4.83-7.8v-.99h15.98l28.36,64.77L91.82,15.85l15.6,.12Z"/>
    <path class="cls-3" d="M107.37,15.92v.99c-1.4,1.16-2.42,2.31-3.03,3.47-.62,1.16-.89,2.6-.81,4.33l3.34,63.78c.16,3.55,.72,6.36,1.67,8.42,.95,2.07,2.62,3.84,5.02,5.33v.99h-24.15v-.99c1.9-1.16,3.28-2.83,4.15-5.02,.87-2.19,1.22-4.64,1.05-7.37l-3.59-66.75-27.87,74.06h-1.73L29.72,26.08l-3.1,62.42c-.08,2.72,.56,5.41,1.92,8.05,1.36,2.64,3.2,4.54,5.51,5.7v.99H17.83v-.99c2.39-1.49,4.09-3.45,5.08-5.88,.99-2.43,1.57-5.06,1.73-7.86l3.34-63.78c.16-3.55-1.45-6.15-4.83-7.8v-.99h15.98l28.36,64.77L91.77,15.8l15.6,.12Z"/>
    <path class="cls-3" d="M107.33,15.88v.99c-1.4,1.16-2.42,2.31-3.03,3.47-.62,1.16-.89,2.6-.81,4.33l3.34,63.78c.16,3.55,.72,6.36,1.67,8.42,.95,2.07,2.62,3.84,5.02,5.33v.99h-24.15v-.99c1.9-1.16,3.28-2.83,4.15-5.02,.87-2.19,1.22-4.64,1.05-7.37l-3.59-66.75-27.87,74.06h-1.73L29.67,26.03l-3.1,62.42c-.08,2.72,.56,5.41,1.92,8.05,1.36,2.64,3.2,4.54,5.51,5.7v.99H17.78v-.99c2.39-1.49,4.09-3.45,5.08-5.88,.99-2.43,1.57-5.06,1.73-7.86l3.34-63.78c.16-3.55-1.45-6.15-4.83-7.8v-.99h15.98l28.36,64.77L91.72,15.75l15.6,.12Z"/>
    <path class="cls-3" d="M107.28,15.83v.99c-1.4,1.16-2.42,2.31-3.03,3.47-.62,1.16-.89,2.6-.81,4.33l3.34,63.78c.16,3.55,.72,6.36,1.67,8.42,.95,2.07,2.62,3.84,5.02,5.33v.99h-24.15v-.99c1.9-1.16,3.28-2.83,4.15-5.02,.87-2.19,1.22-4.64,1.05-7.37l-3.59-66.75-27.87,74.06h-1.73L29.62,25.98l-3.1,62.42c-.08,2.72,.56,5.41,1.92,8.05,1.36,2.64,3.2,4.54,5.51,5.7v.99H17.74v-.99c2.39-1.49,4.09-3.45,5.08-5.88,.99-2.43,1.57-5.06,1.73-7.86l3.34-63.78c.16-3.55-1.45-6.15-4.83-7.8v-.99h15.98l28.36,64.77L91.67,15.7l15.6,.12Z"/>
    <path class="cls-3" d="M107.23,15.78v.99c-1.4,1.16-2.42,2.31-3.03,3.47-.62,1.16-.89,2.6-.81,4.33l3.34,63.78c.16,3.55,.72,6.36,1.67,8.42,.95,2.07,2.62,3.84,5.02,5.33v.99h-24.15v-.99c1.9-1.16,3.28-2.83,4.15-5.02,.87-2.19,1.22-4.64,1.05-7.37l-3.59-66.75-27.87,74.06h-1.73L29.58,25.94l-3.1,62.42c-.08,2.72,.56,5.41,1.92,8.05,1.36,2.64,3.2,4.54,5.51,5.7v.99H17.69v-.99c2.39-1.49,4.09-3.45,5.08-5.88,.99-2.43,1.57-5.06,1.73-7.86l3.34-63.78c.16-3.55-1.45-6.15-4.83-7.8v-.99h15.98l28.36,64.77L91.62,15.66l15.6,.12Z"/>
    <path class="cls-3" d="M107.18,15.73v.99c-1.4,1.16-2.42,2.31-3.03,3.47-.62,1.16-.89,2.6-.81,4.33l3.34,63.78c.16,3.55,.72,6.36,1.67,8.42,.95,2.07,2.62,3.84,5.02,5.33v.99h-24.15v-.99c1.9-1.16,3.28-2.83,4.15-5.02,.87-2.19,1.22-4.64,1.05-7.37l-3.59-66.75-27.87,74.06h-1.73L29.53,25.89l-3.1,62.42c-.08,2.72,.56,5.41,1.92,8.05,1.36,2.64,3.2,4.54,5.51,5.7v.99H17.64v-.99c2.39-1.49,4.09-3.45,5.08-5.88,.99-2.43,1.57-5.06,1.73-7.86l3.34-63.78c.16-3.55-1.45-6.15-4.83-7.8v-.99h15.98l28.36,64.77L91.58,15.61l15.6,.12Z"/>
    <path class="cls-3" d="M107.13,15.69v.99c-1.4,1.16-2.42,2.31-3.03,3.47-.62,1.16-.89,2.6-.81,4.33l3.34,63.78c.16,3.55,.72,6.36,1.67,8.42,.95,2.07,2.62,3.84,5.02,5.33v.99h-24.15v-.99c1.9-1.16,3.28-2.83,4.15-5.02,.87-2.19,1.22-4.64,1.05-7.37l-3.59-66.75-27.87,74.06h-1.73L29.48,25.84l-3.1,62.42c-.08,2.72,.56,5.41,1.92,8.05,1.36,2.64,3.2,4.54,5.51,5.7v.99H17.59v-.99c2.39-1.49,4.09-3.45,5.08-5.88,.99-2.43,1.57-5.06,1.73-7.86l3.34-63.78c.16-3.55-1.45-6.15-4.83-7.8v-.99h15.98l28.36,64.77L91.53,15.56l15.6,.12Z"/>
    <path class="cls-3" d="M107.09,15.64v.99c-1.4,1.16-2.42,2.31-3.03,3.47-.62,1.16-.89,2.6-.81,4.33l3.34,63.78c.16,3.55,.72,6.36,1.67,8.42,.95,2.07,2.62,3.84,5.02,5.33v.99h-24.15v-.99c1.9-1.16,3.28-2.83,4.15-5.02,.87-2.19,1.22-4.64,1.05-7.37l-3.59-66.75-27.87,74.06h-1.73L29.43,25.79l-3.1,62.42c-.08,2.72,.56,5.41,1.92,8.05,1.36,2.64,3.2,4.54,5.51,5.7v.99H17.54v-.99c2.39-1.49,4.09-3.45,5.08-5.88,.99-2.43,1.57-5.06,1.73-7.86l3.34-63.78c.16-3.55-1.45-6.15-4.83-7.8v-.99h15.98l28.36,64.77L91.48,15.51l15.6,.12Z"/>
    <path class="cls-3" d="M107.04,15.59v.99c-1.4,1.16-2.42,2.31-3.03,3.47-.62,1.16-.89,2.6-.81,4.33l3.34,63.78c.16,3.55,.72,6.36,1.67,8.42,.95,2.07,2.62,3.84,5.02,5.33v.99h-24.15v-.99c1.9-1.16,3.28-2.83,4.15-5.02,.87-2.19,1.22-4.64,1.05-7.37l-3.59-66.75-27.87,74.06h-1.73L29.39,25.74l-3.1,62.42c-.08,2.72,.56,5.41,1.92,8.05,1.36,2.64,3.2,4.54,5.51,5.7v.99H17.5v-.99c2.39-1.49,4.09-3.45,5.08-5.88,.99-2.43,1.57-5.06,1.73-7.86l3.34-63.78c.16-3.55-1.45-6.15-4.83-7.8v-.99h15.98l28.36,64.77L91.43,15.47l15.6,.12Z"/>
    <path class="cls-3" d="M106.99,15.54v.99c-1.4,1.16-2.42,2.31-3.03,3.47-.62,1.16-.89,2.6-.81,4.33l3.34,63.78c.16,3.55,.72,6.36,1.67,8.42,.95,2.07,2.62,3.84,5.02,5.33v.99h-24.15v-.99c1.9-1.16,3.28-2.83,4.15-5.02,.87-2.19,1.22-4.64,1.05-7.37l-3.59-66.75-27.87,74.06h-1.73L29.34,25.7l-3.1,62.42c-.08,2.72,.56,5.41,1.92,8.05,1.36,2.64,3.2,4.54,5.51,5.7v.99H17.45v-.99c2.39-1.49,4.09-3.45,5.08-5.88,.99-2.43,1.57-5.06,1.73-7.86l3.34-63.78c.16-3.55-1.45-6.15-4.83-7.8v-.99h15.98l28.36,64.77L91.39,15.42l15.6,.12Z"/>
    <path class="cls-3" d="M106.94,15.49v.99c-1.4,1.16-2.42,2.31-3.03,3.47-.62,1.16-.89,2.6-.81,4.33l3.34,63.78c.16,3.55,.72,6.36,1.67,8.42,.95,2.07,2.62,3.84,5.02,5.33v.99h-24.15v-.99c1.9-1.16,3.28-2.83,4.15-5.02,.87-2.19,1.22-4.64,1.05-7.37l-3.59-66.75-27.87,74.06h-1.73L29.29,25.65l-3.1,62.42c-.08,2.72,.56,5.41,1.92,8.05,1.36,2.64,3.2,4.54,5.51,5.7v.99H17.4v-.99c2.39-1.49,4.09-3.45,5.08-5.88,.99-2.43,1.57-5.06,1.73-7.86l3.34-63.78c.16-3.55-1.45-6.15-4.83-7.8v-.99h15.98l28.36,64.77L91.34,15.37l15.6,.12Z"/>
    <path class="cls-3" d="M106.9,15.45v.99c-1.4,1.16-2.42,2.31-3.03,3.47-.62,1.16-.89,2.6-.81,4.33l3.34,63.78c.16,3.55,.72,6.36,1.67,8.42,.95,2.07,2.62,3.84,5.02,5.33v.99h-24.15v-.99c1.9-1.16,3.28-2.83,4.15-5.02,.87-2.19,1.22-4.64,1.05-7.37l-3.59-66.75-27.87,74.06h-1.73L29.24,25.6l-3.1,62.42c-.08,2.72,.56,5.41,1.92,8.05,1.36,2.64,3.2,4.54,5.51,5.7v.99H17.35v-.99c2.39-1.49,4.09-3.45,5.08-5.88,.99-2.43,1.57-5.06,1.73-7.86l3.34-63.78c.16-3.55-1.45-6.15-4.83-7.8v-.99h15.98l28.36,64.77L91.29,15.32l15.6,.12Z"/>
    <path class="cls-3" d="M106.85,15.4v.99c-1.4,1.16-2.42,2.31-3.03,3.47-.62,1.16-.89,2.6-.81,4.33l3.34,63.78c.16,3.55,.72,6.36,1.67,8.42,.95,2.07,2.62,3.84,5.02,5.33v.99h-24.15v-.99c1.9-1.16,3.28-2.83,4.15-5.02,.87-2.19,1.22-4.64,1.05-7.37l-3.59-66.75-27.87,74.06h-1.73L29.19,25.55l-3.1,62.42c-.08,2.72,.56,5.41,1.92,8.05,1.36,2.64,3.2,4.54,5.51,5.7v.99H17.31v-.99c2.39-1.49,4.09-3.45,5.08-5.88,.99-2.43,1.57-5.06,1.73-7.86l3.34-63.78c.16-3.55-1.45-6.15-4.83-7.8v-.99h15.98l28.36,64.77L91.24,15.27l15.6,.12Z"/>
    <path class="cls-3" d="M106.8,15.35v.99c-1.4,1.16-2.42,2.31-3.03,3.47-.62,1.16-.89,2.6-.81,4.33l3.34,63.78c.16,3.55,.72,6.36,1.67,8.42,.95,2.07,2.62,3.84,5.02,5.33v.99h-24.15v-.99c1.9-1.16,3.28-2.83,4.15-5.02,.87-2.19,1.22-4.64,1.05-7.37l-3.59-66.75-27.87,74.06h-1.73L29.15,25.51l-3.1,62.42c-.08,2.72,.56,5.41,1.92,8.05,1.36,2.64,3.2,4.54,5.51,5.7v.99H17.26v-.99c2.39-1.49,4.09-3.45,5.08-5.88,.99-2.43,1.57-5.06,1.73-7.86l3.34-63.78c.16-3.55-1.45-6.15-4.83-7.8v-.99h15.98l28.36,64.77L91.19,15.23l15.6,.12Z"/>
    <path class="cls-3" d="M106.75,15.3v.99c-1.4,1.16-2.42,2.31-3.03,3.47-.62,1.16-.89,2.6-.81,4.33l3.34,63.78c.16,3.55,.72,6.36,1.67,8.42,.95,2.07,2.62,3.84,5.02,5.33v.99h-24.15v-.99c1.9-1.16,3.28-2.83,4.15-5.02,.87-2.19,1.22-4.64,1.05-7.37l-3.59-66.75-27.87,74.06h-1.73L29.1,25.46l-3.1,62.42c-.08,2.72,.56,5.41,1.92,8.05,1.36,2.64,3.2,4.54,5.51,5.7v.99H17.21v-.99c2.39-1.49,4.09-3.45,5.08-5.88,.99-2.43,1.57-5.06,1.73-7.86l3.34-63.78c.16-3.55-1.45-6.15-4.83-7.8v-.99h15.98l28.36,64.77L91.15,15.18l15.6,.12Z"/>
    <path class="cls-3" d="M106.7,15.26v.99c-1.4,1.16-2.42,2.31-3.03,3.47-.62,1.16-.89,2.6-.81,4.33l3.34,63.78c.16,3.55,.72,6.36,1.67,8.42,.95,2.07,2.62,3.84,5.02,5.33v.99h-24.15v-.99c1.9-1.16,3.28-2.83,4.15-5.02,.87-2.19,1.22-4.64,1.05-7.37l-3.59-66.75-27.87,74.06h-1.73L29.05,25.41l-3.1,62.42c-.08,2.72,.56,5.41,1.92,8.05,1.36,2.64,3.2,4.54,5.51,5.7v.99H17.16v-.99c2.39-1.49,4.09-3.45,5.08-5.88,.99-2.43,1.57-5.06,1.73-7.86l3.34-63.78c.16-3.55-1.45-6.15-4.83-7.8v-.99h15.98l28.36,64.77L91.1,15.13l15.6,.12Z"/>
    <path class="cls-3" d="M106.66,15.21v.99c-1.4,1.16-2.42,2.31-3.03,3.47-.62,1.16-.89,2.6-.81,4.33l3.34,63.78c.16,3.55,.72,6.36,1.67,8.42,.95,2.07,2.62,3.84,5.02,5.33v.99h-24.15v-.99c1.9-1.16,3.28-2.83,4.15-5.02,.87-2.19,1.22-4.64,1.05-7.37l-3.59-66.75-27.87,74.06h-1.73L29,25.36l-3.1,62.42c-.08,2.72,.56,5.41,1.92,8.05,1.36,2.64,3.2,4.54,5.51,5.7v.99H17.11v-.99c2.39-1.49,4.09-3.45,5.08-5.88,.99-2.43,1.57-5.06,1.73-7.86l3.34-63.78c.16-3.55-1.45-6.15-4.83-7.8v-.99h15.98l28.36,64.77L91.05,15.08l15.6,.12Z"/>
    <path class="cls-3" d="M106.61,15.16v.99c-1.4,1.16-2.42,2.31-3.03,3.47-.62,1.16-.89,2.6-.81,4.33l3.34,63.78c.16,3.55,.72,6.36,1.67,8.42,.95,2.07,2.62,3.84,5.02,5.33v.99h-24.15v-.99c1.9-1.16,3.28-2.83,4.15-5.02,.87-2.19,1.22-4.64,1.05-7.37l-3.59-66.75-27.87,74.06h-1.73L28.96,25.31l-3.1,62.42c-.08,2.72,.56,5.41,1.92,8.05,1.36,2.64,3.2,4.54,5.51,5.7v.99H17.07v-.99c2.39-1.49,4.09-3.45,5.08-5.88,.99-2.43,1.57-5.06,1.73-7.86l3.34-63.78c.16-3.55-1.45-6.15-4.83-7.8v-.99h15.98l28.36,64.77L91,15.04l15.6,.12Z"/>
    <path class="cls-3" d="M106.56,15.11v.99c-1.4,1.16-2.42,2.31-3.03,3.47-.62,1.16-.89,2.6-.81,4.33l3.34,63.78c.16,3.55,.72,6.36,1.67,8.42,.95,2.07,2.62,3.84,5.02,5.33v.99h-24.15v-.99c1.9-1.16,3.28-2.83,4.15-5.02,.87-2.19,1.22-4.64,1.05-7.37l-3.59-66.75-27.87,74.06h-1.73L28.91,25.27l-3.1,62.42c-.08,2.72,.56,5.41,1.92,8.05,1.36,2.64,3.2,4.54,5.51,5.7v.99H17.02v-.99c2.39-1.49,4.09-3.45,5.08-5.88,.99-2.43,1.57-5.06,1.73-7.86l3.34-63.78c.16-3.55-1.45-6.15-4.83-7.8v-.99h15.98l28.36,64.77L90.96,14.99l15.6,.12Z"/>
    <path class="cls-3" d="M106.51,15.06v.99c-1.4,1.16-2.42,2.31-3.03,3.47-.62,1.16-.89,2.6-.81,4.33l3.34,63.78c.16,3.55,.72,6.36,1.67,8.42,.95,2.07,2.62,3.84,5.02,5.33v.99h-24.15v-.99c1.9-1.16,3.28-2.83,4.15-5.02,.87-2.19,1.22-4.64,1.05-7.37l-3.59-66.75-27.87,74.06h-1.73L28.86,25.22l-3.1,62.42c-.08,2.72,.56,5.41,1.92,8.05,1.36,2.64,3.2,4.54,5.51,5.7v.99H16.97v-.99c2.39-1.49,4.09-3.45,5.08-5.88,.99-2.43,1.57-5.06,1.73-7.86l3.34-63.78c.16-3.55-1.45-6.15-4.83-7.8v-.99h15.98l28.36,64.77L90.91,14.94l15.6,.12Z"/>
    <path class="cls-3" d="M106.47,15.02v.99c-1.4,1.16-2.42,2.31-3.03,3.47-.62,1.16-.89,2.6-.81,4.33l3.34,63.78c.16,3.55,.72,6.36,1.67,8.42,.95,2.07,2.62,3.84,5.02,5.33v.99h-24.15v-.99c1.9-1.16,3.28-2.83,4.15-5.02,.87-2.19,1.22-4.64,1.05-7.37l-3.59-66.75-27.87,74.06h-1.73L28.81,25.17l-3.1,62.42c-.08,2.72,.56,5.41,1.92,8.05,1.36,2.64,3.2,4.54,5.51,5.7v.99H16.92v-.99c2.39-1.49,4.09-3.45,5.08-5.88,.99-2.43,1.57-5.06,1.73-7.86l3.34-63.78c.16-3.55-1.45-6.15-4.83-7.8v-.99h15.98l28.36,64.77L90.86,14.89l15.6,.12Z"/>
    <path class="cls-3" d="M106.42,14.97v.99c-1.4,1.16-2.42,2.31-3.03,3.47-.62,1.16-.89,2.6-.81,4.33l3.34,63.78c.16,3.55,.72,6.36,1.67,8.42,.95,2.07,2.62,3.84,5.02,5.33v.99h-24.15v-.99c1.9-1.16,3.28-2.83,4.15-5.02,.87-2.19,1.22-4.64,1.05-7.37l-3.59-66.75-27.87,74.06h-1.73L28.76,25.12l-3.1,62.42c-.08,2.72,.56,5.41,1.92,8.05,1.36,2.64,3.2,4.54,5.51,5.7v.99H16.88v-.99c2.39-1.49,4.09-3.45,5.08-5.88,.99-2.43,1.57-5.06,1.73-7.86l3.34-63.78c.16-3.55-1.45-6.15-4.83-7.8v-.99h15.98l28.36,64.77L90.81,14.84l15.6,.12Z"/>
    <path class="cls-3" d="M106.37,14.92v.99c-1.4,1.16-2.42,2.31-3.03,3.47-.62,1.16-.89,2.6-.81,4.33l3.34,63.78c.16,3.55,.72,6.36,1.67,8.42,.95,2.07,2.62,3.84,5.02,5.33v.99h-24.15v-.99c1.9-1.16,3.28-2.83,4.15-5.02,.87-2.19,1.22-4.64,1.05-7.37l-3.59-66.75-27.87,74.06h-1.73L28.72,25.08l-3.1,62.42c-.08,2.72,.56,5.41,1.92,8.05,1.36,2.64,3.2,4.54,5.51,5.7v.99H16.83v-.99c2.39-1.49,4.09-3.45,5.08-5.88,.99-2.43,1.57-5.06,1.73-7.86l3.34-63.78c.16-3.55-1.45-6.15-4.83-7.8v-.99h15.98l28.36,64.77L90.76,14.8l15.6,.12Z"/>
    <path class="cls-3" d="M106.32,14.87v.99c-1.4,1.16-2.42,2.31-3.03,3.47-.62,1.16-.89,2.6-.81,4.33l3.34,63.78c.16,3.55,.72,6.36,1.67,8.42,.95,2.07,2.62,3.84,5.02,5.33v.99h-24.15v-.99c1.9-1.16,3.28-2.83,4.15-5.02,.87-2.19,1.22-4.64,1.05-7.37l-3.59-66.75-27.87,74.06h-1.73L28.67,25.03l-3.1,62.42c-.08,2.72,.56,5.41,1.92,8.05,1.36,2.64,3.2,4.54,5.51,5.7v.99H16.78v-.99c2.39-1.49,4.09-3.45,5.08-5.88,.99-2.43,1.57-5.06,1.73-7.86l3.34-63.78c.16-3.55-1.45-6.15-4.83-7.8v-.99h15.98l28.36,64.77L90.72,14.75l15.6,.12Z"/>
    <path class="cls-3" d="M106.27,14.83v.99c-1.4,1.16-2.42,2.31-3.03,3.47-.62,1.16-.89,2.6-.81,4.33l3.34,63.78c.16,3.55,.72,6.36,1.67,8.42,.95,2.07,2.62,3.84,5.02,5.33v.99h-24.15v-.99c1.9-1.16,3.28-2.83,4.15-5.02,.87-2.19,1.22-4.64,1.05-7.37l-3.59-66.75-27.87,74.06h-1.73L28.62,24.98l-3.1,62.42c-.08,2.72,.56,5.41,1.92,8.05,1.36,2.64,3.2,4.54,5.51,5.7v.99H16.73v-.99c2.39-1.49,4.09-3.45,5.08-5.88,.99-2.43,1.57-5.06,1.73-7.86l3.34-63.78c.16-3.55-1.45-6.15-4.83-7.8v-.99h15.98l28.36,64.77L90.67,14.7l15.6,.12Z"/>
    <path class="cls-3" d="M106.23,14.78v.99c-1.4,1.16-2.42,2.31-3.03,3.47-.62,1.16-.89,2.6-.81,4.33l3.34,63.78c.16,3.55,.72,6.36,1.67,8.42,.95,2.07,2.62,3.84,5.02,5.33v.99h-24.15v-.99c1.9-1.16,3.28-2.83,4.15-5.02,.87-2.19,1.22-4.64,1.05-7.37l-3.59-66.75-27.87,74.06h-1.73L28.57,24.93l-3.1,62.42c-.08,2.72,.56,5.41,1.92,8.05,1.36,2.64,3.2,4.54,5.51,5.7v.99H16.68v-.99c2.39-1.49,4.09-3.45,5.08-5.88,.99-2.43,1.57-5.06,1.73-7.86l3.34-63.78c.16-3.55-1.45-6.15-4.83-7.8v-.99h15.98l28.36,64.77L90.62,14.65l15.6,.12Z"/>
    <path class="cls-3" d="M106.18,14.73v.99c-1.4,1.16-2.42,2.31-3.03,3.47-.62,1.16-.89,2.6-.81,4.33l3.34,63.78c.16,3.55,.72,6.36,1.67,8.42,.95,2.07,2.62,3.84,5.02,5.33v.99h-24.15v-.99c1.9-1.16,3.28-2.83,4.15-5.02,.87-2.19,1.22-4.64,1.05-7.37l-3.59-66.75-27.87,74.06h-1.73L28.53,24.88l-3.1,62.42c-.08,2.72,.56,5.41,1.92,8.05,1.36,2.64,3.2,4.54,5.51,5.7v.99H16.64v-.99c2.39-1.49,4.09-3.45,5.08-5.88,.99-2.43,1.57-5.06,1.73-7.86l3.34-63.78c.16-3.55-1.45-6.15-4.83-7.8v-.99h15.98l28.36,64.77L90.57,14.61l15.6,.12Z"/>
    <path class="cls-3" d="M106.13,14.68v.99c-1.4,1.16-2.42,2.31-3.03,3.47-.62,1.16-.89,2.6-.81,4.33l3.34,63.78c.16,3.55,.72,6.36,1.67,8.42,.95,2.07,2.62,3.84,5.02,5.33v.99h-24.15v-.99c1.9-1.16,3.28-2.83,4.15-5.02,.87-2.19,1.22-4.64,1.05-7.37l-3.59-66.75-27.87,74.06h-1.73L28.48,24.84l-3.1,62.42c-.08,2.72,.56,5.41,1.92,8.05,1.36,2.64,3.2,4.54,5.51,5.7v.99H16.59v-.99c2.39-1.49,4.09-3.45,5.08-5.88,.99-2.43,1.57-5.06,1.73-7.86l3.34-63.78c.16-3.55-1.45-6.15-4.83-7.8v-.99h15.98l28.36,64.77L90.53,14.56l15.6,.12Z"/>
    <path class="cls-3" d="M106.08,14.63v.99c-1.4,1.16-2.42,2.31-3.03,3.47-.62,1.16-.89,2.6-.81,4.33l3.34,63.78c.16,3.55,.72,6.36,1.67,8.42,.95,2.07,2.62,3.84,5.02,5.33v.99h-24.15v-.99c1.9-1.16,3.28-2.83,4.15-5.02,.87-2.19,1.22-4.64,1.05-7.37l-3.59-66.75-27.87,74.06h-1.73L28.43,24.79l-3.1,62.42c-.08,2.72,.56,5.41,1.92,8.05,1.36,2.64,3.2,4.54,5.51,5.7v.99H16.54v-.99c2.39-1.49,4.09-3.45,5.08-5.88,.99-2.43,1.57-5.06,1.73-7.86l3.34-63.78c.16-3.55-1.45-6.15-4.83-7.8v-.99h15.98l28.36,64.77L90.48,14.51l15.6,.12Z"/>
    <path class="cls-3" d="M106.04,14.59v.99c-1.4,1.16-2.42,2.31-3.03,3.47-.62,1.16-.89,2.6-.81,4.33l3.34,63.78c.16,3.55,.72,6.36,1.67,8.42,.95,2.07,2.62,3.84,5.02,5.33v.99h-24.15v-.99c1.9-1.16,3.28-2.83,4.15-5.02,.87-2.19,1.22-4.64,1.05-7.37l-3.59-66.75-27.87,74.06h-1.73L28.38,24.74l-3.1,62.42c-.08,2.72,.56,5.41,1.92,8.05,1.36,2.64,3.2,4.54,5.51,5.7v.99H16.49v-.99c2.39-1.49,4.09-3.45,5.08-5.88,.99-2.43,1.57-5.06,1.73-7.86l3.34-63.78c.16-3.55-1.45-6.15-4.83-7.8v-.99h15.98l28.36,64.77L90.43,14.46l15.6,.12Z"/>
    <path class="cls-3" d="M105.99,14.54v.99c-1.4,1.16-2.42,2.31-3.03,3.47-.62,1.16-.89,2.6-.81,4.33l3.34,63.78c.16,3.55,.72,6.36,1.67,8.42,.95,2.07,2.62,3.84,5.02,5.33v.99h-24.15v-.99c1.9-1.16,3.28-2.83,4.15-5.02,.87-2.19,1.22-4.64,1.05-7.37l-3.59-66.75-27.87,74.06h-1.73L28.33,24.69l-3.1,62.42c-.08,2.72,.56,5.41,1.92,8.05,1.36,2.64,3.2,4.54,5.51,5.7v.99H16.45v-.99c2.39-1.49,4.09-3.45,5.08-5.88,.99-2.43,1.57-5.06,1.73-7.86l3.34-63.78c.16-3.55-1.45-6.15-4.83-7.8v-.99h15.98l28.36,64.77L90.38,14.41l15.6,.12Z"/>
    <path class="cls-3" d="M105.94,14.49v.99c-1.4,1.16-2.42,2.31-3.03,3.47-.62,1.16-.89,2.6-.81,4.33l3.34,63.78c.16,3.55,.72,6.36,1.67,8.42,.95,2.07,2.62,3.84,5.02,5.33v.99h-24.15v-.99c1.9-1.16,3.28-2.83,4.15-5.02,.87-2.19,1.22-4.64,1.05-7.37l-3.59-66.75-27.87,74.06h-1.73L28.29,24.65l-3.1,62.42c-.08,2.72,.56,5.41,1.92,8.05,1.36,2.64,3.2,4.54,5.51,5.7v.99H16.4v-.99c2.39-1.49,4.09-3.45,5.08-5.88,.99-2.43,1.57-5.06,1.73-7.86l3.34-63.78c.16-3.55-1.45-6.15-4.83-7.8v-.99h15.98l28.36,64.77L90.33,14.37l15.6,.12Z"/>
    <path class="cls-3" d="M105.89,14.44v.99c-1.4,1.16-2.42,2.31-3.03,3.47-.62,1.16-.89,2.6-.81,4.33l3.34,63.78c.16,3.55,.72,6.36,1.67,8.42,.95,2.07,2.62,3.84,5.02,5.33v.99h-24.15v-.99c1.9-1.16,3.28-2.83,4.15-5.02,.87-2.19,1.22-4.64,1.05-7.37l-3.59-66.75-27.87,74.06h-1.73L28.24,24.6l-3.1,62.42c-.08,2.72,.56,5.41,1.92,8.05,1.36,2.64,3.2,4.54,5.51,5.7v.99H16.35v-.99c2.39-1.49,4.09-3.45,5.08-5.88,.99-2.43,1.57-5.06,1.73-7.86l3.34-63.78c.16-3.55-1.45-6.15-4.83-7.8v-.99h15.98l28.36,64.77L90.29,14.32l15.6,.12Z"/>
    <path class="cls-3" d="M105.84,14.4v.99c-1.4,1.16-2.42,2.31-3.03,3.47-.62,1.16-.89,2.6-.81,4.33l3.34,63.78c.16,3.55,.72,6.36,1.67,8.42,.95,2.07,2.62,3.84,5.02,5.33v.99h-24.15v-.99c1.9-1.16,3.28-2.83,4.15-5.02,.87-2.19,1.22-4.64,1.05-7.37l-3.59-66.75-27.87,74.06h-1.73L28.19,24.55l-3.1,62.42c-.08,2.72,.56,5.41,1.92,8.05,1.36,2.64,3.2,4.54,5.51,5.7v.99H16.3v-.99c2.39-1.49,4.09-3.45,5.08-5.88,.99-2.43,1.57-5.06,1.73-7.86l3.34-63.78c.16-3.55-1.45-6.15-4.83-7.8v-.99h15.98l28.36,64.77L90.24,14.27l15.6,.12Z"/>
    <path class="cls-3" d="M105.8,14.35v.99c-1.4,1.16-2.42,2.31-3.03,3.47-.62,1.16-.89,2.6-.81,4.33l3.34,63.78c.16,3.55,.72,6.36,1.67,8.42,.95,2.07,2.62,3.84,5.02,5.33v.99h-24.15v-.99c1.9-1.16,3.28-2.83,4.15-5.02,.87-2.19,1.22-4.64,1.05-7.37l-3.59-66.75-27.87,74.06h-1.73L28.14,24.5l-3.1,62.42c-.08,2.72,.56,5.41,1.92,8.05,1.36,2.64,3.2,4.54,5.51,5.7v.99H16.25v-.99c2.39-1.49,4.09-3.45,5.08-5.88,.99-2.43,1.57-5.06,1.73-7.86l3.34-63.78c.16-3.55-1.45-6.15-4.83-7.8v-.99h15.98l28.36,64.77L90.19,14.22l15.6,.12Z"/>
    <path class="cls-3" d="M105.75,14.3v.99c-1.4,1.16-2.42,2.31-3.03,3.47-.62,1.16-.89,2.6-.81,4.33l3.34,63.78c.16,3.55,.72,6.36,1.67,8.42,.95,2.07,2.62,3.84,5.02,5.33v.99h-24.15v-.99c1.9-1.16,3.28-2.83,4.15-5.02,.87-2.19,1.22-4.64,1.05-7.37l-3.59-66.75-27.87,74.06h-1.73L28.1,24.45l-3.1,62.42c-.08,2.72,.56,5.41,1.92,8.05,1.36,2.64,3.2,4.54,5.51,5.7v.99H16.21v-.99c2.39-1.49,4.09-3.45,5.08-5.88,.99-2.43,1.57-5.06,1.73-7.86l3.34-63.78c.16-3.55-1.45-6.15-4.83-7.8v-.99h15.98l28.36,64.77L90.14,14.18l15.6,.12Z"/>
    <path class="cls-3" d="M105.7,14.25v.99c-1.4,1.16-2.42,2.31-3.03,3.47-.62,1.16-.89,2.6-.81,4.33l3.34,63.78c.16,3.55,.72,6.36,1.67,8.42,.95,2.07,2.62,3.84,5.02,5.33v.99h-24.15v-.99c1.9-1.16,3.28-2.83,4.15-5.02,.87-2.19,1.22-4.64,1.05-7.37l-3.59-66.75-27.87,74.06h-1.73L28.05,24.41l-3.1,62.42c-.08,2.72,.56,5.41,1.92,8.05,1.36,2.64,3.2,4.54,5.51,5.7v.99H16.16v-.99c2.39-1.49,4.09-3.45,5.08-5.88,.99-2.43,1.57-5.06,1.73-7.86l3.34-63.78c.16-3.55-1.45-6.15-4.83-7.8v-.99h15.98l28.36,64.77L90.1,14.13l15.6,.12Z"/>
    <path class="cls-3" d="M105.65,14.2v.99c-1.4,1.16-2.42,2.31-3.03,3.47-.62,1.16-.89,2.6-.81,4.33l3.34,63.78c.16,3.55,.72,6.36,1.67,8.42,.95,2.07,2.62,3.84,5.02,5.33v.99h-24.15v-.99c1.9-1.16,3.28-2.83,4.15-5.02,.87-2.19,1.22-4.64,1.05-7.37l-3.59-66.75-27.87,74.06h-1.73L28,24.36l-3.1,62.42c-.08,2.72,.56,5.41,1.92,8.05,1.36,2.64,3.2,4.54,5.51,5.7v.99H16.11v-.99c2.39-1.49,4.09-3.45,5.08-5.88,.99-2.43,1.57-5.06,1.73-7.86l3.34-63.78c.16-3.55-1.45-6.15-4.83-7.8v-.99h15.98l28.36,64.77L90.05,14.08l15.6,.12Z"/>
    <path class="cls-3" d="M105.61,14.16v.99c-1.4,1.16-2.42,2.31-3.03,3.47-.62,1.16-.89,2.6-.81,4.33l3.34,63.78c.16,3.55,.72,6.36,1.67,8.42,.95,2.07,2.62,3.84,5.02,5.33v.99h-24.15v-.99c1.9-1.16,3.28-2.83,4.15-5.02,.87-2.19,1.22-4.64,1.05-7.37l-3.59-66.75-27.87,74.06h-1.73L27.95,24.31l-3.1,62.42c-.08,2.72,.56,5.41,1.92,8.05,1.36,2.64,3.2,4.54,5.51,5.7v.99H16.06v-.99c2.39-1.49,4.09-3.45,5.08-5.88,.99-2.43,1.57-5.06,1.73-7.86l3.34-63.78c.16-3.55-1.45-6.15-4.83-7.8v-.99h15.98l28.36,64.77L90,14.03l15.6,.12Z"/>
    <path class="cls-3" d="M105.56,14.11v.99c-1.4,1.16-2.42,2.31-3.03,3.47-.62,1.16-.89,2.6-.81,4.33l3.34,63.78c.16,3.55,.72,6.36,1.67,8.42,.95,2.07,2.62,3.84,5.02,5.33v.99h-24.15v-.99c1.9-1.16,3.28-2.83,4.15-5.02,.87-2.19,1.22-4.64,1.05-7.37l-3.59-66.75-27.87,74.06h-1.73L27.9,24.26l-3.1,62.42c-.08,2.72,.56,5.41,1.92,8.05,1.36,2.64,3.2,4.54,5.51,5.7v.99H16.02v-.99c2.39-1.49,4.09-3.45,5.08-5.88,.99-2.43,1.57-5.06,1.73-7.86l3.34-63.78c.16-3.55-1.45-6.15-4.83-7.8v-.99h15.98l28.36,64.77L89.95,13.98l15.6,.12Z"/>
    <path class="cls-3" d="M105.51,14.06v.99c-1.4,1.16-2.42,2.31-3.03,3.47-.62,1.16-.89,2.6-.81,4.33l3.34,63.78c.16,3.55,.72,6.36,1.67,8.42,.95,2.07,2.62,3.84,5.02,5.33v.99h-24.15v-.99c1.9-1.16,3.28-2.83,4.15-5.02,.87-2.19,1.22-4.64,1.05-7.37l-3.59-66.75-27.87,74.06h-1.73L27.86,24.22l-3.1,62.42c-.08,2.72,.56,5.41,1.92,8.05,1.36,2.64,3.2,4.54,5.51,5.7v.99H15.97v-.99c2.39-1.49,4.09-3.45,5.08-5.88,.99-2.43,1.57-5.06,1.73-7.86l3.34-63.78c.16-3.55-1.45-6.15-4.83-7.8v-.99h15.98l28.36,64.77L89.9,13.94l15.6,.12Z"/>
    <path class="cls-3" d="M105.46,14.01v.99c-1.4,1.16-2.42,2.31-3.03,3.47-.62,1.16-.89,2.6-.81,4.33l3.34,63.78c.16,3.55,.72,6.36,1.67,8.42,.95,2.07,2.62,3.84,5.02,5.33v.99h-24.15v-.99c1.9-1.16,3.28-2.83,4.15-5.02,.87-2.19,1.22-4.64,1.05-7.37l-3.59-66.75-27.87,74.06h-1.73L27.81,24.17l-3.1,62.42c-.08,2.72,.56,5.41,1.92,8.05,1.36,2.64,3.2,4.54,5.51,5.7v.99H15.92v-.99c2.39-1.49,4.09-3.45,5.08-5.88,.99-2.43,1.57-5.06,1.73-7.86l3.34-63.78c.16-3.55-1.45-6.15-4.83-7.8v-.99h15.98l28.36,64.77L89.86,13.89l15.6,.12Z"/>
    <path class="cls-3" d="M105.41,13.97v.99c-1.4,1.16-2.42,2.31-3.03,3.47-.62,1.16-.89,2.6-.81,4.33l3.34,63.78c.16,3.55,.72,6.36,1.67,8.42,.95,2.07,2.62,3.84,5.02,5.33v.99h-24.15v-.99c1.9-1.16,3.28-2.83,4.15-5.02,.87-2.19,1.22-4.64,1.05-7.37l-3.59-66.75-27.87,74.06h-1.73L27.76,24.12l-3.1,62.42c-.08,2.72,.56,5.41,1.92,8.05,1.36,2.64,3.2,4.54,5.51,5.7v.99H15.87v-.99c2.39-1.49,4.09-3.45,5.08-5.88,.99-2.43,1.57-5.06,1.73-7.86l3.34-63.78c.16-3.55-1.45-6.15-4.83-7.8v-.99h15.98l28.36,64.77L89.81,13.84l15.6,.12Z"/>
    <path class="cls-3" d="M105.37,13.92v.99c-1.4,1.16-2.42,2.31-3.03,3.47-.62,1.16-.89,2.6-.81,4.33l3.34,63.78c.16,3.55,.72,6.36,1.67,8.42,.95,2.07,2.62,3.84,5.02,5.33v.99h-24.15v-.99c1.9-1.16,3.28-2.83,4.15-5.02,.87-2.19,1.22-4.64,1.05-7.37l-3.59-66.75-27.87,74.06h-1.73L27.71,24.07l-3.1,62.42c-.08,2.72,.56,5.41,1.92,8.05,1.36,2.64,3.2,4.54,5.51,5.7v.99H15.82v-.99c2.39-1.49,4.09-3.45,5.08-5.88,.99-2.43,1.57-5.06,1.73-7.86l3.34-63.78c.16-3.55-1.45-6.15-4.83-7.8v-.99h15.98l28.36,64.77L89.76,13.79l15.6,.12Z"/>
    <path class="cls-3" d="M105.32,13.87v.99c-1.4,1.16-2.42,2.31-3.03,3.47-.62,1.16-.89,2.6-.81,4.33l3.34,63.78c.16,3.55,.72,6.36,1.67,8.42,.95,2.07,2.62,3.84,5.02,5.33v.99h-24.15v-.99c1.9-1.16,3.28-2.83,4.15-5.02,.87-2.19,1.22-4.64,1.05-7.37l-3.59-66.75-27.87,74.06h-1.73L27.67,24.02l-3.1,62.42c-.08,2.72,.56,5.41,1.92,8.05,1.36,2.64,3.2,4.54,5.51,5.7v.99H15.78v-.99c2.39-1.49,4.09-3.45,5.08-5.88,.99-2.43,1.57-5.06,1.73-7.86l3.34-63.78c.16-3.55-1.45-6.15-4.83-7.8v-.99h15.98l28.36,64.77L89.71,13.75l15.6,.12Z"/>
    <path class="cls-3" d="M105.27,13.82v.99c-1.4,1.16-2.42,2.31-3.03,3.47-.62,1.16-.89,2.6-.81,4.33l3.34,63.78c.16,3.55,.72,6.36,1.67,8.42,.95,2.07,2.62,3.84,5.02,5.33v.99h-24.15v-.99c1.9-1.16,3.28-2.83,4.15-5.02,.87-2.19,1.22-4.64,1.05-7.37l-3.59-66.75-27.87,74.06h-1.73L27.62,23.98l-3.1,62.42c-.08,2.72,.56,5.41,1.92,8.05,1.36,2.64,3.2,4.54,5.51,5.7v.99H15.73v-.99c2.39-1.49,4.09-3.45,5.08-5.88,.99-2.43,1.57-5.06,1.73-7.86l3.34-63.78c.16-3.55-1.45-6.15-4.83-7.8v-.99h15.98l28.36,64.77L89.67,13.7l15.6,.12Z"/>
    <path class="cls-3" d="M105.22,13.77v.99c-1.4,1.16-2.42,2.31-3.03,3.47-.62,1.16-.89,2.6-.81,4.33l3.34,63.78c.16,3.55,.72,6.36,1.67,8.42,.95,2.07,2.62,3.84,5.02,5.33v.99h-24.15v-.99c1.9-1.16,3.28-2.83,4.15-5.02,.87-2.19,1.22-4.64,1.05-7.37l-3.59-66.75-27.87,74.06h-1.73L27.57,23.93l-3.1,62.42c-.08,2.72,.56,5.41,1.92,8.05,1.36,2.64,3.2,4.54,5.51,5.7v.99H15.68v-.99c2.39-1.49,4.09-3.45,5.08-5.88,.99-2.43,1.57-5.06,1.73-7.86l3.34-63.78c.16-3.55-1.45-6.15-4.83-7.8v-.99h15.98l28.36,64.77L89.62,13.65l15.6,.12Z"/>
    <path class="cls-3" d="M105.18,13.73v.99c-1.4,1.16-2.42,2.31-3.03,3.47-.62,1.16-.89,2.6-.81,4.33l3.34,63.78c.16,3.55,.72,6.36,1.67,8.42,.95,2.07,2.62,3.84,5.02,5.33v.99h-24.15v-.99c1.9-1.16,3.28-2.83,4.15-5.02,.87-2.19,1.22-4.64,1.05-7.37l-3.59-66.75-27.87,74.06h-1.73L27.52,23.88l-3.1,62.42c-.08,2.72,.56,5.41,1.92,8.05,1.36,2.64,3.2,4.54,5.51,5.7v.99H15.63v-.99c2.39-1.49,4.09-3.45,5.08-5.88,.99-2.43,1.57-5.06,1.73-7.86l3.34-63.78c.16-3.55-1.45-6.15-4.83-7.8v-.99h15.98l28.36,64.77L89.57,13.6l15.6,.12Z"/>
    <path class="cls-3" d="M105.13,13.68v.99c-1.4,1.16-2.42,2.31-3.03,3.47-.62,1.16-.89,2.6-.81,4.33l3.34,63.78c.16,3.55,.72,6.36,1.67,8.42,.95,2.07,2.62,3.84,5.02,5.33v.99h-24.15v-.99c1.9-1.16,3.28-2.83,4.15-5.02,.87-2.19,1.22-4.64,1.05-7.37l-3.59-66.75-27.87,74.06h-1.73L27.47,23.83l-3.1,62.42c-.08,2.72,.56,5.41,1.92,8.05,1.36,2.64,3.2,4.54,5.51,5.7v.99H15.59v-.99c2.39-1.49,4.09-3.45,5.08-5.88,.99-2.43,1.57-5.06,1.73-7.86l3.34-63.78c.16-3.55-1.45-6.15-4.83-7.8v-.99h15.98l28.36,64.77L89.52,13.55l15.6,.12Z"/>
    <path class="cls-3" d="M105.08,13.63v.99c-1.4,1.16-2.42,2.31-3.03,3.47-.62,1.16-.89,2.6-.81,4.33l3.34,63.78c.16,3.55,.72,6.36,1.67,8.42,.95,2.07,2.62,3.84,5.02,5.33v.99h-24.15v-.99c1.9-1.16,3.28-2.83,4.15-5.02,.87-2.19,1.22-4.64,1.05-7.37l-3.59-66.75-27.87,74.06h-1.73L27.43,23.79l-3.1,62.42c-.08,2.72,.56,5.41,1.92,8.05,1.36,2.64,3.2,4.54,5.51,5.7v.99H15.54v-.99c2.39-1.49,4.09-3.45,5.08-5.88,.99-2.43,1.57-5.06,1.73-7.86l3.34-63.78c.16-3.55-1.45-6.15-4.83-7.8v-.99h15.98l28.36,64.77L89.47,13.51l15.6,.12Z"/>
    <path class="cls-3" d="M105.03,13.58v.99c-1.4,1.16-2.42,2.31-3.03,3.47-.62,1.16-.89,2.6-.81,4.33l3.34,63.78c.16,3.55,.72,6.36,1.67,8.42,.95,2.07,2.62,3.84,5.02,5.33v.99h-24.15v-.99c1.9-1.16,3.28-2.83,4.15-5.02,.87-2.19,1.22-4.64,1.05-7.37l-3.59-66.75-27.87,74.06h-1.73L27.38,23.74l-3.1,62.42c-.08,2.72,.56,5.41,1.92,8.05,1.36,2.64,3.2,4.54,5.51,5.7v.99H15.49v-.99c2.39-1.49,4.09-3.45,5.08-5.88,.99-2.43,1.57-5.06,1.73-7.86l3.34-63.78c.16-3.55-1.45-6.15-4.83-7.8v-.99h15.98l28.36,64.77L89.43,13.46l15.6,.12Z"/>
    <path class="cls-3" d="M104.98,13.54v.99c-1.4,1.16-2.42,2.31-3.03,3.47-.62,1.16-.89,2.6-.81,4.33l3.34,63.78c.16,3.55,.72,6.36,1.67,8.42,.95,2.07,2.62,3.84,5.02,5.33v.99h-24.15v-.99c1.9-1.16,3.28-2.83,4.15-5.02,.87-2.19,1.22-4.64,1.05-7.37l-3.59-66.75-27.87,74.06h-1.73L27.33,23.69l-3.1,62.42c-.08,2.72,.56,5.41,1.92,8.05,1.36,2.64,3.2,4.54,5.51,5.7v.99H15.44v-.99c2.39-1.49,4.09-3.45,5.08-5.88,.99-2.43,1.57-5.06,1.73-7.86l3.34-63.78c.16-3.55-1.45-6.15-4.83-7.8v-.99h15.98l28.36,64.77L89.38,13.41l15.6,.12Z"/>
    <path class="cls-3" d="M104.94,13.49v.99c-1.4,1.16-2.42,2.31-3.03,3.47-.62,1.16-.89,2.6-.81,4.33l3.34,63.78c.16,3.55,.72,6.36,1.67,8.42,.95,2.07,2.62,3.84,5.02,5.33v.99h-24.15v-.99c1.9-1.16,3.28-2.83,4.15-5.02,.87-2.19,1.22-4.64,1.05-7.37l-3.59-66.75-27.87,74.06h-1.73L27.28,23.64l-3.1,62.42c-.08,2.72,.56,5.41,1.92,8.05,1.36,2.64,3.2,4.54,5.51,5.7v.99H15.39v-.99c2.39-1.49,4.09-3.45,5.08-5.88,.99-2.43,1.57-5.06,1.73-7.86l3.34-63.78c.16-3.55-1.45-6.15-4.83-7.8v-.99h15.98l28.36,64.77L89.33,13.36l15.6,.12Z"/>
    <path class="cls-3" d="M104.89,13.44v.99c-1.4,1.16-2.42,2.31-3.03,3.47-.62,1.16-.89,2.6-.81,4.33l3.34,63.78c.16,3.55,.72,6.36,1.67,8.42,.95,2.07,2.62,3.84,5.02,5.33v.99h-24.15v-.99c1.9-1.16,3.28-2.83,4.15-5.02,.87-2.19,1.22-4.64,1.05-7.37l-3.59-66.75-27.87,74.06h-1.73L27.24,23.59l-3.1,62.42c-.08,2.72,.56,5.41,1.92,8.05,1.36,2.64,3.2,4.54,5.51,5.7v.99H15.35v-.99c2.39-1.49,4.09-3.45,5.08-5.88,.99-2.43,1.57-5.06,1.73-7.86l3.34-63.78c.16-3.55-1.45-6.15-4.83-7.8v-.99h15.98l28.36,64.77L89.28,13.32l15.6,.12Z"/>
    <path class="cls-3" d="M104.84,13.39v.99c-1.4,1.16-2.42,2.31-3.03,3.47-.62,1.16-.89,2.6-.81,4.33l3.34,63.78c.16,3.55,.72,6.36,1.67,8.42,.95,2.07,2.62,3.84,5.02,5.33v.99h-24.15v-.99c1.9-1.16,3.28-2.83,4.15-5.02,.87-2.19,1.22-4.64,1.05-7.37l-3.59-66.75-27.87,74.06h-1.73L27.19,23.55l-3.1,62.42c-.08,2.72,.56,5.41,1.92,8.05,1.36,2.64,3.2,4.54,5.51,5.7v.99H15.3v-.99c2.39-1.49,4.09-3.45,5.08-5.88,.99-2.43,1.57-5.06,1.73-7.86l3.34-63.78c.16-3.55-1.45-6.15-4.83-7.8v-.99h15.98l28.36,64.77L89.24,13.27l15.6,.12Z"/>
    <path class="cls-3" d="M104.79,13.34v.99c-1.4,1.16-2.42,2.31-3.03,3.47-.62,1.16-.89,2.6-.81,4.33l3.34,63.78c.16,3.55,.72,6.36,1.67,8.42,.95,2.07,2.62,3.84,5.02,5.33v.99h-24.15v-.99c1.9-1.16,3.28-2.83,4.15-5.02,.87-2.19,1.22-4.64,1.05-7.37l-3.59-66.75-27.87,74.06h-1.73L27.14,23.5l-3.1,62.42c-.08,2.72,.56,5.41,1.92,8.05,1.36,2.64,3.2,4.54,5.51,5.7v.99H15.25v-.99c2.39-1.49,4.09-3.45,5.08-5.88,.99-2.43,1.57-5.06,1.73-7.86l3.34-63.78c.16-3.55-1.45-6.15-4.83-7.8v-.99h15.98l28.36,64.77L89.19,13.22l15.6,.12Z"/>
    <path class="cls-3" d="M104.75,13.3v.99c-1.4,1.16-2.42,2.31-3.03,3.47-.62,1.16-.89,2.6-.81,4.33l3.34,63.78c.16,3.55,.72,6.36,1.67,8.42,.95,2.07,2.62,3.84,5.02,5.33v.99h-24.15v-.99c1.9-1.16,3.28-2.83,4.15-5.02,.87-2.19,1.22-4.64,1.05-7.37l-3.59-66.75-27.87,74.06h-1.73L27.09,23.45l-3.1,62.42c-.08,2.72,.56,5.41,1.92,8.05,1.36,2.64,3.2,4.54,5.51,5.7v.99H15.2v-.99c2.39-1.49,4.09-3.45,5.08-5.88,.99-2.43,1.57-5.06,1.73-7.86l3.34-63.78c.16-3.55-1.45-6.15-4.83-7.8v-.99h15.98l28.36,64.77L89.14,13.17l15.6,.12Z"/>
    <path class="cls-3" d="M104.7,13.25v.99c-1.4,1.16-2.42,2.31-3.03,3.47-.62,1.16-.89,2.6-.81,4.33l3.34,63.78c.16,3.55,.72,6.36,1.67,8.42,.95,2.07,2.62,3.84,5.02,5.33v.99h-24.15v-.99c1.9-1.16,3.28-2.83,4.15-5.02,.87-2.19,1.22-4.64,1.05-7.37l-3.59-66.75-27.87,74.06h-1.73L27.04,23.4l-3.1,62.42c-.08,2.72,.56,5.41,1.92,8.05,1.36,2.64,3.2,4.54,5.51,5.7v.99H15.16v-.99c2.39-1.49,4.09-3.45,5.08-5.88,.99-2.43,1.57-5.06,1.73-7.86l3.34-63.78c.16-3.55-1.45-6.15-4.83-7.8v-.99h15.98l28.36,64.77L89.09,13.12l15.6,.12Z"/>
    <path class="cls-3" d="M104.65,13.2v.99c-1.4,1.16-2.42,2.31-3.03,3.47-.62,1.16-.89,2.6-.81,4.33l3.34,63.78c.16,3.55,.72,6.36,1.67,8.42,.95,2.07,2.62,3.84,5.02,5.33v.99h-24.15v-.99c1.9-1.16,3.28-2.83,4.15-5.02,.87-2.19,1.22-4.64,1.05-7.37l-3.59-66.75-27.87,74.06h-1.73L27,23.36l-3.1,62.42c-.08,2.72,.56,5.41,1.92,8.05,1.36,2.64,3.2,4.54,5.51,5.7v.99H15.11v-.99c2.39-1.49,4.09-3.45,5.08-5.88,.99-2.43,1.57-5.06,1.73-7.86l3.34-63.78c.16-3.55-1.45-6.15-4.83-7.8v-.99h15.98l28.36,64.77L89.04,13.08l15.6,.12Z"/>
    <path class="cls-3" d="M104.6,13.15v.99c-1.4,1.16-2.42,2.31-3.03,3.47-.62,1.16-.89,2.6-.81,4.33l3.34,63.78c.16,3.55,.72,6.36,1.67,8.42,.95,2.07,2.62,3.84,5.02,5.33v.99h-24.15v-.99c1.9-1.16,3.28-2.83,4.15-5.02,.87-2.19,1.22-4.64,1.05-7.37l-3.59-66.75-27.87,74.06h-1.73L26.95,23.31l-3.1,62.42c-.08,2.72,.56,5.41,1.92,8.05,1.36,2.64,3.2,4.54,5.51,5.7v.99H15.06v-.99c2.39-1.49,4.09-3.45,5.08-5.88,.99-2.43,1.57-5.06,1.73-7.86l3.34-63.78c.16-3.55-1.45-6.15-4.83-7.8v-.99h15.98l28.36,64.77L89,13.03l15.6,.12Z"/>
    <path class="cls-3" d="M104.55,13.11v.99c-1.4,1.16-2.42,2.31-3.03,3.47-.62,1.16-.89,2.6-.81,4.33l3.34,63.78c.16,3.55,.72,6.36,1.67,8.42,.95,2.07,2.62,3.84,5.02,5.33v.99h-24.15v-.99c1.9-1.16,3.28-2.83,4.15-5.02,.87-2.19,1.22-4.64,1.05-7.37l-3.59-66.75-27.87,74.06h-1.73L26.9,23.26l-3.1,62.42c-.08,2.72,.56,5.41,1.92,8.05,1.36,2.64,3.2,4.54,5.51,5.7v.99H15.01v-.99c2.39-1.49,4.09-3.45,5.08-5.88,.99-2.43,1.57-5.06,1.73-7.86l3.34-63.78c.16-3.55-1.45-6.15-4.83-7.8v-.99h15.98l28.36,64.77L88.95,12.98l15.6,.12Z"/>
    <path class="cls-3" d="M104.51,13.06v.99c-1.4,1.16-2.42,2.31-3.03,3.47-.62,1.16-.89,2.6-.81,4.33l3.34,63.78c.16,3.55,.72,6.36,1.67,8.42,.95,2.07,2.62,3.84,5.02,5.33v.99h-24.15v-.99c1.9-1.16,3.28-2.83,4.15-5.02,.87-2.19,1.22-4.64,1.05-7.37l-3.59-66.75-27.87,74.06h-1.73L26.85,23.21l-3.1,62.42c-.08,2.72,.56,5.41,1.92,8.05,1.36,2.64,3.2,4.54,5.51,5.7v.99H14.96v-.99c2.39-1.49,4.09-3.45,5.08-5.88,.99-2.43,1.57-5.06,1.73-7.86l3.34-63.78c.16-3.55-1.45-6.15-4.83-7.8v-.99h15.98l28.36,64.77L88.9,12.93l15.6,.12Z"/>
    <path class="cls-3" d="M104.46,13.01v.99c-1.4,1.16-2.42,2.31-3.03,3.47-.62,1.16-.89,2.6-.81,4.33l3.34,63.78c.16,3.55,.72,6.36,1.67,8.42,.95,2.07,2.62,3.84,5.02,5.33v.99h-24.15v-.99c1.9-1.16,3.28-2.83,4.15-5.02,.87-2.19,1.22-4.64,1.05-7.37l-3.59-66.75-27.87,74.06h-1.73L26.81,23.16l-3.1,62.42c-.08,2.72,.56,5.41,1.92,8.05,1.36,2.64,3.2,4.54,5.51,5.7v.99H14.92v-.99c2.39-1.49,4.09-3.45,5.08-5.88,.99-2.43,1.57-5.06,1.73-7.86l3.34-63.78c.16-3.55-1.45-6.15-4.83-7.8v-.99h15.98l28.36,64.77L88.85,12.89l15.6,.12Z"/>
    <path class="cls-3" d="M104.41,12.96v.99c-1.4,1.16-2.42,2.31-3.03,3.47-.62,1.16-.89,2.6-.81,4.33l3.34,63.78c.16,3.55,.72,6.36,1.67,8.42,.95,2.07,2.62,3.84,5.02,5.33v.99h-24.15v-.99c1.9-1.16,3.28-2.83,4.15-5.02,.87-2.19,1.22-4.64,1.05-7.37l-3.59-66.75-27.87,74.06h-1.73L26.76,23.12l-3.1,62.42c-.08,2.72,.56,5.41,1.92,8.05,1.36,2.64,3.2,4.54,5.51,5.7v.99H14.87v-.99c2.39-1.49,4.09-3.45,5.08-5.88,.99-2.43,1.57-5.06,1.73-7.86l3.34-63.78c.16-3.55-1.45-6.15-4.83-7.8v-.99h15.98l28.36,64.77L88.81,12.84l15.6,.12Z"/>
    <path class="cls-3" d="M104.36,12.91v.99c-1.4,1.16-2.42,2.31-3.03,3.47-.62,1.16-.89,2.6-.81,4.33l3.34,63.78c.16,3.55,.72,6.36,1.67,8.42,.95,2.07,2.62,3.84,5.02,5.33v.99h-24.15v-.99c1.9-1.16,3.28-2.83,4.15-5.02,.87-2.19,1.22-4.64,1.05-7.37l-3.59-66.75-27.87,74.06h-1.73L26.71,23.07l-3.1,62.42c-.08,2.72,.56,5.41,1.92,8.05,1.36,2.64,3.2,4.54,5.51,5.7v.99H14.82v-.99c2.39-1.49,4.09-3.45,5.08-5.88,.99-2.43,1.57-5.06,1.73-7.86l3.34-63.78c.16-3.55-1.45-6.15-4.83-7.8v-.99h15.98l28.36,64.77L88.76,12.79l15.6,.12Z"/>
    <path class="cls-3" d="M104.32,12.87v.99c-1.4,1.16-2.42,2.31-3.03,3.47-.62,1.16-.89,2.6-.81,4.33l3.34,63.78c.16,3.55,.72,6.36,1.67,8.42,.95,2.07,2.62,3.84,5.02,5.33v.99h-24.15v-.99c1.9-1.16,3.28-2.83,4.15-5.02,.87-2.19,1.22-4.64,1.05-7.37l-3.59-66.75-27.87,74.06h-1.73L26.66,23.02l-3.1,62.42c-.08,2.72,.56,5.41,1.92,8.05,1.36,2.64,3.2,4.54,5.51,5.7v.99H14.77v-.99c2.39-1.49,4.09-3.45,5.08-5.88,.99-2.43,1.57-5.06,1.73-7.86l3.34-63.78c.16-3.55-1.45-6.15-4.83-7.8v-.99h15.98l28.36,64.77L88.71,12.74l15.6,.12Z"/>
    <path class="cls-3" d="M104.27,12.82v.99c-1.4,1.16-2.42,2.31-3.03,3.47-.62,1.16-.89,2.6-.81,4.33l3.34,63.78c.16,3.55,.72,6.36,1.67,8.42,.95,2.07,2.62,3.84,5.02,5.33v.99h-24.15v-.99c1.9-1.16,3.28-2.83,4.15-5.02,.87-2.19,1.22-4.64,1.05-7.37l-3.59-66.75-27.87,74.06h-1.73L26.61,22.97l-3.1,62.42c-.08,2.72,.56,5.41,1.92,8.05,1.36,2.64,3.2,4.54,5.51,5.7v.99H14.73v-.99c2.39-1.49,4.09-3.45,5.08-5.88,.99-2.43,1.57-5.06,1.73-7.86l3.34-63.78c.16-3.55-1.45-6.15-4.83-7.8v-.99h15.98l28.36,64.77L88.66,12.69l15.6,.12Z"/>
    <path class="cls-3" d="M104.22,12.77v.99c-1.4,1.16-2.42,2.31-3.03,3.47-.62,1.16-.89,2.6-.81,4.33l3.34,63.78c.16,3.55,.72,6.36,1.67,8.42,.95,2.07,2.62,3.84,5.02,5.33v.99h-24.15v-.99c1.9-1.16,3.28-2.83,4.15-5.02,.87-2.19,1.22-4.64,1.05-7.37l-3.59-66.75-27.87,74.06h-1.73L26.57,22.93l-3.1,62.42c-.08,2.72,.56,5.41,1.92,8.05,1.36,2.64,3.2,4.54,5.51,5.7v.99H14.68v-.99c2.39-1.49,4.09-3.45,5.08-5.88,.99-2.43,1.57-5.06,1.73-7.86l3.34-63.78c.16-3.55-1.45-6.15-4.83-7.8v-.99h15.98l28.36,64.77L88.61,12.65l15.6,.12Z"/>
    <path class="cls-3" d="M104.17,12.72v.99c-1.4,1.16-2.42,2.31-3.03,3.47-.62,1.16-.89,2.6-.81,4.33l3.34,63.78c.16,3.55,.72,6.36,1.67,8.42,.95,2.07,2.62,3.84,5.02,5.33v.99h-24.15v-.99c1.9-1.16,3.28-2.83,4.15-5.02,.87-2.19,1.22-4.64,1.05-7.37l-3.59-66.75-27.87,74.06h-1.73L26.52,22.88l-3.1,62.42c-.08,2.72,.56,5.41,1.92,8.05,1.36,2.64,3.2,4.54,5.51,5.7v.99H14.63v-.99c2.39-1.49,4.09-3.45,5.08-5.88,.99-2.43,1.57-5.06,1.73-7.86l3.34-63.78c.16-3.55-1.45-6.15-4.83-7.8v-.99h15.98l28.36,64.77L88.57,12.6l15.6,.12Z"/>
    <path class="cls-3" d="M104.12,12.68v.99c-1.4,1.16-2.42,2.31-3.03,3.47-.62,1.16-.89,2.6-.81,4.33l3.34,63.78c.16,3.55,.72,6.36,1.67,8.42,.95,2.07,2.62,3.84,5.02,5.33v.99h-24.15v-.99c1.9-1.16,3.28-2.83,4.15-5.02,.87-2.19,1.22-4.64,1.05-7.37l-3.59-66.75-27.87,74.06h-1.73L26.47,22.83l-3.1,62.42c-.08,2.72,.56,5.41,1.92,8.05,1.36,2.64,3.2,4.54,5.51,5.7v.99H14.58v-.99c2.39-1.49,4.09-3.45,5.08-5.88,.99-2.43,1.57-5.06,1.73-7.86l3.34-63.78c.16-3.55-1.45-6.15-4.83-7.8v-.99h15.98l28.36,64.77L88.52,12.55l15.6,.12Z"/>
    <path class="cls-3" d="M104.08,12.63v.99c-1.4,1.16-2.42,2.31-3.03,3.47-.62,1.16-.89,2.6-.81,4.33l3.34,63.78c.16,3.55,.72,6.36,1.67,8.42,.95,2.07,2.62,3.84,5.02,5.33v.99h-24.15v-.99c1.9-1.16,3.28-2.83,4.15-5.02,.87-2.19,1.22-4.64,1.05-7.37l-3.59-66.75-27.87,74.06h-1.73L26.42,22.78l-3.1,62.42c-.08,2.72,.56,5.41,1.92,8.05,1.36,2.64,3.2,4.54,5.51,5.7v.99H14.53v-.99c2.39-1.49,4.09-3.45,5.08-5.88,.99-2.43,1.57-5.06,1.73-7.86l3.34-63.78c.16-3.55-1.45-6.15-4.83-7.8v-.99h15.98l28.36,64.77L88.47,12.5l15.6,.12Z"/>
    <path class="cls-3" d="M104.03,12.58v.99c-1.4,1.16-2.42,2.31-3.03,3.47-.62,1.16-.89,2.6-.81,4.33l3.34,63.78c.16,3.55,.72,6.36,1.67,8.42,.95,2.07,2.62,3.84,5.02,5.33v.99h-24.15v-.99c1.9-1.16,3.28-2.83,4.15-5.02,.87-2.19,1.22-4.64,1.05-7.37l-3.59-66.75-27.87,74.06h-1.73L26.38,22.73l-3.1,62.42c-.08,2.72,.56,5.41,1.92,8.05,1.36,2.64,3.2,4.54,5.51,5.7v.99H14.49v-.99c2.39-1.49,4.09-3.45,5.08-5.88,.99-2.43,1.57-5.06,1.73-7.86l3.34-63.78c.16-3.55-1.45-6.15-4.83-7.8v-.99h15.98l28.36,64.77L88.42,12.46l15.6,.12Z"/>
    <path class="cls-3" d="M103.98,12.53v.99c-1.4,1.16-2.42,2.31-3.03,3.47-.62,1.16-.89,2.6-.81,4.33l3.34,63.78c.16,3.55,.72,6.36,1.67,8.42,.95,2.07,2.62,3.84,5.02,5.33v.99h-24.15v-.99c1.9-1.16,3.28-2.83,4.15-5.02,.87-2.19,1.22-4.64,1.05-7.37l-3.59-66.75-27.87,74.06h-1.73L26.33,22.69l-3.1,62.42c-.08,2.72,.56,5.41,1.92,8.05,1.36,2.64,3.2,4.54,5.51,5.7v.99H14.44v-.99c2.39-1.49,4.09-3.45,5.08-5.88,.99-2.43,1.57-5.06,1.73-7.86l3.34-63.78c.16-3.55-1.45-6.15-4.83-7.8v-.99h15.98l28.36,64.77L88.38,12.41l15.6,.12Z"/>
    <path class="cls-3" d="M103.93,12.48v.99c-1.4,1.16-2.42,2.31-3.03,3.47-.62,1.16-.89,2.6-.81,4.33l3.34,63.78c.16,3.55,.72,6.36,1.67,8.42,.95,2.07,2.62,3.84,5.02,5.33v.99h-24.15v-.99c1.9-1.16,3.28-2.83,4.15-5.02,.87-2.19,1.22-4.64,1.05-7.37l-3.59-66.75-27.87,74.06h-1.73L26.28,22.64l-3.1,62.42c-.08,2.72,.56,5.41,1.92,8.05,1.36,2.64,3.2,4.54,5.51,5.7v.99H14.39v-.99c2.39-1.49,4.09-3.45,5.08-5.88,.99-2.43,1.57-5.06,1.73-7.86l3.34-63.78c.16-3.55-1.45-6.15-4.83-7.8v-.99h15.98l28.36,64.77L88.33,12.36l15.6,.12Z"/>
  </g>
  <polyline class="cls-2" points="53 1.5 1.5 1.5 1.5 53.11"/>
  <path class="cls-1" d="M104.09,12.36v.99c-1.4,1.16-2.42,2.31-3.03,3.47-.62,1.16-.89,2.6-.81,4.33l3.34,63.78c.16,3.55,.72,6.36,1.67,8.42,.95,2.07,2.62,3.84,5.02,5.33v.99h-24.15v-.99c1.9-1.16,3.28-2.83,4.15-5.02,.87-2.19,1.22-4.64,1.05-7.37l-3.59-66.75-27.87,74.06h-1.73L26.44,22.51l-3.1,62.42c-.08,2.72,.56,5.41,1.92,8.05,1.36,2.64,3.2,4.54,5.51,5.7v.99H14.55v-.99c2.39-1.49,4.09-3.45,5.08-5.88,.99-2.43,1.57-5.06,1.73-7.86l3.34-63.78c.16-3.55-1.45-6.15-4.83-7.8v-.99h15.98l28.36,64.77L88.49,12.23l15.6,.12Z"/>
</svg>