<svg width="500" height="490" viewBox="0 0 500 490" fill="none" xmlns="http://www.w3.org/2000/svg">
<g clip-path="url(#clip0_536_464)">
<path d="M285.257 0.533993C283.296 0.907556 280.167 1.74807 278.252 2.44851L274.844 3.70928L266.859 3.05555C254.998 2.07494 227.261 2.21503 218.295 3.24233C192.146 6.32423 167.257 12.955 145.917 22.4809C138.54 25.7962 125.605 32.3803 119.348 36.0225L114.725 38.6842L110.943 36.0692C108.841 34.6684 105.479 31.96 103.425 30.0922C95.0195 22.4342 93.2917 21.5936 86.6143 21.5936C81.1042 21.5936 76.6215 22.7143 70.7845 25.5161C57.4296 31.9133 41.74 46.996 34.0819 60.8645C29.3657 69.3164 27.6379 75.5269 28.1983 81.9242C28.6185 87.0607 29.926 89.4888 34.9691 94.6253C38.9382 98.6411 43.1875 103.824 43.7479 105.272C43.8879 105.552 42.3003 108.401 40.2457 111.576C19.3728 143.562 6.48489 178.537 1.86204 215.567C-6.77662 285.096 14.9368 355.653 60.8851 407.485C63.1732 410.053 64.3405 411.687 64.1538 412.154C63.4066 413.976 63.4066 419.999 64.2005 422.708C66.5819 430.973 74.0532 441.199 83.5324 449.091C94.6926 458.43 105.246 463.66 115.659 464.92C120.889 465.574 123.69 465.2 127.286 463.473L130.134 462.025L135.691 464.827C160.72 477.388 187.663 485.326 216.661 488.782C227.308 490.042 247.9 490.463 259.434 489.716C303.515 486.727 342.832 473.559 379.115 449.604L383.504 446.709L386.212 449.277C389.714 452.639 392.469 453.853 396.439 453.853C406.758 453.853 421.421 444.001 429.826 431.346C437.484 419.812 438.418 411.547 432.814 404.59L431.46 402.862L435.336 398.052C455.882 372.51 471.945 340.384 480.257 308.257C485.907 286.357 487.962 269.92 487.962 246.152C487.962 221.404 485.674 203.472 479.697 181.759C478.482 177.323 477.735 173.774 478.016 173.587C478.249 173.447 479.977 172.14 481.891 170.692C483.806 169.245 487.308 166.863 489.643 165.462C497.347 160.699 499.589 157.01 499.962 148.325C500.663 132.776 491.51 111.529 478.623 98.8279C473.486 93.7381 470.451 91.6368 465.454 89.6289C463.026 88.6483 462.046 88.4615 459.291 88.6483C456.489 88.8351 455.088 89.302 449.905 91.6835C446.589 93.2245 442.387 94.9989 440.612 95.5592L437.344 96.6332L435.943 94.8121C427.444 84.0722 411.101 67.3552 400.641 58.6698C385.792 46.3422 370.849 36.5362 354.179 28.1777C347.548 24.8623 347.081 24.5355 345.354 22.0606C339.283 13.2352 322.94 4.45641 306.55 1.23442C299.919 -0.0730481 290.16 -0.399916 285.257 0.533993ZM299.312 16.177C305.102 16.9241 310.379 18.2316 315.889 20.3796C326.255 24.4421 334.941 31.2596 330.972 32.1935C321.446 34.4816 303.188 30.886 292.168 24.5822C288.572 22.5742 283.903 18.6518 283.903 17.7179C283.903 16.0369 291.654 15.2431 299.312 16.177ZM262.283 18.465L266.112 18.7452L264.617 22.5276C261.582 30.0455 257.146 35.8358 250.842 40.5987C246.78 43.6806 245.986 45.0815 246.219 48.8171C246.359 51.5254 246.5 51.899 248.04 53.3465C250.422 55.4945 252.897 56.195 255.652 55.4011C261.022 53.9069 268.073 47.5563 273.396 39.5247C275.171 36.8164 276.758 34.4349 276.945 34.2014C277.178 33.9679 278.906 34.8085 280.961 36.1626C288.572 41.1123 299.032 45.2682 309.585 47.5096C313.414 48.3034 316.169 48.5369 322.006 48.5836L329.477 48.6303L329.571 54.9342C329.711 61.8918 330.458 65.9543 332.513 71.1842C335.034 77.5348 335.968 79.029 338.209 80.103C341.898 81.8775 345.027 81.2237 347.782 78.0951C350.163 75.3401 350.163 73.7992 347.875 67.075C346.334 62.5922 345.821 60.3042 345.634 57.2223C345.4 52.8796 346.334 42.3264 346.988 42.3264C347.548 42.3264 357.728 47.8832 362.818 50.9651C378.928 60.7244 390.835 70.2503 406.245 85.6598L416.751 96.1663L414.837 97.0068C413.809 97.4271 412.268 98.5944 411.428 99.575C410.027 101.256 409.934 101.583 410.074 104.291C410.214 106.299 410.541 107.607 411.194 108.494C414.65 113.163 425.997 114.751 438.651 112.416C441.686 111.856 444.208 111.436 444.301 111.529C444.348 111.622 444.768 113.677 445.189 116.105C447.57 129.46 455.602 145.103 465.128 155.096L469.377 159.532L464.941 163.875C459.944 168.778 457.283 172.607 454.341 179.144C452.006 184.374 451.819 186.475 453.407 189.37C455.088 192.312 457.003 193.293 460.645 193.059C462.699 192.919 463.913 192.592 464.567 191.985C465.128 191.518 465.641 191.238 465.735 191.332C466.388 192.032 469.47 208.516 470.684 217.901C477.502 270.901 464.801 325.955 435.336 370.829C431.087 377.273 422.962 388.386 422.681 388.153C422.588 388.06 422.214 386.659 421.841 385.024C421.467 383.437 420.72 381.382 420.16 380.495C418.245 377.366 412.969 376.152 409.98 378.207C407.599 379.794 406.618 381.849 406.338 385.725C406.105 389.927 407.038 393.943 409.56 399.547C410.587 401.881 411.381 403.889 411.288 403.936C411.241 403.983 410.634 404.263 409.98 404.543C405.497 406.458 393.123 418.225 389.061 424.482C387.753 426.443 386.633 428.264 386.539 428.545C386.399 428.918 384.858 428.404 382.15 427.19C376.406 424.622 374.538 424.202 369.075 424.108C364.592 424.062 364.312 424.108 362.631 425.416C358.195 428.778 358.615 434.988 363.472 438.164L365.62 439.565L360.343 442.74C353.899 446.616 338.63 454.087 329.944 457.682C311.313 465.387 289.693 470.711 267.092 473.185C257.753 474.213 230.903 474.353 222.265 473.419C194.294 470.43 170.713 463.94 147.412 452.873C139.94 449.324 140.034 449.744 146.384 445.542C150.54 442.74 152.969 441.713 158.712 440.172C161.607 439.378 162.961 438.724 164.082 437.603C165.483 436.203 166.697 433.401 166.697 431.44C166.697 429.992 164.082 426.256 162.401 425.416C159.926 424.108 155.07 424.389 149.793 426.163C144.797 427.844 142.042 429.292 135.878 433.541L131.489 436.576L130.741 435.455C121.823 421.727 106.46 409.399 91.7041 404.123C89.416 403.329 88.7623 402.862 88.9957 402.348C93.245 392.402 94.319 387.733 94.319 379.468C94.319 372.603 93.9922 371.436 91.2838 369.381C88.1552 367 83.6725 367.42 80.824 370.315C79.143 372.043 78.4893 375.078 78.4426 380.868C78.4426 384.884 77.462 388.573 75.1272 393.476L73.2127 397.445L71.5783 395.578C64.0604 387.126 55.3283 375.125 48.7443 364.245C31.0467 334.967 20.1667 302.14 16.7112 267.632C15.824 258.293 15.9174 231.163 16.9447 222.104C20.0266 194.74 26.704 171.393 38.4713 146.691C43.0474 137.118 50.005 124.977 50.939 124.977C51.079 124.977 51.3592 126.051 51.4993 127.359C51.8729 130.534 53.2737 132.635 55.842 133.896C59.4375 135.624 63.0798 134.69 65.5546 131.328C67.0022 129.413 66.9555 120.214 65.4145 114.938C63.8736 109.428 61.9591 104.992 59.064 99.9486C57.6631 97.5204 56.4957 95.3258 56.4957 95.0923C56.4957 94.8588 58.7371 93.5046 61.5388 92.0571C76.7615 84.1189 90.8169 70.0168 98.5216 54.8875C100.063 51.8523 101.463 49.3307 101.557 49.3307C101.697 49.3307 103.144 50.1713 104.779 51.1986C114.165 56.9421 124.111 60.0707 132.843 60.0707C136.812 60.0707 138.726 59.0434 140.407 56.1016C142.042 53.2065 141.855 50.4514 139.894 47.8365C139.007 46.6691 137.933 45.5951 137.512 45.4083C137.092 45.2682 136.905 44.8947 137.092 44.6145C137.512 43.9141 151.801 37.0031 158.105 34.4816C180.986 25.1892 206.061 19.539 230.903 18.0915C237.861 17.6712 254.905 17.858 262.283 18.465ZM87.2213 40.085C85.8205 51.0585 68.7299 70.7173 54.3944 77.9551C50.8923 79.7295 46.7831 81.0836 44.9152 81.0836C43.7946 81.0836 43.7479 80.9903 44.028 78.6088C45.1954 67.2618 62.0058 47.8365 77.5087 39.9916C81.2443 38.0771 83.7659 37.2833 85.9605 37.2366L87.6416 37.1899L87.2213 40.085ZM463.26 106.206C465.548 107.7 469.05 111.296 471.992 115.218C479.043 124.604 484.226 137.772 484.226 146.317C484.226 149.446 484.133 149.726 483.245 149.726C481.798 149.726 473.626 141.274 470.591 136.651C465.081 128.246 461.205 118.86 460.271 111.482C459.804 107.653 460.038 104.898 460.785 104.898C461.018 104.898 462.092 105.505 463.26 106.206ZM87.5482 419.672C100.156 424.482 114.818 437.183 118.554 446.569C119.488 448.95 118.974 449.651 116.593 449.277C109.028 448.017 96.2802 440.358 88.9024 432.654C84.046 427.517 79.3765 420.56 79.3765 418.272C79.3765 417.291 82.6919 417.851 87.5482 419.672ZM419.319 418.085C419.319 418.318 418.666 419.626 417.825 421.027C414.93 426.116 401.622 438.024 400.314 436.716C399.754 436.156 404.657 429.619 408.579 425.696C413.109 421.12 419.319 416.731 419.319 418.085Z" fill="black"/>
<path d="M180.146 145.337C170.2 147.718 161.608 156.637 159.46 166.77C155.864 183.954 168.846 200.157 186.31 200.344C194.575 200.391 200.692 197.962 206.435 192.219C212.132 186.522 214.794 180.265 214.794 172.373C214.794 159.625 206.062 148.465 193.547 145.29C190.185 144.449 183.741 144.449 180.146 145.337ZM192.8 160.98C197.657 163.408 200.131 167.844 199.758 173.401C199.478 177.323 198.264 179.798 195.369 182.366C191.68 185.588 187.01 186.475 182.481 184.748C173.702 181.479 170.947 170.926 177.064 163.968C181.126 159.345 187.197 158.178 192.8 160.98Z" fill="black"/>
<path d="M251.916 188.763C237.673 191.892 226.326 203.052 222.871 217.341C221.797 221.917 221.89 230.182 223.151 234.945C226.747 248.533 236.926 258.666 250.515 262.309C255.651 263.663 263.963 263.663 269.099 262.309C273.629 261.141 279.979 257.873 283.762 254.791C289.225 250.355 294.362 242.416 296.276 235.412C297.444 231.116 297.677 223.505 296.837 219.022C295.342 211.084 292.074 204.967 286.283 199.176C281.614 194.507 277.458 191.939 271.247 189.837C267.465 188.576 266.064 188.343 261.021 188.203C256.912 188.063 254.204 188.25 251.916 188.763ZM265.737 203.706C275.777 206.648 282.548 215.473 282.501 225.559C282.454 231.91 280.306 237.28 276.01 241.669C264.01 253.763 243.65 249.14 238.14 233.077C233.844 220.61 241.596 206.461 254.297 203.472C257.239 202.772 262.982 202.912 265.737 203.706Z" fill="black"/>
<path d="M150.587 219.816C143.069 220.796 135.084 223.505 128.874 227.24C123.55 230.462 120.702 232.704 116.313 237.327C108.515 245.405 103.425 255.445 101.277 266.932C100.436 271.461 100.53 282.248 101.51 287.151C105.526 307.837 120.655 324.881 140.454 331.091C152.875 335.014 167.538 334.407 179.258 329.503C200.738 320.631 214.793 299.805 214.793 276.924C214.793 265.064 211.758 254.884 205.314 245.125C193.313 226.96 172.067 217.108 150.587 219.816ZM168.191 235.599C182.807 239.381 194.854 251.382 198.683 265.998C199.898 270.667 200.131 279.913 199.197 284.723C196.302 298.871 186.309 310.779 172.767 316.102C162.448 320.164 148.813 319.464 138.773 314.374C127.52 308.631 119.301 298.171 116.453 285.797C115.192 280.52 115.332 271.321 116.686 266.231C121.029 249.934 133.823 238.12 150.494 234.899C154.977 234.058 163.475 234.385 168.191 235.599Z" fill="black"/>
</g>
<defs>
<clipPath id="clip0_536_464">
<rect width="500" height="490" fill="white"/>
</clipPath>
</defs>
</svg>
