<svg width="84" height="109" viewBox="0 0 84 109" fill="none" xmlns="http://www.w3.org/2000/svg">
<path d="M72.6775 79.929C71.3175 78.32 69.2195 77.431 66.2655 77.211C66.2455 77.21 66.2285 77.219 66.2085 77.22C66.1895 77.219 66.1735 77.21 66.1535 77.211C63.1995 77.431 61.1015 78.319 59.7405 79.929C58.3315 81.596 57.7635 84.021 58.0545 87.137C58.6275 93.264 62.6345 99.472 65.5995 103.609C65.6155 103.631 65.6405 103.639 65.6585 103.66C65.6955 103.702 65.7255 103.748 65.7725 103.782C65.7935 103.798 65.8185 103.803 65.8415 103.817C65.8645 103.83 65.8875 103.841 65.9115 103.852C66.0075 103.894 66.1055 103.922 66.2075 103.922H66.2085C66.3105 103.922 66.4095 103.894 66.5055 103.852C66.5295 103.841 66.5525 103.83 66.5755 103.817C66.5985 103.803 66.6235 103.797 66.6445 103.782C66.6915 103.748 66.7215 103.702 66.7585 103.66C66.7765 103.639 66.8015 103.632 66.8175 103.609C69.7835 99.471 73.7915 93.262 74.3615 87.137C74.6545 84.021 74.0865 81.596 72.6775 79.929ZM72.8685 86.998C72.3695 92.36 68.9845 97.909 66.2095 101.874C63.4355 97.91 60.0505 92.362 59.5495 86.998C59.2975 84.298 59.7465 82.245 60.8865 80.897C61.9645 79.621 63.7085 78.907 66.2095 78.712C68.7105 78.906 70.4525 79.62 71.5315 80.897C72.6715 82.245 73.1205 84.297 72.8685 86.998Z" fill="black"/>
<path d="M39.0264 23.0553C39.5294 17.6633 38.5654 13.4863 36.1584 10.6393C33.8404 7.89729 30.2334 6.37929 25.1334 6.00029C25.1124 5.99829 25.0954 6.00729 25.0754 6.00729C25.0564 6.00729 25.0404 5.99929 25.0224 6.00029C19.9214 6.38029 16.3154 7.89729 13.9964 10.6403C11.5914 13.4863 10.6264 17.6633 11.1294 23.0553C12.1334 33.8273 19.2224 44.8073 24.4674 52.1293C24.4834 52.1503 24.5074 52.1593 24.5244 52.1783C24.5624 52.2203 24.5924 52.2673 24.6404 52.3023C24.6624 52.3183 24.6884 52.3243 24.7114 52.3383C24.7344 52.3513 24.7554 52.3613 24.7794 52.3723C24.8754 52.4143 24.9754 52.4433 25.0774 52.4433C25.1794 52.4433 25.2784 52.4153 25.3744 52.3723C25.3984 52.3623 25.4204 52.3513 25.4434 52.3383C25.4664 52.3253 25.4914 52.3183 25.5134 52.3033C25.5604 52.2693 25.5914 52.2223 25.6284 52.1803C25.6454 52.1603 25.6704 52.1523 25.6864 52.1303C30.9324 44.8113 38.0214 33.8353 39.0264 23.0553ZM15.1424 11.6083C17.1794 9.19929 20.4304 7.85829 25.0784 7.50329C29.7254 7.85729 32.9774 9.19929 35.0144 11.6083C37.1504 14.1353 37.9984 17.9393 37.5344 22.9153C36.6004 32.9293 30.1464 43.2373 25.0784 50.3953C20.0104 43.2333 13.5554 32.9223 12.6224 22.9163C12.1584 17.9393 13.0064 14.1353 15.1424 11.6083Z" fill="black"/>
<path d="M32.7513 20.8527C32.7513 16.6217 29.3083 13.1797 25.0763 13.1797C20.8443 13.1797 17.4023 16.6217 17.4023 20.8527C17.4023 25.0847 20.8453 28.5277 25.0773 28.5277C29.3093 28.5277 32.7513 25.0837 32.7513 20.8527ZM18.9023 20.8527C18.9023 17.4487 21.6723 14.6797 25.0773 14.6797C28.4823 14.6797 31.2523 17.4487 31.2523 20.8527C31.2523 24.2577 28.4823 27.0277 25.0773 27.0277C21.6723 27.0277 18.9023 24.2567 18.9023 20.8527Z" fill="black"/>
<path d="M56.0938 101.669C49.8608 99.7141 46.5178 97.5761 45.8758 95.1351C44.9878 91.7561 49.0518 87.4181 54.1958 81.9251C59.8868 75.8491 66.9698 68.2861 70.5238 58.5621C71.5438 55.7741 71.2828 53.4731 69.7498 51.7211C62.9738 43.9781 32.4248 50.6241 31.1278 50.9091C30.7228 50.9981 30.4678 51.399 30.5568 51.803C30.6468 52.207 31.0488 52.4621 31.4508 52.3741C31.7598 52.3061 62.4238 45.628 68.6218 52.709C69.7818 54.035 69.9438 55.781 69.1158 58.046C65.6668 67.484 58.6988 74.9231 53.1008 80.9001C47.6398 86.7311 43.3258 91.3371 44.4248 95.5161C45.2188 98.5381 48.7838 100.949 55.6438 103.101C55.7188 103.124 55.7938 103.135 55.8688 103.135C56.1878 103.135 56.4838 102.93 56.5848 102.61C56.7088 102.214 56.4898 101.793 56.0938 101.669Z" fill="black"/>
<path d="M66.2082 81.2344C63.6532 81.2344 61.5742 83.3124 61.5742 85.8674C61.5742 88.4244 63.6532 90.5034 66.2082 90.5034C68.7642 90.5034 70.8432 88.4244 70.8432 85.8674C70.8432 83.3124 68.7642 81.2344 66.2082 81.2344ZM66.2082 89.0034C64.4802 89.0034 63.0742 87.5974 63.0742 85.8674C63.0742 84.1394 64.4802 82.7344 66.2082 82.7344C67.9372 82.7344 69.3432 84.1394 69.3432 85.8674C69.3432 87.5974 67.9372 89.0034 66.2082 89.0034Z" fill="black"/>
</svg>
