<svg width="16" height="17" viewBox="0 0 16 17" fill="none" xmlns="http://www.w3.org/2000/svg">
<g clip-path="url(#clip0_516_383)">
<path d="M7.74818 0C6.72668 0 5.88904 0.822543 5.88904 1.83507C5.88904 2.46141 6.20961 3.01489 6.69593 3.34609C5.69649 3.75315 4.99145 4.72248 4.98925 5.85691C4.69164 5.45489 4.28522 5.13659 3.81282 4.94386C3.90502 4.88163 3.99191 4.81034 4.07217 4.73127C4.42112 4.38754 4.61816 3.91989 4.61816 3.4322C4.61816 2.94461 4.42112 2.47696 4.07217 2.13323C3.72322 1.78959 3.25091 1.59722 2.75902 1.59722C1.73752 1.59722 0.89978 2.41968 0.89978 3.4322C0.89978 3.91989 1.09682 4.38754 1.44577 4.73127C1.52627 4.80997 1.61306 4.88136 1.70521 4.94395C0.70504 5.35193 0 6.32328 0 7.45944V8.66407C1.00119e-05 8.73423 0.0278874 8.80152 0.0775017 8.85114C0.127116 8.90075 0.194405 8.92863 0.26457 8.92864H5.25373H10.2429H15.2321C15.3022 8.92863 15.3695 8.90075 15.4191 8.85114C15.4687 8.80152 15.4966 8.73423 15.4966 8.66407V7.45944C15.4966 6.32319 14.7914 5.35193 13.7911 4.94386C13.8833 4.88163 13.9702 4.81034 14.0505 4.73127C14.3995 4.38754 14.5965 3.91989 14.5965 3.4322C14.5965 2.94461 14.3995 2.47696 14.0505 2.13323C13.7016 1.78959 13.2292 1.59722 12.7373 1.59722C11.7158 1.59722 10.8782 2.41968 10.8782 3.4322C10.8782 3.91989 11.0751 4.38754 11.4241 4.73127C11.5046 4.80997 11.5914 4.88136 11.6835 4.94395C11.2112 5.13659 10.8049 5.45479 10.5075 5.85673C10.5075 4.7223 9.79996 3.75315 8.80052 3.34609C9.28674 3.01489 9.60732 2.46141 9.60732 1.83507C9.60732 0.822543 8.76968 0 7.74818 0ZM7.74818 0.529144C8.48799 0.529144 9.07817 1.11292 9.07817 1.83507C9.07817 2.55722 8.48799 3.141 7.74818 3.141C7.00836 3.141 6.41818 2.55722 6.41818 1.83507C6.41818 1.11292 7.00836 0.529144 7.74818 0.529144ZM2.75902 2.12637C3.11291 2.12637 3.4517 2.26492 3.70089 2.51028C3.95 2.75563 4.08901 3.08692 4.08901 3.4322C4.08901 3.77759 3.95 4.10887 3.70089 4.35423C3.4517 4.59958 3.11291 4.73813 2.75902 4.73813C2.40512 4.73813 2.06624 4.59958 1.81714 4.35423C1.56803 4.10887 1.42902 3.77759 1.42902 3.4322C1.42902 2.71005 2.0192 2.12637 2.75902 2.12637ZM12.7373 2.12637C13.0912 2.12637 13.4301 2.26492 13.6792 2.51028C13.9283 2.75563 14.0673 3.08692 14.0673 3.4322C14.0673 3.77759 13.9283 4.10887 13.6792 4.35423C13.4301 4.59958 13.0912 4.73813 12.7373 4.73813C12.3835 4.73813 12.0446 4.59958 11.7955 4.35423C11.5464 4.10887 11.4073 3.77759 11.4073 3.4322C11.4073 2.71005 11.9975 2.12637 12.7373 2.12637ZM7.74818 3.67015C8.99023 3.67015 9.97832 4.64543 9.97832 5.86231V8.39949H5.51831V7.45944V5.86231C5.51831 4.64543 6.50613 3.67015 7.74818 3.67015ZM2.75902 5.26728C4.00107 5.26728 4.98916 6.24265 4.98916 7.45944V8.39949H0.52914V7.45944C0.52914 6.24265 1.51696 5.26728 2.75902 5.26728ZM12.7373 5.26728C13.9794 5.26728 14.9675 6.24265 14.9675 7.45944V8.39949H10.5075V7.45944C10.5075 6.24256 11.4953 5.26728 12.7373 5.26728ZM4.49461 9.36526C4.42444 9.36526 4.35715 9.39314 4.30753 9.44275C4.25792 9.49237 4.23004 9.55966 4.23004 9.62983C4.23004 10.563 4.60077 11.4582 5.26051 12.1181C5.92024 12.7779 6.81527 13.1488 7.74836 13.1488C8.68136 13.1488 9.57648 12.7779 10.2362 12.1181C10.896 11.4582 11.2667 10.563 11.2667 9.62983C11.2667 9.55966 11.2388 9.49237 11.1892 9.44275C11.1396 9.39314 11.0723 9.36526 11.0021 9.36526C10.9319 9.36526 10.8647 9.39314 10.815 9.44275C10.7654 9.49237 10.7375 9.55966 10.7375 9.62983C10.7375 10.4229 10.4226 11.1831 9.86201 11.7439C9.30129 12.3047 8.54116 12.6196 7.74836 12.6196C6.95547 12.6196 6.19534 12.3047 5.63471 11.7439C5.074 11.1831 4.75918 10.4229 4.75918 9.62983C4.75918 9.55966 4.7313 9.49237 4.68169 9.44275C4.63207 9.39314 4.56478 9.36526 4.49461 9.36526ZM0.71071 9.36544C0.675959 9.36544 0.641548 9.37229 0.609444 9.38559C0.577339 9.3989 0.54817 9.41839 0.523601 9.44297C0.499033 9.46755 0.479547 9.49672 0.466256 9.52883C0.452965 9.56094 0.446129 9.59535 0.44614 9.63011V10.6804C0.44615 10.7506 0.474027 10.8179 0.523642 10.8675C0.573256 10.9171 0.640545 10.945 0.71071 10.945H1.73724C1.89264 11.6579 2.17341 12.3374 2.56656 12.952L1.84185 13.6768C1.79223 13.7265 1.76435 13.7938 1.76435 13.8639C1.76435 13.9341 1.79223 14.0014 1.84185 14.051L3.32742 15.5368C3.37704 15.5864 3.44435 15.6143 3.51453 15.6143C3.5847 15.6143 3.65201 15.5864 3.70163 15.5368L4.42625 14.812C5.04087 15.2052 5.72046 15.4861 6.43337 15.6415V16.6688C6.43338 16.7389 6.46126 16.8062 6.51087 16.8558C6.56049 16.9054 6.62777 16.9333 6.69794 16.9333H8.79869C8.86886 16.9333 8.93614 16.9054 8.98576 16.8558C9.03537 16.8062 9.06325 16.7389 9.06326 16.6688V15.6414C9.77598 15.486 10.4554 15.2052 11.0698 14.812L11.7945 15.5368C11.8442 15.5864 11.9115 15.6143 11.9816 15.6143C12.0518 15.6143 12.1191 15.5864 12.1688 15.5368L13.6543 14.051C13.704 14.0014 13.7318 13.9341 13.7318 13.8639C13.7318 13.7938 13.704 13.7265 13.6543 13.6768L12.9296 12.952C13.3228 12.3374 13.6035 11.6579 13.7589 10.945H14.786C14.8562 10.945 14.9235 10.9171 14.9731 10.8675C15.0227 10.8179 15.0506 10.7506 15.0506 10.6804V9.63011C15.0506 9.59535 15.0438 9.56094 15.0305 9.52883C15.0172 9.49672 14.9977 9.46755 14.9731 9.44297C14.9486 9.41839 14.9194 9.3989 14.8873 9.38559C14.8552 9.37229 14.8208 9.36544 14.786 9.36544C14.7513 9.36543 14.7168 9.37227 14.6847 9.38557C14.6526 9.39887 14.6234 9.41836 14.5988 9.44294C14.5743 9.46752 14.5548 9.4967 14.5415 9.52881C14.5282 9.56093 14.5213 9.59535 14.5214 9.63011V10.4159H13.5423C13.4803 10.4159 13.4203 10.4376 13.3727 10.4774C13.3251 10.5172 13.293 10.5724 13.282 10.6334C13.1393 11.4241 12.829 12.175 12.372 12.8357C12.3367 12.8866 12.3204 12.9483 12.326 13.01C12.3315 13.0717 12.3585 13.1295 12.4022 13.1733L13.0927 13.864L11.9813 14.9755L11.2908 14.285C11.247 14.2412 11.1892 14.2142 11.1275 14.2087C11.0658 14.2032 11.0042 14.2195 10.9532 14.2548C10.2926 14.7118 9.54179 15.0221 8.75137 15.1648C8.69033 15.1758 8.63511 15.2079 8.59533 15.2555C8.55556 15.3031 8.53376 15.3631 8.53375 15.4252V16.4045H6.96215V15.4252C6.96214 15.3631 6.94034 15.3031 6.90057 15.2555C6.86079 15.2079 6.80556 15.1758 6.74452 15.1648C5.95392 15.0221 5.20294 14.7119 4.5422 14.2548C4.49129 14.2195 4.42962 14.2032 4.36793 14.2087C4.30624 14.2142 4.24844 14.2412 4.2046 14.285L3.51411 14.9755L2.40274 13.864L3.09323 13.1733C3.13698 13.1295 3.16396 13.0717 3.16948 13.01C3.175 12.9483 3.1587 12.8866 3.12343 12.8357C2.6664 12.175 2.35616 11.4241 2.21349 10.6334C2.20246 10.5724 2.17033 10.5171 2.12273 10.4774C2.07512 10.4376 2.01506 10.4158 1.95304 10.4159H0.97455V9.63011C0.974561 9.59535 0.967725 9.56094 0.954434 9.52883C0.941143 9.49672 0.921657 9.46755 0.897089 9.44297C0.87252 9.41839 0.843351 9.3989 0.811246 9.38559C0.779142 9.37229 0.745461 9.36544 0.71071 9.36544Z" fill="black"/>
</g>
<defs>
<clipPath id="clip0_516_383">
<rect width="16" height="17" fill="white"/>
</clipPath>
</defs>
</svg>
