<svg width="82" height="81" viewBox="0 0 82 81" fill="none" xmlns="http://www.w3.org/2000/svg">
<path d="M67.7523 21.3951C68.7633 21.3915 69.7635 21.1862 70.6941 20.7913C71.6248 20.3964 72.4673 19.8197 73.1723 19.0951C74.2317 18.0192 74.9484 16.6535 75.2321 15.1705C75.5158 13.6875 75.3538 12.1537 74.7663 10.7627C74.1789 9.37176 73.1926 8.18606 71.9317 7.35531C70.6709 6.52457 69.1922 6.08604 67.6823 6.09511C66.6656 6.09601 65.6594 6.30092 64.7232 6.69771C63.7871 7.09449 62.9401 7.67509 62.2324 8.40511C61.5306 9.11218 60.9772 9.95231 60.6046 10.8762C60.2319 11.8 60.0476 12.789 60.0623 13.7851C60.0636 14.7909 60.264 15.7864 60.6519 16.7143C61.0398 17.6423 61.6076 18.4842 62.3224 19.1917C63.0373 19.8991 63.8852 20.4581 64.8171 20.8362C65.7491 21.2144 66.7466 21.4043 67.7523 21.3951ZM64.3724 10.5251C64.8043 10.0813 65.3203 9.72796 65.8904 9.48586C66.4604 9.24376 67.073 9.11772 67.6924 9.11511C68.923 9.11511 70.1032 9.60396 70.9733 10.4741C71.8435 11.3443 72.3324 12.5245 72.3324 13.7551C72.3324 14.9857 71.8435 16.1659 70.9733 17.0361C70.1032 17.9063 68.923 18.3951 67.6924 18.3951C67.0817 18.3964 66.4768 18.2774 65.9121 18.045C65.3474 17.8125 64.8341 17.4711 64.4014 17.0402C63.9687 16.6094 63.625 16.0975 63.3901 15.5338C63.1552 14.9702 63.0337 14.3658 63.0323 13.7551C63.0289 13.1545 63.1456 12.5594 63.3758 12.0046C63.6059 11.4499 63.9448 10.9468 64.3724 10.5251Z" fill="black"/>
<path d="M56.3923 21.7252C58.6323 25.6386 60.8489 29.5452 63.0423 33.4452L63.3223 33.9452C63.8023 34.7952 64.3223 35.6652 64.8323 36.5052C65.137 36.9779 65.5562 37.3659 66.0509 37.6334C66.5456 37.9009 67.0999 38.0391 67.6623 38.0352C68.2375 38.0337 68.8033 37.8883 69.308 37.6124C69.8127 37.3364 70.2405 36.9386 70.5523 36.4552C70.6923 36.2252 70.8323 35.9952 70.9623 35.7552L79.8523 20.0952C80.8839 18.2998 81.4511 16.2753 81.5023 14.2052C81.5502 12.3713 81.2094 10.548 80.5023 8.85522C79.6037 6.42976 78.0288 4.31268 75.964 2.75481C73.8993 1.19693 71.4312 0.263539 68.8523 0.0652245C67.0857 -0.113872 65.3011 0.076843 63.6123 0.625225C61.0807 1.38627 58.8367 2.89154 57.1723 4.94522C55.2025 7.31457 54.083 10.2753 53.9923 13.3552C53.9598 14.9551 54.1895 16.5496 54.6723 18.0752C55.1173 19.3483 55.6938 20.5716 56.3923 21.7252ZM59.4923 6.83522C60.7811 5.2378 62.5247 4.06957 64.4923 3.48522C65.7809 3.06401 67.1429 2.9142 68.4923 3.04522C70.5438 3.18755 72.5091 3.92577 74.1469 5.16927C75.7848 6.41276 77.0239 8.10742 77.7123 10.0452C78.2551 11.3526 78.5141 12.7603 78.4723 14.1752C78.4345 15.7524 78.0049 17.2954 77.2223 18.6652L68.3523 34.2852C68.2523 34.4752 68.1423 34.6652 68.0323 34.8452C67.991 34.9049 67.9357 34.9536 67.8711 34.9867C67.8066 35.0199 67.7348 35.0365 67.6623 35.0352C67.6036 35.0383 67.5451 35.0261 67.4925 34.9998C67.4399 34.9735 67.395 34.934 67.3623 34.8852C66.8623 34.1152 66.3623 33.3152 65.9423 32.4752L65.6523 31.9652C63.4323 28.0652 61.2123 24.2052 58.9823 20.2052C58.3984 19.2555 57.9094 18.2507 57.5223 17.2052C57.1399 15.9793 56.9608 14.699 56.9923 13.4152C57.0682 11.0044 57.9482 8.68822 59.4923 6.83522Z" fill="black"/>
<path d="M19.5025 55.9452C20.8986 55.9387 22.2796 55.6552 23.5653 55.111C24.851 54.5669 26.0159 53.7729 26.9925 52.7752C28.439 51.2925 29.4164 49.4164 29.8029 47.3814C30.1893 45.3464 29.9675 43.2426 29.1652 41.3329C28.3629 39.4231 27.0157 37.7922 25.2918 36.6437C23.568 35.4952 21.5439 34.8801 19.4725 34.8752H19.4125C18.01 34.8809 16.6227 35.166 15.3316 35.7137C14.0404 36.2614 12.8713 37.0608 11.8925 38.0652C10.9246 39.0366 10.1606 40.1916 9.64545 41.4624C9.13027 42.7332 8.87427 44.0941 8.89251 45.4652C8.89773 46.851 9.17668 48.222 9.71333 49.4997C10.25 50.7773 11.0338 51.9363 12.0197 52.9101C13.0056 53.8839 14.1741 54.6534 15.4583 55.1742C16.7424 55.6951 18.1168 55.9571 19.5025 55.9452ZM14.0625 40.2052C14.764 39.4821 15.6032 38.9069 16.5307 38.5136C17.4582 38.1203 18.4551 37.9168 19.4625 37.9152C20.9413 37.9242 22.3848 38.3672 23.614 39.1893C24.8433 40.0114 25.804 41.1764 26.377 42.5397C26.95 43.9029 27.11 45.4044 26.8372 46.8578C26.5644 48.3112 25.8708 49.6525 24.8425 50.7152C24.1431 51.4286 23.3094 51.9964 22.3894 52.386C21.4695 52.7756 20.4815 52.9793 19.4825 52.9852C18.491 52.9879 17.5087 52.7952 16.5917 52.4182C15.6747 52.0412 14.8409 51.4873 14.138 50.7881C13.4351 50.0888 12.8767 49.258 12.4949 48.343C12.113 47.428 11.9151 46.4467 11.9125 45.4552C11.9035 44.4811 12.089 43.515 12.4582 42.6135C12.8274 41.712 13.3728 40.8932 14.0625 40.2052Z" fill="black"/>
<path d="M3.45206 56.7953C6.7054 62.5486 9.9654 68.2953 13.2321 74.0353L13.6621 74.8053C14.3521 76.0153 15.0621 77.2853 15.8421 78.4953C16.2275 79.0899 16.7567 79.5776 17.3808 79.9132C18.0048 80.2489 18.7035 80.4216 19.4121 80.4153C20.1402 80.4191 20.8573 80.2375 21.4958 79.8876C22.1344 79.5377 22.6734 79.031 23.0621 78.4153C23.2721 78.0953 23.4621 77.7553 23.6521 77.4153L26.7521 72.0653L36.7521 54.3853C38.2066 51.8382 39.0007 48.9678 39.0621 46.0353C39.1335 43.436 38.66 40.8506 37.6721 38.4453C34.5921 31.0553 29.0121 26.8653 21.0821 25.9653C18.58 25.7107 16.0523 25.9832 13.6621 26.7653C10.0689 27.8389 6.88332 29.9719 4.52206 32.8853C1.71592 36.2673 0.124477 40.4924 0.00206308 44.8853C-0.0298132 47.1679 0.307885 49.4406 1.00206 51.6153C1.64511 53.4189 2.46581 55.1541 3.45206 56.7953ZM6.84206 34.7953C8.83963 32.3467 11.5251 30.5529 14.5521 29.6453C16.5483 28.9867 18.6606 28.755 20.7521 28.9653C27.6021 29.7453 32.2321 33.2253 34.9021 39.6253C35.7303 41.6405 36.1255 43.8074 36.0621 45.9853C36.0141 48.423 35.3538 50.8095 34.1421 52.9253L24.1421 70.6053L21.0521 75.9653L20.5521 76.8153C20.4278 77.003 20.2581 77.1564 20.0589 77.2613C19.8596 77.3661 19.6372 77.4191 19.4121 77.4153C19.2139 77.4141 19.0191 77.3642 18.8447 77.27C18.6704 77.1759 18.5218 77.0403 18.4121 76.8753C17.6721 75.7353 16.9821 74.5053 16.3121 73.3253L15.8721 72.5553C12.5721 66.8053 9.31206 61.0653 6.02206 55.2053C5.13648 53.7566 4.39941 52.2221 3.82206 50.6253C3.23265 48.7534 2.95561 46.7972 3.00206 44.8353C3.13844 41.1504 4.48839 37.6138 6.84206 34.7753V34.7953Z" fill="black"/>
<path d="M47.9524 77.3153H48.2324C52.6524 76.4853 55.6124 75.9853 57.0224 75.8253C57.4175 75.7801 57.7785 75.5799 58.026 75.2686C58.2736 74.9573 58.3873 74.5604 58.3424 74.1653C58.3212 73.97 58.2617 73.7809 58.1672 73.6088C58.0727 73.4366 57.9452 73.2849 57.7918 73.1622C57.6385 73.0395 57.4624 72.9484 57.2737 72.894C57.085 72.8396 56.8875 72.823 56.6924 72.8453C55.2024 73.0053 52.1724 73.5153 47.6924 74.3653C47.4954 74.383 47.3038 74.4394 47.1286 74.5311C46.9534 74.6229 46.798 74.7482 46.6712 74.9001C46.4152 75.2067 46.2916 75.6024 46.3274 76.0003C46.3632 76.3981 46.5555 76.7654 46.8622 77.0214C47.1688 77.2774 47.5645 77.4011 47.9624 77.3653L47.9524 77.3153Z" fill="black"/>
<path d="M62.342 73.9152C62.421 74.2421 62.6083 74.5327 62.8734 74.7397C63.1384 74.9466 63.4657 75.0578 63.802 75.0552C63.9216 75.07 64.0425 75.07 64.162 75.0552C67.4803 74.3889 70.4618 72.5851 72.592 69.9552C72.8241 69.6316 72.9181 69.2291 72.8534 68.8363C72.7887 68.4434 72.5706 68.0923 72.247 67.8602C71.9235 67.6281 71.521 67.5341 71.1281 67.5988C70.7352 67.6635 70.3841 67.8816 70.152 68.2052C68.872 69.9952 66.482 71.3852 63.442 72.1452C63.0637 72.2379 62.7367 72.4751 62.5311 72.8059C62.3255 73.1368 62.2576 73.5349 62.342 73.9152Z" fill="black"/>
<path d="M57.062 59.1252H57.242C57.6398 59.1491 58.0308 59.014 58.329 58.7495C58.6272 58.4851 58.8081 58.1131 58.832 57.7152C58.8559 57.3174 58.7207 56.9264 58.4563 56.6282C58.1919 56.33 57.8198 56.1491 57.422 56.1252C54.292 55.7452 51.742 54.5452 50.582 52.9252C50.4678 52.7644 50.3229 52.6276 50.1558 52.5227C49.9887 52.4178 49.8026 52.3468 49.608 52.3138C49.4135 52.2809 49.2144 52.2866 49.022 52.3305C48.8297 52.3745 48.6479 52.456 48.487 52.5702C48.3261 52.6845 48.1893 52.8293 48.0844 52.9964C47.9795 53.1635 47.9086 53.3497 47.8756 53.5442C47.8426 53.7387 47.8483 53.9379 47.8923 54.1302C47.9363 54.3226 48.0177 54.5044 48.132 54.6652C49.802 57.0152 53.052 58.6352 57.062 59.1252Z" fill="black"/>
<path d="M70.5216 63.2553C70.6561 63.4743 70.8442 63.6554 71.0682 63.7814C71.2922 63.9073 71.5446 63.9741 71.8016 63.9753C72.0772 63.977 72.3476 63.9007 72.5816 63.7553C72.9209 63.5482 73.1641 63.2149 73.2578 62.8287C73.3516 62.4425 73.2882 62.0348 73.0816 61.6953C71.5616 59.1853 68.5116 57.4053 64.4816 56.6953C64.0838 56.6236 63.6738 56.713 63.3419 56.9437C63.0099 57.1743 62.7832 57.5274 62.7116 57.9253C62.64 58.3231 62.7294 58.7331 62.96 59.065C63.1907 59.3969 63.5438 59.6236 63.9416 59.6953C67.1116 60.2053 69.4516 61.4953 70.5216 63.2553Z" fill="black"/>
<path d="M50.2619 49.0651C50.6329 49.0583 50.9886 48.9161 51.2619 48.6651C52.2619 47.6651 54.4619 46.4051 58.7219 45.6651C58.9159 45.6336 59.1018 45.564 59.2688 45.4604C59.4357 45.3567 59.5806 45.221 59.6949 45.0611C59.8092 44.9013 59.8908 44.7204 59.9349 44.5288C59.979 44.3373 59.9848 44.1389 59.9519 43.9451C59.8857 43.5519 59.6667 43.2008 59.3425 42.9685C59.0184 42.7362 58.6156 42.6415 58.2219 42.7051C54.2819 43.3651 51.1719 44.6551 49.2219 46.4351C49.0768 46.5684 48.9593 46.729 48.8762 46.9076C48.7931 47.0863 48.746 47.2796 48.7377 47.4765C48.7293 47.6734 48.7598 47.87 48.8275 48.055C48.8951 48.2401 48.9986 48.4101 49.1319 48.5551C49.2739 48.7148 49.4479 48.8427 49.6426 48.9306C49.8373 49.0185 50.0483 49.0643 50.2619 49.0651Z" fill="black"/>
<path d="M30.7525 79.2052C30.8234 79.5431 31.008 79.8466 31.2755 80.0649C31.5429 80.2833 31.8772 80.4034 32.2225 80.4052H32.5325C32.5325 80.4052 36.5325 79.5852 41.3725 78.6352C41.5669 78.5945 41.7513 78.5159 41.9153 78.4039C42.0793 78.2919 42.2196 78.1487 42.3282 77.9825C42.4369 77.8163 42.5117 77.6303 42.5485 77.4351C42.5852 77.24 42.5832 77.0395 42.5425 76.8452C42.5018 76.6508 42.4232 76.4664 42.3112 76.3024C42.1992 76.1384 42.056 75.9981 41.8898 75.8895C41.7236 75.7808 41.5376 75.706 41.3425 75.6692C41.1473 75.6324 40.9469 75.6345 40.7525 75.6752C35.8925 76.6752 31.8725 77.4452 31.8725 77.4452C31.4952 77.5381 31.1683 77.7729 30.9597 78.1007C30.7511 78.4285 30.6769 78.8241 30.7525 79.2052Z" fill="black"/>
</svg>
