<svg width="269" height="136" viewBox="0 0 269 136" fill="none" xmlns="http://www.w3.org/2000/svg">
<rect width="269" height="136" fill="#F5F5F5"/>
<g filter="url(#filter0_d_0_1)">
<path d="M136.098 29.0478L135.888 32.2309L134.231 32.365M-73.4529 120.15L-66.6945 122.162L-79.1998 129.299M248.75 28.6337L248.54 31.8168C247.573 31.89 247.267 31.9056 246.883 31.9509C245.454 32.0991 245.066 32.1244 244.71 32.1664C243.226 32.3211 241.719 32.499 240.212 32.6769C237.198 33.0327 234.133 33.415 231.096 33.794C225.026 34.5721 218.933 35.3734 212.844 36.1946C211.342 36.3925 209.816 36.6137 208.345 36.8283L207.281 36.9745C205.818 37.2291 205.251 37.3371 204.716 37.4617C204.181 37.5864 203.651 37.7311 203.179 37.8893C202.914 37.9617 202.708 38.0475 202.474 38.1366C201.416 38.5692 201.062 38.7545 200.732 38.9165C200.406 39.0985 200.167 39.2909 199.955 39.48C199.743 39.669 199.59 39.8717 199.46 40.051C199.335 40.2504 199.264 40.4433 199.253 40.6498C199.225 41.0427 199.375 41.4762 199.722 41.907C200.437 42.7454 201.855 43.583 203.626 44.2353C204.057 44.4099 204.539 44.5582 205.021 44.7064C207.671 45.3984 208.822 45.6522 210.024 45.8795C212.431 46.3542 215.044 46.743 217.74 47.1221C220.435 47.5012 223.213 47.8706 226.035 48.3167C228.858 48.7629 231.689 49.249 234.413 49.8913C235.273 50.0975 236.132 50.3037 236.969 50.533C238.792 51.0356 240.518 51.6112 242.102 52.3061L242.941 52.6787L243.757 53.0745C246.189 54.5717 246.98 55.2372 247.555 55.9486C248.158 56.6568 248.601 57.4043 248.861 58.2145C249.089 59.0079 249.129 59.844 248.896 60.7124L248.796 61.0318C248.763 61.1382 248.73 61.2447 248.669 61.3544L248.361 62.0061C248.212 62.2287 248.064 62.4513 247.915 62.6739C247.855 62.7836 247.74 62.8998 247.652 63.0127L247.356 63.3347C247.268 63.4476 247.18 63.5606 247.06 63.6567L246.71 63.9852L246.36 64.3137C246.244 64.4298 246.097 64.5292 245.95 64.6286L245.541 64.9436C245.393 65.043 245.246 65.1424 245.099 65.2418C244.805 65.4406 244.484 65.6426 244.158 65.8246C242.835 66.596 241.327 67.2868 239.742 67.884C238.13 68.4845 236.445 69.0115 234.685 69.4449C232.924 69.8784 231.15 70.2519 229.304 70.5518C228.843 70.6268 228.381 70.7018 227.915 70.7567C227.45 70.8117 226.988 70.8867 226.55 70.9385C226.111 70.9902 225.645 71.0452 225.207 71.097C224.769 71.1487 224.298 71.1837 223.86 71.2355C220.276 71.556 216.814 71.6571 213.553 71.6524C211.92 71.64 210.315 71.6244 208.761 71.5823C207.206 71.5402 205.679 71.4949 204.147 71.4296C191.966 70.9807 180.036 70.1331 168.467 68.8737C167.028 68.7154 165.589 68.5572 164.145 68.379C162.729 68.1975 161.258 68.0225 159.873 67.8578C157.1 67.5084 154.472 67.1829 151.961 67.0076C150.704 66.9099 149.482 66.849 148.273 66.8481C147.963 66.8437 147.685 66.8561 147.375 66.8517C147.092 66.844 146.787 66.8596 146.508 66.8719C146.23 66.8843 145.924 66.8999 145.646 66.9122C142.793 67.1054 140.632 67.5041 139.002 68.0246C138.187 68.2849 137.491 68.5722 136.986 68.8369C136.486 69.1215 136.15 69.3868 135.955 69.6559C135.742 69.9682 135.633 70.2475 135.703 70.5675C135.737 70.7275 135.799 70.8842 135.893 71.0577C135.987 71.2312 136.14 71.4183 136.32 71.6021C137.069 72.334 138.446 73.1148 140.171 73.8136C141.034 74.163 141.951 74.5059 142.946 74.8191C143.187 74.8932 143.459 74.9841 143.7 75.0582L144.541 75.3076C145.082 75.4693 145.655 75.6478 146.223 75.8063C150.759 77.1577 155.683 78.4837 160.37 80.1453C162.714 80.9761 164.992 81.8966 167.069 82.923L167.858 83.3221C168.112 83.4562 168.366 83.5903 168.624 83.7444C169.109 84.0358 169.589 84.3072 170.051 84.6219C170.965 85.2113 171.802 85.8303 172.533 86.4823C174.023 87.783 175.119 89.2123 175.74 90.7797C176.05 91.5634 176.196 92.3665 176.209 93.2058C176.222 94.0452 176.043 94.9071 175.673 95.7917C175.302 96.6763 174.736 97.5635 173.968 98.4334C173.761 98.6425 173.557 98.8715 173.35 99.0806L172.645 99.7176L171.881 100.341C171.618 100.557 171.351 100.752 171.057 100.951L170.175 101.547L169.206 102.133C168.884 102.335 168.558 102.517 168.205 102.703L167.7 102.967L166.072 103.754C165.714 103.92 165.329 104.088 164.944 104.257L164.381 104.508L163.785 104.742C163.396 104.891 163.011 105.059 162.594 105.211C160.982 105.811 159.297 106.338 157.549 106.832C157.124 106.944 156.671 107.059 156.218 107.174C154.43 107.61 153.977 107.725 153.52 107.82L152.149 108.105C151.691 108.2 151.23 108.275 150.773 108.37C150.311 108.445 149.854 108.54 149.365 108.618L147.953 108.846C147.492 108.921 147.026 108.976 146.565 109.051C144.71 109.311 142.843 109.511 140.989 109.648C140.053 109.738 139.164 109.781 138.246 109.828C137.329 109.875 136.412 109.922 135.545 109.942C134.651 109.966 133.757 109.989 132.858 109.993C132.411 110.004 131.987 109.993 131.536 109.985C126.748 109.935 123.416 109.733 120.205 109.435C117.02 109.135 113.96 108.758 110.996 108.308C108.06 107.854 105.224 107.348 102.522 106.806C97.0615 105.728 91.9675 104.524 87.0048 103.408C84.5213 102.84 82.0695 102.288 79.6033 101.8C77.1602 101.289 74.7026 100.84 72.222 100.416C67.2694 99.6056 62.2188 98.9918 57.1496 98.8108C54.6243 98.6988 52.0976 98.7099 49.5883 98.8011L48.6436 98.851C48.3379 98.8666 48.0048 98.8854 47.7264 98.8978C47.1424 98.9257 46.5626 98.9736 45.9555 99.0248C44.7686 99.1239 43.5629 99.2662 42.3934 99.4453C40.0225 99.7867 37.705 100.245 35.5188 100.79C33.3368 101.355 31.3136 102.004 29.586 102.721C27.8584 103.438 26.3991 104.225 25.3089 105.031C24.7797 105.442 24.3327 105.843 23.9448 106.258C23.6118 106.666 23.5238 106.779 23.4633 106.889C23.4027 106.999 23.3422 107.108 23.2773 107.198C22.9082 107.96 22.8347 108.399 22.793 108.855L22.8118 109.201L22.9042 109.888L23.0052 110.225C23.2866 111.135 23.9372 112.063 24.8027 112.945L25.5339 113.597L25.9407 113.918C26.0763 114.025 26.2119 114.132 26.3475 114.239C26.646 114.45 26.9402 114.641 27.2662 114.849C27.4292 114.952 27.5605 115.04 27.7508 115.14L28.2629 115.428C29.672 116.226 31.3739 116.948 33.1897 117.677C35.0286 118.383 37.0593 119.066 39.1996 119.736C41.3399 120.406 43.6172 121.06 45.958 121.748L33.4527 128.885C31.135 128.174 28.7625 127.469 26.4001 126.682C24.0377 125.894 21.6392 125.07 19.3604 124.149C18.8022 123.908 18.221 123.689 17.6585 123.427L16.8191 123.055L16.0071 122.679L14.4018 121.884L13.636 121.462C13.3821 121.328 13.1283 121.194 12.8701 121.039L12.1316 120.614C11.8778 120.48 11.6427 120.303 11.4162 120.165C10.9273 119.854 10.4931 119.536 10.059 119.218C9.82819 119.061 9.62482 118.9 9.41712 118.719C9.21374 118.559 9.01037 118.398 8.80267 118.218L8.24302 117.71C6.36353 115.778 5.35951 114.256 4.94099 112.583L4.77935 111.966L4.69559 111.319L4.65371 110.996C4.65946 110.893 4.66089 110.77 4.66664 110.667L4.69248 110.007C4.81203 109.132 5.03685 108.223 5.51261 107.306L5.68993 106.957C5.75049 106.847 5.81103 106.737 5.89466 106.605L6.33584 105.917C6.48434 105.694 6.66025 105.468 6.86356 105.239L7.15482 104.897L7.47348 104.552C8.31844 103.652 9.33646 102.773 10.4771 101.941C12.8131 100.271 15.726 98.7992 18.8827 97.5447C22.0351 96.2702 25.463 95.2298 29.012 94.3596C32.561 93.4895 36.2356 92.8096 39.9491 92.3097C41.808 92.0698 43.6986 91.8466 45.6066 91.7034C46.5469 91.6334 47.5146 91.5602 48.4592 91.5102C48.9293 91.4752 49.4038 91.4603 49.8509 91.4485L51.2152 91.39C54.8422 91.2695 58.3669 91.3251 61.7488 91.5001C65.1308 91.6751 68.393 91.9463 71.4851 92.3401C74.6003 92.7107 77.5366 93.1639 80.3994 93.6668C86.0976 94.6758 91.3603 95.8798 96.3721 97.093C101.379 98.2861 106.191 99.4819 111.05 100.508C113.465 101.023 115.927 101.491 118.372 101.879C120.821 102.287 123.334 102.606 125.835 102.864C130.832 103.361 136.011 103.529 140.964 103.17C142.21 103.085 143.42 102.962 144.598 102.823L145.498 102.697L146.343 102.576C146.644 102.541 146.914 102.488 147.184 102.436C147.453 102.384 147.755 102.348 148.02 102.276L148.857 102.116C149.126 102.063 149.419 101.988 149.689 101.935C150.782 101.663 151.051 101.61 151.317 101.538C152.378 101.249 153.38 100.946 154.347 100.606C154.58 100.517 154.814 100.428 155.047 100.339C155.927 99.9888 156.161 99.8997 156.363 99.7939L156.977 99.5163C157.738 99.1393 157.94 99.0334 158.115 98.9308L158.638 98.6229L159.107 98.3215C159.281 98.2188 159.401 98.1227 159.544 98.0033C160.073 97.5922 160.188 97.476 160.308 97.3798C160.423 97.2637 160.516 97.1707 160.631 97.0546C161.042 96.6164 161.366 96.1679 161.572 95.6924C162.017 94.7581 162.055 93.7691 161.729 92.7822C161.403 91.7953 160.712 90.8104 159.724 89.8811C159.232 89.4265 158.654 88.9615 158.029 88.543C157.731 88.3322 157.373 88.1078 157.047 87.9002L156.503 87.5952L155.932 87.2935C154.377 86.4721 152.585 85.7198 150.627 84.9869C146.686 83.5244 142.127 82.1963 137.46 80.7579C136.887 80.5794 136.287 80.4042 135.71 80.2056L134.833 79.9195C134.529 79.8119 134.197 79.7075 133.897 79.6198C132.653 79.1925 131.458 78.7387 130.315 78.2585C129.167 77.7582 128.065 77.2115 127.036 76.6151C126.031 75.9955 125.099 75.3262 124.342 74.5542C123.977 74.1666 123.663 73.7525 123.426 73.3088C123.189 72.865 123.031 72.3915 122.977 71.8851C122.847 70.8955 123.229 69.8045 124.021 68.7882C124.863 67.7454 126.188 66.7276 127.803 65.8807C129.418 65.0337 131.26 64.3242 133.159 63.7513C135.058 63.1785 137.043 62.7391 139.049 62.3998C141.055 62.0604 143.082 61.8211 145.132 61.6817L145.907 61.6311C147.135 61.5888 147.605 61.5538 148.084 61.5588C148.562 61.5638 149.037 61.5488 149.488 61.5571C149.94 61.5653 150.419 61.5703 150.87 61.5786C152.676 61.6115 154.412 61.7142 156.043 61.8498C159.333 62.1177 162.26 62.5309 165.038 62.9003C166.427 63.085 167.757 63.2562 169.118 63.4441C170.475 63.612 171.832 63.78 173.189 63.9479C184.12 65.2417 195.451 66.1805 207.029 66.7006C209.951 66.8274 212.814 66.9406 215.577 66.9836C218.336 67.0065 221.05 66.9528 223.616 66.7319C223.949 66.7131 224.25 66.6775 224.579 66.6387C224.908 66.5999 225.209 66.5643 225.542 66.5455C225.871 66.5067 226.145 66.4743 226.446 66.4388C226.748 66.4032 227.045 66.3476 227.346 66.312C228.543 66.1297 229.732 65.9074 230.825 65.6348C233.043 65.1064 234.998 64.4038 236.375 63.626C236.55 63.5234 236.724 63.4208 236.871 63.3214C238.429 61.948 238.489 61.8383 238.577 61.7254C238.638 61.6157 238.694 61.486 238.754 61.3763C239.024 60.5447 239.057 60.0486 238.949 59.5486C238.813 59.0519 238.568 58.5682 238.186 58.1006C237.831 57.6298 237.312 57.1783 236.746 56.7734L235.233 55.8856L234.639 55.6071C233.364 55.0398 231.902 54.5151 230.26 54.0731C229.783 53.9449 229.305 53.8166 228.801 53.6917C226.572 53.1343 224.115 52.6861 221.548 52.2509C218.981 51.8156 216.258 51.4397 213.494 51.0071C210.736 50.5945 207.909 50.1284 205.174 49.5693C203.791 49.2814 202.431 48.9702 201.122 48.6326C199.776 48.2582 199.417 48.1571 199.113 48.0494C198.449 47.8406 197.813 47.6286 197.223 47.3701C196.025 46.8963 194.9 46.3728 193.926 45.7699C192.953 45.1671 192.135 44.5048 191.546 43.7334C190.958 42.962 190.63 42.0983 190.768 41.1796C190.838 40.7203 191.012 40.228 191.332 39.7595C191.652 39.2911 192.059 38.8329 192.607 38.3785C193.155 37.9242 193.766 37.5034 194.468 37.1128C195.171 36.7223 195.936 36.3653 196.734 36.0251C197.563 35.7016 197.746 35.639 197.98 35.5499C198.396 35.3981 198.818 35.2664 199.266 35.1314C200.136 34.8647 201.014 34.638 201.924 34.428C202.834 34.218 203.753 34.0481 204.671 33.8781L207.257 33.4908C208.814 33.2865 210.372 33.0821 211.902 32.881C218.018 32.0564 224.147 31.2919 230.312 30.5641C233.409 30.1986 236.478 29.8363 239.583 29.5108C241.149 29.3465 242.715 29.1821 244.281 29.0177C244.665 28.9724 245.08 28.9439 245.491 28.8954C247.116 28.7445 247.586 28.7096 248.002 28.681L248.75 28.6337Z" stroke="black" shape-rendering="crispEdges"/>
</g>
<path d="M248.579 23C248.579 23 249.32 22 251.543 22C253.767 22 255.249 24 257.472 24C259.696 24 260.437 23 260.437 23V12C260.437 12 259.696 13 257.472 13C255.249 13 253.767 11 251.543 11C249.32 11 248.579 12 248.579 12M248.579 30L248.579 10" stroke="black" stroke-linecap="round" stroke-linejoin="round"/>
<g clip-path="url(#clip0_0_1)">
<path d="M233.171 66.8637C234.045 66.5738 234.89 66.2459 235.653 65.9069L236.101 66.1238C235.285 66.4896 234.413 66.8207 233.513 67.1344L233.171 66.8637Z" fill="black"/>
<path d="M242.258 60.8771C242.099 61.3521 241.858 61.816 241.51 62.2926L240.804 62.2516C241.126 61.7987 241.368 61.3554 241.501 60.9041L242.258 60.8771Z" fill="black"/>
<path d="M227.607 68.3302C228.569 68.1337 229.53 67.9166 230.462 67.6821L230.724 67.9623C229.766 68.2206 228.779 68.4408 227.79 68.6405L227.607 68.3302Z" fill="black"/>
<path d="M241.466 58.2736L242.216 58.1436C242.38 58.5806 242.463 59.027 242.465 59.483L241.713 59.5718C241.712 59.1364 241.63 58.7105 241.466 58.2736Z" fill="black"/>
<path d="M223.588 68.97C223.937 68.9287 224.313 68.8843 224.661 68.8225L224.736 69.1455C224.36 69.1899 223.985 69.2549 223.609 69.2993C222.964 69.3754 222.319 69.4515 221.673 69.507L221.679 69.1746C222.352 69.1159 222.97 69.0429 223.588 68.97Z" fill="black"/>
<path d="M239.825 55.9165L240.515 55.7105C240.918 56.0777 241.268 56.4719 241.566 56.893L240.846 57.0609C240.55 56.6604 240.227 56.2837 239.825 55.9165Z" fill="black"/>
<path d="M215.798 69.4946C216.772 69.4834 217.771 69.4483 218.742 69.3959L218.656 69.7379C217.658 69.7935 216.659 69.8285 215.658 69.843L215.798 69.4946Z" fill="black"/>
<path d="M160.189 100.387L160.794 100.523C160.353 100.824 159.911 101.104 159.415 101.391C159.207 101.519 158.972 101.651 158.762 101.758L158.235 101.572C158.445 101.464 158.68 101.333 158.888 101.204C159.332 100.945 159.774 100.664 160.189 100.387Z" fill="black"/>
<path d="M153.526 103.684C154.373 103.377 155.19 103.032 155.98 102.689L156.427 102.906C155.611 103.272 154.766 103.6 153.894 103.931L153.526 103.684Z" fill="black"/>
<path d="M148.138 105.336C149.07 105.101 150.001 104.846 150.902 104.553L151.218 104.827C150.288 105.102 149.359 105.378 148.372 105.619L148.138 105.336Z" fill="black"/>
<path d="M142.339 106.517C143.331 106.359 144.294 106.183 145.256 105.986L145.412 106.3C144.423 106.499 143.406 106.682 142.414 106.84L142.339 106.517Z" fill="black"/>
<path d="M136.4 107.199C137.397 107.123 138.392 107.026 139.386 106.908L139.408 107.238C138.387 107.358 137.365 107.458 136.368 107.534L136.4 107.199Z" fill="black"/>
<path d="M130.488 107.46C131.462 107.449 132.436 107.438 133.434 107.382L133.321 107.727C132.322 107.762 131.322 107.797 130.322 107.812L130.488 107.46Z" fill="black"/>
<path d="M162.031 87.4566C162.461 87.8207 162.863 88.1879 163.214 88.5821L162.495 88.7706C162.146 88.397 161.77 88.0266 161.34 87.6626L162.031 87.4566Z" fill="black"/>
<path d="M124.74 107.33C125.691 107.383 126.641 107.416 127.589 107.429L127.395 107.763C126.418 107.733 125.468 107.7 124.49 107.649L124.74 107.33Z" fill="black"/>
<path d="M226.117 50.3584L225.705 50.6768C224.881 50.5043 224.032 50.3557 223.183 50.207L223.596 49.8887C224.445 50.0374 225.294 50.186 226.117 50.3584Z" fill="black"/>
<path d="M159.082 85.3985C159.363 85.552 159.616 85.7087 159.872 85.886C160.154 86.0601 160.409 86.2374 160.664 86.4146L160.002 86.638C159.746 86.4607 159.493 86.304 159.237 86.1268C158.984 85.9701 158.73 85.8134 158.449 85.6598L159.082 85.3985Z" fill="black"/>
<path d="M119.215 106.883C120.115 106.984 121.041 107.061 121.94 107.142L121.664 107.485C120.739 107.408 119.813 107.331 118.886 107.233L119.215 106.883Z" fill="black"/>
<path d="M221.022 49.4469L220.638 49.7826C219.789 49.634 218.915 49.5091 218.066 49.3604L218.45 49.0247C219.299 49.1734 220.173 49.2983 221.022 49.4469Z" fill="black"/>
<path d="M154.948 83.8543L155.526 83.5787C156.166 83.8556 156.781 84.1563 157.37 84.4602L156.764 84.7184C156.175 84.4145 155.562 84.1344 154.948 83.8543Z" fill="black"/>
<path d="M113.919 106.202C114.793 106.327 115.668 106.452 116.542 106.577L116.185 106.91C115.284 106.788 114.409 106.663 113.535 106.538L113.919 106.202Z" fill="black"/>
<path d="M215.851 48.6051L215.467 48.9408C214.618 48.7922 213.742 48.6467 212.893 48.498L213.306 48.1797C214.153 48.3078 215.002 48.4565 215.851 48.6051Z" fill="black"/>
<path d="M151.025 82.2225L151.574 81.9295C152.267 82.1795 152.935 82.4533 153.602 82.7271L153.025 83.0026C152.358 82.7495 151.692 82.4963 151.025 82.2225Z" fill="black"/>
<path d="M108.826 105.309C109.649 105.482 110.498 105.63 111.347 105.779L110.934 106.097C110.085 105.949 109.236 105.8 108.386 105.631L108.826 105.309Z" fill="black"/>
<path d="M210.81 47.6851L210.371 48.0066C209.547 47.8341 208.724 47.6617 207.899 47.4687L208.365 47.1441C209.163 47.3403 209.987 47.5127 210.81 47.6851Z" fill="black"/>
<path d="M146.84 80.7264L147.362 80.4366C148.082 80.6834 148.775 80.9334 149.468 81.1835L148.919 81.4765C148.253 81.2233 147.56 80.9732 146.84 80.7264Z" fill="black"/>
<path d="M103.939 104.269C104.736 104.445 105.56 104.638 106.357 104.813L105.917 105.135C105.094 104.962 104.271 104.79 103.473 104.594L103.939 104.269Z" fill="black"/>
<path d="M204.427 46.5319C204.317 46.5034 204.207 46.4749 204.123 46.4433C203.847 46.3515 203.598 46.2772 203.322 46.1854L203.871 45.8924C204.121 45.9873 204.396 46.0585 204.646 46.1535C204.756 46.1819 204.839 46.2136 204.95 46.2421C205.308 46.3449 205.695 46.4652 206.054 46.568L205.559 46.8752C205.172 46.755 204.787 46.6553 204.427 46.5319Z" fill="black"/>
<path d="M142.577 79.2791L143.099 78.9893C143.819 79.2361 144.538 79.4624 145.231 79.7124L144.708 80.0023C144.015 79.7522 143.296 79.526 142.577 79.2791Z" fill="black"/>
<path d="M99.1803 103.109C99.9781 103.305 100.749 103.504 101.547 103.701L101.081 104.025C100.283 103.829 99.485 103.633 98.714 103.434L99.1803 103.109Z" fill="black"/>
<path d="M201.897 45.0879L201.292 45.3667C200.677 45.066 200.089 44.7621 199.552 44.4107L200.186 44.17C200.722 44.5008 201.283 44.8078 201.897 45.0879Z" fill="black"/>
<path d="M138.862 77.5206C138.89 77.538 138.917 77.5348 138.945 77.5522C139.61 77.7848 140.303 78.0348 140.968 78.2674L140.445 78.5573C139.753 78.3278 139.087 78.0746 138.422 77.842C138.394 77.8246 138.367 77.8278 138.339 77.8104L138.862 77.5206Z" fill="black"/>
<path d="M94.4994 101.9C95.2703 102.099 96.0426 102.319 96.8405 102.515L96.3729 102.819C95.6019 102.62 94.8041 102.424 94.0318 102.204L94.4994 101.9Z" fill="black"/>
<path d="M198.901 43.1392L198.21 43.3451C197.806 42.9573 197.509 42.5568 197.292 42.1262L198.04 41.9756C198.201 42.3714 198.497 42.7513 198.901 43.1392Z" fill="black"/>
<path d="M212.794 34.0342L212.843 34.3603C211.554 34.5331 210.535 34.6742 209.837 34.7773L209.762 34.4543C210.486 34.3481 211.506 34.207 212.794 34.0342Z" fill="black"/>
<path d="M155.189 64.1865C156.114 64.264 157.015 64.3857 157.915 64.4868L157.585 64.8162C156.685 64.7151 155.785 64.6139 154.885 64.5128L155.189 64.1865Z" fill="black"/>
<path d="M134.388 76.1598L134.994 75.9017C135.582 76.2055 136.223 76.4825 136.863 76.7594L136.285 77.035C135.617 76.7407 135.003 76.4605 134.388 76.1598Z" fill="black"/>
<path d="M89.8453 100.686C90.6163 100.885 91.3886 101.105 92.1596 101.304L91.6651 101.612C90.8941 101.412 90.1218 101.192 89.3509 100.993L89.8453 100.686Z" fill="black"/>
<path d="M149.429 63.8704C150.431 63.8765 151.38 63.9096 152.358 63.9601L152.11 64.3005C151.186 64.2437 150.236 64.2106 149.262 64.2219L149.429 63.8704Z" fill="black"/>
<path d="M131.225 74.1489L131.916 73.9429C132.317 74.2896 132.799 74.6267 133.335 74.9575L132.701 75.1983C132.138 74.8707 131.655 74.5129 131.225 74.1489Z" fill="black"/>
<path d="M85.1631 99.4546C85.934 99.654 86.7319 99.8501 87.5028 100.049L87.0352 100.354C86.2643 100.154 85.4664 99.958 84.6955 99.7587L85.1631 99.4546Z" fill="black"/>
<path d="M129.577 71.6886L130.328 71.5792C130.409 72.005 130.599 72.4182 130.867 72.8013L130.147 72.9693C129.85 72.5688 129.66 72.135 129.577 71.6886Z" fill="black"/>
<path d="M33.4467 125.656L33.9694 125.366C34.6893 125.613 35.4078 125.839 36.1009 126.089L35.5782 126.379C34.8583 126.132 34.1397 125.906 33.4467 125.656Z" fill="black"/>
<path d="M82.7978 98.8839L82.3315 99.2085C81.5337 99.0124 80.7372 98.8368 79.9393 98.6406L80.3787 98.3191C81.2021 98.4915 82 98.6877 82.7978 98.8839Z" fill="black"/>
<path d="M130.46 70.2786L129.73 70.3025C129.893 69.8893 130.163 69.4633 130.541 69.0247C130.592 68.9772 130.616 68.9328 130.667 68.8853L131.348 68.9501C131.297 68.9976 131.273 69.042 131.221 69.0689C130.842 69.4869 130.597 69.8891 130.46 70.2786Z" fill="black"/>
<path d="M133.154 67.5756C133.076 67.6263 132.998 67.677 132.92 67.7277L132.368 67.5647C132.446 67.514 132.551 67.4602 132.629 67.4095C133.255 67.0452 133.938 66.7158 134.702 66.3974L135.124 66.638C134.384 66.912 133.755 67.2351 133.154 67.5756Z" fill="black"/>
<path d="M29.2078 124.166L29.7573 123.873C30.4504 124.123 31.1434 124.373 31.8633 124.62L31.3407 124.91C30.5952 124.686 29.9022 124.436 29.2078 124.166Z" fill="black"/>
<path d="M77.5215 98.0963C76.6982 97.9238 75.8748 97.7514 75.0527 97.5996L75.4653 97.2813C76.3155 97.4505 77.1376 97.6024 77.9623 97.7954L77.5215 98.0963Z" fill="black"/>
<path d="M70.3167 96.3743C71.1911 96.4992 72.0401 96.6479 72.9158 96.7934L72.5033 97.1117C71.6544 96.963 70.8055 96.8143 69.931 96.6894L70.3167 96.3743Z" fill="black"/>
<path d="M25.1261 122.594L25.7039 122.319C26.3445 122.596 27.0107 122.849 27.7051 123.12L27.1555 123.413C26.4612 123.142 25.7936 122.868 25.1261 122.594Z" fill="black"/>
<path d="M64.9639 95.658C65.8639 95.7591 66.7639 95.8603 67.6652 95.982L67.3077 96.3146C66.4333 96.1897 65.5333 96.0885 64.6333 95.9874L64.9639 95.658Z" fill="black"/>
<path d="M21.3603 120.883L21.9662 120.624C22.5545 120.928 23.1682 121.208 23.7833 121.509L23.2056 121.785C22.5623 121.466 21.9485 121.186 21.3603 120.883Z" fill="black"/>
<path d="M59.3842 95.1975C60.3352 95.2512 61.2876 95.3254 62.2131 95.4028L61.9107 95.7496C60.9852 95.6722 60.061 95.6154 59.11 95.5617L59.3842 95.1975Z" fill="black"/>
<path d="M18.0405 118.952L18.7015 118.708C19.2104 119.042 19.7194 119.376 20.2808 119.683L19.6466 119.924C19.0853 119.617 18.5508 119.306 18.0405 118.952Z" fill="black"/>
<path d="M53.5798 95.0332C54.555 95.0425 55.5303 95.0518 56.5069 95.0817L56.2851 95.419C55.3354 95.3859 54.3601 95.3766 53.3862 95.3879L53.5798 95.0332Z" fill="black"/>
<path d="M15.356 116.799L16.0466 116.593C16.4225 116.964 16.8254 117.331 17.2806 117.671L16.6183 117.895C16.163 117.554 15.7333 117.19 15.356 116.799Z" fill="black"/>
<path d="M48.6605 95.1578C49.308 95.1228 49.9568 95.1085 50.6043 95.0735L50.4913 95.4187C49.8425 95.433 49.2219 95.4648 48.5744 95.4998C48.2238 95.5204 47.8732 95.5411 47.5226 95.5617L47.5818 95.2229C47.9324 95.2023 48.283 95.1816 48.6605 95.1578Z" fill="black"/>
<path d="M13.4952 114.405L14.2166 114.258C14.4327 114.668 14.7026 115.072 15.0248 115.449L14.306 115.637C14.0093 115.237 13.7395 114.833 13.4952 114.405Z" fill="black"/>
<path d="M41.5031 95.8357C42.5227 95.6946 43.5437 95.5741 44.5391 95.4774L44.5336 95.8098C43.5382 95.9066 42.5441 96.024 41.5513 96.1619L41.5031 95.8357Z" fill="black"/>
<path d="M12.6233 111.812L13.3756 111.724C13.4305 112.153 13.5404 112.596 13.6759 113.016L12.9263 113.146C12.7895 112.705 12.6795 112.262 12.6233 111.812Z" fill="black"/>
<path d="M35.5061 96.8757C36.4949 96.6761 37.4837 96.4764 38.502 96.3147L38.6308 96.6313C37.6407 96.8104 36.6775 96.9863 35.7156 97.1828L35.5061 96.8757Z" fill="black"/>
<path d="M12.9317 109.059L13.688 109.032C13.5279 109.486 13.4216 109.935 13.3959 110.373L12.6423 110.441C12.668 110.003 12.773 109.534 12.9317 109.059Z" fill="black"/>
<path d="M32.5706 97.5337L32.8069 97.8376C31.8477 98.0753 30.9167 98.3304 30.0139 98.6029L29.7252 98.3258C30.6535 98.0296 31.6114 97.7714 32.5706 97.5337Z" fill="black"/>
<path d="M15.2732 106.337C15.2235 106.405 15.1737 106.473 15.0958 106.524C14.7692 106.915 14.4964 107.3 14.2772 107.678L13.5451 107.661C13.7898 107.259 14.0627 106.874 14.3879 106.462C14.4376 106.394 14.4874 106.326 14.564 106.255L15.2732 106.337Z" fill="black"/>
<path d="M17.6682 103.607L18.2726 103.743C17.676 104.145 17.1089 104.586 16.6225 105.016L15.9656 104.907C16.479 104.473 17.046 104.033 17.6682 103.607Z" fill="black"/>
<path d="M22.3988 101.41C21.637 101.769 20.9034 102.146 20.2249 102.537L19.6715 102.354C20.3769 101.959 21.1374 101.579 21.9247 101.196L22.3988 101.41Z" fill="black"/>
<path d="M27.3336 99.4379C26.459 99.7278 25.6139 100.056 24.7688 100.384L24.3471 100.143C25.1922 99.8151 26.0642 99.484 26.9643 99.1704L27.3336 99.4379Z" fill="black"/>
<path d="M140.49 65.0505C139.528 65.247 138.595 65.4815 137.691 65.7334L137.403 65.4564C138.332 65.1807 139.318 64.9399 140.334 64.7371L140.49 65.0505Z" fill="black"/>
<path d="M146.343 64.2966C145.372 64.3491 144.376 64.4458 143.409 64.56L143.361 64.2339C144.38 64.0928 145.431 64.0102 146.429 63.9546L146.343 64.2966Z" fill="black"/>
<path d="M199.657 38.0945L199.052 37.9585C199.311 37.7827 199.598 37.6037 199.884 37.4248C200.302 37.1888 200.746 36.9496 201.221 36.7485L201.695 36.9621C201.247 37.1601 200.828 37.3755 200.437 37.6083C200.15 37.7667 199.889 37.9219 199.657 38.0945Z" fill="black"/>
<path d="M197.768 40.7012L197.014 40.7695C197.066 40.3071 197.251 39.829 197.572 39.3555L198.279 39.3966C197.982 39.8257 197.821 40.2595 197.768 40.7012Z" fill="black"/>
<path d="M206.92 35.2868C205.959 35.5039 205.027 35.7384 204.151 36.0077L203.835 35.7339C204.764 35.4377 205.75 35.1968 206.737 34.9766L206.92 35.2868Z" fill="black"/>
<path d="M160.207 65.169L160.564 64.8365C161.439 64.9614 162.313 65.0863 163.189 65.2318L162.831 65.5643C161.957 65.4394 161.081 65.2939 160.207 65.169Z" fill="black"/>
<path d="M218.882 33.5627C217.809 33.7102 216.815 33.8275 215.876 33.9591L215.828 33.633C216.767 33.5014 217.788 33.3809 218.834 33.2366L218.882 33.5627Z" fill="black"/>
<path d="M224.897 32.7921C223.876 32.9127 222.856 33.0538 221.89 33.1885L221.842 32.8624C222.835 32.7244 223.829 32.6071 224.85 32.4866L224.897 32.7921Z" fill="black"/>
<path d="M165.455 65.9405L165.812 65.6079C166.687 65.7328 167.561 65.8578 168.462 65.9795L168.105 66.312C167.231 66.1871 166.356 66.0622 165.455 65.9405Z" fill="black"/>
<path d="M230.912 32.0393C229.918 32.1566 228.899 32.2977 227.905 32.4151L227.856 32.0889C228.851 31.9716 229.87 31.8305 230.864 31.7131L230.912 32.0393Z" fill="black"/>
<path d="M170.781 66.6592L171.138 66.3267C172.039 66.4484 172.913 66.5528 173.812 66.6539L173.482 66.9833C172.582 66.8821 171.682 66.781 170.781 66.6592Z" fill="black"/>
<path d="M236.955 31.2846C235.961 31.402 234.967 31.5193 233.946 31.6399L233.924 31.3105C234.945 31.19 235.966 31.0695 236.934 30.9553L236.955 31.2846Z" fill="black"/>
<path d="M176.183 67.3077L176.514 66.9783C177.414 67.0795 178.314 67.1806 179.214 67.2818L178.883 67.6111C177.985 67.5306 177.085 67.4294 176.183 67.3077Z" fill="black"/>
<path d="M242.975 30.5952C242.034 30.7062 241.013 30.8267 239.965 30.9504L239.944 30.6211C240.992 30.4974 242.013 30.3769 242.953 30.2659L242.975 30.5952Z" fill="black"/>
<path d="M181.637 67.9083L181.939 67.5615C182.839 67.6627 183.765 67.7401 184.69 67.8175L184.388 68.1643C183.462 68.0869 182.535 67.9889 181.637 67.9083Z" fill="black"/>
<path d="M187.139 68.4201L187.441 68.0733C188.367 68.1507 189.292 68.2281 190.218 68.3055L189.942 68.6491C188.99 68.5749 188.064 68.4975 187.139 68.4201Z" fill="black"/>
<path d="M192.719 68.881L192.994 68.5374C193.92 68.6148 194.844 68.6716 195.796 68.7458L195.521 69.0894C194.595 69.012 193.643 68.9378 192.719 68.881Z" fill="black"/>
<path d="M230.54 51.7644C229.769 51.5651 228.971 51.3689 228.175 51.1933L228.614 50.8719C229.437 51.0443 230.235 51.2404 231.008 51.4604L230.54 51.7644Z" fill="black"/>
<path d="M163.438 89.9456L164.158 89.7776C164.428 90.1813 164.672 90.6088 164.861 91.0219L164.113 91.1725C163.951 90.7561 163.708 90.3493 163.438 89.9456Z" fill="black"/>
<path d="M198.347 69.254L198.596 68.9136C199.547 68.9672 200.471 69.0241 201.422 69.0777L201.173 69.4182C200.222 69.3645 199.298 69.3077 198.347 69.254Z" fill="black"/>
<path d="M232.83 52.4272C232.803 52.4304 232.802 52.4098 232.775 52.413L233.297 52.1026C233.323 52.0994 233.325 52.12 233.352 52.1168C234.07 52.3431 234.763 52.5931 235.429 52.8463L234.88 53.1393C234.214 52.8861 233.549 52.6535 232.83 52.4272Z" fill="black"/>
<path d="M164.574 92.4444L165.325 92.335C165.435 92.7783 165.491 93.2279 165.467 93.6871L164.713 93.7553C164.712 93.3199 164.683 92.8671 164.574 92.4444Z" fill="black"/>
<path d="M204.274 69.2176C204.789 69.2396 205.305 69.2617 205.821 69.2838C206.255 69.2948 206.69 69.3263 207.124 69.3373L206.902 69.6746C206.468 69.6636 206.033 69.632 205.599 69.621C205.084 69.599 204.568 69.5769 204.052 69.5548L204.274 69.2176Z" fill="black"/>
<path d="M164.753 96.4466L164.022 96.4499C164.264 96.0065 164.424 95.5521 164.557 95.1009L165.312 95.0532C165.18 95.5251 164.993 95.9827 164.753 96.4466Z" fill="black"/>
<path d="M212.708 69.8612C211.733 69.8518 210.757 69.8425 209.781 69.8126L210.003 69.4754C210.952 69.5084 211.928 69.5177 212.903 69.5271L212.708 69.8612Z" fill="black"/>
<path d="M239.093 54.6539L238.459 54.8947C237.95 54.5607 237.388 54.2537 236.802 53.9704L237.408 53.7122C237.994 53.9955 238.583 54.2994 239.093 54.6539Z" fill="black"/>
<path d="M163.108 97.8031L163.814 97.8441C163.462 98.259 163.083 98.677 162.597 99.1078C162.546 99.1553 162.52 99.179 162.469 99.2265L161.812 99.1174C161.838 99.0937 161.889 99.0462 161.915 99.0224C162.402 98.6123 162.783 98.2148 163.108 97.8031Z" fill="black"/>
<path d="M237.829 64.8006C238.298 64.5171 238.74 64.2368 239.125 63.9216C239.28 63.7997 239.434 63.6778 239.562 63.559L240.219 63.6681C240.064 63.79 239.91 63.912 239.755 64.0339C239.343 64.3522 238.875 64.6563 238.381 64.9635L237.829 64.8006Z" fill="black"/>
</g>
<defs>
<filter id="filter0_d_0_1" x="-83.4858" y="27.103" width="337.046" height="109.625" filterUnits="userSpaceOnUse" color-interpolation-filters="sRGB">
<feFlood flood-opacity="0" result="BackgroundImageFix"/>
<feColorMatrix in="SourceAlpha" type="matrix" values="0 0 0 0 0 0 0 0 0 0 0 0 0 0 0 0 0 0 127 0" result="hardAlpha"/>
<feOffset dy="3"/>
<feGaussianBlur stdDeviation="2"/>
<feComposite in2="hardAlpha" operator="out"/>
<feColorMatrix type="matrix" values="0 0 0 0 0 0 0 0 0 0 0 0 0 0 0 0 0 0 0.25 0"/>
<feBlend mode="normal" in2="BackgroundImageFix" result="effect1_dropShadow_0_1"/>
<feBlend mode="normal" in="SourceGraphic" in2="effect1_dropShadow_0_1" result="shape"/>
</filter>
<clipPath id="clip0_0_1">
<rect width="241.566" height="71.2595" fill="white" transform="matrix(0.993105 -0.117233 0.0647052 0.997904 9.12402 57.8477)"/>
</clipPath>
</defs>
</svg>
