<svg width="60" height="47" viewBox="0 0 60 47" fill="none" xmlns="http://www.w3.org/2000/svg">
<path d="M50.4608 46.8611C50.1931 46.8611 49.9257 46.8436 49.6617 46.8088C38.2042 45.2981 26.7751 40.4684 17.4801 33.2098C8.18508 25.9512 2.0021 17.027 0.0670372 8.07709C-0.0799326 7.39977 0.0158304 6.70389 0.343736 6.06643C0.671641 5.42896 1.21891 4.87474 1.92503 4.46506C4.50173 2.96062 7.22152 1.61176 10.0608 0.430203C10.7099 0.16061 11.431 0.0135771 12.166 0.000896325C12.9011 -0.0117845 13.6297 0.11024 14.2935 0.357183C20.2579 2.58775 24.1489 6.42822 25.8546 11.7705C26.0297 12.3299 26.0362 12.9133 25.8735 13.475C25.7108 14.0366 25.3834 14.5611 24.9171 15.0071L20.5517 19.1791C20.3419 19.3778 20.2164 19.6225 20.1925 19.8794C20.1686 20.1363 20.2476 20.3926 20.4184 20.6129C23.7175 24.8091 28.2373 28.3385 33.6107 30.9146C33.8921 31.0479 34.2197 31.1095 34.548 31.0909C34.8763 31.0722 35.189 30.9742 35.4428 30.8105L40.7843 27.4023C41.355 27.0375 42.0265 26.7815 42.7458 26.6543C43.4651 26.5272 44.2123 26.5324 44.9286 26.6696C51.7692 28.0017 56.6861 31.0404 59.5429 35.6984C59.8589 36.2169 60.0151 36.7859 59.9989 37.3599C59.9826 37.934 59.7945 38.4971 59.4494 39.0041C57.9359 41.2214 56.2086 43.3456 54.2823 45.3583C53.839 45.8238 53.2628 46.202 52.5993 46.4629C51.9359 46.7238 51.2036 46.8602 50.4608 46.8611ZM12.2706 2.46539C12.019 2.46516 11.7712 2.51346 11.5492 2.60601C8.85111 3.72793 6.26686 5.00935 3.81903 6.43907C3.57788 6.5777 3.39061 6.76577 3.27798 6.98245C3.16535 7.19912 3.13177 7.43593 3.18096 7.6666C5.00736 16.1137 10.8783 24.5653 19.7127 31.4657C28.5472 38.3661 39.371 42.9506 50.1873 44.377C50.4824 44.415 50.7853 44.3887 51.0625 44.3009C51.3397 44.2132 51.5805 44.0674 51.7585 43.8797C53.5889 41.9676 55.2299 39.9492 56.6672 37.8422C56.7799 37.6767 56.8415 37.4929 56.8469 37.3055C56.8522 37.1181 56.8013 36.9324 56.6982 36.7632C54.2343 32.7446 50.1348 30.2254 44.1673 29.0625C43.9279 29.0179 43.6785 29.0173 43.4386 29.0606C43.1988 29.1039 42.9751 29.19 42.785 29.3121L37.4442 32.7204C36.6818 33.2093 35.7433 33.5006 34.7591 33.5536C33.775 33.6067 32.7941 33.4189 31.953 33.0164C26.1597 30.2379 21.287 26.4318 17.7303 21.907C17.2153 21.2501 16.9751 20.4842 17.043 19.7158C17.111 18.9473 17.4836 18.2145 18.1093 17.619L22.4747 13.447C22.6307 13.2984 22.7405 13.1236 22.7953 12.9363C22.8501 12.749 22.8485 12.5543 22.7906 12.3675C21.3022 7.70755 18.0765 4.5065 12.9302 2.58183C12.7242 2.50511 12.4989 2.46532 12.2706 2.46539Z" fill="black"/>
</svg>
