<svg width="138" height="112" viewBox="0 0 138 112" fill="none" xmlns="http://www.w3.org/2000/svg">
<path d="M2.51367 99.2072C2.40954 99.2093 2.30611 99.1899 2.20978 99.1504C2.11344 99.1108 2.02627 99.0518 1.95367 98.9771C1.87838 98.9036 1.81855 98.8157 1.77771 98.7187C1.73686 98.6216 1.71582 98.5174 1.71582 98.4121C1.71582 98.3069 1.73686 98.2027 1.77771 98.1057C1.81855 98.0087 1.87838 97.9207 1.95367 97.8471L99.5837 0.207152C99.7358 0.0692643 99.9352 -0.00481196 100.141 0.000242655C100.346 0.00529727 100.541 0.0891029 100.687 0.234312C100.832 0.379522 100.916 0.575007 100.921 0.780302C100.926 0.985598 100.852 1.18498 100.714 1.33716L3.07367 98.9771C3.00106 99.0518 2.91389 99.1108 2.81756 99.1504C2.72122 99.1899 2.61779 99.2093 2.51367 99.2072Z" fill="#3A4351"/>
<path d="M0.80363 120.338C0.59392 120.342 0.390268 120.267 0.23363 120.128C0.0840197 119.978 0 119.775 0 119.563C0 119.351 0.0840197 119.148 0.23363 118.998L97.8736 21.3578C98.0266 21.2408 98.2167 21.183 98.409 21.1949C98.6012 21.2068 98.7827 21.2877 98.9201 21.4227C99.0575 21.5576 99.1416 21.7376 99.157 21.9296C99.1723 22.1216 99.1179 22.3128 99.0036 22.4678L1.36363 120.128C1.21113 120.268 1.01043 120.343 0.80363 120.338Z" fill="#3A4351"/>
<path d="M39.0537 101.496C38.8971 101.494 38.7446 101.446 38.6151 101.358C38.4856 101.27 38.3848 101.146 38.3252 101.001C38.2655 100.856 38.2497 100.697 38.2797 100.543C38.3096 100.39 38.384 100.248 38.4937 100.136L136.134 2.49621C136.286 2.35833 136.485 2.28425 136.691 2.28931C136.896 2.29436 137.091 2.37817 137.237 2.52337C137.382 2.66858 137.466 2.86407 137.471 3.06936C137.476 3.27466 137.402 3.47404 137.264 3.62622L39.6237 101.256C39.5493 101.332 39.4606 101.392 39.3628 101.434C39.2649 101.475 39.1598 101.496 39.0537 101.496Z" fill="#3A4351"/>
</svg>
