<svg width="158" height="122" viewBox="0 0 158 122" fill="none" xmlns="http://www.w3.org/2000/svg">
<g clip-path="url(#clip0_417_485)">
<path d="M130.515 99.1028C130.597 99.0989 130.678 99.0941 130.758 99.0886C131.757 98.9711 132.665 98.83 133.353 98.4992C133.962 98.2067 134.438 97.7271 134.713 96.8926C137.132 89.5604 139.175 82.4844 140.775 75.5294C142.169 69.4729 143.223 63.5258 143.893 57.6021C143.046 58.3835 142.063 59.2967 141.086 60.205C131.393 69.2147 122.258 77.7049 107.797 81.4802C107.45 81.5708 106.663 81.7846 105.889 81.9947C101.437 83.2039 97.4564 84.284 94.3811 82.9397C94.4505 83.0817 94.5205 83.2236 94.5909 83.3653C96.8841 87.9778 99.6978 92.4045 101.772 94.8095C103.421 96.7201 107.384 97.9493 112.014 98.6697C118.348 99.6554 125.817 99.6424 130.516 99.1163L130.515 99.1028ZM6.75889 78.7416L5.85651 80.5392L4.08161 79.6253L4.98397 77.8277L6.75889 78.7416ZM77.7549 115.299L76.8525 117.096L75.0776 116.182L75.98 114.385L77.7549 115.299ZM70.6553 111.643L69.7529 113.44L67.978 112.527L68.8804 110.729L70.6553 111.643ZM63.5557 107.987L62.6533 109.785L60.8784 108.871L61.7808 107.073L63.5557 107.987ZM56.456 104.332L55.5537 106.129L53.7788 105.215L54.6812 103.418L56.456 104.332ZM49.3564 100.676L48.4541 102.473L46.6792 101.559L47.5815 99.7619L49.3564 100.676ZM42.2568 97.0201L41.3545 98.8176L39.5796 97.9037L40.4819 96.1062L42.2568 97.0201ZM35.1572 93.3644L34.2549 95.1619L32.48 94.248L33.3823 92.4505L35.1572 93.3644ZM28.0576 89.7087L27.1552 91.5062L25.3804 90.5923L26.2827 88.7947L28.0576 89.7087ZM20.9581 86.053L20.0557 87.8505L18.2808 86.9366L19.1832 85.139L20.9581 86.053ZM13.8585 82.3973L12.9561 84.1948L11.1812 83.2809L12.0836 81.4834L13.8585 82.3973ZM139.206 107.038L138.468 108.91L136.619 108.163L137.357 106.29L139.206 107.038ZM154 113.018L153.262 114.891L151.413 114.143L152.151 112.271L154 113.018ZM146.603 110.028L145.865 111.901L144.016 111.153L144.754 109.28L146.603 110.028ZM19.7532 62.3975L17.5421 58.2047L13.2147 65.7283C15.7166 64.9511 17.8244 63.7848 19.7532 62.3975ZM10.4904 66.468L13.3704 61.4608C11.8502 60.8058 10.7297 59.7744 9.43514 58.5825C8.74189 57.9443 7.99433 57.2561 7.12197 56.5779C7.06029 56.53 7.00252 56.4915 6.94973 56.4631C6.52273 57.9392 6.16292 59.3983 6.03492 60.8321C5.90886 62.244 6.00583 63.6562 6.48686 65.0784C7.14453 67.0229 8.63355 66.9274 10.4904 66.468ZM14.384 59.6985L15.8994 57.0638C15.9095 57.0447 15.9202 57.0259 15.9316 57.0072C16.0988 56.7349 16.3129 56.523 16.5545 56.3705C16.8595 56.1781 17.2044 56.0859 17.5523 56.0903C17.8939 56.0946 18.2316 56.1921 18.529 56.3792C18.7796 56.5369 19.0027 56.7574 19.1753 57.0379L19.1734 57.0391C19.1849 57.0579 19.196 57.0772 19.2064 57.097L21.354 61.1693C22.7653 60.0227 24.108 58.7749 25.4784 57.5012C25.8611 57.1454 26.2462 56.7875 26.9719 56.1236C27.2503 55.8689 27.5525 55.7231 27.8726 55.6714C28.5687 55.5589 29.1879 55.8904 29.724 56.4993C30.0981 56.9242 30.4515 57.5188 30.7637 58.1769C31.5396 59.8122 32.0818 61.9748 32.0143 62.7481C31.8819 64.2646 31.0646 66.264 30.0059 68.2377C28.6566 70.753 26.891 73.2755 25.697 74.64C25.4006 74.9788 24.828 75.3951 24.0684 75.6908C23.5736 75.8834 22.9867 76.0343 22.3313 76.0889L22.2655 76.0966C20.2222 76.3328 16.9362 76.3441 14.1628 75.9125C11.9489 75.568 9.99987 74.9183 9.06774 73.8378C8.136 72.7576 6.8904 70.806 5.89097 68.7958C5.04031 67.0848 4.35264 65.3019 4.15542 63.917C3.97721 62.8227 3.96251 61.7355 4.05933 60.6509C4.20505 59.0188 4.60118 57.4194 5.06685 55.8178C5.1494 55.534 5.26944 55.2937 5.41977 55.0954C5.67136 54.7634 5.99361 54.5538 6.36276 54.4568C6.69724 54.3689 7.04965 54.382 7.40169 54.487C7.71456 54.5803 8.02947 54.7472 8.32754 54.9789C9.27958 55.719 10.0544 56.4323 10.7729 57.0938C11.9877 58.2121 13.0273 59.1691 14.384 59.6985ZM8.16458 68.853C8.97997 70.3583 9.87426 71.7182 10.5611 72.5144C11.1419 73.1877 12.6599 73.6397 14.4584 73.9196C17.0535 74.3234 20.1127 74.3159 22.0186 74.0981L22.0184 74.0947C22.0381 74.0937 22.0578 74.0926 22.0773 74.0914C22.441 74.0487 22.7657 74.0001 22.9749 73.8996C23.0889 73.8448 23.1798 73.7497 23.2361 73.5789C24.2316 70.5616 25.0733 67.6448 25.7346 64.7711C26.1838 62.8187 26.5472 60.897 26.8158 58.9897C22.7439 62.7744 18.9049 66.3398 12.7664 67.9424C12.7313 67.9515 12.387 68.0458 11.9818 68.1558C10.5878 68.5344 9.29549 68.8852 8.16458 68.853ZM28.8477 58.7857C28.565 60.9247 28.1692 63.0642 27.6712 65.228C27.2661 66.9885 26.7913 68.7736 26.2532 70.5949C26.9426 69.5726 27.6472 68.4259 28.2636 67.2766C29.203 65.5254 29.9242 63.7974 30.0309 62.5748C30.0765 62.0532 29.6166 60.396 28.9748 59.0434C28.9331 58.9555 28.8907 58.8694 28.8477 58.7857ZM32.9506 81.8935L32.0821 83.7081L30.2904 82.8285L31.159 81.0139L32.9506 81.8935ZM111.786 120.598L110.917 122.413L109.125 121.533L109.994 119.718L111.786 120.598ZM104.619 117.079L103.75 118.894L101.959 118.014L102.827 116.2L104.619 117.079ZM97.452 113.561L96.5834 115.375L94.7917 114.496L95.6603 112.681L97.452 113.561ZM90.2852 110.042L89.4166 111.857L87.6249 110.977L88.4935 109.163L90.2852 110.042ZM83.1183 106.524L82.2498 108.338L80.4581 107.459L81.3266 105.644L83.1183 106.524ZM75.9515 103.005L75.0829 104.82L73.2912 103.94L74.1598 102.125L75.9515 103.005ZM68.7847 99.4864L67.9161 101.301L66.1244 100.421L66.993 98.6068L68.7847 99.4864ZM61.6179 95.9679L60.7493 97.7824L58.9576 96.9028L59.8262 95.0882L61.6179 95.9679ZM54.4511 92.4493L53.5825 94.2639L51.7908 93.3842L52.6594 91.5696L54.4511 92.4493ZM47.2843 88.9307L46.4157 90.7453L44.624 89.8656L45.4926 88.051L47.2843 88.9307ZM40.1175 85.4121L39.2489 87.2267L37.4572 86.3471L38.3258 84.5325L40.1175 85.4121ZM76.3223 92.9439C76.015 92.7903 75.8887 92.4133 76.0404 92.102C76.1921 91.7907 76.5643 91.6629 76.8716 91.8165L149.668 128.12C149.975 128.274 150.101 128.65 149.95 128.962C149.798 129.273 149.426 129.401 149.118 129.247L76.3223 92.9439ZM61.048 69.3762L57.9126 63.4307C57.879 63.3761 57.8399 63.3359 57.7989 63.3101C57.7633 63.2877 57.7292 63.2761 57.7001 63.2757C57.6773 63.2755 57.6522 63.283 57.6275 63.2986C57.5999 63.316 57.5718 63.3462 57.5448 63.3902L57.5414 63.3956L51.3194 74.2134C55.1096 73.153 58.2213 71.4398 61.048 69.3762ZM48.9864 74.2728L52.6636 67.8795C50.5263 67.0437 48.9988 65.6375 47.2179 63.9981C46.318 63.1696 45.349 62.2775 44.2163 61.391C44.6589 63.4218 45.2324 65.6227 45.9919 67.8031C46.7733 70.0463 47.7516 72.2718 48.9864 74.2728ZM53.682 66.1088L55.8248 62.3833C55.8349 62.3642 55.8456 62.3453 55.857 62.3267C56.051 62.0106 56.2988 61.7652 56.5775 61.5892C56.9281 61.368 57.3243 61.262 57.7234 61.267C58.1163 61.272 58.5054 61.3846 58.8489 61.6008C59.1399 61.7839 59.3993 62.0404 59.6003 62.3673L59.5984 62.3685C59.6099 62.3873 59.621 62.4065 59.6314 62.4263L62.6495 68.1492C64.6307 66.5632 66.5023 64.8238 68.4147 63.0463C68.9543 62.5447 69.4977 62.0397 70.3854 61.2276C70.7104 60.9303 71.0602 60.7609 71.428 60.7017C72.2246 60.5734 72.9498 60.9621 73.5893 61.6718C74.0694 62.2047 74.523 62.953 74.9229 63.7805C75.9069 65.8166 76.5904 68.4661 76.5054 69.4402C76.333 71.4141 75.2492 74.0999 73.8505 76.7581C72.0879 80.108 69.8018 83.463 68.2489 85.2376C67.8847 85.6538 67.1738 86.1682 66.2221 86.5386C65.5895 86.7848 64.8374 86.9773 63.9956 87.0453L63.9176 87.0544C61.2405 87.3639 56.9336 87.3785 53.2966 86.8125C50.4384 86.3677 47.9327 85.5412 46.7576 84.179C45.5428 82.7707 43.915 80.2186 42.6056 77.5848C41.4954 75.3518 40.5988 73.0308 40.3437 71.2378C40.1118 69.818 40.0925 68.4069 40.2182 66.9989C40.4082 64.8704 40.9275 62.7757 41.5381 60.6756C41.6356 60.3402 41.7763 60.0577 41.9518 59.8261C42.2387 59.4476 42.605 59.2091 43.024 59.0989C43.4084 58.9979 43.8164 59.0138 44.2267 59.1362C44.6024 59.2482 44.9832 59.4506 45.3463 59.733C46.5912 60.7008 47.6105 61.6391 48.5557 62.5093C50.2612 64.0794 51.7097 65.4127 53.682 66.1088ZM44.7527 77.4117C45.9147 79.6348 47.2465 81.6912 48.251 82.8556C49.0747 83.8105 51.1494 84.4395 53.5922 84.8196C57.0382 85.3559 61.101 85.3471 63.6427 85.0592L63.6424 85.0534C63.6758 85.0518 63.7091 85.0499 63.7421 85.0478C64.251 84.988 64.7088 84.9184 65.0273 84.7653C65.2539 84.6565 65.4323 84.4739 65.5385 84.152C66.858 80.1526 67.973 76.2891 68.848 72.4866C69.5131 69.5965 70.0362 66.7551 70.4011 63.9316C70.1921 64.1257 69.976 64.3267 69.7602 64.5272C64.4065 69.5034 59.3615 74.1925 51.3256 76.2904C51.2705 76.3048 50.7741 76.4396 50.2854 76.5724C48.2259 77.1317 46.3409 77.6431 44.7527 77.4117ZM72.46 63.4631C72.0836 66.6095 71.5183 69.7553 70.7847 72.9435C70.1134 75.8608 69.2977 78.8272 68.3541 81.8736C69.5775 80.1753 70.9509 77.9977 72.1005 75.8129C73.384 73.3735 74.3746 70.9555 74.522 69.2669C74.5843 68.553 73.9862 66.4102 73.1418 64.6627C72.9259 64.216 72.6959 63.8043 72.46 63.4631ZM48.0203 75.078C46.6904 72.9537 45.6467 70.5938 44.8204 68.2216C44.1195 66.2095 43.5749 64.1916 43.1444 62.3031C42.6972 63.944 42.3375 65.5706 42.1938 67.1801C42.0234 69.0883 42.1548 70.9979 42.8059 72.9229C43.7089 75.5928 45.6224 75.6248 48.0203 75.078ZM118.999 13.8283C113.368 15.1376 110.2 13.3151 107.044 11.4982C104.471 10.0176 101.906 8.54186 97.7911 9.17637V27.931C102.377 27.3274 105.19 28.9561 108.007 30.5872C110.905 32.2657 113.809 33.9467 118.999 32.619V13.8283ZM118.999 34.6895C113.352 36.0028 110.183 34.1681 107.019 32.336C104.296 30.759 101.577 29.1847 97.0126 30.1035C96.9427 30.1192 96.8701 30.1276 96.7955 30.1276C96.2457 30.1276 95.7999 29.6761 95.7999 29.1193V8.33635H95.8023C95.8018 7.86944 96.1242 7.4505 96.5933 7.35169C101.914 6.23278 104.964 7.98819 108.024 9.74947C110.915 11.4139 113.818 13.0837 118.999 11.758V8.76297C118.999 8.20613 119.445 7.7547 119.995 7.7547C120.545 7.7547 120.99 8.20613 120.99 8.76297V56.0107C121.094 56.0613 121.196 56.1179 121.296 56.1804C121.724 56.4497 122.106 56.8287 122.404 57.3127L122.402 57.3139C122.414 57.3328 122.425 57.352 122.435 57.3718L128.403 68.6883C132.324 65.6169 135.99 62.2103 139.741 58.724C140.815 57.7254 141.897 56.7199 143.33 55.4084C143.806 54.9733 144.294 54.7248 144.789 54.6364C145.87 54.4433 146.827 54.9854 147.657 55.9982C148.331 56.8202 148.935 57.9786 149.452 59.2778C150.836 62.757 151.665 67.4391 151.517 69.1343C151.189 72.8913 149.305 78.3367 146.884 83.6176C144.227 89.4119 140.901 95.0545 138.27 98.0615C137.676 98.7402 136.495 99.5874 134.892 100.211C133.794 100.639 132.484 100.972 131.012 101.086L130.886 101.101C126.057 101.659 118.286 101.685 111.718 100.663C106.673 99.8776 102.279 98.4507 100.279 96.1328C98.1037 93.6111 95.179 89.021 92.8176 84.2712C90.8261 80.2655 89.2199 76.1168 88.7692 72.939H88.7692C88.3554 70.4154 88.3206 67.9059 88.5443 65.4012C88.8847 61.5882 89.8215 57.8127 90.924 54.021C91.0724 53.5104 91.2833 53.0849 91.5444 52.7405C91.9508 52.2042 92.4669 51.8668 93.0551 51.7122C93.6088 51.5667 94.2055 51.5924 94.8137 51.7738C95.4024 51.9493 96.0066 52.2724 96.5905 52.7263C98.8296 54.467 100.678 56.169 102.393 57.7474C105.757 60.8443 108.586 63.448 112.674 64.6997L116.933 57.2953C116.943 57.2763 116.953 57.2574 116.965 57.2388C117.25 56.7741 117.612 56.415 118.017 56.1594C118.325 55.9649 118.657 55.8322 118.999 55.7599V34.6895ZM121.405 59.6817L114.162 75.5297C114.018 75.8451 113.649 75.9828 113.338 75.8374C113.053 75.7046 112.915 75.3814 113.003 75.0861L115.884 63.1153L106.286 79.8038C106.564 79.7296 106.892 79.6429 107.307 79.5345C115.02 77.5209 121.206 74.0793 126.8 69.913L121.405 59.6817ZM118.079 59.2985L115.708 69.1527L120.667 58.3009C120.546 58.1255 120.402 57.9881 120.246 57.8898C120.054 57.769 119.845 57.7061 119.642 57.7035C119.445 57.7011 119.246 57.7554 119.067 57.8687C118.913 57.9659 118.771 58.1097 118.653 58.3022L118.649 58.3077L118.079 59.2985ZM103.939 79.8865L111.647 66.4857C107.393 65.0707 104.488 62.3963 101.055 59.2362C99.3658 57.6811 97.5443 56.0041 95.3849 54.3254C94.992 54.02 94.6075 53.8091 94.2537 53.7037C94.2369 53.6987 94.2203 53.6939 94.2037 53.6894C95.0531 57.8167 96.1962 62.4123 97.7826 66.9666C99.3525 71.4733 101.357 75.944 103.939 79.8865ZM136.903 96.5941C139.39 93.6962 142.534 88.3248 145.079 82.7747C147.414 77.6827 149.227 72.4782 149.534 68.961C149.664 67.4728 148.888 63.2431 147.608 60.0261C147.161 58.9018 146.661 57.9267 146.133 57.2822C146.071 57.2064 146.009 57.1361 145.949 57.0717C145.274 63.3439 144.178 69.6146 142.712 75.9863C141.17 82.6842 139.214 89.5152 136.903 96.5941ZM93.0211 54.1178C92.9474 54.248 92.883 54.4044 92.8295 54.5882C91.7558 58.2809 90.8448 61.9425 90.5199 65.5824C90.1991 69.1751 90.4473 72.7727 91.6753 76.4037C93.6572 82.2634 97.8201 81.9737 102.973 80.6848C100.294 76.6201 98.2247 72.0172 96.6111 67.3851C95.0227 62.825 93.8753 58.2411 93.0211 54.1178Z" fill="black"/>
</g>
<defs>
<clipPath id="clip0_417_485">
<rect width="158" height="122" fill="white"/>
</clipPath>
</defs>
</svg>
