<svg width="81" height="43" viewBox="0 0 81 43" fill="none" xmlns="http://www.w3.org/2000/svg">
<path fill-rule="evenodd" clip-rule="evenodd" d="M56.2 17.8063C56.8 17.7291 57.3 17.652 57.9 17.652C66.8 17.652 74 23.2057 74 30.0707C74 36.9357 66.7 42.4895 57.9 42.4895C49.1 42.4895 41.8 36.9357 41.8 30.0707C41.8 13.641 59.1 0.296631 80.4 0.296631V7.70159C70.3 7.77872 61.4 11.7897 56.2 17.8063ZM14.4 17.8063C15 17.7291 15.5 17.652 16.1 17.652C25 17.652 32.2 23.2057 32.2 30.0707C32.2 36.9357 25 42.4895 16.1 42.4895C7.2 42.4895 0 36.9357 0 30.0707C0 13.641 17.3 0.296631 38.6 0.296631V7.70159C28.5 7.77872 19.6 11.7897 14.4 17.8063Z" fill="white"/>
</svg>
