<svg width="66" height="76" viewBox="0 0 66 76" fill="none" xmlns="http://www.w3.org/2000/svg">
<path d="M40.8 26.7C40.9 25.6 40.9 24.7 41 23.8C41.1 18.4 41.1 13.1 41.1 7.7C41.1 7 41.1 6.4 41.1 5.7C41.3 3 42.3 1.8 45 1.5C47.4 1.2 49.8 1.1 52.1 0.799999C54.8 0.599999 57.5 0.299999 60.2 0.0999994C60.9 -5.73695e-07 61.7 0 62.4 0C64.2 0.1 65.2 1 65.3 2.4C65.4 3.8 64.4 4.8 62.7 5.2C62.1 5.3 61.6 5.3 61 5.4C57.1 5.7 53.3 6.1 49.4 6.4C48.5 6.5 47.6 6.6 46.5 6.7C46.4 7.7 46.3 8.5 46.3 9.4C46.2 14.9 46.2 20.4 46.2 26C46.2 30.7 45.5 31.5 40.7 32C36.4 32.5 32 33 27.7 33.6C27.1 33.7 26.4 33.9 25.6 34.1C25.5 35.1 25.5 35.9 25.4 36.8C25.3 41.4 25.2 46 25.2 50.6C25.2 51.3 25.2 52.1 25.1 52.8C24.9 55.6 24 56.6 21.2 57C17.9 57.5 14.7 57.8 11.4 58.2C9.5 58.4 7.5 58.7 5.4 59C5.4 60.7 5.4 62.2 5.4 63.6C5.4 66.1 5.5 68.5 5.5 71C5.5 71.7 5.5 72.3 5.4 73C5.1 74.3 4.2 75.1 3.1 75.2C1.9 75.3 0.800002 74.5 0.400002 73.1C0.200002 72.5 0.200001 71.8 0.200001 71.1C0.100001 67 0 62.9 0 58.7C0 55 0.9 54 4.5 53.5C8.8 52.9 13.2 52.4 17.5 51.9C19.8 51.6 19.9 51.6 19.9 49.1C20 44.2 20.1 39.4 20.2 34.5C20.2 33.8 20.2 33 20.3 32.3C20.6 29.9 21.6 28.8 24 28.4C27.9 27.8 31.8 27.4 35.8 26.9C37.4 27.1 38.9 26.9 40.8 26.7Z" fill="black"/>
</svg>
