<svg width="403" height="466" viewBox="0 0 403 466" fill="none" xmlns="http://www.w3.org/2000/svg">
<path d="M180.59 338.324C179.999 338.064 179.363 337.925 178.717 337.915C178.072 337.905 177.431 338.024 176.833 338.266C176.235 338.508 175.691 338.867 175.234 339.323C174.776 339.778 174.415 340.321 174.171 340.918C173.927 341.516 173.806 342.156 173.813 342.802C173.821 343.447 173.958 344.084 174.216 344.676C174.474 345.267 174.848 345.801 175.316 346.246C175.784 346.69 176.336 347.036 176.94 347.264C201.56 357.334 216.26 372.784 216.26 388.604C216.26 417.174 169.41 441.304 113.96 441.304C58.51 441.304 11.66 417.174 11.66 388.604C11.66 373.074 25.24 358.324 48.92 348.134C50.068 347.609 50.9648 346.655 51.4185 345.477C51.8722 344.299 51.8466 342.99 51.3473 341.831C50.848 340.672 49.9146 339.754 48.7469 339.274C47.5793 338.794 46.2702 338.791 45.1 339.264C17.71 351.054 2 369.034 2 388.604C2 423.604 51.18 450.964 114 450.964C176.82 450.964 226 423.574 226 388.604C225.92 368.464 209.4 350.104 180.59 338.324Z" fill="black"/>
<path d="M68.0606 279.253C69.4055 279.253 70.7466 279.109 72.0606 278.823V380.913C72.0309 381.565 72.1337 382.216 72.3628 382.828C72.5919 383.439 72.9425 383.997 73.3935 384.469C73.8445 384.941 74.3864 385.317 74.9866 385.574C75.5868 385.83 76.2328 385.963 76.8856 385.963C77.5384 385.963 78.1844 385.83 78.7846 385.574C79.3848 385.317 79.9268 384.941 80.3778 384.469C80.8287 383.997 81.1793 383.439 81.4084 382.828C81.6375 382.216 81.7403 381.565 81.7106 380.913V273.393C85.0696 269.897 86.9503 265.241 86.9606 260.393V188.683C86.9606 187.402 86.4517 186.173 85.5459 185.268C84.6401 184.362 83.4116 183.853 82.1306 183.853C80.8496 183.853 79.6211 184.362 78.7153 185.268C77.8095 186.173 77.3006 187.402 77.3006 188.683V260.363C77.3006 262.848 76.3134 265.231 74.5562 266.989C72.799 268.746 70.4157 269.733 67.9306 269.733C65.4455 269.733 63.0623 268.746 61.305 266.989C59.5478 265.231 58.5606 262.848 58.5606 260.363V192.463C58.5739 180.581 63.3005 169.189 71.7033 160.789C80.1061 152.388 91.4986 147.663 103.381 147.653H124.561C136.441 147.666 147.831 152.391 156.231 160.792C164.632 169.193 169.357 180.583 169.371 192.463V260.363C169.368 262.81 168.395 265.156 166.664 266.887C164.934 268.617 162.588 269.59 160.141 269.593H159.391C156.943 269.59 154.597 268.617 152.867 266.887C151.137 265.156 150.163 262.81 150.161 260.363V188.683C150.161 187.402 149.652 186.173 148.746 185.268C147.84 184.362 146.612 183.853 145.331 183.853C144.05 183.853 142.821 184.362 141.915 185.268C141.009 186.173 140.501 187.402 140.501 188.683V260.363C140.5 262.883 141.007 265.378 141.989 267.699C142.972 270.019 144.411 272.119 146.221 273.873V380.873C146.191 381.525 146.294 382.176 146.523 382.788C146.752 383.399 147.103 383.957 147.553 384.429C148.004 384.901 148.546 385.277 149.147 385.534C149.747 385.79 150.393 385.923 151.046 385.923C151.698 385.923 152.344 385.79 152.945 385.534C153.545 385.277 154.087 384.901 154.538 384.429C154.989 383.957 155.339 383.399 155.568 382.788C155.798 382.176 155.9 381.525 155.871 380.873V278.873C157.03 279.098 158.209 279.212 159.391 279.213H160.141C165.149 279.208 169.951 277.216 173.492 273.674C177.033 270.133 179.025 265.331 179.031 260.323V192.463C179.012 180.334 174.954 168.557 167.497 158.992C160.04 149.427 149.608 142.619 137.851 139.643C144.509 134.632 149.423 127.655 151.898 119.698C154.373 111.741 154.283 103.207 151.642 95.3034C149 87.4001 143.94 80.5275 137.178 75.6578C130.416 70.7881 122.294 68.168 113.961 68.168C105.628 68.168 97.5054 70.7881 90.7433 75.6578C83.9811 80.5275 78.9214 87.4001 76.2797 95.3034C73.6381 103.207 73.5484 111.741 76.0233 119.698C78.4982 127.655 83.4124 134.632 90.0706 139.643C78.3128 142.619 67.8815 149.427 60.4242 158.992C52.967 168.557 48.9088 180.334 48.8906 192.463V260.363C48.905 262.863 49.4127 265.336 50.3846 267.64C51.3565 269.943 52.7736 272.032 54.5545 273.787C56.3354 275.542 58.4451 276.928 60.7628 277.866C63.0805 278.804 65.5605 279.275 68.0606 279.253ZM83.8906 107.893C83.8886 101.945 85.6505 96.1305 88.9535 91.1842C92.2564 86.2379 96.952 82.3822 102.446 80.1047C107.941 77.8273 113.987 77.2303 119.821 78.3895C125.655 79.5486 131.013 82.4117 135.22 86.6167C139.426 90.8216 142.291 96.1796 143.452 102.013C144.613 107.846 144.018 113.893 141.743 119.388C139.467 124.883 135.613 129.58 130.668 132.885C125.722 136.189 119.908 137.953 113.961 137.953C105.99 137.945 98.3474 134.776 92.7102 129.14C87.073 123.505 83.9012 115.864 83.8906 107.893Z" fill="black"/>
<path d="M258.89 212.674C248.13 208.304 237 203.784 227.64 198.894C221.03 195.444 210.09 188.494 211.14 180.824C211.82 175.734 220.07 157.824 297.14 141.304C297.784 141.198 298.401 140.963 298.952 140.612C299.503 140.262 299.977 139.803 300.346 139.264C300.715 138.725 300.971 138.116 301.097 137.476C301.224 136.835 301.22 136.175 301.085 135.536C300.949 134.897 300.686 134.292 300.31 133.758C299.934 133.224 299.454 132.771 298.898 132.428C298.342 132.085 297.723 131.858 297.077 131.761C296.431 131.664 295.772 131.699 295.14 131.864C254.22 140.644 204.78 156.044 201.58 179.524C200.18 189.834 207.45 199.224 223.19 207.454C232.95 212.564 244.3 217.164 255.27 221.624C278.35 230.994 302.2 240.694 304.88 252.704C305.93 257.464 303.57 262.874 297.67 269.244C285.96 281.874 216.41 306.414 190.61 314.804C189.519 315.161 188.591 315.895 187.992 316.874C187.394 317.854 187.163 319.014 187.343 320.148C187.522 321.282 188.099 322.315 188.971 323.062C189.843 323.808 190.952 324.22 192.1 324.224C192.609 324.222 193.115 324.141 193.6 323.984C203.33 320.824 289.21 292.564 304.75 275.814C312.86 267.064 316.08 258.584 314.3 250.614C310.5 233.644 285.44 223.464 258.89 212.674Z" fill="black"/>
<path d="M400.221 30.4624L344.771 4.46239C344.035 4.11465 343.224 3.95878 342.411 4.0093C341.599 4.05983 340.813 4.31511 340.126 4.75136C339.44 5.18761 338.874 5.79063 338.484 6.50422C338.093 7.2178 337.889 8.01874 337.891 8.83239V120.692C325.741 122.232 316.801 129.512 316.801 138.522C316.801 148.702 328.181 156.662 342.721 156.662C357.261 156.662 368.641 148.662 368.641 138.522C368.641 129.522 359.701 122.232 347.551 120.692V61.4624L400.041 39.2924C400.901 38.9297 401.637 38.3257 402.161 37.5534C402.684 36.7812 402.973 35.8737 402.992 34.9408C403.011 34.0079 402.76 33.0894 402.268 32.2964C401.776 31.5034 401.065 30.8699 400.221 30.4724V30.4624ZM358.981 138.522C358.981 142.522 351.981 147.012 342.721 147.012C333.461 147.012 326.501 142.532 326.501 138.522C326.501 134.512 333.501 130.042 342.771 130.042C352.041 130.042 358.981 134.522 358.981 138.522ZM347.551 50.9824V16.4024L386.311 34.6124L347.551 50.9824Z" fill="black"/>
<path d="M109.129 288.174V380.914C109.129 382.195 109.638 383.423 110.544 384.329C111.449 385.235 112.678 385.744 113.959 385.744C115.24 385.744 116.468 385.235 117.374 384.329C118.28 383.423 118.789 382.195 118.789 380.914V288.174C118.789 286.893 118.28 285.664 117.374 284.758C116.468 283.853 115.24 283.344 113.959 283.344C112.678 283.344 111.449 283.853 110.544 284.758C109.638 285.664 109.129 286.893 109.129 288.174Z" fill="black"/>
</svg>
