<svg width="120" height="102" viewBox="0 0 120 102" fill="none" xmlns="http://www.w3.org/2000/svg">
<path d="M59.8689 66.87C59.4589 66.48 58.8189 66.5 58.4289 66.91C58.0389 67.32 58.0589 67.96 58.4689 68.35C61.1489 70.88 61.9489 76.07 61.6189 78.02C61.5189 78.57 61.8989 79.1 62.4489 79.2C62.5089 79.21 62.5689 79.21 62.6189 79.21C63.1089 79.21 63.5389 78.86 63.6189 78.36C63.8589 76.94 63.6689 74.8 63.1189 72.78C62.6389 71.03 61.6889 68.58 59.8689 66.86V66.87Z" fill="black"/>
<path d="M81.2396 43.2501C79.7196 42.7501 78.0396 42.9201 76.6496 43.7001C76.5596 43.7501 76.4696 43.8001 76.3896 43.8601C76.3896 42.7301 76.0996 41.6101 75.5196 40.6101C74.6796 39.1701 73.3396 38.1301 71.7296 37.6701C69.9096 37.1601 67.9696 37.4701 66.4096 38.5201C66.1496 38.6901 65.9096 38.8801 65.6896 39.0901C65.4696 37.9901 64.9596 36.9501 64.1896 36.1001C63.0096 34.8101 61.3396 34.0701 59.5896 34.0701C57.1496 34.0701 55.0396 35.4801 54.0196 37.5201C53.0596 36.3601 51.6696 35.5701 50.0796 35.3901C48.4396 35.2001 46.8396 35.6801 45.5696 36.7301C44.2996 37.7801 43.5296 39.2701 43.4096 40.9201L42.9696 46.9701C39.9096 48.9101 36.3096 51.4901 33.6996 53.4201C31.3496 55.1501 30.3096 58.0901 31.0496 60.9101C32.3096 65.7301 34.9296 71.6901 38.8396 78.6101C41.2996 82.9801 43.5296 86.3701 44.1596 87.3101V93.0701C44.1596 93.6301 44.6196 94.0901 45.1796 94.0901C45.7396 94.0901 46.1996 93.6301 46.1996 93.0701V87.0001C46.1996 86.8001 46.1396 86.6001 46.0196 86.4301C45.9196 86.2801 35.9196 71.5101 33.0196 60.3901C32.4896 58.3801 33.2396 56.2801 34.9096 55.0501C37.8396 52.8901 42.0096 49.9101 45.2196 47.9701C46.5196 47.1801 48.1096 47.0901 49.4796 47.7301L61.6396 53.3401C62.1296 53.5601 62.4696 53.9901 62.5796 54.5201C62.6896 55.0501 62.5596 55.5801 62.2096 55.9801C60.5696 57.8901 58.0996 58.8801 55.5896 58.6301C51.7496 58.2401 49.1596 57.8901 48.0896 57.6301C47.8096 57.5601 47.5096 57.6101 47.2696 57.7701C47.2396 57.7901 44.7396 59.4801 43.4596 60.3601C42.9996 60.6801 42.8796 61.3101 43.1996 61.7801C43.5196 62.2401 44.1496 62.3601 44.6196 62.0401C45.2796 61.5901 46.2596 60.9201 47.0596 60.3801C47.0996 60.3801 47.1396 60.3901 47.1796 60.4001C47.2096 60.4001 50.4396 60.6201 52.9396 62.4701C53.1196 62.6001 53.3296 62.6701 53.5396 62.6701C53.8496 62.6701 54.1596 62.5301 54.3596 62.2601C54.6896 61.8101 54.5996 61.1701 54.1496 60.8301C53.9796 60.7101 53.8096 60.5901 53.6396 60.4801C54.1896 60.5401 54.7696 60.6001 55.3796 60.6601C57.8496 60.9101 60.2996 60.2001 62.2396 58.7301L62.1596 59.4401C61.9496 61.3401 60.3496 62.7701 58.4396 62.7701C57.8796 62.7701 57.4196 63.2301 57.4196 63.7901C57.4196 64.3501 57.8796 64.8101 58.4396 64.8101C60.0596 64.8101 61.5296 64.1401 62.5896 63.0601C63.1396 64.3201 64.1996 65.3401 65.5696 65.8101C66.0996 65.9901 66.6496 66.0801 67.1896 66.0801C68.0296 66.0801 68.8596 65.8701 69.5996 65.4601C69.7996 65.3501 69.9996 65.2201 70.1796 65.0901C70.5396 66.8601 71.8096 68.3701 73.6296 68.9901C74.1896 69.1801 74.7596 69.2701 75.3296 69.2701C76.1496 69.2701 76.9596 69.0801 77.7096 68.6901C78.9896 68.0401 79.9196 66.9201 80.3396 65.5501L82.3096 59.0901C81.8096 64.5001 81.0396 71.2601 79.9896 76.3601C78.9096 81.5801 76.3396 84.6801 74.3696 86.3701C72.0696 88.3301 69.9496 88.9201 69.4496 88.8301C68.8996 88.7301 68.3696 89.1001 68.2696 89.6601C68.1696 90.2101 68.5396 90.7401 69.0996 90.8401C69.2296 90.8601 69.3696 90.8701 69.5296 90.8701C70.6796 90.8701 72.4796 90.2501 74.3596 88.9501V93.0701C74.3596 93.6301 74.8196 94.0901 75.3796 94.0901C75.9396 94.0901 76.3996 93.6301 76.3996 93.0701V87.2901C78.4896 85.3001 80.9196 81.9701 81.9896 76.7801C83.9996 67.0201 84.9796 51.4001 85.0596 50.0701C85.7696 47.1601 84.1196 44.1701 81.2496 43.2401L81.2396 43.2501ZM45.0696 45.7701L45.4096 41.0701C45.4896 39.9801 45.9996 39.0001 46.8396 38.3001C47.6796 37.6001 48.7396 37.2901 49.8196 37.4101C51.8296 37.6401 53.3396 39.3301 53.3396 41.3501V47.2901L50.2896 45.8801C48.6296 45.1101 46.7396 45.0801 45.0696 45.7501V45.7701ZM62.4496 51.5101L55.3796 48.2501V40.3001C55.3796 37.9901 57.2596 36.1101 59.5696 36.1101C60.7596 36.1101 61.8596 36.6001 62.6696 37.4801C63.4796 38.3601 63.8496 39.5001 63.7396 40.6901V40.7101L62.8796 51.7501C62.7396 51.6601 62.5996 51.5901 62.4496 51.5201V51.5101ZM68.5996 63.6901C67.8596 64.1001 66.9996 64.1701 66.1996 63.9001C64.8996 63.4601 64.0796 62.1901 64.1896 60.8301L65.6396 43.3601C65.7796 42.0801 66.4696 40.9401 67.5396 40.2301C68.6096 39.5101 69.9296 39.3001 71.1696 39.6501C73.4396 40.2901 74.7796 42.5901 74.2196 44.8901L70.0696 61.8001C69.8696 62.6201 69.3496 63.3001 68.5996 63.7101V63.6901ZM78.3696 64.9801C78.1096 65.8201 77.5396 66.5001 76.7596 66.9001C75.9796 67.3001 75.0896 67.3601 74.2596 67.0801C72.6896 66.5401 71.7896 64.9201 72.1696 63.3001L75.8396 47.8701C76.0796 46.8501 76.7196 46.0001 77.6296 45.4901C78.1996 45.1701 78.8096 45.0101 79.4396 45.0101C79.8296 45.0101 80.2196 45.0701 80.5996 45.2001C82.4696 45.8101 83.5396 47.7701 83.0496 49.6701L78.3696 64.9901V64.9801Z" fill="black"/>
<path d="M58.0005 21.17C58.5605 21.17 59.0205 20.71 59.0205 20.15V13.02C59.0205 12.46 58.5605 12 58.0005 12C57.4405 12 56.9805 12.46 56.9805 13.02V20.15C56.9805 20.71 57.4405 21.17 58.0005 21.17Z" fill="black"/>
<path d="M22.15 63.6201H15.02C14.46 63.6201 14 64.0801 14 64.6401C14 65.2001 14.46 65.6601 15.02 65.6601H22.15C22.71 65.6601 23.17 65.2001 23.17 64.6401C23.17 64.0801 22.71 63.6201 22.15 63.6201Z" fill="black"/>
<path d="M37.4291 27.5601C37.6291 27.8301 37.9391 27.9701 38.2491 27.9701C38.4591 27.9701 38.6691 27.9001 38.8591 27.7701C39.3091 27.4301 39.4091 26.8001 39.0691 26.3401L34.8191 20.6101C34.4791 20.1601 33.8491 20.0601 33.3891 20.4001C32.9391 20.7401 32.8391 21.3701 33.1791 21.8301L37.4291 27.5601Z" fill="black"/>
<path d="M25.6609 43.1401L18.9209 40.8101C18.3909 40.6301 17.8109 40.9101 17.6209 41.4401C17.4409 41.9701 17.7209 42.5501 18.2509 42.7401L24.9909 45.0701C25.1009 45.1101 25.2109 45.1301 25.3209 45.1301C25.7409 45.1301 26.1409 44.8701 26.2809 44.4401C26.4609 43.9101 26.1809 43.3301 25.6509 43.1401H25.6609Z" fill="black"/>
<path d="M100.98 63.6201H93.8501C93.2901 63.6201 92.8301 64.0801 92.8301 64.6401C92.8301 65.2001 93.2901 65.6601 93.8501 65.6601H100.98C101.54 65.6601 102 65.2001 102 64.6401C102 64.0801 101.54 63.6201 100.98 63.6201Z" fill="black"/>
<path d="M77.1509 27.7701C77.3309 27.9101 77.5509 27.9701 77.7609 27.9701C78.0709 27.9701 78.3809 27.8301 78.5809 27.5601L82.8309 21.8301C83.1709 21.3801 83.0709 20.7401 82.6209 20.4001C82.1709 20.0601 81.5309 20.1601 81.1909 20.6101L76.9409 26.3401C76.6009 26.7901 76.7009 27.4301 77.1509 27.7701Z" fill="black"/>
<path d="M98.3808 41.4301C98.2008 40.9001 97.6208 40.6201 97.0808 40.8001L90.3408 43.1301C89.8108 43.3101 89.5308 43.8901 89.7108 44.4301C89.8608 44.8501 90.2508 45.1201 90.6708 45.1201C90.7808 45.1201 90.8908 45.1001 91.0008 45.0601L97.7408 42.7301C98.2708 42.5501 98.5508 41.9701 98.3708 41.4301H98.3808Z" fill="black"/>
</svg>
