<svg width="150" height="138" viewBox="0 0 150 138" fill="none" xmlns="http://www.w3.org/2000/svg">
<path d="M146.447 70.3437L122.228 56.6706C113.064 51.5024 102.95 48.2375 92.494 47.0713C97.0942 44.0851 100.614 39.7004 102.534 34.5633C104.454 29.4261 104.674 23.808 103.161 18.5365C101.648 13.265 98.4819 8.61875 94.1292 5.28224C89.7764 1.94573 84.4673 0.0953244 78.9836 0.0035837C73.5 -0.088157 68.1319 1.58362 63.67 4.77266C59.2081 7.9617 55.8883 12.4994 54.1997 17.7174C52.5111 22.9353 52.5428 28.5576 54.2903 33.7562C56.0378 38.9547 59.4087 43.4546 63.9063 46.593H60.0971C56.4452 46.5942 52.7979 46.8504 49.1817 47.3596L27.7714 50.3886L33.4598 28.9478C33.511 28.7605 33.6298 28.5988 33.7934 28.4942C33.957 28.3895 34.1536 28.3493 34.3451 28.3814L35.1863 28.5238C37.4261 28.9154 39.7314 28.4562 41.6502 27.2364C43.569 26.0166 44.9631 24.124 45.5591 21.9298L46.3867 18.9109C47.0213 16.5858 46.7137 14.1043 45.5308 12.0045C44.3478 9.90463 42.3848 8.35572 40.0674 7.69362L29.8914 4.7799C28.0512 4.2511 26.0869 4.35243 24.3108 5.06778C22.5347 5.78314 21.0486 7.0715 20.0886 8.72818C15.7163 16.2516 5.33002 40.5654 0.194548 62.2301C-0.165295 63.7143 -0.0232834 65.2758 0.598388 66.6708C1.22006 68.0657 2.28636 69.2154 3.63064 69.9401C10.4418 73.5763 17.5649 75.313 47.8453 78.7593V134.608C47.8333 134.919 47.8843 135.23 47.9951 135.521C48.1059 135.811 48.2743 136.077 48.4901 136.301C48.7059 136.525 48.9648 136.704 49.2512 136.826C49.5376 136.948 49.8456 137.01 50.1569 137.01C50.4681 137.01 50.7762 136.948 51.0626 136.826C51.349 136.704 51.6079 136.525 51.8237 136.301C52.0395 136.077 52.2079 135.811 52.3187 135.521C52.4295 135.23 52.4805 134.919 52.4685 134.608V76.6834C52.4695 76.1141 52.2602 75.5645 51.8809 75.1401C51.5015 74.7157 50.9788 74.4463 50.413 74.3836C17.5785 70.6999 11.6052 68.9598 5.80829 65.8595C5.36597 65.6155 5.01691 65.2319 4.81563 64.7686C4.61435 64.3053 4.57219 63.7884 4.69572 63.2986C9.72944 42.0749 19.841 18.3614 24.0911 11.0619C24.5358 10.296 25.2235 9.70056 26.045 9.36996C26.8666 9.03937 27.775 8.99257 28.6262 9.23698L38.8124 12.1575C39.9553 12.4887 40.9224 13.2555 41.5054 14.2928C42.0884 15.3301 42.2408 16.5549 41.9296 17.7034L41.085 20.7087C40.7906 21.7935 40.1012 22.729 39.1522 23.3315C38.2033 23.9341 37.0633 24.16 35.9563 23.965L35.1117 23.8225C33.783 23.5892 32.4151 23.8648 31.2805 24.5946C30.1459 25.3244 29.3278 26.4548 28.9892 27.7606L22.4087 52.5731C22.3101 52.9419 22.3045 53.3295 22.3924 53.7011C22.4803 54.0727 22.6589 54.4167 22.9123 54.7023C23.1657 54.9879 23.4859 55.2063 23.8444 55.3379C24.2028 55.4695 24.5883 55.5101 24.9663 55.4563L49.8262 51.9388C53.2289 51.4597 56.6609 51.2183 60.0971 51.2163H83.892C96.5283 51.2234 108.949 54.4888 119.956 60.6969L144.174 74.37C144.638 74.6319 144.999 75.0417 145.202 75.5338C145.404 76.0259 145.435 76.5717 145.29 77.0836C142.482 86.7372 135.016 110.434 126.397 121.858C125.888 122.541 125.173 123.041 124.357 123.286C123.542 123.53 122.669 123.505 121.869 123.215L111.54 119.507C111.16 119.369 110.811 119.156 110.514 118.881C110.216 118.607 109.977 118.276 109.809 117.908C109.64 117.54 109.547 117.142 109.534 116.738C109.521 116.333 109.588 115.93 109.732 115.552L112.904 107.337C113.156 106.691 113.621 106.151 114.221 105.804C114.822 105.458 115.522 105.326 116.207 105.43L121.682 106.285C122.219 106.37 122.768 106.262 123.233 105.982C123.698 105.701 124.05 105.266 124.226 104.752L131.529 83.447C131.636 83.1366 131.675 82.8071 131.644 82.4803C131.614 82.1536 131.514 81.8371 131.351 81.5519C131.189 81.2667 130.968 81.0193 130.703 80.8261C130.437 80.6329 130.134 80.4984 129.813 80.4315L107.351 75.7675C107.015 75.6983 106.669 75.7043 106.336 75.7852C106.003 75.866 105.692 76.0197 105.426 76.2351C105.16 76.4505 104.944 76.7223 104.796 77.0309C104.647 77.3395 104.569 77.6773 104.566 78.0198L104.264 134.585C104.262 134.888 104.321 135.19 104.435 135.471C104.55 135.752 104.719 136.008 104.932 136.224C105.146 136.441 105.4 136.612 105.68 136.73C105.96 136.848 106.26 136.91 106.564 136.912C107.176 136.912 107.763 136.669 108.196 136.238C108.63 135.806 108.875 135.22 108.877 134.608L108.938 123.415C109.267 123.59 109.607 123.742 109.956 123.869L120.285 127.577C122.012 128.206 123.896 128.262 125.658 127.737C127.419 127.212 128.965 126.135 130.067 124.663C139.147 112.632 146.83 88.3043 149.71 78.4031C150.161 76.8888 150.084 75.2661 149.491 73.8016C148.898 72.337 147.825 71.1176 146.447 70.3437ZM57.5769 25.6237C57.5762 21.4754 58.8058 17.4201 61.11 13.9706C63.4143 10.5212 66.6897 7.8325 70.5221 6.24471C74.3545 4.65692 78.5717 4.2413 82.6403 5.05043C86.7089 5.85956 90.4462 7.85708 93.3795 10.7904C96.3128 13.7237 98.3103 17.4609 99.1194 21.5296C99.9286 25.5982 99.5129 29.8154 97.9252 33.6478C96.3374 37.4802 93.6487 40.7556 90.1992 43.0599C86.7498 45.3641 82.6945 46.5937 78.5462 46.593C72.9879 46.5849 67.6596 44.3728 63.73 40.4419C59.8003 36.5109 57.5899 31.182 57.5837 25.6237H57.5769ZM109.169 80.8623L126.305 84.4069L120.478 101.397L116.92 100.841C115.374 100.61 113.795 100.853 112.391 101.537C110.986 102.221 109.821 103.315 109.05 104.674L109.169 80.8623Z" fill="black"/>
</svg>
