<svg width="81" height="62" viewBox="0 0 81 62" fill="none" xmlns="http://www.w3.org/2000/svg">
<path d="M29.0432 0.00292969C13.3512 0.00292969 0.606934 13.6935 0.606934 30.5508C0.606934 47.4079 13.3512 61.0986 29.0432 61.0986C41.9587 61.0986 52.8938 51.8318 56.3515 39.1423L54.2324 38.4815C51.0427 50.1873 40.9857 58.7488 29.0432 58.7488C14.5334 58.7488 2.79434 46.1379 2.79434 30.5508C2.79434 14.9635 14.5334 2.35276 29.0432 2.35276C43.1808 2.35276 54.6774 14.3428 55.2578 29.3759H46.474C45.9025 19.5586 38.3234 11.7521 29.0432 11.7521C19.3916 11.7521 11.5439 20.1824 11.5439 30.5508C11.5439 40.9191 19.3916 49.3494 29.0432 49.3494C38.3234 49.3494 45.9025 41.542 46.474 31.7257H55.9072L63.2555 39.6197L63.5973 39.9501H64.0416H78.2597H80.8914L79.0458 37.9307L72.176 30.5508L79.0458 23.1708L80.8914 21.1514H78.2597H64.0416H63.5973L63.2555 21.4819L57.3427 27.8338C56.0618 12.2459 43.8827 0.00292969 29.0432 0.00292969ZM29.0432 14.1019C37.1446 14.1019 43.7619 20.8278 44.3208 29.3759H35.5028C34.9838 26.0448 32.286 23.5013 29.0432 23.5013C25.4319 23.5013 22.4809 26.6713 22.4809 30.5508C22.4809 34.4301 25.4319 37.6003 29.0432 37.6003C32.286 37.6003 34.9838 35.0559 35.5028 31.7257H44.3208C43.7619 40.2726 37.1446 46.9996 29.0432 46.9996C20.5737 46.9996 13.7313 39.6491 13.7313 30.5508C13.7313 21.4524 20.5737 14.1019 29.0432 14.1019ZM64.5201 23.5013H70.1253L64.6568 29.3759H59.0516L64.5201 23.5013ZM73.2355 23.5013H75.5938L70.1253 29.3759H67.8012L73.2355 23.5013ZM29.0432 25.8511C31.4722 25.8511 33.418 27.9413 33.418 30.5508C33.418 33.1603 31.4722 35.2504 29.0432 35.2504C26.6141 35.2504 24.6684 33.1603 24.6684 30.5508C24.6684 27.9413 26.6141 25.8511 29.0432 25.8511ZM59.0516 31.7257H64.691L70.1595 37.6003H64.5201L59.0516 31.7257ZM67.8012 31.7257H70.1253L75.5938 37.6003H73.2697L67.8012 31.7257Z" fill="black"/>
</svg>
