<svg width="150" height="76" viewBox="0 0 150 76" fill="none" xmlns="http://www.w3.org/2000/svg">
<g clip-path="url(#clip0_417_483)">
<path d="M19.7276 50.6606C25.2723 50.6606 29.7664 46.4583 30.35 41.0888H32.743C33.385 41.0888 33.9103 40.5635 33.9103 39.9215C33.9103 39.2795 33.385 38.7542 32.743 38.7542H30.35C29.7664 33.443 25.2139 29.2991 19.7276 29.2991C13.8328 29.2991 9.04688 34.085 9.04688 39.9798C9.04687 45.8747 13.8328 50.6606 19.7276 50.6606ZM19.786 33.0344C23.5797 33.0344 26.7314 36.1278 26.7314 39.9798C26.7314 43.8319 23.6381 46.9252 19.786 46.9252C15.9339 46.9252 12.8406 43.8319 12.8406 39.9798C12.8406 36.1278 15.9339 33.0344 19.786 33.0344Z" fill="black"/>
<path d="M56.5548 50.6606C62.4496 50.6606 67.2355 45.8747 67.2355 39.9798C67.2355 34.085 62.4496 29.2991 56.5548 29.2991C50.6599 29.2991 45.874 34.085 45.874 39.9798C45.874 45.8747 50.6599 50.6606 56.5548 50.6606Z" fill="black"/>
<path d="M82.8195 38.7542H80.5433C79.9013 38.7542 79.376 39.2795 79.376 39.9215C79.376 40.5635 79.9013 41.0888 80.5433 41.0888H82.8195C83.4032 46.4583 87.8972 50.6606 93.4419 50.6606C99.3367 50.6606 104.123 45.8747 104.123 39.9798C104.123 34.085 99.3367 29.2991 93.4419 29.2991C87.9556 29.2991 83.4615 33.443 82.8195 38.7542ZM93.5003 33.0344C97.3523 33.0344 100.446 36.1278 100.446 39.9798C100.446 43.8319 97.3523 46.9252 93.5003 46.9252C89.6482 46.9252 86.5548 43.8319 86.5548 39.9798C86.5548 36.1278 89.6482 33.0344 93.5003 33.0344Z" fill="black"/>
<path d="M130.271 50.6606C136.165 50.6606 140.951 45.8747 140.951 39.9798C140.951 34.085 136.165 29.2991 130.271 29.2991C124.376 29.2991 119.59 34.085 119.59 39.9798C119.59 45.8747 124.376 50.6606 130.271 50.6606ZM130.329 33.0344C134.181 33.0344 137.274 36.1278 137.274 39.9798C137.274 43.8319 134.181 46.9252 130.329 46.9252C126.477 46.9252 123.384 43.8319 123.384 39.9798C123.384 36.1278 126.477 33.0344 130.329 33.0344Z" fill="black"/>
<path d="M130.037 53.6372C121.807 53.6372 114.804 58.5398 111.593 65.602C108.442 58.5982 101.38 53.6372 93.1502 53.6372C85.0375 53.6372 78.0921 58.4231 74.9404 65.2518C71.7303 58.4231 64.7266 53.6372 56.6722 53.6372C48.6179 53.6372 41.5557 58.4231 38.404 65.3102C35.2523 58.4231 28.1902 53.6372 20.1359 53.6372C8.98818 53.6372 0 62.6837 0 73.7731C0 74.8236 0.817107 75.6407 1.86767 75.6407C2.91824 75.6407 3.73535 74.8236 3.73535 73.7731C3.73535 64.6682 11.0893 57.3725 20.1359 57.3725C29.1824 57.3725 36.5364 64.7265 36.5364 73.7731C36.5364 74.8236 37.3535 75.6407 38.404 75.6407C39.4546 75.6407 40.2717 74.8236 40.2717 73.7731C40.2717 64.6682 47.6257 57.3725 56.6722 57.3725C65.3686 57.3725 72.5474 64.2012 73.0144 72.7225C73.0144 73.0143 73.0144 73.4229 73.0144 73.7731C73.0144 74.8236 73.8315 75.6407 74.882 75.6407C75.9326 75.6407 76.7497 74.8236 76.7497 73.7731C76.7497 73.4229 76.7497 73.0727 76.7497 72.7225C77.3333 64.1429 84.3955 57.3725 93.0918 57.3725C102.197 57.3725 109.492 64.7265 109.492 73.7731C109.492 74.8236 110.309 75.6407 111.36 75.6407C111.418 75.6407 111.418 75.6407 111.477 75.6407C111.535 75.6407 111.535 75.6407 111.593 75.6407C112.644 75.6407 113.461 74.8236 113.461 73.7731C113.461 64.6682 120.815 57.3725 129.862 57.3725C138.908 57.3725 146.262 64.7265 146.262 73.7731C146.262 74.8236 147.079 75.6407 148.13 75.6407C149.18 75.6407 149.998 74.8236 149.998 73.7731C150.173 62.6254 141.126 53.6372 130.037 53.6372Z" fill="black"/>
<path d="M56.9642 16.0503C57.6062 16.0503 58.1315 15.525 58.1315 14.883L58.3649 1.1673C58.3649 0.525283 57.8396 0 57.1976 0C56.5556 0 56.0303 0.525283 56.0303 1.1673L55.7969 14.883C55.7969 15.525 56.3222 16.0503 56.9642 16.0503Z" fill="black"/>
<path d="M43.3066 18.6182C43.5401 19.0268 43.8903 19.2019 44.2988 19.2019C44.4739 19.2019 44.7074 19.1435 44.8825 19.0268C45.4661 18.735 45.6412 17.9762 45.3494 17.4509L38.6374 5.54451C38.3456 4.96086 37.5869 4.78577 37.0616 5.07759C36.478 5.36942 36.3029 6.12816 36.5947 6.65344L43.3066 18.6182Z" fill="black"/>
<path d="M22.6458 21.1282L34.3772 28.132C34.5523 28.2487 34.7857 28.3071 34.9608 28.3071C35.3694 28.3071 35.7196 28.132 35.953 27.7234C36.3032 27.1981 36.1281 26.4394 35.5445 26.1476L23.8131 19.1438C23.2879 18.7936 22.5291 18.9687 22.2373 19.5523C21.8871 20.0776 22.0622 20.8364 22.6458 21.1282Z" fill="black"/>
<path d="M68.9876 19.4355C69.1627 19.5522 69.3962 19.6106 69.5713 19.6106C69.9798 19.6106 70.33 19.4355 70.5635 19.0269L77.5673 7.23722C77.9175 6.71194 77.7424 5.95319 77.1587 5.66137C76.5751 5.31118 75.8747 5.48627 75.5829 6.06992L68.5791 17.8596C68.2289 18.3849 68.404 19.1436 68.9876 19.4355Z" fill="black"/>
<path d="M77.6841 28.3654C77.9175 28.7739 78.2677 28.949 78.6763 28.949C78.8514 28.949 79.0848 28.8906 79.2599 28.7739L91.1663 22.1203C91.75 21.8285 91.9251 21.0698 91.6332 20.5445C91.3414 20.0192 90.5827 19.7857 90.0574 20.0776L78.151 26.7312C77.5673 27.0813 77.3339 27.7817 77.6841 28.3654Z" fill="black"/>
<path d="M34.0264 51.4194L30.2911 53.5206C29.7074 53.8124 29.5324 54.5711 29.8242 55.0964C30.0576 55.505 30.4078 55.6801 30.8164 55.6801C30.9915 55.6801 31.2249 55.6217 31.4 55.505L35.1354 53.4038C35.719 53.112 35.8941 52.3533 35.6023 51.828C35.3105 51.3027 34.6101 51.0693 34.0264 51.4194Z" fill="black"/>
<path d="M78.9086 52.0613C78.3833 51.7111 77.6246 51.8862 77.2744 52.4698C76.9242 52.9951 77.0993 53.7538 77.683 54.104L81.0097 56.1468C81.1848 56.2635 81.4183 56.3219 81.5934 56.3219C82.0019 56.3219 82.3521 56.1468 82.5856 55.7382C82.9358 55.213 82.7607 54.4542 82.177 54.104L78.9086 52.0613Z" fill="black"/>
</g>
<defs>
<clipPath id="clip0_417_483">
<rect width="150" height="76" fill="white"/>
</clipPath>
</defs>
</svg>
