<svg width="16" height="29" viewBox="0 0 16 29" fill="none" xmlns="http://www.w3.org/2000/svg">
<path d="M7.96997 5C9.35068 5 10.47 3.88071 10.47 2.5C10.47 1.11929 9.35068 0 7.96997 0C6.58926 0 5.46997 1.11929 5.46997 2.5C5.46997 3.88071 6.58926 5 7.96997 5Z" fill="white"/>
<path d="M14.89 11.64C15.0213 11.6538 15.1541 11.6416 15.2807 11.6041C15.4073 11.5666 15.5253 11.5045 15.6279 11.4214C15.7305 11.3383 15.8157 11.2358 15.8787 11.1197C15.9417 11.0037 15.9812 10.8763 15.995 10.745C16.0088 10.6137 15.9966 10.4809 15.9591 10.3543C15.9216 10.2277 15.8595 10.1098 15.7764 10.0072C15.6933 9.90454 15.5908 9.81931 15.4747 9.75631C15.3587 9.69332 15.2313 9.6538 15.1 9.64001C12.8925 9.53269 10.8176 8.55456 9.33001 6.92001C9.17073 6.72355 8.96715 6.56764 8.73596 6.46509C8.50477 6.36253 8.25256 6.31624 8.00001 6.33001C7.86458 6.33656 7.73189 6.37058 7.61001 6.43001H7.51001C3.60001 8.08001 0.260013 14.23 0.120013 14.49C0.0576347 14.6056 0.0186295 14.7323 0.00522394 14.8629C-0.00818157 14.9936 0.00427515 15.1256 0.0418829 15.2514C0.0794906 15.3772 0.141513 15.4944 0.224408 15.5963C0.307304 15.6981 0.409449 15.7826 0.525013 15.845C0.758403 15.971 1.03228 15.9991 1.28639 15.9231C1.5405 15.8472 1.75403 15.6734 1.88001 15.44C3.18205 13.0006 4.91695 10.8184 7.00001 9.00001C6.90001 12.47 6.15001 20.69 1.42001 26.67C1.25027 26.8795 1.17072 27.1479 1.19885 27.4161C1.22698 27.6843 1.36049 27.9303 1.57001 28.1C1.77953 28.2698 2.0479 28.3493 2.31608 28.3212C2.58426 28.293 2.83027 28.1595 3.00001 27.95C5.44696 24.7093 7.15369 20.9716 8.00001 17C9.33001 18.19 11.81 21.12 13.15 27.13C13.2008 27.3556 13.3282 27.5566 13.5105 27.6988C13.6929 27.841 13.9189 27.9157 14.15 27.91H14.37C14.6284 27.8526 14.8535 27.6951 14.9959 27.4721C15.1384 27.249 15.1866 26.9786 15.13 26.72C13.35 18.72 9.67001 15.64 8.47001 14.82C8.7714 13.0109 8.94849 11.1833 9.00001 9.35001C10.7008 10.6664 12.7467 11.4618 14.89 11.64Z" fill="white"/>
</svg>
